G04 ================== begin FILE IDENTIFICATION RECORD ==================*
G04 Layout Name:  CM4_SATAX4_Substrate_V11-20210307.brd*
G04 Film Name:    BOTTOM*
G04 File Format:  Gerber RS274X*
G04 File Origin:  Cadence Allegro 16.6-2015-S066*
G04 Origin Date:  Sun Mar 07 16:05:33 2021*
G04 *
G04 Layer:  ETCH/BOTTOM*
G04 Layer:  PIN/BOTTOM*
G04 Layer:  VIA CLASS/BOTTOM*
G04 Layer:  BOARD GEOMETRY/OUTLINE*
G04 *
G04 Offset:    (0.000 0.000)*
G04 Mirror:    No*
G04 Mode:      Positive*
G04 Rotation:  0*
G04 FullContactRelief:  No*
G04 UndefLineWidth:     6.000*
G04 ================== end FILE IDENTIFICATION RECORD ====================*
%FSLAX55Y55*MOIN*%
%IR0*IPPOS*OFA0.00000B0.00000*MIA0B0*SFA1.00000B1.00000*%
%ADD49O,.064169X.094488*%
%ADD39O,.008X.04*%
%ADD38O,.04X.008*%
%ADD11C,.12*%
%ADD35R,.044X.146*%
%ADD40R,.2X.2*%
%ADD52C,.005*%
%ADD58R,.134X.098*%
%ADD19C,.131894*%
%ADD47O,.070866X.122047*%
%ADD16C,.001969*%
%ADD30C,.137795*%
%ADD31R,.027559X.00787*%
%ADD56R,.032X.03*%
%ADD36R,.03X.032*%
%ADD25R,.07X.04*%
%ADD44R,.02X.019*%
%ADD34R,.06X.024*%
%ADD32R,.044X.032*%
%ADD45R,.037X.05*%
%ADD12C,.02*%
%ADD43C,.03*%
%ADD37R,.05X.039*%
%ADD23R,.065X.051*%
%ADD55R,.039X.05*%
%ADD33R,.015X.047*%
%ADD10C,.04*%
%ADD61C,.071*%
%ADD57R,.095X.08*%
%ADD48R,.048X.055*%
%ADD29C,.053*%
%ADD26R,.02X.02*%
%ADD24R,.08X.095*%
%ADD28R,.053X.053*%
%ADD20C,.055433*%
%ADD15C,.055118*%
%ADD21C,.05937*%
%ADD17O,.066142X.099213*%
%ADD27C,.019685*%
%ADD60R,.059252X.031575*%
%ADD50C,.027949*%
%ADD22R,.05937X.05937*%
%ADD18O,.096457X.09252*%
%ADD54C,.062988*%
%ADD14R,.05984X.05984*%
%ADD59R,.102874X.137874*%
%ADD13C,.059839*%
%ADD51O,.094488X.047244*%
%ADD46O,.070866X.098425*%
%ADD53C,.087988*%
%ADD62C,.004*%
%ADD63C,.006*%
%ADD64C,.008*%
%ADD65C,.01*%
%ADD66C,.012*%
%ADD67C,.015*%
%ADD73R,.069374X.069374*%
%ADD70R,.069844X.069844*%
%ADD68O,.030004X.350004*%
%ADD82C,.1478*%
%ADD72C,.141898*%
%ADD80C,.151997*%
%ADD77C,.030004*%
%ADD85C,.070011*%
%ADD86C,.070004*%
%ADD87C,.081004*%
%ADD84C,.063004*%
%ADD71C,.065122*%
%ADD76C,.051438*%
%ADD78C,.063248*%
%ADD79C,.082934*%
%ADD75C,.065438*%
%ADD81C,.067186*%
%ADD83C,.072992*%
%ADD74C,.069374*%
%ADD69C,.069844*%
G75*
%LPD*%
G75*
G36*
G01X227037Y56050D02*
X244950D01*
X249000Y52000D01*
X305500D01*
X308000Y49500D01*
Y30500D01*
X315500Y23000D01*
X343500D01*
X350000Y16500D01*
X350044D01*
X350144Y16400D01*
X356056D01*
X356156Y16500D01*
X360177D01*
G03X388215Y19517I13838J3185D01*
G01X388216Y19598D01*
Y19772D01*
X388215Y19851D01*
G03X388200Y20352I-14199J-165D01*
G01X388200Y20357D01*
Y28100D01*
X369300Y47000D01*
X357900D01*
X356500Y48400D01*
Y55000D01*
X360998Y59498D01*
X361075Y59502D01*
G03X362498Y60925I-75J1498D01*
G01X362502Y61002D01*
X363500Y62000D01*
X371500D01*
X373500Y60000D01*
X388500D01*
X391500Y57000D01*
Y10400D01*
X383400Y2300D01*
X13500D01*
X3500Y12300D01*
Y12400D01*
X2300Y13600D01*
Y318870D01*
G02X2978Y319157I400J0D01*
G03Y323843I2268J2343D01*
G02X2300Y324130I-278J287D01*
G01Y369100D01*
X2400Y369200D01*
Y384400D01*
X9200Y391200D01*
X157800D01*
X159500Y389500D01*
Y381000D01*
X158500Y380000D01*
X142500D01*
X141600Y380900D01*
X138200D01*
X138000Y381100D01*
X132500D01*
X124300Y389300D01*
X109500D01*
X107500Y387300D01*
Y381000D01*
X109400Y379100D01*
X112900D01*
X113500Y378500D01*
Y362500D01*
X116000Y360000D01*
Y356600D01*
X117300Y355300D01*
X124800D01*
X125268Y355768D01*
X125530D01*
Y356030D01*
X126000Y356500D01*
Y361000D01*
X128500Y363500D01*
X132200D01*
X132250Y363450D01*
X156000D01*
X157000Y362450D01*
Y359121D01*
X155000Y357121D01*
Y352621D01*
X153628Y351250D01*
X137250D01*
X137150Y351350D01*
X136772D01*
X136022Y352100D01*
X128218D01*
X127418Y351300D01*
X108800D01*
X108500Y351000D01*
X91500D01*
X86950Y346450D01*
X62050D01*
X58050Y342450D01*
Y334000D01*
X63275Y328775D01*
X67725D01*
X74500Y322000D01*
Y298100D01*
X87537Y285063D01*
G03X87537Y285008I6000J-49D01*
G01Y150337D01*
X86800Y149600D01*
X80300D01*
X79500Y150400D01*
Y178300D01*
X77500Y180300D01*
X52200D01*
X48000Y176100D01*
Y125000D01*
X66500Y106500D01*
X107100D01*
X127100Y86500D01*
X166000D01*
X167500Y85000D01*
Y71500D01*
X164000Y68000D01*
X143800D01*
X138700Y62900D01*
Y44400D01*
X144000Y39100D01*
X174000D01*
X180000Y45100D01*
Y61400D01*
X182200Y63600D01*
X188000D01*
X195550Y56050D01*
X221839D01*
G03X221939Y55939I1161J950D01*
G01X229999Y47880D01*
Y47501D01*
G03X232999I1500J0D01*
G01Y49123D01*
X226754Y55367D01*
G02X227037Y56050I283J283D01*
G37*
G36*
G01X250000Y56000D02*
X245500Y60500D01*
X235003D01*
G02X234623Y61026I0J400D01*
G03X231777I-1423J474D01*
G02X231397Y60500I-380J-126D01*
G01X228500D01*
X228000Y61000D01*
X227122D01*
X227121Y61000D01*
X216379D01*
X216378Y61000D01*
X203803D01*
G02X203423Y61526I0J400D01*
G03X200577I-1423J474D01*
G02X200197Y61000I-380J-126D01*
G01X198622D01*
X189121Y70500D01*
X189000D01*
X188500Y71000D01*
X176000D01*
X172025Y74975D01*
Y86500D01*
G03X170176Y87959I-1500J0D01*
G01X170067Y87933D01*
X169500Y88500D01*
X154303D01*
G02X153923Y89026I0J400D01*
G03X151077I-1423J474D01*
G02X150697Y88500I-380J-126D01*
G01X149803D01*
G02X149423Y89026I0J400D01*
G03X146577I-1423J474D01*
G02X146197Y88500I-380J-126D01*
G01X127000D01*
X106500Y109000D01*
X68000D01*
X51000Y126000D01*
Y176000D01*
X53500Y178500D01*
X76500D01*
X77000Y178000D01*
Y162782D01*
G02X76337Y162481I-400J0D01*
G03Y160220I-987J-1130D01*
G02X77000Y159919I263J-301D01*
G01Y159049D01*
G02X76368Y158723I-400J0D01*
G03Y156277I-868J-1223D01*
G02X77000Y155951I232J-326D01*
G01Y152900D01*
G02X76368Y152574I-400J0D01*
G03Y150127I-868J-1223D01*
G02X77000Y149801I232J-326D01*
G01Y147100D01*
X78244Y145856D01*
X78198Y145734D01*
G03X80135Y143798I1402J-535D01*
G01X80256Y143844D01*
X80758Y143342D01*
G03X80525Y142224I1242J-842D01*
G02X80041Y141761I-393J-74D01*
G03X80059Y138844I-341J-1461D01*
G02X80544Y138359I96J-388D01*
G03X83464Y138328I1456J-359D01*
G02X83906Y138812I390J87D01*
G03X85000Y139100I194J1488D01*
G01X88800Y135300D01*
X128102D01*
G02X128502Y134921I0J-400D01*
G03X131498I1498J79D01*
G02X131898Y135300I399J-21D01*
G01X136900D01*
X137500Y134700D01*
X138300D01*
G02X138500Y134500I0J-200D01*
G03X141500I1500J0D01*
G02X141700Y134700I200J0D01*
G01X148200D01*
X148250Y134650D01*
X150550D01*
X171590Y113610D01*
G03X173038Y111138I1110J-1010D01*
G01X173146Y111163D01*
X174410Y109900D01*
X175300D01*
X175350Y109850D01*
X214854D01*
G02X215201Y109250I0J-400D01*
G03X217799I1299J-750D01*
G02X218146Y109850I346J200D01*
G01X219354D01*
G02X219701Y109250I0J-400D01*
G03X222299I1299J-750D01*
G02X222646Y109850I346J200D01*
G01X223354D01*
G02X223701Y109250I0J-400D01*
G03X226299I1299J-750D01*
G02X226646Y109850I346J200D01*
G01X227854D01*
G02X228201Y109250I0J-400D01*
G03X229982Y107079I1299J-750D01*
G02X230508Y106658I129J-379D01*
G03X233423Y106974I1492J-158D01*
G02X233803Y107500I380J126D01*
G01X236451D01*
G02X236777Y106868I0J-400D01*
G03X239223I1223J-868D01*
G02X239549Y107500I326J232D01*
G01X243951D01*
G02X244277Y106868I0J-400D01*
G03X246723I1223J-868D01*
G02X247049Y107500I326J232D01*
G01X248489D01*
X248510Y107324D01*
G03X251490I1490J177D01*
G01X251511Y107500D01*
X251700D01*
X255800Y111600D01*
X273300D01*
X281000Y103900D01*
X293494D01*
X293523Y103735D01*
G03X296477I1477J265D01*
G01X296506Y103900D01*
X304900D01*
X319000Y118000D01*
Y120880D01*
G03Y122920I-1100J1020D01*
G01Y123000D01*
X325000Y129000D01*
Y150000D01*
X326000Y151000D01*
Y152080D01*
X326118Y152133D01*
G03Y154867I-618J1367D01*
G01X326000Y154920D01*
Y156080D01*
X326118Y156133D01*
G03Y158867I-618J1367D01*
G01X326000Y158920D01*
Y159885D01*
X326135Y159931D01*
G03Y162770I-486J1419D01*
G01X326000Y162816D01*
Y164989D01*
X326176Y165010D01*
G03Y167990I-176J1490D01*
G01X326000Y168011D01*
Y169500D01*
X334500Y178000D01*
X361500D01*
X362100Y177400D01*
Y169100D01*
X362000Y169000D01*
X352500D01*
X348000Y164500D01*
Y143622D01*
X346500Y142121D01*
Y133879D01*
X346700Y133678D01*
Y130869D01*
G03Y128331I800J-1269D01*
G01Y122500D01*
X345150Y120950D01*
Y106850D01*
X352000Y100000D01*
X360000D01*
X368500Y91500D01*
X384500D01*
X386500Y89500D01*
Y65500D01*
X384500Y63500D01*
X365000D01*
X364750Y63750D01*
X354750D01*
X354500Y63500D01*
X353462D01*
G02X353120Y64107I0J400D01*
G03X346880I-3120J1893D01*
G02X346538Y63500I-342J-207D01*
G01X346000D01*
X338500Y56000D01*
X265216D01*
G02X264876Y56611I0J400D01*
G03X262324I-1276J789D01*
G02X261984Y56000I-340J-211D01*
G01X250000D01*
G37*
G36*
G01X92784Y339316D02*
X92684Y339178D01*
G03X94238Y336838I1216J-878D01*
G01X94346Y336863D01*
X96500Y334710D01*
Y315200D01*
X104400Y307300D01*
X106400D01*
X121350Y292350D01*
Y285360D01*
X122500Y284210D01*
Y252590D01*
X119200Y249290D01*
Y239610D01*
X119200Y239600D01*
X122137Y236663D01*
Y236508D01*
X122292D01*
X122600Y236200D01*
X125200D01*
X125400Y236000D01*
Y235400D01*
X122600D01*
Y234700D01*
X125400D01*
Y233850D01*
X122650D01*
Y233150D01*
X125400D01*
Y232250D01*
X122650D01*
Y231550D01*
X125400D01*
Y230650D01*
X122650D01*
Y229950D01*
X125400D01*
Y229150D01*
X122650D01*
Y228450D01*
X125400D01*
Y227900D01*
X125200Y227700D01*
X109300D01*
X106300Y230700D01*
Y287400D01*
X102800Y290900D01*
X101297D01*
X101279Y290904D01*
G03X100163Y291008I-1115J-5896D01*
G01X93537D01*
G03X92422Y290904I0J-6000D01*
G01X92404Y290900D01*
X84600D01*
X76000Y299500D01*
Y323500D01*
X68500Y331000D01*
X64200D01*
X60200Y335000D01*
Y342300D01*
X62100Y344200D01*
X87900D01*
X92784Y339316D01*
G37*
G36*
G01X156985Y50500D02*
G03X152434Y47527I-1405J-2820D01*
G01X152438Y47438D01*
X148500Y43500D01*
X142500D01*
X140900Y45100D01*
Y61200D01*
X144700Y65000D01*
X175000D01*
X178000Y62000D01*
Y53000D01*
X175500Y50500D01*
X174705D01*
X174664Y50520D01*
G03X171895Y50500I-1364J-2839D01*
G01X164865D01*
G03X162056I-1405J-2820D01*
G01X156985D01*
G37*
G36*
G01X138200Y225200D02*
X139100Y226100D01*
X141000D01*
X143500Y223600D01*
Y196500D01*
X147000Y193000D01*
X167600D01*
X171700Y197100D01*
Y244800D01*
X176500Y249600D01*
X183300D01*
X187100Y245800D01*
Y171300D01*
X185500Y169700D01*
X148700D01*
X143700Y174700D01*
Y186900D01*
X138200Y192400D01*
Y225200D01*
G37*
G36*
G01X148000Y195500D02*
X145000Y198500D01*
Y289378D01*
X146161Y290539D01*
G03X144076Y292697I-1061J1061D01*
G01X143935Y292565D01*
X138850Y297650D01*
X135734D01*
X135687Y297679D01*
G03X128045Y297650I-3797J-6340D01*
G01X123350D01*
X114000Y307000D01*
Y311500D01*
X116000Y313500D01*
X116400D01*
X118300Y315400D01*
X120000D01*
G03X121020Y315800I0J1500D01*
G01X145600D01*
X153800Y307600D01*
X165900D01*
X171000Y302500D01*
X180977D01*
G03X181023I23J1500D01*
G01X183000D01*
X183200Y302300D01*
X193200D01*
X196000Y299500D01*
Y292500D01*
X195000Y291500D01*
X191500D01*
X185000Y285000D01*
Y264000D01*
X170000Y249000D01*
Y198000D01*
X167500Y195500D01*
X148000D01*
G37*
G36*
G01X129275Y230500D02*
X128600Y231175D01*
Y235950D01*
X129200Y236550D01*
X131850D01*
X133700Y234700D01*
X137600D01*
X137900Y234400D01*
Y233850D01*
X134650D01*
Y233150D01*
X137900D01*
Y232600D01*
X137600Y232300D01*
X134900D01*
X134800Y232200D01*
X132000D01*
X130300Y230500D01*
X129275D01*
G37*
G36*
G01X139100Y232600D02*
X138500Y233200D01*
Y235000D01*
X138100Y235400D01*
X134700D01*
X134600Y235500D01*
Y236250D01*
X137450D01*
Y236950D01*
X134600D01*
Y237600D01*
X134800Y237800D01*
X141700D01*
X142400Y237100D01*
Y232800D01*
X142200Y232600D01*
X139100D01*
G37*
G36*
G01X121300Y356300D02*
X121100Y356500D01*
Y360700D01*
X120411Y361389D01*
Y361468D01*
X120332D01*
X120200Y361600D01*
X116800D01*
X114700Y363700D01*
Y379500D01*
X113500Y380700D01*
X109800D01*
X109100Y381400D01*
Y387600D01*
X109800Y388300D01*
X123600D01*
X124500Y387400D01*
Y383400D01*
X122500Y381400D01*
Y356700D01*
X122100Y356300D01*
X121300D01*
G37*
G36*
G01X125100Y356400D02*
X125000Y356300D01*
X123600D01*
X123500Y356400D01*
Y380300D01*
X123900Y380700D01*
X128700D01*
X129000Y380400D01*
Y365600D01*
X125100Y361700D01*
Y356400D01*
G37*
G36*
G01X134800Y365700D02*
Y379400D01*
X135200Y379800D01*
X140500D01*
X141300Y379000D01*
X166000D01*
Y365700D01*
X165400Y365100D01*
X135400D01*
X134800Y365700D01*
G37*
G36*
G01X169300Y349300D02*
X168900Y349700D01*
Y357700D01*
X168000Y358600D01*
Y365800D01*
X168100Y365900D01*
Y379600D01*
X168500Y380000D01*
X172500D01*
X173300Y379200D01*
Y373620D01*
G03X172951Y372989I1100J-1020D01*
G01X172937Y372937D01*
X172500Y372500D01*
Y371100D01*
X172500Y368000D01*
X173500Y367000D01*
X174700D01*
Y362300D01*
X175400Y361600D01*
X176500D01*
X177200Y360900D01*
Y359600D01*
X177024Y359424D01*
X176880D01*
G03X175981Y358475I0J-900D01*
G01X175986Y358386D01*
X175600Y358000D01*
X173400D01*
X171800Y356400D01*
Y352500D01*
X172300Y352000D01*
X174100D01*
X174700Y351400D01*
Y350700D01*
X174200Y350200D01*
X173140D01*
X173107Y350212D01*
G03X171233Y349418I-507J-1412D01*
G01X171180Y349300D01*
X169300D01*
G37*
G36*
G01X178400Y371500D02*
G03X176988Y372998I-1500J0D01*
G02X176800Y373197I12J200D01*
G01Y385000D01*
X180600Y388800D01*
X190800D01*
X191500Y388100D01*
Y385020D01*
G03X191345Y384822I1100J-1020D01*
G02X190777Y384717I-334J219D01*
G03X191135Y382649I-877J-1217D01*
G01X191195Y382735D01*
X191500D01*
Y382370D01*
X189830Y380700D01*
X183700D01*
X181800Y378800D01*
Y376220D01*
G03Y374180I1100J-1020D01*
G01Y371900D01*
X181200Y371300D01*
X178600D01*
G02X178400Y371500I0J200D01*
G37*
G36*
G01X387800Y161700D02*
X386000Y163500D01*
Y176600D01*
X388500Y179100D01*
Y200782D01*
G03X389000Y201900I-1000J1118D01*
G01Y242679D01*
X389900Y243579D01*
Y244800D01*
G03X388665Y246277I-1500J0D01*
G01X388500Y246306D01*
Y260100D01*
X376500Y272100D01*
Y340550D01*
X377850Y341900D01*
X377956D01*
X381600Y345544D01*
Y351456D01*
X377956Y355100D01*
X377700D01*
Y360302D01*
G03X388215Y373848I-3684J13714D01*
G01X388216Y373929D01*
Y374102D01*
X388215Y374184D01*
G03X360512Y369624I-14199J-168D01*
G02X360131Y369100I-380J-124D01*
G01X356300D01*
X354500Y370900D01*
Y375000D01*
X345500Y384000D01*
Y384100D01*
X345400D01*
X344700Y384800D01*
X332800D01*
X331000Y383000D01*
Y377400D01*
X337411Y370989D01*
Y370768D01*
X337632D01*
X337900Y370500D01*
X348100D01*
X350500Y368100D01*
Y365100D01*
X351000Y364600D01*
X354100D01*
Y364279D01*
X361800Y356579D01*
Y345700D01*
X360100Y344000D01*
X354500D01*
X353500Y345000D01*
Y354100D01*
X352800Y354800D01*
Y358000D01*
X350900Y359900D01*
X348900D01*
X348400Y360400D01*
Y365000D01*
X347589Y365811D01*
Y366232D01*
X347168D01*
X346400Y367000D01*
X340100D01*
X339400Y366300D01*
Y361200D01*
X339100Y360900D01*
X331400D01*
X330100Y359600D01*
X322400D01*
X320300Y357500D01*
Y353500D01*
X319000Y352200D01*
X286700D01*
X286500Y352000D01*
Y346500D01*
X287500Y345500D01*
Y340500D01*
X286000Y339000D01*
X282500D01*
X281500Y340000D01*
Y356000D01*
X283000Y357500D01*
Y370200D01*
X281800Y371400D01*
X279300D01*
X278900Y371800D01*
X278000D01*
X275800Y374000D01*
Y380700D01*
X274700Y381800D01*
X264500D01*
X263000Y380300D01*
Y371300D01*
X266911Y367389D01*
Y366768D01*
X269411D01*
Y366811D01*
X269900Y367300D01*
Y372000D01*
X271500D01*
X271600Y371900D01*
Y364900D01*
X269000Y362300D01*
Y357100D01*
X268600Y356700D01*
X261500D01*
X258600Y359600D01*
X254600D01*
X250600Y355600D01*
X230790D01*
X228400Y357990D01*
Y358000D01*
X225900Y360500D01*
X225890D01*
X218000Y360500D01*
X216500Y362000D01*
Y363000D01*
X217000Y363500D01*
X222500D01*
X222800Y363800D01*
X223500D01*
Y364500D01*
X224000Y365000D01*
Y371000D01*
X226000Y373000D01*
X236500D01*
X238000Y371500D01*
Y367800D01*
X239000Y366800D01*
X251100D01*
X253500Y369200D01*
Y389500D01*
X255200Y391200D01*
X383800D01*
X391400Y383600D01*
Y340500D01*
X391300Y340400D01*
Y162700D01*
X390300Y161700D01*
X387800D01*
G37*
G36*
G01X234990Y177000D02*
X232250Y179740D01*
Y180723D01*
G03X231037Y183460I-700J1327D01*
G02X230500Y183836I-137J376D01*
G01Y294500D01*
X234000Y298000D01*
X244300D01*
X245300Y297000D01*
Y283700D01*
X256200Y272800D01*
X284100D01*
X285400Y271500D01*
Y252400D01*
X282300Y249300D01*
X268700D01*
X265400Y246000D01*
X259438D01*
Y246170D01*
X255681D01*
Y245881D01*
X255500Y245700D01*
Y243400D01*
X254800Y242700D01*
Y225600D01*
X255500Y224900D01*
Y177800D01*
X254900Y177200D01*
X252210D01*
X252010Y177000D01*
X234990D01*
G37*
G36*
G01X270000Y357000D02*
Y361700D01*
X271200D01*
X271400Y361500D01*
Y337700D01*
X270500Y336800D01*
X266700D01*
X265300Y338200D01*
Y354800D01*
X266500Y356000D01*
X269000D01*
X270000Y357000D01*
G37*
G36*
G01X247200Y338500D02*
X247100Y338600D01*
X245900D01*
X244986Y339514D01*
X244975Y339575D01*
G03X243775Y340775I-1475J-275D01*
G01X243714Y340786D01*
X241000Y343500D01*
X237000D01*
X236500Y344000D01*
Y344977D01*
G03Y345023I-1500J23D01*
G01Y347700D01*
X234500Y349700D01*
Y351890D01*
X234500Y354000D01*
X235000Y354500D01*
X250900D01*
X251650Y355250D01*
X251750D01*
Y355350D01*
X255100Y358700D01*
X258300D01*
X260000Y357000D01*
Y339500D01*
X259000Y338500D01*
X247200D01*
G37*
G36*
G01X346500Y281000D02*
X345000Y282500D01*
Y304500D01*
X348500Y308000D01*
Y319500D01*
X347250Y320750D01*
Y321000D01*
X347000D01*
X346500Y321500D01*
X319622D01*
X319121Y322000D01*
X318500D01*
X311000Y329500D01*
X276400D01*
X273760Y332140D01*
G02X273830Y332761I283J283D01*
G03X272928Y335528I-799J1270D01*
G02X272500Y335927I-28J399D01*
G01Y361750D01*
X273950D01*
X274000Y361700D01*
Y361200D01*
X273900Y361100D01*
Y357100D01*
X275900Y355100D01*
X278500D01*
X278550Y355050D01*
X279450D01*
X280500Y354000D01*
Y339500D01*
X281900Y338100D01*
X328600D01*
X332000Y341500D01*
X341400D01*
X342900Y343000D01*
Y343235D01*
X343205D01*
X343265Y343149D01*
G03X343553Y345163I1235J851D01*
G02X342900Y345473I-253J310D01*
G01Y365600D01*
X343000Y365700D01*
X344400D01*
X344500Y365600D01*
Y361000D01*
X346400Y359100D01*
X350400D01*
X351500Y358000D01*
Y345400D01*
X354000Y342900D01*
X354800D01*
X355000Y342700D01*
X365000D01*
X372500Y335200D01*
Y282500D01*
X371000Y281000D01*
X346500D01*
G37*
G36*
G01X321900Y352800D02*
Y357600D01*
X322800Y358500D01*
X328000D01*
X329500Y357000D01*
Y340800D01*
X327900Y339200D01*
X289800D01*
X288500Y340500D01*
Y346000D01*
X287200Y347300D01*
Y351300D01*
X287400Y351500D01*
X290500D01*
X291500Y350500D01*
X319600D01*
X321900Y352800D01*
G37*
G36*
G01X312500Y32500D02*
Y51000D01*
X313500Y52000D01*
X353500D01*
X355000Y50500D01*
Y35000D01*
X346500Y26500D01*
X318500D01*
X312500Y32500D01*
G37*
G36*
G01X346500Y110000D02*
X346000Y110500D01*
Y120500D01*
X346500Y121000D01*
X348500D01*
Y120600D01*
X349400D01*
X349500Y120500D01*
X358500D01*
X359000Y120000D01*
Y116000D01*
X358500Y115500D01*
X352500D01*
X351500Y114500D01*
Y111500D01*
X351000Y111000D01*
X350000D01*
X349400Y110400D01*
X348500D01*
Y110000D01*
X346500D01*
G37*
G36*
G01X387700Y153800D02*
Y145500D01*
X381700Y139500D01*
X377400D01*
Y139450D01*
X375950D01*
X372500Y136000D01*
Y135000D01*
X371500Y134000D01*
X350621D01*
X349500Y135121D01*
Y140879D01*
X353372Y144750D01*
X356372D01*
X360600Y148978D01*
Y151178D01*
X365100Y155679D01*
Y202621D01*
X359500Y208222D01*
Y222300D01*
X361900Y224700D01*
X378600D01*
X385500Y217800D01*
Y201800D01*
X386299Y201001D01*
G03X386591Y200707I1201J899D01*
G01X386601Y200699D01*
X387500Y199800D01*
Y181500D01*
X387350Y181350D01*
Y179350D01*
X387320Y179320D01*
G03X385500Y173213I460J-3462D01*
G01Y163293D01*
X385500Y160787D01*
G03X386668Y154832I2280J-2645D01*
G01X387700Y153800D01*
G37*
G36*
G01X350000Y148500D02*
X349000Y149500D01*
Y163000D01*
X354000Y168000D01*
X362000D01*
X362100Y167900D01*
Y156921D01*
X357599Y152421D01*
Y150599D01*
X355500Y148500D01*
X350000D01*
G37*
G36*
G01X322500Y180000D02*
X321000Y181500D01*
Y224000D01*
X328000Y231000D01*
X348000D01*
X348900Y230100D01*
Y228000D01*
X349000D01*
Y215500D01*
X352000Y212500D01*
Y211479D01*
X361500Y201978D01*
Y192500D01*
X359500Y190500D01*
X352000D01*
X348500Y187000D01*
X339000D01*
X338700Y186700D01*
X335710D01*
X329010Y180000D01*
X322500D01*
G37*
G36*
G01X359500Y252500D02*
X353000D01*
X348000Y257500D01*
Y268000D01*
X349000Y269000D01*
X366000D01*
X367000Y268000D01*
Y261000D01*
X364500Y258500D01*
X362000D01*
X360000Y256500D01*
Y253000D01*
X359500Y252500D01*
G37*
G36*
G01X335500Y342900D02*
X334900Y343500D01*
Y359500D01*
X335700Y360300D01*
X339300D01*
X339532Y360532D01*
X339911D01*
Y360911D01*
X340000Y361000D01*
Y366000D01*
X340200Y366200D01*
X341700D01*
X341900Y366000D01*
Y344100D01*
X340700Y342900D01*
X335500D01*
G37*
G36*
G01X386726Y19675D02*
G03X383226Y28430I-12700J0D01*
G01X369400Y44300D01*
X360300D01*
X359300Y43300D01*
Y37800D01*
X361327Y19501D01*
G03X386726Y19675I12699J174D01*
G37*
G36*
G01X372420Y96500D02*
X372367Y96618D01*
G03X370342Y97348I-1367J-618D01*
G01X370214Y97286D01*
X368500Y99000D01*
Y109000D01*
X372500Y113000D01*
Y114000D01*
X373000Y114500D01*
X378489D01*
X378510Y114324D01*
G03X381490Y114323I1490J176D01*
G01X381511Y114500D01*
X384500D01*
X387000Y112000D01*
Y98000D01*
X385500Y96500D01*
X372420D01*
G37*
G36*
G01X361000Y108500D02*
X360000Y109500D01*
Y129000D01*
X361000Y130000D01*
X370500D01*
X371000Y129500D01*
Y113500D01*
X366000Y108500D01*
X361000D01*
G37*
G36*
G01X381500Y244000D02*
X379796Y245704D01*
Y246079D01*
X379421D01*
X379000Y246500D01*
X373500D01*
X373000Y247000D01*
Y250500D01*
X373500Y251000D01*
X379500D01*
X380500Y252000D01*
Y254500D01*
X381000Y255000D01*
X386000D01*
X386500Y254500D01*
Y245000D01*
X385500Y244000D01*
X381500D01*
G37*
G36*
G01X364500Y257000D02*
X365500Y258000D01*
X370500D01*
X372000Y256500D01*
Y237000D01*
X371000Y236000D01*
X362000D01*
X361000Y237000D01*
Y255500D01*
X362500Y257000D01*
X364500D01*
G37*
G36*
G01X386726Y374006D02*
G03I-12700J0D01*
G37*
%LPC*%
G75*
G36*
G01X21544Y53100D02*
X27456D01*
X31100Y49456D01*
Y43544D01*
X27456Y39900D01*
X21544D01*
X17900Y43544D01*
Y49456D01*
X21544Y53100D01*
G37*
G36*
G01X107049Y19691D02*
G02X99434I-3807J0D01*
G01Y22998D01*
G02X107049I3807J0D01*
G01Y19691D01*
G37*
G36*
G01X38544Y371400D02*
X34900Y375044D01*
Y380956D01*
X38544Y384600D01*
X44456D01*
X48100Y380956D01*
Y375044D01*
X44456Y371400D01*
X38544D01*
G37*
G36*
G01X33885Y374102D02*
Y373929D01*
X33884Y373848D01*
G02Y374184I-14199J168D01*
G01X33885Y374102D01*
G37*
G36*
G01X15506Y304246D02*
X16800Y305540D01*
Y308981D01*
G03X16110Y309257I-400J0D01*
G02X14135Y314733I-2360J2243D01*
G01X14232Y314722D01*
X44437Y344927D01*
X44326Y345067D01*
G02X46965Y346325I1174J933D01*
G03X47638Y346128I390J87D01*
G01X47800Y346290D01*
Y346673D01*
G02X49200I700J1327D01*
G01Y345710D01*
X18200Y314710D01*
Y304960D01*
X16496Y303256D01*
X16573Y303123D01*
G02X15373Y304323I-2823J-1623D01*
G01X15506Y304246D01*
G37*
G36*
G01X80500Y203793D02*
X79207Y202500D01*
X66293D01*
X65000Y203793D01*
Y205700D01*
X14748D01*
G02X12939Y208061I-748J1300D01*
G01X13579Y208700D01*
X65000D01*
Y209707D01*
X66793Y211500D01*
X79707D01*
X80500Y210707D01*
Y203793D01*
G37*
G36*
G01X34500Y166036D02*
Y140000D01*
G02X29500I-2500J0D01*
G01Y163964D01*
X7000Y186464D01*
Y198500D01*
G02X12000I2500J0D01*
G01Y188536D01*
X34500Y166036D01*
G37*
G36*
G01X74667Y70513D02*
X72100Y67947D01*
Y66387D01*
G02X67100I-2500J-2404D01*
G01Y70018D01*
X71131Y74049D01*
X71134Y74127D01*
G02X74745Y70517I3466J-145D01*
G01X74667Y70513D01*
G37*
G36*
G01X86519Y12500D02*
X57681D01*
X53409Y16772D01*
X53270Y16666D01*
G02X47151Y19691I-2312J3025D01*
G01Y22998D01*
G02X54766I3807J0D01*
G01Y19659D01*
X58924Y15500D01*
X59133D01*
G03X59307Y16261I0J400D01*
G02X57151Y19691I1652J3430D01*
G01Y22998D01*
G02X64766I3807J0D01*
G01Y19691D01*
G02X62610Y16261I-3807J0D01*
G03X62784Y15500I174J-360D01*
G01X85276D01*
X89434Y19659D01*
Y22998D01*
G02X97049I3807J0D01*
G01Y19691D01*
G02X90930Y16666I-3807J0D01*
G01X90791Y16772D01*
X86519Y12500D01*
G37*
G36*
G01X33885Y19598D02*
X33884Y19517D01*
G02Y19853I-14199J168D01*
G01X33885Y19772D01*
Y19598D01*
G37*
G36*
G01X365285Y84895D02*
G03X365015I-135J-147D01*
G02Y87105I-1015J1105D01*
G03X365285I135J147D01*
G02Y84895I1015J-1105D01*
G37*
G36*
G01X366400Y75000D02*
Y70500D01*
X363400D01*
Y75000D01*
G02X366400I1500J0D01*
G37*
G36*
G01X222976Y70934D02*
G03X223292Y70471I394J-71D01*
G02X221523Y69266I-292J-1471D01*
G03X221208Y69729I-394J71D01*
G02X222976Y70934I292J1471D01*
G37*
G36*
G01X313816Y67579D02*
G03X313184I-316J-246D01*
G02Y69421I-1184J921D01*
G03X313816I316J246D01*
G02X316184I1184J-921D01*
G03X316816I316J246D01*
G02Y67579I1184J-921D01*
G03X316184I-316J-246D01*
G02X313816I-1184J921D01*
G37*
G36*
G01X314316Y60579D02*
G03X313684I-316J-246D01*
G02Y62421I-1184J921D01*
G03X314316I316J246D01*
G02Y60579I1184J-921D01*
G37*
G36*
G01X128572Y108965D02*
G02X126447Y107361I3318J-6603D01*
G03X126226Y108025I-295J271D01*
G02X127994Y109360I274J1475D01*
G03X128572Y108965I398J-37D01*
G37*
G36*
G01X187617Y82493D02*
G02X186441Y83481I-1417J-493D01*
G03X186883Y84007I64J395D01*
G02X188059Y83019I1417J493D01*
G03X187617Y82493I-64J-395D01*
G37*
G36*
G01X152413Y275408D02*
G02X150667Y275685I-1252J-2247D01*
G03X150855Y276377I-77J393D01*
G02X152449Y276124I995J1123D01*
G03X152413Y275408I160J-367D01*
G37*
G36*
G01X342350Y325829D02*
X341279Y326900D01*
X338021D01*
X337761Y326639D01*
G02X335639Y328761I-1061J1061D01*
G01X336779Y329900D01*
X340548D01*
X340596Y330030D01*
G02X343500Y329500I1404J-530D01*
G01Y328921D01*
X343921Y328500D01*
X345500D01*
Y329500D01*
G02X348500I1500J0D01*
G01Y327079D01*
X347250Y325829D01*
Y322500D01*
X342350D01*
Y325829D01*
G37*
G36*
G01X346650Y35698D02*
G02X339232I-3709J0D01*
G01Y38730D01*
G02X346650I3709J0D01*
G01Y35698D01*
G37*
G36*
G01X345000Y211500D02*
X347500Y209000D01*
Y198000D01*
X345000Y195500D01*
X327000D01*
X325000Y197500D01*
Y209000D01*
X327500Y211500D01*
X345000D01*
G37*
G54D73*
X54600Y73982D03*
G54D70*
X14000Y160000D03*
G54D68*
X58500Y362000D03*
G54D82*
X261811Y102362D03*
G54D72*
X54600Y38982D03*
X99600D03*
G54D80*
X374026Y19675D03*
Y374006D03*
G54D77*
X53500Y342500D03*
X209000Y47500D03*
X213000Y51650D03*
X57150Y161350D03*
X57500Y151350D03*
Y156500D03*
X154500Y106000D03*
X150000D03*
X124000Y112000D03*
X121500Y114500D03*
X129500Y123500D03*
X142000Y124000D03*
X137500Y118500D03*
X216800Y78000D03*
X180100Y86600D03*
X216500Y88000D03*
X222000D03*
X226000Y92000D03*
Y96500D03*
X212500Y92000D03*
X213000Y96500D03*
X193500Y96000D03*
X189500D03*
X207000Y92000D03*
Y96000D03*
X188500Y79200D03*
X192200D03*
X174000Y77000D03*
X178000D03*
X183500Y79800D03*
X170000Y103500D03*
X174500D03*
X286000Y63500D03*
X283500Y83000D03*
Y87500D03*
Y91500D03*
Y96000D03*
X253900Y58700D03*
X294500Y63500D03*
X290500D03*
X299500Y96500D03*
Y91500D03*
Y87500D03*
Y82500D03*
X295500D03*
Y87500D03*
Y91500D03*
Y96500D03*
X319000Y61500D03*
X312200Y95000D03*
X308500D03*
X312000Y101500D03*
X308500D03*
X327900Y100800D03*
X323000Y61500D03*
Y70500D03*
X324000Y112827D03*
X345350Y161350D03*
X344850Y151350D03*
X147100Y277800D03*
X165500Y231350D03*
Y246350D03*
X165850Y261350D03*
X152000Y300600D03*
X145385Y300200D03*
X344500Y339000D03*
X330512Y333500D03*
X312795Y331500D03*
X381000Y141600D03*
G54D85*
X287992Y377883D03*
G54D86*
X319488D03*
G54D87*
X377937Y153220D03*
Y180780D03*
G54D84*
X163460Y58310D03*
X155580D03*
X145740D03*
X173300D03*
G54D71*
X13750Y321500D03*
G54D76*
X61161Y273161D03*
X241161D03*
G54D78*
X102187Y358965D03*
X131714D03*
G54D79*
X323000Y7293D03*
G54D75*
X54600Y54061D03*
X99600D03*
G54D81*
X61161Y124539D03*
X151161D03*
X331161D03*
G54D83*
X350000Y76000D03*
G54D74*
X99600Y63982D03*
X64600Y49061D03*
X89600D03*
X59600Y63982D03*
X64600Y73982D03*
X79600Y63982D03*
X84600Y73982D03*
X89600Y63982D03*
X94600Y73982D03*
G54D69*
X14000Y130000D03*
Y140000D03*
%LPD*%
G75*
G36*
G01X32395Y19675D02*
G03I-12700J0D01*
G37*
G36*
G01Y374006D02*
G03I-12700J0D01*
G37*
G36*
G01X65500Y209500D02*
X67000Y211000D01*
X79500D01*
X80000Y210500D01*
Y204000D01*
X79000Y203000D01*
X66500D01*
X65500Y204000D01*
Y209500D01*
G37*
G36*
G01X326000Y208000D02*
X327500Y209500D01*
X344500D01*
X346000Y208000D01*
Y199000D01*
X344500Y197500D01*
X327500D01*
X326000Y199000D01*
Y208000D01*
G37*
%LPC*%
G75*
G54D80*
X19695Y19675D03*
Y374006D03*
%LPD*%
G75*
G54D10*
G01X32000Y144000D02*
Y165000D01*
X9500Y187500D01*
Y191500D01*
G01D02*
Y198500D01*
G01X74600Y73982D02*
X69600Y68982D01*
Y63982D01*
G01X32000Y140000D02*
Y144000D01*
X26865Y12505D03*
X12515D03*
Y26855D03*
X26865Y26845D03*
X29845Y19685D03*
X9545D03*
X19695Y9535D03*
Y29835D03*
X24500Y46500D03*
X26865Y366836D03*
X12515D03*
Y381186D03*
X26865Y381176D03*
X29845Y374016D03*
X9545D03*
X19695Y363866D03*
Y384166D03*
X41500Y378000D03*
X287992Y377883D03*
X353100Y23000D03*
X319488Y377883D03*
X381196Y12505D03*
X366846D03*
Y26855D03*
X381196Y26845D03*
X384176Y19685D03*
X363876D03*
X374026Y9535D03*
Y29835D03*
X375000Y348500D03*
X381196Y366836D03*
X366846D03*
Y381186D03*
X381196Y381176D03*
X384176Y374016D03*
X363876D03*
X374026Y363866D03*
Y384166D03*
G54D20*
X54600Y54061D03*
X99600D03*
G54D11*
X19685Y19685D03*
Y374016D03*
X133650Y37325D03*
Y59725D03*
X185350Y37325D03*
Y59725D03*
X374016Y19685D03*
Y374016D03*
G54D21*
X64600Y49061D03*
X59600Y63982D03*
X69600D03*
X64600Y73982D03*
X99600Y63982D03*
X89600Y49061D03*
X79600Y63982D03*
X89600D03*
X74600Y73982D03*
X84600D03*
X94600D03*
G54D12*
G01X70000Y207200D02*
X14200D01*
X14000Y207000D01*
G01X50958Y21344D02*
X58303Y14000D01*
X85897D01*
X93242Y21344D01*
G01X58500Y378000D02*
Y346000D01*
G01X87000Y338600D02*
X96400Y348000D01*
X105900D01*
G01X109100D02*
X109200Y348100D01*
X114000D01*
G01X127500Y200600D02*
Y223000D01*
G01D02*
X127100Y223400D01*
Y238800D01*
G01X145100Y291600D02*
X140500Y287000D01*
G01X117500Y316900D02*
X120000D01*
G01X119000Y334944D02*
X124001D01*
G01X117500Y328600D02*
Y331500D01*
G01X135100Y343000D02*
X138000D01*
G01X114000Y344900D02*
X111300Y342200D01*
G01X126600Y343000D02*
X129500D01*
X131900Y343000D01*
G01D02*
Y347300D01*
X132000Y347400D01*
G01X114000Y348100D02*
X118879D01*
X119161Y348382D01*
G01X158500Y367000D02*
Y358500D01*
X156500Y356500D01*
Y352000D01*
X154000Y349500D01*
X136500D01*
X135400Y350600D01*
X132000D01*
G01D02*
X128839D01*
X126839Y348600D01*
Y348382D01*
G01X146001Y319945D02*
X146056Y320000D01*
X153400D01*
G01X147856Y345500D02*
X156600Y336756D01*
Y334500D01*
G01X170525Y86500D02*
Y72975D01*
X174500Y69000D01*
X188500D01*
X199500Y58000D01*
X215500D01*
X217000Y59500D01*
X226500D01*
X228000Y58000D01*
X245400D01*
G01X156600Y316000D02*
Y310300D01*
X156900Y310000D01*
G01X185000Y304000D02*
X182500Y306500D01*
X172500D01*
X169500Y309500D01*
Y314000D01*
X166400Y317100D01*
Y326000D01*
G01X159500Y320000D02*
X156600D01*
G01X171000Y342900D02*
X174400D01*
G01X171500Y338850D02*
X174350D01*
G01X166500Y338600D02*
X171250D01*
X171500Y338850D01*
G01X166500Y338600D02*
X165200D01*
X163900Y339900D01*
G01X166500Y342900D02*
X164200D01*
X163800Y342500D01*
G01X166900Y350500D02*
X164000D01*
G01X171000Y346100D02*
X166500D01*
G01X161000D02*
X166500D01*
G01X166400Y326000D02*
X162450Y329950D01*
G01X171500Y335150D02*
X166750D01*
X166500Y335400D01*
G01X168300Y362800D02*
X161000Y355500D01*
Y349700D01*
X158100Y346800D01*
Y342100D01*
X164800Y335400D01*
X166500D01*
G01X153400Y320000D02*
Y316000D01*
G01Y320000D02*
Y323900D01*
X156600Y327100D01*
Y330000D01*
G01Y334500D02*
Y330000D01*
G01X176700Y368200D02*
X175300Y369600D01*
X174000D01*
G01X166900Y355000D02*
X165000D01*
X164000Y354000D01*
G01X179500Y366700D02*
Y369450D01*
G01X174400Y372600D02*
X174800Y373000D01*
Y385200D01*
X180100Y390500D01*
X219500D01*
X225850Y384150D01*
G01X169800Y362800D02*
X168300D01*
G01X174000Y366400D02*
Y365100D01*
G01D02*
X176000Y363100D01*
X180600D01*
G01X223000Y57000D02*
X231499Y48501D01*
Y47501D01*
G01X226950Y309469D02*
X231400D01*
G01X214900Y311050D02*
Y308300D01*
G01X202500Y316900D02*
Y314200D01*
G01X221400Y322700D02*
Y318881D01*
X220650Y318131D01*
G01X214700Y321950D02*
X214850D01*
X216600Y320200D01*
G01X208200Y380400D02*
X209300Y381500D01*
X210800D01*
G01X222500Y355900D02*
X225500D01*
G01X210900Y375500D02*
Y377150D01*
X212025Y378275D01*
G01D02*
X214000Y380250D01*
Y381500D01*
G01X220000Y380500D02*
X217500D01*
X216500Y381500D01*
X214000D01*
G01X225850Y384150D02*
X249000D01*
X251000Y382150D01*
Y379900D01*
G01X245400Y58000D02*
X249400Y54000D01*
X341000D01*
X348000Y61000D01*
X361000D01*
G01X248500Y334300D02*
X250000Y335800D01*
X252800D01*
G01X248500Y334300D02*
X250300Y332500D01*
X253000D01*
G01X239500Y339300D02*
X243500D01*
G01X243400Y336500D02*
X242300D01*
X239500Y339300D01*
G01X250300Y328500D02*
X263600D01*
X281607Y310493D01*
G01X251100Y370500D02*
X251000Y370600D01*
Y379900D01*
G01D02*
X251100Y380000D01*
G01X265500Y376400D02*
X265000Y375900D01*
Y373200D01*
G01D02*
X268161Y370039D01*
Y369618D01*
G01X322000Y317000D02*
X318500Y320500D01*
X307500D01*
X305400Y318400D01*
Y317700D01*
G01X300300Y325300D02*
X302500Y327500D01*
X305400D01*
G01X277500Y354500D02*
X280500Y357500D01*
Y361400D01*
G01X280600Y372300D02*
Y376200D01*
G01Y369100D02*
Y364700D01*
X280500Y364600D01*
G01X275839Y369618D02*
X276357Y369100D01*
X280600D01*
G01X350000Y108900D02*
X348600Y107500D01*
X347500D01*
G01X353500Y215500D02*
Y212100D01*
X363600Y202000D01*
Y156300D01*
X359100Y151800D01*
Y149600D01*
X355750Y146250D01*
X352750D01*
X348000Y141500D01*
Y134500D01*
X350000Y132500D01*
X375500D01*
G01X346000Y229900D02*
Y227000D01*
G01X345900Y242000D02*
Y244900D01*
G01X349100Y251500D02*
Y253400D01*
X348000Y254500D01*
G01X344800Y310000D02*
X343300Y311500D01*
X341000D01*
G01X344800Y310000D02*
X343300Y308500D01*
X341000D01*
G01X344800Y325500D02*
X342000Y328300D01*
Y329500D01*
G01X344800Y325500D02*
X347000Y327700D01*
Y329500D01*
G01X344800Y318000D02*
X344300Y318500D01*
X341000D01*
G01X344800Y318000D02*
X342300Y315500D01*
X341000D01*
G01X339500Y328400D02*
X337400D01*
X336700Y327700D01*
G01X331112Y318612D02*
X335888D01*
X336000Y318500D01*
G01X322000Y317000D02*
X329500D01*
X331112Y318612D01*
G01X340000Y379400D02*
X337000D01*
G01X340000Y382600D02*
X344000D01*
G01X340000D02*
X334000D01*
G01Y379400D02*
Y378279D01*
X335639Y376640D01*
G01D02*
X338661Y373618D01*
G01X366500Y59800D02*
X370500D01*
G01X367500Y48250D02*
Y52000D01*
G01X362000Y48250D02*
Y52000D01*
G01X366500Y59800D02*
Y55500D01*
G01X364900Y72000D02*
Y75000D01*
G01X377000Y104183D02*
X376317Y103500D01*
G01D02*
X357100D01*
G01X375333Y118000D02*
X380000D01*
G01X382900Y116000D02*
X382000D01*
X380000Y118000D01*
G01X353600Y233500D02*
Y229500D01*
G01X359500D02*
X353600D01*
G01X387500Y216300D02*
Y230400D01*
G01Y201900D02*
Y216300D01*
G01X385500Y246000D02*
X384600Y245100D01*
X382500D01*
G01X382500Y253900D02*
Y251000D01*
G01Y253900D02*
X385000D01*
G01X382500Y248500D02*
Y251000D01*
G01X382500Y245100D02*
Y248500D01*
G01X356667Y249000D02*
X352000D01*
G01X382500Y257100D02*
Y260000D01*
G01X372900Y233000D02*
X369500D01*
G01X382500Y241900D02*
X381100D01*
X379000Y244000D01*
X376333D01*
G01Y239000D02*
Y233233D01*
X376100Y233000D01*
G01X387500Y230400D02*
Y243300D01*
X388400Y244200D01*
Y244800D01*
G01X363300Y341500D02*
Y357200D01*
X355600Y364900D01*
Y366500D01*
X16500Y58500D03*
X15500Y66000D03*
X24500Y62500D03*
X14500Y51500D03*
X22300Y55700D03*
X8000Y52000D03*
X26300Y69700D03*
X7100Y60200D03*
X3500Y97000D03*
X23000Y101000D03*
X28000Y81500D03*
X12800Y74000D03*
X7100Y81600D03*
X17300Y85800D03*
X26800Y92500D03*
X16600Y106800D03*
X4500Y126500D03*
Y149000D03*
X6100Y115500D03*
X4300Y136900D03*
X4100Y159800D03*
X4200Y184800D03*
X25000Y178500D03*
X28500D03*
X9500Y198500D03*
Y191500D03*
X4000Y200200D03*
X3700Y227300D03*
X14000Y207000D03*
X3800Y246900D03*
X3300Y266000D03*
X3800Y300900D03*
X9000Y294700D03*
X3600Y281000D03*
X10500Y345500D03*
X16900Y341700D03*
X22700Y344900D03*
X5200Y343400D03*
X7100Y351500D03*
X13900Y335900D03*
X3600D03*
X8100Y327400D03*
X4400Y316900D03*
X4600Y377800D03*
X4700Y358000D03*
X5500Y364600D03*
X24500Y388600D03*
X11200Y389500D03*
X43800Y6900D03*
X38200Y19900D03*
X32900Y33700D03*
X62500Y83100D03*
Y92700D03*
X32000Y144000D03*
Y140000D03*
X29500Y123500D03*
X34500Y118500D03*
X37500D03*
X42500D03*
X54000Y112827D03*
X45500Y118500D03*
X37500Y156500D03*
X40500Y152500D03*
X43800Y177000D03*
X46600Y184800D03*
X42500Y172500D03*
X46500Y166000D03*
X46000Y170000D03*
X45500Y152500D03*
X37500Y161500D03*
X38000Y172500D03*
X56500Y185000D03*
Y181500D03*
Y188500D03*
X33500Y178500D03*
X38500D03*
X57150Y161350D03*
X57500Y151350D03*
Y156500D03*
X56500Y168000D03*
Y172500D03*
Y176500D03*
X57500Y223500D03*
X57400Y216600D03*
X45900Y221800D03*
X44600Y226500D03*
X46900Y230400D03*
X45300Y215700D03*
X43100Y196400D03*
X36500Y213000D03*
X45100Y201900D03*
X56500Y191500D03*
X47900Y265000D03*
X32200Y236900D03*
X32000Y250700D03*
X57500Y231350D03*
Y246350D03*
Y261350D03*
X68000Y294000D03*
X64500D03*
X61000D03*
X58500Y303500D03*
Y299500D03*
X69500Y299000D03*
Y303500D03*
X68500Y307000D03*
X65000D03*
X61000D03*
X47700Y275600D03*
X47800Y300000D03*
Y311000D03*
Y286300D03*
X69626Y284874D03*
X62500Y339500D03*
Y343000D03*
X67000Y339500D03*
Y343000D03*
X53500Y342500D03*
X68000Y314000D03*
X64000D03*
X60500D03*
X58000Y318500D03*
Y322500D03*
X45500Y346000D03*
X48500Y348000D03*
X58500Y346000D03*
X31400Y354300D03*
X42000Y364000D03*
X45600Y388600D03*
X38500Y389100D03*
X50500Y380500D03*
X66200Y380400D03*
X58900Y388300D03*
X51161Y365500D03*
X58500Y378000D03*
X108500Y86000D03*
X93000Y91300D03*
Y82300D03*
X82300Y82000D03*
Y91800D03*
X82000Y142500D03*
Y138000D03*
X84100Y140300D03*
X79700D03*
X79600Y145200D03*
X83900Y145100D03*
X85000Y162500D03*
X82500Y183400D03*
X82300Y189000D03*
X85000Y155000D03*
X84800Y171000D03*
X76000Y188500D03*
Y181500D03*
Y185000D03*
X75350Y161350D03*
X75500Y151350D03*
Y157500D03*
Y168000D03*
Y172500D03*
Y176000D03*
X70500Y228000D03*
Y222000D03*
X76000Y191500D03*
X78500Y205000D03*
Y209000D03*
X75000Y205000D03*
Y209000D03*
X77500Y339500D03*
X72500D03*
Y343000D03*
X77500D03*
X97800Y338100D03*
X71000Y323000D03*
Y319000D03*
X108500Y331500D03*
X104200Y322900D03*
Y314800D03*
X100500Y340500D03*
X93900Y338300D03*
X98000Y342944D03*
X104500Y344500D03*
X89000Y366500D03*
X79000Y366000D03*
X107000Y355000D03*
Y359500D03*
X78800Y388900D03*
X78000Y381000D03*
X90900Y389800D03*
X105000Y390200D03*
X109400Y367300D03*
X107500Y364000D03*
X107600Y376600D03*
Y373200D03*
X107400Y369800D03*
X111900Y12700D03*
X139200Y25100D03*
X148800Y20800D03*
X136900Y10700D03*
X119000Y6600D03*
X119200Y24500D03*
X121400Y15000D03*
X121900Y55900D03*
X122200Y40000D03*
X118400Y48900D03*
X118300Y65300D03*
X127700Y48500D03*
X118200Y34500D03*
X126500Y109500D03*
X117500Y93200D03*
X112500D03*
X122000Y86000D03*
X143500Y76000D03*
X148000Y89500D03*
X114700Y71600D03*
X112000Y80500D03*
X118000D03*
X150000Y106000D03*
X147500Y76000D03*
X129500Y123500D03*
X142000Y124000D03*
X124000Y112000D03*
X121500Y114500D03*
X137500Y118500D03*
X140000Y134500D03*
X130000Y135000D03*
X134000Y141100D03*
X132000Y139000D03*
X139100Y140100D03*
X136700Y141300D03*
X129000Y140500D03*
X132600Y183100D03*
X116200Y179000D03*
X118800Y181200D03*
X130700Y179500D03*
X139000Y181600D03*
X121000Y153500D03*
X121900Y159700D03*
X136800Y155800D03*
X131500Y157500D03*
X134900Y162200D03*
X147500Y157400D03*
X127074Y185434D03*
X132900Y177700D03*
X133050Y172685D03*
X132600Y185800D03*
X120500Y173000D03*
X120900Y177800D03*
X147400Y184800D03*
Y181100D03*
Y188300D03*
X147150Y161350D03*
X147400Y151900D03*
X123800Y166000D03*
X139000Y168900D03*
X130700Y173600D03*
Y176100D03*
X137400Y163400D03*
Y165900D03*
X123391Y157309D03*
Y154809D03*
X134100Y153650D03*
Y156150D03*
X132583Y188583D03*
X139000Y189300D03*
X119900Y185100D03*
X117500Y189400D03*
X117300Y186400D03*
X119680Y213780D03*
X139300Y216400D03*
X139200Y213780D03*
Y207480D03*
Y199606D03*
X127074Y193308D03*
X120700Y202000D03*
X132600Y191732D03*
X139500Y224803D03*
X119800Y225100D03*
X120000Y208000D03*
X119100Y219600D03*
X147500Y192000D03*
X119000Y194882D03*
X133000D03*
X139500Y227953D03*
X147000Y207000D03*
Y202500D03*
Y198500D03*
X127500Y200600D03*
Y223000D03*
X130400Y203000D03*
X130000Y211400D03*
X133250Y243250D03*
X129760Y261300D03*
X130000Y235100D03*
X129900Y232000D03*
X139800Y234000D03*
X140900Y236500D03*
X141500Y255000D03*
Y251000D03*
Y247500D03*
X141700Y240600D03*
X133900Y262000D03*
X141600Y259400D03*
X127100Y238800D03*
X140500Y287000D03*
X121500Y281800D03*
X145100Y291600D03*
X147100Y277800D03*
X145385Y300200D03*
X128300Y273500D03*
X125800Y299600D03*
X129200Y302600D03*
X132800Y306300D03*
X116000Y307500D03*
X119000Y309000D03*
X133000Y310900D03*
X120000Y316900D03*
X111300Y342200D03*
X117500Y331500D03*
X119000Y334944D03*
X138000Y343000D03*
X150200Y315800D03*
X119500Y312000D03*
X116000D03*
X129400Y335100D03*
X132400Y334944D03*
X147856Y345500D03*
X121000Y386500D03*
X116000D03*
X111500D03*
X146500Y388000D03*
X143000D03*
Y352500D03*
X119800Y353800D03*
X114200Y354000D03*
X113400Y358400D03*
X117000Y390200D03*
X150000Y388000D03*
X126000Y389500D03*
X131500Y389000D03*
X137000D03*
X140000Y352500D03*
X137000Y359000D03*
X129500Y362500D03*
Y356000D03*
X127000Y354400D03*
X124280Y352400D03*
X187300Y7100D03*
X172700Y14400D03*
X163000Y8000D03*
X160200Y23700D03*
X150800Y29000D03*
X186800Y49700D03*
X179600Y30500D03*
X163400Y31500D03*
X168100Y63800D03*
X174500Y64000D03*
X171200Y63700D03*
X186200Y82000D03*
X180100Y86600D03*
X188500Y79200D03*
X188300Y84500D03*
X189500Y96000D03*
X152500Y76000D03*
X154500Y106000D03*
X174000Y77000D03*
X178000D03*
X183500Y79800D03*
X170000Y103500D03*
X174500D03*
X152500Y89500D03*
X161000Y83000D03*
X189000Y105000D03*
X184500D03*
X180000D03*
Y108500D03*
X184500D03*
X189000D03*
X170525Y86500D03*
X166000Y148000D03*
X172700Y112600D03*
X180900Y190400D03*
X184200Y183500D03*
X176000Y184000D03*
Y188500D03*
X171500Y151500D03*
X168500D03*
X165000Y157000D03*
Y188500D03*
Y181500D03*
Y185000D03*
Y160500D03*
Y151350D03*
X181400Y205800D03*
X176300Y221300D03*
X183500Y216900D03*
X183000Y230700D03*
X176000Y192500D03*
X165000Y191500D03*
X166000Y198000D03*
Y202500D03*
Y207000D03*
X175100Y243700D03*
X165500Y231350D03*
Y246350D03*
X165850Y261350D03*
X179800Y310100D03*
X172200Y311500D03*
X151850Y277500D03*
X152000Y300600D03*
X181000Y304000D03*
X177194Y309700D03*
X174194D03*
X185000Y304000D03*
X187000Y290000D03*
X182000D03*
Y294500D03*
X187000D03*
Y299000D03*
X182000D03*
X182500Y348700D03*
X187700Y335700D03*
X176300Y322800D03*
X164000Y350500D03*
X174400Y342900D03*
X183400Y330800D03*
Y320000D03*
X159500D03*
X163900Y339900D03*
X174350Y338850D03*
X163800Y342500D03*
X174950Y347750D03*
X172600Y348800D03*
X180206Y320398D03*
X177206D03*
X187929Y330600D03*
X162450Y329950D03*
X161000Y346100D03*
X189900Y383500D03*
X176700Y368200D03*
X164000Y354000D03*
X154100Y387800D03*
X157600D03*
X153000Y352500D03*
X150500D03*
X176900Y371500D03*
X182900Y375200D03*
X189600Y374700D03*
X182300Y352050D03*
Y354550D03*
X179500Y366700D03*
X187929Y365800D03*
X174400Y372600D03*
X171800Y363000D03*
X173500Y359800D03*
X170200Y359900D03*
X176100Y360400D03*
X190300Y386100D03*
X180300Y376400D03*
X188000Y386100D03*
X177600Y376400D03*
X182500Y365500D03*
X206200Y9300D03*
X222700Y21700D03*
X207800Y24600D03*
X193500Y15600D03*
X191600Y27000D03*
X213000Y51650D03*
X209000Y47500D03*
X223000Y57000D03*
X198500Y46900D03*
X202700Y36400D03*
X202000Y62000D03*
X223000Y69000D03*
X217000Y48000D03*
X221000D03*
X229500Y108500D03*
X225000D03*
X221000D03*
X216500D03*
X192200Y79200D03*
X216800Y78000D03*
X216500Y88000D03*
X226000Y92000D03*
Y96500D03*
X212500Y92000D03*
X213000Y96500D03*
X222000Y88000D03*
X207000Y92000D03*
Y96000D03*
X193500D03*
X221500Y71200D03*
X194000Y105000D03*
Y108500D03*
X220800Y147800D03*
X223700Y147900D03*
X230000Y140800D03*
X227500Y139500D03*
X223200Y187700D03*
X210200Y188000D03*
X229500Y163500D03*
X223000Y192500D03*
Y196000D03*
X210000Y192000D03*
Y195500D03*
Y199000D03*
Y202500D03*
Y213500D03*
X214900Y308300D03*
X209700Y307800D03*
X192000Y294500D03*
Y299000D03*
X191500Y339000D03*
X193200Y335600D03*
X196300Y337700D03*
X199600Y338700D03*
X200400Y349500D03*
X193800Y351300D03*
X204800Y314100D03*
X221300Y349200D03*
X198100Y351600D03*
X220700Y344100D03*
X209400Y345700D03*
X209900Y336100D03*
X220700Y330900D03*
X219800Y328500D03*
X216600Y320200D03*
X219500Y325700D03*
X221400Y322700D03*
X193850Y330450D03*
X202500Y314200D03*
X197200Y321000D03*
X203200Y323100D03*
X207200Y330400D03*
X199200Y330600D03*
X207500Y347500D03*
X212050Y326250D03*
X210100Y340500D03*
X209900Y350000D03*
Y333327D03*
X200600Y323200D03*
X226000Y370500D03*
X215000Y371000D03*
X204100Y383800D03*
X229000Y360000D03*
X227500Y365000D03*
X196700Y375600D03*
X204850Y372000D03*
X210600Y371600D03*
X213200Y369100D03*
X225500Y355900D03*
X218000Y361900D03*
X212500Y361600D03*
X208200Y380400D03*
X194000Y365500D03*
X200700Y356000D03*
X195600Y384000D03*
X192600D03*
X196250Y366750D03*
X225850Y384150D03*
X205252Y365600D03*
X212025Y378275D03*
X209500Y358000D03*
Y354000D03*
X215200Y365351D03*
X195500Y356000D03*
X201300Y383300D03*
X198200Y356000D03*
X201700Y380700D03*
X237500Y22000D03*
X257500Y17000D03*
X260000Y22500D03*
X248500Y20000D03*
X266100Y8700D03*
X254300Y6500D03*
X237500Y6700D03*
X244400Y10100D03*
X231400Y14500D03*
X231499Y47501D03*
X253900Y58700D03*
X263600Y57400D03*
X242700Y52300D03*
X233200Y61500D03*
X264748Y29848D03*
X258843D03*
X252937D03*
X247032D03*
X236000Y43500D03*
X245400Y58000D03*
X232000Y106500D03*
X238000Y106000D03*
X245500D03*
X250000Y107500D03*
X255100Y127300D03*
X262600Y130900D03*
X259300D03*
X257900Y160000D03*
X260500D03*
X232500Y157000D03*
X259300Y151100D03*
X254500Y187008D03*
Y182284D03*
Y178300D03*
Y173200D03*
X266046Y187008D03*
Y182284D03*
X266200Y172000D03*
X237500Y185000D03*
Y181500D03*
Y188500D03*
X234800Y185100D03*
Y181600D03*
Y188600D03*
X266200Y177200D03*
X255100Y160000D03*
X237000Y163100D03*
X238000Y152000D03*
X254900Y151350D03*
X237000Y157000D03*
X234500Y155000D03*
X266100Y167100D03*
X231550Y182050D03*
X232300Y159572D03*
X256500Y166000D03*
X232300Y162572D03*
X242800Y227300D03*
X246300Y224800D03*
X261199Y229528D03*
X253920Y224803D03*
Y215354D03*
Y220079D03*
Y210630D03*
X254600Y196458D03*
Y191732D03*
X266228Y229528D03*
X266100Y224803D03*
X266021Y220079D03*
X266046Y215354D03*
Y210630D03*
Y205906D03*
Y201182D03*
Y196458D03*
Y191732D03*
X237500Y191500D03*
X234800Y191600D03*
X268800Y262400D03*
X262100Y271300D03*
X248000Y265900D03*
X239400Y267100D03*
X256300Y265600D03*
X261200Y237800D03*
X261199Y234252D03*
X237500Y246350D03*
X237650Y231350D03*
X254400Y243701D03*
X237500Y261350D03*
X266500Y233500D03*
X251900Y273200D03*
X270000Y289000D03*
X244000Y296300D03*
X246400Y271500D03*
X231400Y309469D03*
X241850Y277800D03*
Y292000D03*
X243400Y336500D03*
X243500Y339300D03*
X253000Y332500D03*
X252800Y335800D03*
X235000Y345000D03*
X232800Y346700D03*
X250300Y328500D03*
X244500Y343500D03*
X243000Y349000D03*
X235500Y350000D03*
X262700Y384000D03*
X257300Y383000D03*
X257800Y374700D03*
X269000Y383500D03*
X232500Y360500D03*
X252900D03*
X243000Y362000D03*
X246000Y363000D03*
X252800Y364400D03*
X262000Y365500D03*
Y362500D03*
Y359000D03*
X265000Y365500D03*
X268000Y364500D03*
X270720Y373780D03*
X265300Y362508D03*
X243500Y353500D03*
X235500D03*
X248000Y352400D03*
X265000Y373200D03*
X271500Y21500D03*
X294000Y18000D03*
X297000Y25000D03*
X305000Y7000D03*
X310500Y13500D03*
X309000Y21000D03*
X286900Y6100D03*
X289000Y27000D03*
X284500Y16000D03*
X293000Y7000D03*
X294500Y63500D03*
X290500D03*
X286000D03*
X295500Y50000D03*
Y46500D03*
Y43000D03*
X292500Y39500D03*
X287000D03*
X283000Y42500D03*
Y46500D03*
Y50500D03*
X284500Y32000D03*
X299500Y96500D03*
Y91500D03*
Y87500D03*
Y82500D03*
X295500D03*
Y87500D03*
Y91500D03*
Y96500D03*
X283500Y83000D03*
Y87500D03*
Y91500D03*
Y96000D03*
X308500Y95000D03*
Y101500D03*
X295000Y104000D03*
X285300Y149200D03*
X285400Y139600D03*
X306200Y117500D03*
X302000Y113100D03*
X296100Y133621D03*
X285300Y176100D03*
X285400Y202900D03*
X283500Y215400D03*
Y224400D03*
X283400Y227700D03*
X281263Y230213D03*
X280753Y226800D03*
Y223800D03*
X283600Y221300D03*
Y218300D03*
X278600Y258700D03*
X283000Y256900D03*
Y263700D03*
Y270400D03*
X274900Y270200D03*
X279500Y253600D03*
X275100Y254000D03*
X310000Y266200D03*
X283400Y235100D03*
X283800Y231500D03*
X283600Y238300D03*
X278200Y241500D03*
X310500Y238300D03*
X310700Y257200D03*
X310500Y247500D03*
X272900Y239600D03*
X273500Y243000D03*
X281000Y240000D03*
Y237000D03*
X281263Y233213D03*
X310700Y244200D03*
Y241200D03*
X310828Y251000D03*
Y254000D03*
X276000Y290000D03*
X275200Y294900D03*
X283100Y295100D03*
X309700Y272600D03*
X309000Y281600D03*
X277950Y294500D03*
X280450D03*
X281607Y310493D03*
X308000Y310500D03*
X274050Y291648D03*
X271550D03*
X282500Y350200D03*
X282400Y343600D03*
X308600Y317600D03*
X308400Y327800D03*
X282500Y322000D03*
X285400Y350200D03*
X286200Y343600D03*
X273031Y334031D03*
X308000Y341500D03*
X303500D03*
X298500Y342000D03*
X294000D03*
X289500Y348500D03*
X311500Y344500D03*
X306500D03*
X301500D03*
X295000D03*
X297500Y349000D03*
X305400Y317700D03*
Y327500D03*
X300300Y325300D03*
X297500Y312400D03*
X284500Y312600D03*
X291000Y312700D03*
X288500Y389500D03*
X294600Y389200D03*
X301500Y382400D03*
X308300Y387400D03*
X293600Y379600D03*
X298400Y371400D03*
X310100Y379100D03*
X291800Y358300D03*
X295100Y358400D03*
X300200Y362700D03*
X300300Y358400D03*
X306300Y363200D03*
Y358500D03*
X280600Y376200D03*
X317500Y15000D03*
X312500Y6500D03*
X334000Y22000D03*
X331500Y12500D03*
X342500Y5500D03*
X323000Y61500D03*
X319000D03*
X315500D03*
X312500D03*
X312000Y68500D03*
X318000D03*
X315000D03*
X346000Y50000D03*
X340500Y46500D03*
X333000Y43000D03*
X317000Y38500D03*
X315000Y43500D03*
X336000Y50000D03*
X331000D03*
X347500Y107500D03*
X312200Y95000D03*
X312000Y101500D03*
X323000Y70500D03*
X327900Y100800D03*
X350500Y136000D03*
Y139500D03*
X347000Y111000D03*
Y113500D03*
Y116500D03*
Y119500D03*
X351000Y150000D03*
X324000Y112827D03*
X314400Y117700D03*
X347500Y129600D03*
X317900Y121900D03*
X350500Y159000D03*
Y162000D03*
X325500Y157500D03*
X326000Y166500D03*
X345000Y188500D03*
Y181500D03*
X327500D03*
Y185000D03*
Y188500D03*
X325650Y161350D03*
X345350D03*
X325500Y153500D03*
X344850Y151350D03*
X345000Y166500D03*
Y169500D03*
Y173000D03*
Y176500D03*
X322500Y222000D03*
X326000Y226000D03*
X350500Y194000D03*
Y198000D03*
X346000Y227000D03*
X328000Y230000D03*
X345000Y191500D03*
X327500D03*
Y200000D03*
Y203500D03*
Y207000D03*
X345000Y199500D03*
Y203500D03*
Y207500D03*
X326600Y269400D03*
X326650Y261350D03*
Y246350D03*
X348000Y254500D03*
X345900Y244900D03*
X350500Y302000D03*
X341000Y308500D03*
X328400Y278000D03*
X331850Y277800D03*
X341000Y311500D03*
X312000Y310200D03*
X328300Y310800D03*
X335000Y310000D03*
X351500Y330000D03*
X341000Y315500D03*
X347000Y329500D03*
X311750Y317800D03*
X312700Y324700D03*
X330512Y333500D03*
X312795Y331500D03*
X336700Y327700D03*
X342000Y329500D03*
X341000Y318500D03*
X344500Y344000D03*
Y339000D03*
X331112Y318612D03*
X322000Y317000D03*
X336000Y318500D03*
X316100Y312600D03*
X345800Y369500D03*
X346300Y385700D03*
X317000Y372000D03*
X316400Y385100D03*
X324700Y370700D03*
X326400Y387500D03*
X335500Y389200D03*
X348500Y389500D03*
X337000Y379400D03*
X349500Y361000D03*
X314700Y362500D03*
X318900D03*
X341220Y369600D03*
X334000Y363200D03*
X336300Y364900D03*
X338500Y367600D03*
X335639Y376640D03*
X355000Y9000D03*
X365000Y6000D03*
X381000Y5000D03*
X388500Y12500D03*
X389600Y28200D03*
X386000Y35000D03*
X388500Y56500D03*
X381500D03*
X376500D03*
X358100Y30800D03*
X357400Y35200D03*
X379600Y39900D03*
X374500Y45500D03*
Y49000D03*
X388000Y42000D03*
Y45500D03*
Y49000D03*
X366500Y55500D03*
X367500Y52000D03*
X362000D03*
X370500Y59800D03*
X374500Y65500D03*
X371500D03*
Y69000D03*
X374500D03*
X361000Y61000D03*
X371000Y96000D03*
X390000Y80500D03*
X364000Y86000D03*
X362000Y101000D03*
X364900Y75000D03*
X366300Y86000D03*
X390000Y83500D03*
X379000Y86500D03*
X375000D03*
X371000D03*
X374500Y72500D03*
X371500D03*
X385500Y74500D03*
X368500Y75000D03*
X385500Y77500D03*
X368500Y78000D03*
X368000Y136000D03*
Y140000D03*
X363500Y135500D03*
X365000Y138000D03*
Y142000D03*
X389200Y141899D03*
X390000Y149500D03*
X366500Y125000D03*
Y116000D03*
Y120500D03*
X368000Y112000D03*
X355000Y150000D03*
X365000Y129000D03*
X361500D03*
X369500D03*
X365500Y110500D03*
X362000D03*
X389300Y137100D03*
X389500Y126800D03*
X380000Y118000D03*
Y114500D03*
X381000Y141600D03*
X380600Y126600D03*
X379500Y131500D03*
X375500Y132500D03*
X357000Y167000D03*
Y180000D03*
X356800Y183100D03*
X359500Y183000D03*
X389500Y182500D03*
X389200Y163400D03*
X357811Y188189D03*
X361000Y188179D03*
X354800Y188200D03*
X352000Y188000D03*
X372000Y222100D03*
X364500Y221700D03*
X374000Y217000D03*
X368500D03*
Y212000D03*
X374000D03*
X359500Y229500D03*
X390000Y211500D03*
Y192000D03*
X358500Y202500D03*
X354500D03*
X390200Y221100D03*
X390100Y200700D03*
X387500Y201900D03*
Y216300D03*
Y230400D03*
X353500Y215500D03*
X385000Y250000D03*
X385500Y246000D03*
X382500Y248500D03*
Y251000D03*
X385000Y253900D03*
X390000Y233500D03*
X370000Y257000D03*
X366500D03*
X362500Y255000D03*
X369500Y238000D03*
X366000D03*
X362500D03*
X390000Y265000D03*
Y240500D03*
X352000Y249000D03*
X369500Y233000D03*
X382500Y260000D03*
X388400Y244800D03*
X367000Y308000D03*
X364000Y311000D03*
X359500D03*
X354500Y302000D03*
X382000Y283500D03*
Y272000D03*
X383000Y311500D03*
X386500D03*
X387000Y298000D03*
X383000D03*
X390000Y302000D03*
Y307000D03*
X389700Y289200D03*
X367500Y329500D03*
Y325500D03*
Y321000D03*
X359000Y331500D03*
X355000Y326500D03*
X355500Y319000D03*
Y315500D03*
Y312000D03*
X383500Y346500D03*
X389000Y340500D03*
X386500Y332000D03*
X381500D03*
Y318500D03*
X386500D03*
X390000Y320000D03*
Y324500D03*
Y329000D03*
X390200Y312700D03*
X387400Y348900D03*
X383900Y340100D03*
X359500Y350000D03*
X359000Y346500D03*
X379500Y358500D03*
X364000Y389500D03*
X355500D03*
X380500D03*
X389500Y383000D03*
X387000Y358000D03*
X388300Y364100D03*
X382200Y355100D03*
X361500Y363500D03*
X356500Y358000D03*
X359500Y354000D03*
G54D30*
X131889Y102362D03*
Y291339D03*
X261811Y102362D03*
Y291339D03*
G54D13*
X14000Y130000D03*
Y140000D03*
Y150000D03*
X387780Y158142D03*
Y175858D03*
G54D22*
X54600Y73982D03*
G54D31*
X136141Y185433D03*
Y187008D03*
Y188583D03*
X124015Y185433D03*
Y187008D03*
Y188583D03*
X136141Y168110D03*
Y169685D03*
Y171260D03*
Y172835D03*
Y174410D03*
Y175984D03*
Y177559D03*
Y179134D03*
Y180709D03*
Y182284D03*
Y183858D03*
X124015Y168110D03*
Y169685D03*
Y171260D03*
Y172835D03*
Y174410D03*
Y175984D03*
Y177559D03*
Y179134D03*
Y180709D03*
Y182284D03*
Y183858D03*
X136141Y220079D03*
Y221654D03*
Y223228D03*
Y224803D03*
Y226378D03*
Y227953D03*
Y229528D03*
X124015Y220079D03*
Y221654D03*
Y223228D03*
Y224803D03*
Y226378D03*
Y227953D03*
Y229528D03*
X136141Y202756D03*
Y204331D03*
Y205906D03*
Y207480D03*
Y209055D03*
Y210630D03*
Y212205D03*
Y213780D03*
Y215354D03*
Y216929D03*
Y218504D03*
X124015Y202756D03*
Y204331D03*
Y205906D03*
Y207480D03*
Y209055D03*
Y210630D03*
Y212205D03*
Y213780D03*
Y215354D03*
Y216929D03*
Y218504D03*
X136141Y190158D03*
Y191732D03*
Y193307D03*
Y194882D03*
Y196457D03*
Y198032D03*
Y199606D03*
Y201181D03*
X124015Y190158D03*
Y191732D03*
Y193307D03*
Y194882D03*
Y196457D03*
Y198032D03*
Y199606D03*
Y201181D03*
X136141Y235827D03*
Y237402D03*
Y238976D03*
Y240551D03*
Y242126D03*
Y243701D03*
Y245276D03*
X124015Y235827D03*
Y237402D03*
Y238976D03*
Y240551D03*
Y242126D03*
Y243701D03*
Y245276D03*
X136141Y231102D03*
Y232677D03*
Y234252D03*
X124015Y231102D03*
Y232677D03*
Y234252D03*
X257560Y168110D03*
X269685D03*
X257560Y169685D03*
X269685D03*
X257560Y171260D03*
X269685D03*
X257560Y172835D03*
X269685D03*
X257560Y174410D03*
X269685D03*
X257560Y175984D03*
X269685D03*
X257560Y177559D03*
X269685D03*
X257560Y179134D03*
X269685D03*
X257560Y180709D03*
X269685D03*
X257560Y182284D03*
X269685D03*
X257560Y183858D03*
X269685D03*
X257560Y185433D03*
X269685D03*
X257560Y187008D03*
X269685D03*
X257560Y188583D03*
X269685D03*
X257560Y190158D03*
X269685D03*
X257560Y191732D03*
X269685D03*
X257560Y193307D03*
X269685D03*
X257560Y194882D03*
X269685D03*
X257560Y196457D03*
X269685D03*
X257560Y198032D03*
X269685D03*
X257560Y199606D03*
X269685D03*
X257560Y201181D03*
X269685D03*
X257560Y202756D03*
X269685D03*
X257560Y204331D03*
X269685D03*
X257560Y205906D03*
X269685D03*
X257560Y207480D03*
X269685D03*
X257560Y209055D03*
X269685D03*
X257560Y210630D03*
X269685D03*
X257560Y212205D03*
X269685D03*
X257560Y213780D03*
X269685D03*
X257560Y215354D03*
X269685D03*
X257560Y216929D03*
X269685D03*
X257560Y218504D03*
X269685D03*
X257560Y220079D03*
X269685D03*
X257560Y221654D03*
X269685D03*
X257560Y223228D03*
X269685D03*
X257560Y224803D03*
X269685D03*
X257560Y226378D03*
X269685D03*
X257560Y227953D03*
X269685D03*
X257560Y229528D03*
X269685D03*
X257560Y231102D03*
X269685D03*
X257560Y232677D03*
X269685D03*
X257560Y234252D03*
X269685D03*
X257560Y235827D03*
X269685D03*
X257560Y237402D03*
X269685D03*
X257560Y238976D03*
X269685D03*
X257560Y240551D03*
X269685D03*
X257560Y242126D03*
X269685D03*
X257560Y243701D03*
X269685D03*
X257560Y245276D03*
X269685D03*
G54D40*
X196000Y344351D03*
G36*
G01X172499Y338900D02*
X172504Y338805D01*
X172499Y338711D01*
X172487Y338617D01*
X172466Y338524D01*
X172436Y338434D01*
X172399Y338347D01*
X172354Y338264D01*
X172302Y338185D01*
X172242Y338111D01*
X172177Y338042D01*
X172105Y337980D01*
X172028Y337925D01*
X171938Y337880D01*
X171844Y337844D01*
X171747Y337817D01*
X171648Y337798D01*
X171548Y337789D01*
X171448D01*
X171348Y337798D01*
X171249Y337817D01*
X171152Y337844D01*
X171058Y337880D01*
X170968Y337925D01*
X170890Y337978D01*
X170817Y338038D01*
X170750Y338105D01*
X170690Y338179D01*
X170637Y338257D01*
X170592Y338341D01*
X170555Y338428D01*
X170527Y338518D01*
X170508Y338611D01*
X170498Y338705D01*
X170497Y338800D01*
X170496Y338886D01*
X170505Y338971D01*
X170522Y339055D01*
X170548Y339136D01*
X170583Y339215D01*
X170625Y339289D01*
X170675Y339358D01*
X170732Y339422D01*
X170796Y339480D01*
X170865Y339530D01*
X170939Y339573D01*
X171017Y339608D01*
X171099Y339635D01*
X171183Y339652D01*
X171268Y339661D01*
X171727D01*
X171811Y339653D01*
X171894Y339635D01*
X171975Y339609D01*
X172052Y339575D01*
X172126Y339533D01*
X172195Y339484D01*
X172258Y339428D01*
X172315Y339365D01*
X172365Y339297D01*
X172408Y339224D01*
X172444Y339147D01*
X172471Y339067D01*
X172489Y338984D01*
X172499Y338900D01*
G37*
G36*
G01X190499Y319900D02*
X190504Y319805D01*
X190499Y319711D01*
X190487Y319617D01*
X190466Y319524D01*
X190436Y319434D01*
X190399Y319347D01*
X190354Y319264D01*
X190302Y319185D01*
X190242Y319111D01*
X190177Y319042D01*
X190105Y318980D01*
X190028Y318925D01*
X189938Y318880D01*
X189844Y318844D01*
X189747Y318817D01*
X189648Y318798D01*
X189548Y318789D01*
X189448D01*
X189348Y318798D01*
X189249Y318817D01*
X189152Y318844D01*
X189058Y318880D01*
X188968Y318925D01*
X188890Y318978D01*
X188817Y319038D01*
X188750Y319105D01*
X188690Y319179D01*
X188637Y319257D01*
X188592Y319341D01*
X188555Y319428D01*
X188527Y319518D01*
X188508Y319611D01*
X188498Y319705D01*
X188497Y319800D01*
X188496Y319886D01*
X188505Y319971D01*
X188522Y320055D01*
X188548Y320136D01*
X188583Y320215D01*
X188625Y320289D01*
X188675Y320358D01*
X188732Y320422D01*
X188796Y320480D01*
X188865Y320530D01*
X188939Y320573D01*
X189017Y320608D01*
X189099Y320635D01*
X189183Y320652D01*
X189268Y320661D01*
X189727D01*
X189811Y320653D01*
X189894Y320635D01*
X189975Y320609D01*
X190052Y320575D01*
X190126Y320533D01*
X190195Y320484D01*
X190258Y320428D01*
X190315Y320365D01*
X190365Y320297D01*
X190408Y320224D01*
X190444Y320147D01*
X190471Y320067D01*
X190489Y319984D01*
X190499Y319900D01*
G37*
G36*
G01X215899Y314800D02*
X215904Y314705D01*
X215899Y314611D01*
X215887Y314517D01*
X215866Y314424D01*
X215836Y314334D01*
X215799Y314247D01*
X215754Y314164D01*
X215702Y314085D01*
X215642Y314011D01*
X215577Y313942D01*
X215505Y313880D01*
X215428Y313825D01*
X215338Y313780D01*
X215244Y313744D01*
X215147Y313717D01*
X215048Y313698D01*
X214948Y313689D01*
X214848D01*
X214748Y313698D01*
X214649Y313717D01*
X214552Y313744D01*
X214458Y313780D01*
X214368Y313825D01*
X214290Y313878D01*
X214217Y313938D01*
X214150Y314005D01*
X214090Y314079D01*
X214037Y314157D01*
X213992Y314241D01*
X213955Y314328D01*
X213927Y314418D01*
X213908Y314511D01*
X213898Y314605D01*
X213897Y314700D01*
X213896Y314786D01*
X213905Y314871D01*
X213922Y314955D01*
X213948Y315036D01*
X213983Y315115D01*
X214025Y315189D01*
X214075Y315258D01*
X214132Y315322D01*
X214196Y315380D01*
X214265Y315430D01*
X214339Y315473D01*
X214417Y315508D01*
X214499Y315535D01*
X214583Y315552D01*
X214668Y315561D01*
X215127D01*
X215211Y315553D01*
X215294Y315535D01*
X215375Y315509D01*
X215452Y315475D01*
X215526Y315433D01*
X215595Y315384D01*
X215658Y315328D01*
X215715Y315265D01*
X215765Y315197D01*
X215808Y315124D01*
X215844Y315047D01*
X215871Y314967D01*
X215889Y314884D01*
X215899Y314800D01*
G37*
G36*
G01X215699Y322000D02*
X215704Y321905D01*
X215699Y321811D01*
X215687Y321717D01*
X215666Y321624D01*
X215636Y321534D01*
X215599Y321447D01*
X215554Y321364D01*
X215502Y321285D01*
X215442Y321211D01*
X215377Y321142D01*
X215305Y321080D01*
X215228Y321025D01*
X215138Y320980D01*
X215044Y320944D01*
X214947Y320917D01*
X214848Y320898D01*
X214748Y320889D01*
X214648D01*
X214548Y320898D01*
X214449Y320917D01*
X214352Y320944D01*
X214258Y320980D01*
X214168Y321025D01*
X214090Y321078D01*
X214017Y321138D01*
X213950Y321205D01*
X213890Y321279D01*
X213837Y321357D01*
X213792Y321441D01*
X213755Y321528D01*
X213727Y321618D01*
X213708Y321711D01*
X213698Y321805D01*
X213697Y321900D01*
X213696Y321986D01*
X213705Y322071D01*
X213722Y322155D01*
X213748Y322236D01*
X213783Y322315D01*
X213825Y322389D01*
X213875Y322458D01*
X213932Y322522D01*
X213996Y322580D01*
X214065Y322630D01*
X214139Y322673D01*
X214217Y322708D01*
X214299Y322735D01*
X214383Y322752D01*
X214468Y322761D01*
X214927D01*
X215011Y322753D01*
X215094Y322735D01*
X215175Y322709D01*
X215252Y322675D01*
X215326Y322633D01*
X215395Y322584D01*
X215458Y322528D01*
X215515Y322465D01*
X215565Y322397D01*
X215608Y322324D01*
X215644Y322247D01*
X215671Y322167D01*
X215689Y322084D01*
X215699Y322000D01*
G37*
G36*
G01X194499Y319900D02*
X194504Y319805D01*
X194499Y319711D01*
X194487Y319617D01*
X194466Y319524D01*
X194436Y319434D01*
X194399Y319347D01*
X194354Y319264D01*
X194302Y319185D01*
X194242Y319111D01*
X194177Y319042D01*
X194105Y318980D01*
X194028Y318925D01*
X193938Y318880D01*
X193844Y318844D01*
X193747Y318817D01*
X193648Y318798D01*
X193548Y318789D01*
X193448D01*
X193348Y318798D01*
X193249Y318817D01*
X193152Y318844D01*
X193058Y318880D01*
X192968Y318925D01*
X192890Y318978D01*
X192817Y319038D01*
X192750Y319105D01*
X192690Y319179D01*
X192637Y319257D01*
X192592Y319341D01*
X192555Y319428D01*
X192527Y319518D01*
X192508Y319611D01*
X192498Y319705D01*
X192497Y319800D01*
X192496Y319886D01*
X192505Y319971D01*
X192522Y320055D01*
X192548Y320136D01*
X192583Y320215D01*
X192625Y320289D01*
X192675Y320358D01*
X192732Y320422D01*
X192796Y320480D01*
X192865Y320530D01*
X192939Y320573D01*
X193017Y320608D01*
X193099Y320635D01*
X193183Y320652D01*
X193268Y320661D01*
X193727D01*
X193811Y320653D01*
X193894Y320635D01*
X193975Y320609D01*
X194052Y320575D01*
X194126Y320533D01*
X194195Y320484D01*
X194258Y320428D01*
X194315Y320365D01*
X194365Y320297D01*
X194408Y320224D01*
X194444Y320147D01*
X194471Y320067D01*
X194489Y319984D01*
X194499Y319900D01*
G37*
G54D14*
X14000Y160000D03*
G54D50*
X287500Y115000D03*
G54D23*
X70500Y173700D03*
Y184300D03*
X61500Y173700D03*
Y184300D03*
X70000Y207200D03*
Y217800D03*
X146000Y368300D03*
Y357700D03*
X248000Y347700D03*
Y358300D03*
X333500Y190700D03*
Y201300D03*
X317000Y346200D03*
Y356800D03*
G54D32*
X146100Y310000D03*
X156900D03*
G54D51*
X323000Y20679D03*
G54D60*
X355667Y113000D03*
Y118000D03*
Y123000D03*
Y128000D03*
X375333Y113000D03*
Y118000D03*
Y123000D03*
Y128000D03*
X376333Y254000D03*
Y249000D03*
Y244000D03*
Y239000D03*
X356667Y254000D03*
Y249000D03*
Y244000D03*
Y239000D03*
G54D15*
X13750Y301500D03*
Y311500D03*
Y321500D03*
Y331500D03*
G54D24*
X43000Y159500D03*
X66000D03*
X64000Y300500D03*
Y320500D03*
X87000Y300500D03*
Y320500D03*
X384000Y304500D03*
X361000D03*
X384000Y325000D03*
X361000D03*
G54D33*
X126839Y348382D03*
X124280D03*
X121720D03*
X119161D03*
X126839Y358618D03*
X124280D03*
X121720D03*
X119161D03*
X268161Y359382D03*
X270720D03*
X268161Y369618D03*
X270720D03*
X273280Y359382D03*
X275839D03*
X273280Y369618D03*
X275839D03*
X338661Y363382D03*
X341220D03*
X343780D03*
X346339D03*
X338661Y373618D03*
X341220D03*
X343780D03*
X346339D03*
G36*
G01X170501Y335100D02*
X170496Y335195D01*
X170501Y335289D01*
X170513Y335383D01*
X170534Y335476D01*
X170564Y335566D01*
X170601Y335653D01*
X170646Y335736D01*
X170698Y335815D01*
X170758Y335889D01*
X170823Y335958D01*
X170895Y336020D01*
X170972Y336075D01*
X171062Y336120D01*
X171156Y336156D01*
X171253Y336183D01*
X171352Y336202D01*
X171452Y336211D01*
X171552D01*
X171652Y336202D01*
X171751Y336183D01*
X171848Y336156D01*
X171942Y336120D01*
X172032Y336075D01*
X172110Y336022D01*
X172183Y335962D01*
X172250Y335895D01*
X172310Y335821D01*
X172363Y335743D01*
X172408Y335659D01*
X172445Y335572D01*
X172473Y335482D01*
X172492Y335389D01*
X172502Y335295D01*
X172503Y335200D01*
X172504Y335114D01*
X172495Y335029D01*
X172478Y334945D01*
X172452Y334864D01*
X172417Y334785D01*
X172375Y334711D01*
X172325Y334642D01*
X172268Y334578D01*
X172204Y334520D01*
X172135Y334470D01*
X172061Y334427D01*
X171983Y334392D01*
X171901Y334365D01*
X171817Y334348D01*
X171732Y334339D01*
X171273D01*
X171189Y334347D01*
X171106Y334365D01*
X171025Y334391D01*
X170948Y334425D01*
X170874Y334467D01*
X170805Y334516D01*
X170742Y334572D01*
X170685Y334635D01*
X170635Y334703D01*
X170592Y334776D01*
X170556Y334853D01*
X170529Y334933D01*
X170511Y335016D01*
X170501Y335100D01*
G37*
G36*
G01X188501Y316100D02*
X188496Y316195D01*
X188501Y316289D01*
X188513Y316383D01*
X188534Y316476D01*
X188564Y316566D01*
X188601Y316653D01*
X188646Y316736D01*
X188698Y316815D01*
X188758Y316889D01*
X188823Y316958D01*
X188895Y317020D01*
X188972Y317075D01*
X189062Y317120D01*
X189156Y317156D01*
X189253Y317183D01*
X189352Y317202D01*
X189452Y317211D01*
X189552D01*
X189652Y317202D01*
X189751Y317183D01*
X189848Y317156D01*
X189942Y317120D01*
X190032Y317075D01*
X190110Y317022D01*
X190183Y316962D01*
X190250Y316895D01*
X190310Y316821D01*
X190363Y316743D01*
X190408Y316659D01*
X190445Y316572D01*
X190473Y316482D01*
X190492Y316389D01*
X190502Y316295D01*
X190503Y316200D01*
X190504Y316114D01*
X190495Y316029D01*
X190478Y315945D01*
X190452Y315864D01*
X190417Y315785D01*
X190375Y315711D01*
X190325Y315642D01*
X190268Y315578D01*
X190204Y315520D01*
X190135Y315470D01*
X190061Y315427D01*
X189983Y315392D01*
X189901Y315365D01*
X189817Y315348D01*
X189732Y315339D01*
X189273D01*
X189189Y315347D01*
X189106Y315365D01*
X189025Y315391D01*
X188948Y315425D01*
X188874Y315467D01*
X188805Y315516D01*
X188742Y315572D01*
X188685Y315635D01*
X188635Y315703D01*
X188592Y315776D01*
X188556Y315853D01*
X188529Y315933D01*
X188511Y316016D01*
X188501Y316100D01*
G37*
G36*
G01X213901Y311000D02*
X213896Y311095D01*
X213901Y311189D01*
X213913Y311283D01*
X213934Y311376D01*
X213964Y311466D01*
X214001Y311553D01*
X214046Y311636D01*
X214098Y311715D01*
X214158Y311789D01*
X214223Y311858D01*
X214295Y311920D01*
X214372Y311975D01*
X214462Y312020D01*
X214556Y312056D01*
X214653Y312083D01*
X214752Y312102D01*
X214852Y312111D01*
X214952D01*
X215052Y312102D01*
X215151Y312083D01*
X215248Y312056D01*
X215342Y312020D01*
X215432Y311975D01*
X215510Y311922D01*
X215583Y311862D01*
X215650Y311795D01*
X215710Y311721D01*
X215763Y311643D01*
X215808Y311559D01*
X215845Y311472D01*
X215873Y311382D01*
X215892Y311289D01*
X215902Y311195D01*
X215903Y311100D01*
X215904Y311014D01*
X215895Y310929D01*
X215878Y310845D01*
X215852Y310764D01*
X215817Y310685D01*
X215775Y310611D01*
X215725Y310542D01*
X215668Y310478D01*
X215604Y310420D01*
X215535Y310370D01*
X215461Y310327D01*
X215383Y310292D01*
X215301Y310265D01*
X215217Y310248D01*
X215132Y310239D01*
X214673D01*
X214589Y310247D01*
X214506Y310265D01*
X214425Y310291D01*
X214348Y310325D01*
X214274Y310367D01*
X214205Y310416D01*
X214142Y310472D01*
X214085Y310535D01*
X214035Y310603D01*
X213992Y310676D01*
X213956Y310753D01*
X213929Y310833D01*
X213911Y310916D01*
X213901Y311000D01*
G37*
G36*
G01X213701Y318200D02*
X213696Y318295D01*
X213701Y318389D01*
X213713Y318483D01*
X213734Y318576D01*
X213764Y318666D01*
X213801Y318753D01*
X213846Y318836D01*
X213898Y318915D01*
X213958Y318989D01*
X214023Y319058D01*
X214095Y319120D01*
X214172Y319175D01*
X214262Y319220D01*
X214356Y319256D01*
X214453Y319283D01*
X214552Y319302D01*
X214652Y319311D01*
X214752D01*
X214852Y319302D01*
X214951Y319283D01*
X215048Y319256D01*
X215142Y319220D01*
X215232Y319175D01*
X215310Y319122D01*
X215383Y319062D01*
X215450Y318995D01*
X215510Y318921D01*
X215563Y318843D01*
X215608Y318759D01*
X215645Y318672D01*
X215673Y318582D01*
X215692Y318489D01*
X215702Y318395D01*
X215703Y318300D01*
X215704Y318214D01*
X215695Y318129D01*
X215678Y318045D01*
X215652Y317964D01*
X215617Y317885D01*
X215575Y317811D01*
X215525Y317742D01*
X215468Y317678D01*
X215404Y317620D01*
X215335Y317570D01*
X215261Y317527D01*
X215183Y317492D01*
X215101Y317465D01*
X215017Y317448D01*
X214932Y317439D01*
X214473D01*
X214389Y317447D01*
X214306Y317465D01*
X214225Y317491D01*
X214148Y317525D01*
X214074Y317567D01*
X214005Y317616D01*
X213942Y317672D01*
X213885Y317735D01*
X213835Y317803D01*
X213792Y317876D01*
X213756Y317953D01*
X213729Y318033D01*
X213711Y318116D01*
X213701Y318200D01*
G37*
G36*
G01X192501Y316100D02*
X192496Y316195D01*
X192501Y316289D01*
X192513Y316383D01*
X192534Y316476D01*
X192564Y316566D01*
X192601Y316653D01*
X192646Y316736D01*
X192698Y316815D01*
X192758Y316889D01*
X192823Y316958D01*
X192895Y317020D01*
X192972Y317075D01*
X193062Y317120D01*
X193156Y317156D01*
X193253Y317183D01*
X193352Y317202D01*
X193452Y317211D01*
X193552D01*
X193652Y317202D01*
X193751Y317183D01*
X193848Y317156D01*
X193942Y317120D01*
X194032Y317075D01*
X194110Y317022D01*
X194183Y316962D01*
X194250Y316895D01*
X194310Y316821D01*
X194363Y316743D01*
X194408Y316659D01*
X194445Y316572D01*
X194473Y316482D01*
X194492Y316389D01*
X194502Y316295D01*
X194503Y316200D01*
X194504Y316114D01*
X194495Y316029D01*
X194478Y315945D01*
X194452Y315864D01*
X194417Y315785D01*
X194375Y315711D01*
X194325Y315642D01*
X194268Y315578D01*
X194204Y315520D01*
X194135Y315470D01*
X194061Y315427D01*
X193983Y315392D01*
X193901Y315365D01*
X193817Y315348D01*
X193732Y315339D01*
X193273D01*
X193189Y315347D01*
X193106Y315365D01*
X193025Y315391D01*
X192948Y315425D01*
X192874Y315467D01*
X192805Y315516D01*
X192742Y315572D01*
X192685Y315635D01*
X192635Y315703D01*
X192592Y315776D01*
X192556Y315853D01*
X192529Y315933D01*
X192511Y316016D01*
X192501Y316100D01*
G37*
G54D61*
X377937Y153220D03*
Y180780D03*
G54D43*
X162000Y369000D03*
X257400Y357200D03*
X290500Y342500D03*
X359000Y77500D03*
X353000Y335500D03*
G54D34*
X146001Y319945D03*
Y324944D03*
Y329945D03*
Y334944D03*
X124001D03*
Y329945D03*
Y324944D03*
Y319945D03*
X220000Y380500D03*
Y375500D03*
Y370500D03*
Y365500D03*
X242000D03*
Y370500D03*
Y375500D03*
Y380500D03*
G54D25*
X110000Y327421D03*
Y317579D03*
G54D16*
X5246Y321500D03*
X61161Y124539D03*
Y273161D03*
X151161Y124539D03*
Y273161D03*
X241161Y124539D03*
Y273161D03*
X331161Y124539D03*
Y273161D03*
G54D52*
G01X269685Y175984D02*
X269872Y175797D01*
X272203D01*
X275500Y172500D01*
Y158500D01*
X270200Y153200D01*
X249597D01*
X241697Y145300D01*
X234803D01*
X216300Y163803D01*
Y289000D01*
X196300Y309000D01*
X190003D01*
X183003Y316000D01*
X173003D01*
X171400Y317603D01*
Y323697D01*
X173500Y325797D01*
Y329800D01*
X175265Y331565D01*
X178292D01*
X178480Y331753D01*
G01X177194Y309700D02*
X176600Y310294D01*
Y311500D01*
X177100Y312000D01*
X181803D01*
X189003Y304800D01*
X195400D01*
X212800Y287400D01*
Y162503D01*
X233503Y141800D01*
X244397D01*
X250697Y148100D01*
X272397D01*
X279049Y154751D01*
X279400Y155103D01*
Y180097D01*
X274252Y185246D01*
X272167D01*
X271979Y185434D01*
X269685D01*
Y185433D01*
G01X174194Y309700D02*
X175400Y310906D01*
Y311997D01*
X176603Y313200D01*
X182300D01*
X189500Y306000D01*
X195897D01*
X214000Y287897D01*
Y163000D01*
X234000Y143000D01*
X243900D01*
X250200Y149300D01*
X271900D01*
X278200Y155600D01*
Y179600D01*
X273754Y184046D01*
X272167D01*
X271979Y183858D01*
X269685D01*
G01Y174410D02*
X269872Y174597D01*
X271706D01*
X274300Y172003D01*
Y171310D01*
X273800Y170810D01*
X273700D01*
X273200Y170310D01*
Y169310D01*
X273700Y168810D01*
X273800D01*
X274300Y168310D01*
Y167310D01*
X273800Y166810D01*
X273700D01*
X273200Y166310D01*
Y165310D01*
X273700Y164810D01*
X273800D01*
X274300Y164310D01*
Y163310D01*
X273800Y162810D01*
X273700D01*
X273200Y162310D01*
Y161310D01*
X273700Y160810D01*
X273800D01*
X274300Y160310D01*
Y158997D01*
X273282Y157979D01*
X272575D01*
X272431Y158124D01*
X271724D01*
X271016Y157416D01*
Y156709D01*
X271161Y156565D01*
Y155858D01*
X269702Y154400D01*
X249100D01*
X241200Y146500D01*
X235300D01*
X217500Y164300D01*
Y289497D01*
X196797Y310200D01*
X190500D01*
X183500Y317200D01*
X181400D01*
X180500Y318100D01*
X179400D01*
X178500Y317200D01*
X177400D01*
X176500Y318100D01*
X175400D01*
X174500Y317200D01*
X173500D01*
X172600Y318100D01*
Y319804D01*
X173400Y320604D01*
Y321804D01*
X172600Y322604D01*
Y323200D01*
X174700Y325300D01*
Y325653D01*
X175200Y326153D01*
X175600D01*
X176100Y326653D01*
Y327653D01*
X175600Y328153D01*
X175200D01*
X174700Y328653D01*
Y329303D01*
X175762Y330365D01*
X178292D01*
X178480Y330178D01*
G01X180206Y320398D02*
X180100Y320504D01*
Y321800D01*
X180849Y322549D01*
X184777D01*
X185980Y323752D01*
Y324980D01*
X186354Y325354D01*
Y326831D01*
G01X177206Y320398D02*
Y320400D01*
X177208Y320401D01*
X177506D01*
X178900Y321794D01*
Y322297D01*
X180352Y323749D01*
X184280D01*
X184780Y324249D01*
Y326831D01*
G01X269685Y180709D02*
X267391Y180709D01*
X267204Y180522D01*
X264322D01*
X263100Y179300D01*
Y159300D01*
X261800Y158000D01*
X247800D01*
X239900Y150100D01*
X236500D01*
X221000Y165600D01*
Y291797D01*
X198997Y313800D01*
X197605D01*
X196805Y314600D01*
X195605D01*
X194805Y313800D01*
X192500D01*
X191500Y314800D01*
Y315650D01*
X192000Y316150D01*
X193500D01*
G01X269685Y179134D02*
X267391Y179134D01*
X267204Y179322D01*
X264819D01*
X264300Y178803D01*
Y158803D01*
X262297Y156800D01*
X248297D01*
X240397Y148900D01*
X236003D01*
X219800Y165103D01*
Y291300D01*
X198500Y312600D01*
X192003D01*
X190300Y314303D01*
Y315350D01*
X189500Y316150D01*
G01Y319850D02*
X190550D01*
X190900Y320200D01*
Y321903D01*
X189691Y323111D01*
Y324509D01*
X189504Y324696D01*
Y326831D01*
G01X193500Y319850D02*
X192450D01*
X192100Y320200D01*
Y322400D01*
X190891Y323609D01*
Y324591D01*
X191079Y324779D01*
Y326831D01*
G01X257560Y169685D02*
X249082D01*
X239297Y159900D01*
X232628D01*
X232300Y159572D01*
G01X257560Y171260D02*
X256260D01*
X255885Y170885D01*
X248585D01*
X238800Y161100D01*
X233772D01*
X232300Y162572D01*
X323000Y7293D03*
G54D62*
G01X48500Y348000D02*
Y346000D01*
X17500Y315000D01*
Y305250D01*
X13750Y301500D01*
G01Y311500D02*
Y313250D01*
X45500Y345000D01*
Y346000D01*
G01X284500Y312600D02*
X287700Y315800D01*
X316700D01*
X319700Y312800D01*
X329100D01*
X341200Y300700D01*
Y241700D01*
X336000Y236500D01*
X329000D01*
X317415Y224915D01*
Y133415D01*
X296400Y112400D01*
X286000D01*
X275900Y122500D01*
X251400D01*
X245400Y116500D01*
X239000D01*
X233900Y121600D01*
X207600D01*
X204700Y118700D01*
X178585D01*
X152885Y144400D01*
X115600D01*
X107885Y152115D01*
Y214485D01*
X116300Y222900D01*
X120600D01*
X121846Y221654D01*
X124015D01*
G01X335000Y310000D02*
X343100Y301900D01*
Y241100D01*
X336500Y234500D01*
X330000D01*
X318900Y223400D01*
Y132900D01*
X296900Y110900D01*
X285300D01*
X275100Y121100D01*
X252200D01*
X246200Y115100D01*
X238200D01*
X233400Y119900D01*
X207900D01*
X205300Y117300D01*
X178000D01*
X152300Y143000D01*
X114500D01*
X106400Y151100D01*
Y215100D01*
X118100Y226800D01*
X121900D01*
X122322Y226378D01*
X124015D01*
G01X97800Y338100D02*
X100000Y335900D01*
Y315000D01*
X104500Y310500D01*
X107000D01*
X123013Y294487D01*
Y286687D01*
X124400Y285300D01*
Y252100D01*
X120900Y248600D01*
Y240200D01*
X122124Y238976D01*
X124015D01*
G01X93900Y338300D02*
X98000Y334200D01*
Y315000D01*
X103500Y309500D01*
X106500D01*
X122050Y293950D01*
Y285650D01*
X123300Y284400D01*
Y252400D01*
X119900Y249000D01*
Y239900D01*
X122398Y237402D01*
X124015D01*
G01Y240551D02*
X122502Y240551D01*
X121849Y241204D01*
Y248149D01*
X125400Y251700D01*
Y286000D01*
X124077Y287323D01*
Y294923D01*
X107000Y312000D01*
X104500D01*
X102000Y314500D01*
Y339000D01*
X100500Y340500D01*
G01X98000Y342944D02*
X102444D01*
X108400Y336989D01*
X127511D01*
X129400Y335100D01*
G01X104500Y344500D02*
X110000Y339000D01*
X128344D01*
X132400Y334944D01*
G01X357811Y188189D02*
X353021Y183400D01*
X337200D01*
X322600Y168800D01*
Y131500D01*
X311100Y120000D01*
Y116000D01*
X302900Y107800D01*
X282500D01*
X274300Y116000D01*
X253500D01*
X248900Y111400D01*
X236700D01*
X232200Y115900D01*
X208900D01*
X206700Y113700D01*
X177500D01*
X152900Y138300D01*
X136800D01*
X134000Y141100D01*
G01X361000Y188179D02*
X358221Y185400D01*
X356400D01*
X350500Y179500D01*
X335000D01*
X323800Y168300D01*
Y131000D01*
X312300Y119500D01*
Y115900D01*
X303300Y106900D01*
X281900D01*
X274300Y114500D01*
X254500D01*
X250500Y110500D01*
X235900D01*
X233900Y112500D01*
X177200D01*
X152300Y137400D01*
X133600D01*
X132000Y139000D01*
G01X354800Y188200D02*
X351100Y184500D01*
X336000D01*
X321300Y169800D01*
Y131800D01*
X309800Y120300D01*
Y116127D01*
X302373Y108700D01*
X283000D01*
X274200Y117500D01*
X253000D01*
X247800Y112300D01*
X237100D01*
X232000Y117400D01*
X208800D01*
X206100Y114700D01*
X177800D01*
X152400Y140100D01*
X139100D01*
G01X136700Y141300D02*
X137400Y142000D01*
X151900D01*
X178100Y115800D01*
X205500D01*
X208200Y118500D01*
X232600D01*
X237300Y113800D01*
X247800D01*
X253000Y119000D01*
X274800D01*
X284000Y109800D01*
X301300D01*
X308600Y117100D01*
Y120600D01*
X320125Y132125D01*
Y170125D01*
X336000Y186000D01*
X350000D01*
X352000Y188000D01*
G01X129000Y140500D02*
Y139500D01*
X132100Y136400D01*
X151900D01*
X176800Y111500D01*
X233400D01*
X235400Y109500D01*
X251500D01*
X255000Y113000D01*
X274000D01*
X281100Y105900D01*
X305200D01*
X317900Y118600D01*
Y121900D01*
G01X316100Y312600D02*
X321781Y306919D01*
X322347D01*
X323281Y307853D01*
X323847D01*
X324413Y307287D01*
Y306722D01*
X323478Y305787D01*
Y305222D01*
X324044Y304656D01*
X324610D01*
X325544Y305590D01*
X326110D01*
X326676Y305024D01*
Y304459D01*
X325741Y303524D01*
Y302959D01*
X326307Y302393D01*
X326873D01*
X327807Y303327D01*
X328373D01*
X328938Y302762D01*
Y302196D01*
X328004Y301262D01*
Y300696D01*
X328570Y300130D01*
X329135D01*
X330070Y301065D01*
X330635D01*
X331201Y300499D01*
Y299933D01*
X330267Y298999D01*
Y298433D01*
X330833Y297867D01*
X331398D01*
X332333Y298802D01*
X332898D01*
X333464Y298236D01*
Y297670D01*
X332530Y296736D01*
Y296170D01*
X338100Y290600D01*
Y243500D01*
X334600Y240000D01*
X328000D01*
X314300Y226300D01*
Y134400D01*
X299053Y119153D01*
X285147D01*
X278700Y125600D01*
X273032D01*
X272632Y126000D01*
Y128800D01*
X272232Y129200D01*
X271432D01*
X271032Y128800D01*
Y126000D01*
X270632Y125600D01*
X269832D01*
X269432Y126000D01*
Y128800D01*
X269032Y129200D01*
X268232D01*
X267832Y128800D01*
Y126000D01*
X267432Y125600D01*
X266632D01*
X266232Y126000D01*
Y128800D01*
X265832Y129200D01*
X265032D01*
X264632Y128800D01*
Y126000D01*
X264232Y125600D01*
X263432D01*
X263032Y126000D01*
Y128800D01*
X262632Y129200D01*
X261832D01*
X261432Y128800D01*
Y126000D01*
X261032Y125600D01*
X249800D01*
X244200Y120000D01*
X240300D01*
X232800Y127500D01*
X209400D01*
X203600Y121700D01*
X183200D01*
X171967Y132933D01*
X171402D01*
X170517Y132048D01*
X169952D01*
X169386Y132614D01*
Y133180D01*
X170270Y134064D01*
Y134630D01*
X169704Y135196D01*
X169139D01*
X168254Y134311D01*
X167689D01*
X167123Y134877D01*
Y135442D01*
X168008Y136327D01*
Y136892D01*
X167442Y137458D01*
X166876D01*
X165992Y136574D01*
X165426D01*
X164860Y137140D01*
Y137706D01*
X165744Y138590D01*
Y139156D01*
X165179Y139721D01*
X164613D01*
X163729Y138837D01*
X163163D01*
X162597Y139403D01*
Y139968D01*
X163482Y140853D01*
Y141418D01*
X162916Y141984D01*
X162350D01*
X161466Y141100D01*
X160900D01*
X160335Y141665D01*
Y142231D01*
X161219Y143115D01*
Y143681D01*
X160653Y144247D01*
X160088D01*
X159203Y143362D01*
X158638D01*
X158072Y143928D01*
Y144494D01*
X158956Y145378D01*
Y145944D01*
X157600Y147300D01*
X119200D01*
X116587Y149913D01*
X115587D01*
X114956Y150544D01*
Y151544D01*
X114324Y152176D01*
X113324D01*
X112692Y152808D01*
Y153808D01*
X111000Y155500D01*
Y212000D01*
X115929Y216929D01*
X124015D01*
G01X328300Y310800D02*
X331094Y308006D01*
Y307441D01*
X329859Y306206D01*
Y305641D01*
X330425Y305075D01*
X330991D01*
X332225Y306309D01*
X332791D01*
X333356Y305744D01*
Y305178D01*
X332122Y303944D01*
Y303378D01*
X332688Y302812D01*
X333253D01*
X334488Y304047D01*
X335053D01*
X335619Y303481D01*
Y302915D01*
X334385Y301681D01*
Y301115D01*
X334951Y300549D01*
X335516D01*
X336751Y301784D01*
X337316D01*
X339689Y299411D01*
Y242500D01*
X335189Y238000D01*
X328500D01*
X315789Y225289D01*
Y133889D01*
X298300Y116400D01*
X296259D01*
X295859Y116000D01*
Y114400D01*
X295459Y114000D01*
X294659D01*
X294259Y114400D01*
Y116000D01*
X293859Y116400D01*
X293059D01*
X292659Y116000D01*
Y114400D01*
X292259Y114000D01*
X291459D01*
X291059Y114400D01*
Y116000D01*
X289559Y117500D01*
X283700D01*
X277250Y123950D01*
X250450D01*
X244900Y118400D01*
X239500D01*
X231800Y126100D01*
X229394D01*
X228994Y125700D01*
Y123700D01*
X228594Y123300D01*
X227794D01*
X227394Y123700D01*
Y125700D01*
X226994Y126100D01*
X226194D01*
X225794Y125700D01*
Y123700D01*
X225394Y123300D01*
X224594D01*
X224194Y123700D01*
Y125700D01*
X223794Y126100D01*
X222994D01*
X222594Y125700D01*
Y123700D01*
X222194Y123300D01*
X221394D01*
X220994Y123700D01*
Y125700D01*
X220594Y126100D01*
X219794D01*
X219394Y125700D01*
Y123700D01*
X218994Y123300D01*
X218194D01*
X217794Y123700D01*
Y125700D01*
X217394Y126100D01*
X216594D01*
X216194Y125700D01*
Y123700D01*
X215794Y123300D01*
X214994D01*
X214594Y123700D01*
Y125700D01*
X214194Y126100D01*
X210100D01*
X204200Y120200D01*
X182246D01*
X181446Y121000D01*
Y121054D01*
X180881Y121619D01*
X180315D01*
X179431Y120735D01*
X178865D01*
X178299Y121301D01*
Y121866D01*
X179184Y122751D01*
Y123316D01*
X178618Y123882D01*
X178052D01*
X177168Y122998D01*
X176602D01*
X176037Y123563D01*
Y124129D01*
X176921Y125013D01*
Y125579D01*
X176355Y126145D01*
X175789D01*
X174905Y125261D01*
X174339D01*
X153702Y145898D01*
X117603D01*
X115787Y147713D01*
X114787D01*
X114156Y148344D01*
X114156Y148779D01*
Y149344D01*
X113524Y149976D01*
X112524D01*
X111893Y150608D01*
Y151607D01*
X109511Y153989D01*
Y213811D01*
X117200Y221500D01*
X120300D01*
X121721Y220079D01*
X124015D01*
G01X291000Y312700D02*
X291200D01*
X292800Y314300D01*
X311200D01*
X331203Y294297D01*
Y293731D01*
X329169Y291697D01*
Y291131D01*
X329735Y290565D01*
X330300D01*
X332335Y292600D01*
X332900D01*
X333466Y292034D01*
Y291468D01*
X331432Y289434D01*
Y288868D01*
X331998Y288302D01*
X332563D01*
X334598Y290337D01*
X335163D01*
X335700Y289800D01*
Y243200D01*
X334000Y241500D01*
X327500D01*
X312700Y226700D01*
Y134800D01*
X299200Y121300D01*
X287100D01*
X273700Y134700D01*
X272279D01*
X271879Y134300D01*
Y132400D01*
X271479Y132000D01*
X270679D01*
X270279Y132400D01*
Y134300D01*
X269879Y134700D01*
X269079D01*
X268679Y134300D01*
Y132400D01*
X268279Y132000D01*
X267479D01*
X267079Y132400D01*
Y134300D01*
X266679Y134700D01*
X265879D01*
X265479Y134300D01*
Y132400D01*
X265079Y132000D01*
X264279D01*
X263879Y132400D01*
Y134300D01*
X263479Y134700D01*
X256800D01*
X251400Y129300D01*
X250717D01*
X250317Y128900D01*
Y127800D01*
X249917Y127400D01*
X249217D01*
X248717Y127900D01*
Y128900D01*
X248317Y129300D01*
X247517D01*
X247117Y128900D01*
Y125000D01*
X246617Y124500D01*
X245917D01*
X245517Y124900D01*
Y128900D01*
X245117Y129300D01*
X244317D01*
X243917Y128900D01*
Y128800D01*
X243517Y128400D01*
X242717D01*
X242317Y128800D01*
Y128900D01*
X241917Y129300D01*
X241117D01*
X240717Y128900D01*
Y128800D01*
X240317Y128400D01*
X239517D01*
X239117Y128800D01*
Y128900D01*
X238717Y129300D01*
X237917D01*
X237517Y128900D01*
Y128800D01*
X237117Y128400D01*
X236317D01*
X235917Y128800D01*
Y128900D01*
X235517Y129300D01*
X209000D01*
X203100Y123400D01*
X184500D01*
X159100Y148800D01*
X121200D01*
X120032Y149968D01*
X119467D01*
X119282Y149783D01*
X118717D01*
X118151Y150349D01*
Y150915D01*
X118335Y151099D01*
Y151665D01*
X117770Y152230D01*
X117204D01*
X117020Y152046D01*
X116454D01*
X115888Y152612D01*
Y153178D01*
X116072Y153362D01*
Y153928D01*
X115507Y154493D01*
X114941D01*
X114757Y154309D01*
X114191D01*
X113626Y154874D01*
Y155440D01*
X113810Y155624D01*
Y156190D01*
X112600Y157400D01*
Y211100D01*
X117500Y216000D01*
X121500D01*
X122146Y215354D01*
X124015D01*
G01X136141Y182284D02*
X133416Y182284D01*
X132600Y183100D01*
G01X116200Y179000D02*
X119400D01*
X120200Y179800D01*
X121600D01*
X122266Y179134D01*
X124015D01*
G01X118800Y181200D02*
X121600D01*
X122091Y180709D01*
X124015D01*
G01X130700Y179500D02*
X133800D01*
X134166Y179134D01*
X136141D01*
G01X139000Y181600D02*
X138109Y180709D01*
X136141D01*
G01X312000Y310200D02*
X326000Y296200D01*
Y286600D01*
X334300Y278300D01*
Y269670D01*
X333900Y269270D01*
X330400D01*
X330000Y268870D01*
Y268070D01*
X330400Y267670D01*
X333900D01*
X334300Y267270D01*
Y266470D01*
X333900Y266070D01*
X330400D01*
X330000Y265670D01*
Y264870D01*
X330400Y264470D01*
X333900D01*
X334300Y264070D01*
Y263270D01*
X333900Y262870D01*
X330400D01*
X330000Y262470D01*
Y261670D01*
X330400Y261270D01*
X333900D01*
X334300Y260870D01*
Y260070D01*
X333900Y259670D01*
X330400D01*
X330000Y259270D01*
Y258470D01*
X330400Y258070D01*
X333900D01*
X334300Y257670D01*
Y256870D01*
X333900Y256470D01*
X330400D01*
X330000Y256070D01*
Y255270D01*
X330400Y254870D01*
X333900D01*
X334300Y254470D01*
Y253670D01*
X333900Y253270D01*
X330400D01*
X330000Y252870D01*
Y252070D01*
X330400Y251670D01*
X333900D01*
X334300Y251270D01*
Y250470D01*
X333900Y250070D01*
X330400D01*
X330000Y249670D01*
Y248870D01*
X330400Y248470D01*
X333900D01*
X334300Y248070D01*
Y247270D01*
X333900Y246870D01*
X330400D01*
X330000Y246470D01*
Y245670D01*
X330400Y245270D01*
X333900D01*
X334300Y244870D01*
Y244070D01*
X333900Y243670D01*
X327170D01*
X311300Y227800D01*
Y135500D01*
X298700Y122900D01*
X287500D01*
X273600Y136800D01*
X256800D01*
X250900Y130900D01*
X208600D01*
X202500Y124800D01*
X186100D01*
X169972Y140928D01*
Y141493D01*
X172057Y143578D01*
Y144143D01*
X171491Y144709D01*
X170925D01*
X168841Y142625D01*
X168275D01*
X167710Y143190D01*
Y143756D01*
X169794Y145840D01*
Y146406D01*
X169228Y146972D01*
X168663D01*
X166578Y144887D01*
X166013D01*
X160700Y150200D01*
X128032D01*
X127632Y150600D01*
Y151600D01*
X127232Y152000D01*
X126432D01*
X126032Y151600D01*
Y150600D01*
X125632Y150200D01*
X121800D01*
X114000Y158000D01*
Y208200D01*
X117100Y211300D01*
X120300D01*
X121205Y212205D01*
X124015D01*
G01X136141Y215354D02*
X135995Y215500D01*
X134800D01*
X134000Y214700D01*
Y200400D01*
X130600Y197000D01*
Y182900D01*
X128300Y180600D01*
Y165800D01*
X133900Y160200D01*
X141900D01*
X146800Y155300D01*
X153563D01*
X153963Y155700D01*
Y159100D01*
X154363Y159500D01*
X155163D01*
X155563Y159100D01*
Y155700D01*
X155963Y155300D01*
X156763D01*
X157163Y155700D01*
Y159100D01*
X157563Y159500D01*
X158363D01*
X158763Y159100D01*
Y155700D01*
X159163Y155300D01*
X159963D01*
X160363Y155700D01*
Y159100D01*
X160763Y159500D01*
X161563D01*
X161963Y159100D01*
Y155700D01*
X162363Y155300D01*
X169605D01*
X170005Y155700D01*
Y163100D01*
X170405Y163500D01*
X171205D01*
X171605Y163100D01*
Y155700D01*
X172005Y155300D01*
X172805D01*
X173205Y155700D01*
Y163100D01*
X173605Y163500D01*
X174405D01*
X174805Y163100D01*
Y155700D01*
X175205Y155300D01*
X176005D01*
X176405Y155700D01*
Y163100D01*
X176805Y163500D01*
X177605D01*
X178005Y163100D01*
Y155700D01*
X178405Y155300D01*
X179200D01*
X180000Y154500D01*
Y152964D01*
X179600Y152564D01*
X176900D01*
X176500Y152164D01*
Y151364D01*
X176900Y150964D01*
X179600D01*
X180000Y150564D01*
Y149764D01*
X179600Y149364D01*
X176900D01*
X176500Y148964D01*
Y148164D01*
X176900Y147764D01*
X182000D01*
X182400Y147364D01*
Y145644D01*
X182000Y145244D01*
X178766D01*
X178366Y144844D01*
Y144278D01*
X179000Y143644D01*
X179600D01*
X180000Y143244D01*
Y142444D01*
X179600Y142044D01*
X177400D01*
X177000Y141644D01*
Y140844D01*
X177400Y140444D01*
X179600D01*
X180000Y140044D01*
Y135400D01*
X187400Y128000D01*
X201500D01*
X207800Y134300D01*
X249400D01*
X255300Y140200D01*
X275008D01*
X289408Y125800D01*
X297300D01*
X308100Y136600D01*
Y229900D01*
X321900Y243700D01*
Y288000D01*
X297500Y312400D01*
G01X136141Y226378D02*
X134000Y226378D01*
X132600Y224978D01*
Y201600D01*
X129000Y198000D01*
Y183800D01*
X126900Y181700D01*
Y165000D01*
X133300Y158600D01*
X141300D01*
X146100Y153800D01*
X172700D01*
X175000Y151500D01*
Y137976D01*
X186576Y126400D01*
X202100D01*
X208500Y132800D01*
X250500D01*
X256400Y138700D01*
X274000D01*
X288400Y124300D01*
X298000D01*
X309700Y136000D01*
Y229500D01*
X323900Y243700D01*
Y294600D01*
X308000Y310500D01*
G01X136141Y174410D02*
X136132Y174400D01*
X131500D01*
X130700Y173600D01*
G01X136141Y175984D02*
X133867Y175984D01*
X133684Y175800D01*
X131000D01*
X130700Y176100D01*
G01X136141Y171260D02*
X135966Y171085D01*
X134106D01*
X132200Y169180D01*
Y166000D01*
X134300Y163900D01*
X136900D01*
X137400Y163400D01*
G01X136141Y169685D02*
X134685D01*
X133600Y168600D01*
Y166580D01*
X134880Y165300D01*
X136800D01*
X137400Y165900D01*
G01X124015Y174410D02*
X123726Y174700D01*
X119080D01*
X117500Y173120D01*
Y159580D01*
X120221Y156859D01*
X122941D01*
X123391Y157309D01*
G01X124015Y175984D02*
X123899Y176100D01*
X118500D01*
X116100Y173700D01*
Y159000D01*
X119641Y155459D01*
X122741D01*
X123391Y154809D01*
G01X124015Y171260D02*
X123928Y171172D01*
X122172D01*
X120200Y169200D01*
Y164120D01*
X128710Y155610D01*
X130670Y153650D01*
X134100D01*
G01X124015Y169685D02*
X123928Y169772D01*
X122752D01*
X121600Y168620D01*
Y164700D01*
X131250Y155050D01*
X133000D01*
X134100Y156150D01*
G01X136141Y188583D02*
X132583D01*
G01X139000Y189300D02*
X141400Y186900D01*
Y173600D01*
X146900Y168100D01*
X178700D01*
X184700Y162100D01*
Y135900D01*
X191179Y129421D01*
X200921D01*
X207300Y135800D01*
X248500D01*
X254400Y141700D01*
X276800D01*
X284879Y133621D01*
X296100D01*
G01X117300Y186400D02*
X115700Y188000D01*
Y206900D01*
X118500Y209700D01*
X120170D01*
X121100Y210630D01*
X124015D01*
G01Y194882D02*
X119000Y194882D01*
G01X136141Y194882D02*
X133000Y194882D01*
G01X136141Y227953D02*
X139500Y227953D01*
G01X136141Y229528D02*
X134528Y229528D01*
X131700Y226700D01*
Y204300D01*
X130400Y203000D01*
G01X136141Y231102D02*
X133602Y231102D01*
X129600Y227100D01*
Y211800D01*
X130000Y211400D01*
G01X117500Y189400D02*
X116600Y190300D01*
Y202100D01*
X119300Y204800D01*
X120000D01*
X122680Y207480D01*
X124015D01*
G01X136141Y245276D02*
X137276Y245276D01*
X138000Y246000D01*
Y251500D01*
X141500Y255000D01*
G01X136141Y242126D02*
X137626Y242126D01*
X139000Y243500D01*
Y248500D01*
X141500Y251000D01*
G01Y247500D02*
Y244000D01*
X138051Y240551D01*
X136141D01*
G01X141700Y240600D02*
X140076Y238976D01*
X136141D01*
G01X133900Y262000D02*
Y253900D01*
X125276Y245276D01*
X124015D01*
G01X141600Y259400D02*
X136000Y253800D01*
Y251500D01*
X126626Y242126D01*
X124015D01*
G01X117500Y325400D02*
X117956Y324944D01*
X124001D01*
G01X110000Y327421D02*
X111579D01*
X113600Y325400D01*
X117500D01*
G01Y320100D02*
X117656Y319945D01*
X124001D01*
G01X110000Y317579D02*
X112079D01*
X114600Y320100D01*
X117500D01*
G01X150200Y315800D02*
X148300Y317700D01*
X140800D01*
X128556Y329945D01*
X124001D01*
G01X146001D02*
X153344D01*
X153400Y330000D01*
G01X146001Y329945D02*
X134556D01*
X129400Y335100D01*
G01X132400Y334944D02*
X146001D01*
G01X153400Y334500D02*
X152956Y334944D01*
X146001D01*
G01X250000Y107500D02*
X249000Y108500D01*
X233933D01*
X231833Y110600D01*
X174700D01*
X172700Y112600D01*
G01X166400Y330500D02*
X164400Y332500D01*
X162000D01*
X160500Y331000D01*
Y327500D01*
X164500Y323500D01*
Y315500D01*
X167500Y312500D01*
Y308500D01*
X172000Y304000D01*
X181000D01*
G01X174950Y347750D02*
X175199Y347501D01*
X178480D01*
G01X172600Y348800D02*
X173300Y349500D01*
X176000D01*
X176426Y349074D01*
X178480D01*
Y349075D01*
G01X169600Y326000D02*
Y327100D01*
X171500Y329000D01*
Y331000D01*
X173827Y333327D01*
X178480D01*
G01Y334902D02*
X174002D01*
X169600Y330500D01*
G01X195803Y361871D02*
X195716Y361783D01*
Y359616D01*
X193420Y357320D01*
X192100Y356000D01*
X185980D01*
X185200Y355220D01*
Y353820D01*
X183980Y352600D01*
X182850D01*
X182300Y352050D01*
G01X195600Y384000D02*
X194100Y382500D01*
Y382000D01*
X186180Y374080D01*
Y363520D01*
X186354Y363346D01*
Y361871D01*
G01X194228D02*
X194316Y361783D01*
Y360195D01*
X192840Y358720D01*
X191520Y357400D01*
X185400D01*
X183800Y355800D01*
Y354400D01*
X183400Y354000D01*
X182850D01*
X182300Y354550D01*
G01X184780Y361871D02*
Y374660D01*
X186410Y376290D01*
X192700Y382580D01*
Y383900D01*
X192600Y384000D01*
G01X182500Y365500D02*
X183205Y364795D01*
Y361871D01*
G01X257560Y245276D02*
X257559D01*
X265776Y245276D01*
X267800Y247300D01*
X281700D01*
X287046Y241954D01*
Y212046D01*
X283100Y208100D01*
Y151838D01*
X275981Y144719D01*
X253019D01*
X246600Y138300D01*
X228700D01*
X227500Y139500D01*
G01X209700Y307800D02*
X226000Y291500D01*
Y178000D01*
X230500Y173500D01*
X251500D01*
X253100Y175100D01*
X255400D01*
X256090Y174410D01*
X257560D01*
G01X214900Y314750D02*
X220181Y309469D01*
X220650D01*
G01X210600Y315500D02*
X214150D01*
X214900Y314750D01*
G01X205252Y326831D02*
Y321452D01*
X203900Y320100D01*
X202500D01*
G01X310700Y244200D02*
X312000Y242900D01*
X313000D01*
X314137Y244037D01*
Y244602D01*
X313852Y244887D01*
Y245618D01*
X314252Y246018D01*
X314984D01*
X315268Y245734D01*
X315834D01*
X317700Y247600D01*
Y284800D01*
X306600Y295900D01*
X288880D01*
X272980Y280000D01*
X257500D01*
X251800Y285700D01*
Y308000D01*
X226000Y333800D01*
Y336000D01*
X225493Y336507D01*
X224693D01*
X223962Y337238D01*
Y338038D01*
X223230Y338770D01*
X222430D01*
X221699Y339501D01*
Y340301D01*
X221300Y340700D01*
X218488D01*
X217900Y341288D01*
X216503D01*
X216415Y341201D01*
X213520D01*
G01Y350650D02*
Y350649D01*
X215749D01*
X216400Y351300D01*
X217000D01*
X217800Y350500D01*
X218600D01*
X219400Y351300D01*
X222100D01*
X222600Y350800D01*
X223400D01*
X223900Y351300D01*
X224720D01*
X225054Y350966D01*
Y349846D01*
X225631Y349269D01*
X226700D01*
X227100Y348869D01*
Y347900D01*
X227500Y347500D01*
X228520D01*
X229000Y347020D01*
Y345500D01*
X234200Y340300D01*
Y336800D01*
X247800Y323200D01*
X256300D01*
X278600Y300900D01*
Y295150D01*
X277950Y294500D01*
G01X310700Y241200D02*
X311000Y241500D01*
X313580D01*
X319100Y247020D01*
Y285380D01*
X312990Y291490D01*
X307180Y297300D01*
X288300D01*
X272400Y281400D01*
X258080D01*
X253200Y286280D01*
Y308580D01*
X227400Y334380D01*
Y336580D01*
X221880Y342100D01*
X219068D01*
X218480Y342688D01*
X216503D01*
X216415Y342776D01*
X213520D01*
G01X280450Y294500D02*
X280000Y294950D01*
Y301480D01*
X256880Y324600D01*
X248380D01*
X235600Y337380D01*
Y340880D01*
X230400Y346080D01*
Y347600D01*
X229050Y348950D01*
X228350Y349650D01*
X225300Y352700D01*
X215820D01*
X215345Y352224D01*
X213520D01*
Y352225D01*
G01Y338052D02*
X218147D01*
X219600Y336599D01*
X230300Y325900D01*
X236350Y319850D01*
X248700Y307500D01*
Y284780D01*
X256480Y277000D01*
X274500D01*
X291000Y293500D01*
X304280D01*
X315100Y282680D01*
Y253020D01*
X313580Y251500D01*
X311328D01*
X310828Y251000D01*
G01X274050Y291648D02*
X273500Y292198D01*
Y299900D01*
X253000Y320400D01*
X247080D01*
X231400Y336080D01*
Y339580D01*
X223567Y347413D01*
X216503D01*
X216415Y347501D01*
X213520D01*
G01X310828Y254000D02*
X311928Y252900D01*
X313000D01*
X313700Y253600D01*
Y257855D01*
X313300Y258255D01*
X312900D01*
X312500Y258655D01*
Y259455D01*
X312900Y259855D01*
X313300D01*
X313700Y260255D01*
Y261055D01*
X313300Y261455D01*
X312900D01*
X312500Y261855D01*
Y262655D01*
X312900Y263055D01*
X313300D01*
X313700Y263455D01*
Y282100D01*
X303700Y292100D01*
X291580D01*
X275080Y275600D01*
X255900D01*
X247300Y284200D01*
Y306920D01*
X235360Y318860D01*
X229310Y324910D01*
X229309D01*
X217567Y336652D01*
X216591D01*
X216415Y336477D01*
X213520D01*
G01X271550Y291648D02*
X272100Y292198D01*
Y299320D01*
X252420Y319000D01*
X246500D01*
X230000Y335500D01*
Y339000D01*
X228083Y340917D01*
X227483D01*
X226552Y341848D01*
Y342448D01*
X225820Y343180D01*
X225020D01*
X224289Y343911D01*
Y344711D01*
X222987Y346013D01*
X216503D01*
X216415Y345926D01*
X213520D01*
G01X214700Y318250D02*
X217100Y315850D01*
Y315100D01*
X218200Y314000D01*
X225300D01*
X227150Y315850D01*
Y317931D01*
X226950Y318131D01*
G01X208402Y326831D02*
Y322198D01*
X210600Y320000D01*
G01D02*
X212950D01*
X214700Y318250D01*
G01X207400Y320000D02*
Y315500D01*
G01X206827Y326831D02*
Y320573D01*
X207400Y320000D01*
G01X208402Y361871D02*
Y363800D01*
X209302Y364700D01*
X212500D01*
X217400Y359800D01*
X225600D01*
X233800Y351600D01*
Y348200D01*
X235000Y347000D01*
Y345000D01*
G01X232800Y346700D02*
Y351200D01*
X225477Y358523D01*
X213520D01*
Y358524D01*
G01Y355375D02*
Y355374D01*
X217074D01*
X217600Y355900D01*
X219300D01*
G01X220000Y370500D02*
X217400D01*
X213400Y366500D01*
X208600D01*
X206827Y364727D01*
Y361871D01*
G01X202102D02*
Y373102D01*
X204500Y375500D01*
Y381200D01*
X207300Y384000D01*
X222500D01*
X228500Y378000D01*
X245900D01*
X247900Y380000D01*
G01X215200Y365351D02*
X215349Y365500D01*
X220000D01*
G01X242000Y375500D02*
X226000D01*
X223500Y373000D01*
X216000D01*
X215500Y373500D01*
X209000D01*
X207000Y371500D01*
Y370500D01*
X203500Y367000D01*
Y364400D01*
X203677Y364223D01*
Y361871D01*
G01X214100Y375500D02*
X220000D01*
G01X195500Y356000D02*
X199041Y359541D01*
Y361783D01*
X198953Y361871D01*
G01X201300Y383300D02*
X201100Y383100D01*
X198600D01*
X193200Y377700D01*
Y369801D01*
X189679Y366280D01*
Y363879D01*
X189504Y363704D01*
Y361871D01*
G01X198200Y356000D02*
Y356720D01*
X198490Y357010D01*
X200441Y358961D01*
Y361784D01*
X200528Y361871D01*
G01X191079D02*
Y365700D01*
X194600Y369221D01*
Y377120D01*
X199180Y381700D01*
X200700D01*
X201700Y380700D01*
G01X269685Y245276D02*
X282224Y245276D01*
X285800Y241700D01*
Y212800D01*
X281900Y208900D01*
Y152400D01*
X275400Y145900D01*
X252400D01*
X246100Y139600D01*
X231200D01*
X230000Y140800D01*
G01X237000Y157000D02*
X240400D01*
X247700Y164300D01*
X258100D01*
X260000Y166200D01*
Y206880D01*
X259400Y207480D01*
X257560D01*
G01X234500Y155000D02*
X235000Y154500D01*
X239400D01*
X248200Y163300D01*
X258900D01*
X261000Y165400D01*
Y208627D01*
X260572Y209055D01*
X257560D01*
G01X269685Y168110D02*
X267110D01*
X266100Y167100D01*
G01X231550Y182050D02*
Y179450D01*
X236000Y175000D01*
X251000D01*
X252500Y176500D01*
X255500D01*
X256016Y175984D01*
X257559D01*
X257560Y175984D01*
G01Y168110D02*
X256900D01*
X256500Y167710D01*
Y166000D01*
G01X269685Y227953D02*
X269773Y227865D01*
X273615D01*
X274680Y226800D01*
X280753D01*
G01X269685Y226378D02*
X269773Y226465D01*
X273035D01*
X274100Y225400D01*
X279700D01*
X280753Y224347D01*
Y223800D01*
G01X269685Y223228D02*
X269772Y223141D01*
X272839D01*
X274880Y221100D01*
X283400D01*
X283600Y221300D01*
G01X269685Y221654D02*
X269772Y221741D01*
X272259D01*
X274300Y219700D01*
X282200D01*
X283600Y218300D01*
G01X269685Y237402D02*
X274802Y237402D01*
X277100Y239700D01*
X280700D01*
X281000Y240000D01*
G01X269685Y235827D02*
X269861Y236002D01*
X275382D01*
X277680Y238300D01*
X279700D01*
X281000Y237000D01*
G01X269685Y232677D02*
X269860Y232502D01*
X280552D01*
X281263Y233213D01*
G01X269685Y231102D02*
X280373Y231102D01*
X281263Y230213D01*
G01X247900Y380000D02*
X242500D01*
X242000Y380500D01*
G01X247900Y370500D02*
X242000D01*
G54D53*
X323000Y42726D03*
G54D17*
X60958Y21344D03*
X50958D03*
X103242D03*
X93242D03*
G54D26*
X105900Y348000D03*
X109100D03*
X131900Y343000D03*
X135100D03*
X123400Y343000D03*
X126600D03*
X132000Y350600D03*
Y347400D03*
X117500Y328600D03*
Y325400D03*
Y316900D03*
Y320100D03*
X114000Y344900D03*
Y348100D03*
X112400Y366000D03*
X115600D03*
X169600Y326000D03*
X166400D03*
X156600Y334500D03*
X153400D03*
X156600Y330000D03*
X153400D03*
X156600Y316000D03*
X153400D03*
X169600Y330500D03*
X166400D03*
X156600Y320000D03*
X153400D03*
X166500Y342900D03*
Y346100D03*
X171000Y342900D03*
Y346100D03*
X166500Y338600D03*
Y335400D03*
X166900Y350500D03*
X170100D03*
X174000Y369600D03*
Y366400D03*
X166900Y355000D03*
X170100D03*
X210600Y315500D03*
X207400D03*
X210600Y320000D03*
X207400D03*
X202500Y320100D03*
Y316900D03*
X210900Y375500D03*
X214100D03*
X219300Y355900D03*
X222500D03*
X210800Y381500D03*
X214000D03*
X251100Y370500D03*
X247900D03*
X251100Y380000D03*
X247900D03*
X269500Y379600D03*
Y376400D03*
X265500D03*
Y379600D03*
X273500Y376400D03*
Y379600D03*
X280500Y361400D03*
Y364600D03*
X280600Y372300D03*
Y369100D03*
X282600Y353000D03*
X279400D03*
X350000Y108900D03*
X350000Y118900D03*
Y122100D03*
X350000Y129600D03*
Y126400D03*
X350000Y112100D03*
X346000Y229900D03*
X350400Y229500D03*
X346000Y233100D03*
X345900Y247500D03*
X349100D03*
X350400Y233500D03*
X349100Y238000D03*
X345900D03*
X349100Y251500D03*
X345900D03*
Y242000D03*
X349100D03*
X339500Y328400D03*
Y331600D03*
X340000Y382600D03*
Y379400D03*
X344000D03*
Y382600D03*
X334000Y379400D03*
Y382600D03*
X350400Y357100D03*
X353900Y103500D03*
X357100D03*
X357100Y107500D03*
X353900D03*
X364900Y72000D03*
X368100D03*
X386000Y133900D03*
Y137100D03*
X386100Y120000D03*
X382900D03*
X378900Y134000D03*
X382100D03*
X382900Y129500D03*
X386100D03*
X382100Y138000D03*
X378900D03*
X382900Y116000D03*
X386100D03*
Y124500D03*
X382900D03*
X353600Y229500D03*
X382500Y245100D03*
Y241900D03*
X378600Y264500D03*
X375400D03*
X353600Y233500D03*
X372900Y233000D03*
X376100D03*
X382500Y257100D03*
Y253900D03*
X375400Y260000D03*
X378600D03*
X355600Y366500D03*
X352400D03*
X355600Y371500D03*
X352400D03*
X353600Y357100D03*
G54D44*
X179500Y372550D03*
Y369450D03*
G54D35*
X137906Y372500D03*
X126094D03*
X257094Y346000D03*
X268906D03*
X326094Y350500D03*
X337906D03*
G54D63*
G01X227400Y322800D02*
X228600D01*
X231300Y320100D01*
Y318800D01*
X231400Y318700D01*
G01X10000Y0D02*
X383701D01*
G03X393701Y10000I0J10000D01*
G01Y383701D01*
G03X383701Y393701I-10000J0D01*
G01X10000D01*
G03X0Y383701I0J-10000D01*
G01Y10000D01*
G03X10000Y0I10000J0D01*
G01X25685Y19685D02*
G03I-6000J0D01*
G01Y374016D02*
G03I-6000J0D01*
G01X93537Y289008D02*
G03X89537Y285008I0J-4000D01*
G01Y142850D01*
G03X93537Y138850I4000J0D01*
G01X100163D01*
G03X104163Y142850I0J4000D01*
G01Y285008D01*
G03X100163Y289008I-4000J0D01*
G01X93537D01*
G01D02*
X100163D01*
G02X104163Y285008I0J-4000D01*
G01Y142850D01*
G01X93537Y138850D02*
G02X89537Y142850I0J4000D01*
G01D02*
Y285008D01*
G02X93537Y289008I4000J0D01*
G01X100163Y138850D02*
X93537D01*
G01X104163Y142850D02*
G02X100163Y138850I-4000J0D01*
G01X193537Y289008D02*
G03X189537Y285008I0J-4000D01*
G01Y142850D01*
G03X193537Y138850I4000J0D01*
G01X200163D01*
G03X204163Y142850I0J4000D01*
G01Y285008D01*
G03X200163Y289008I-4000J0D01*
G01X193537D01*
G01D02*
X200163D01*
G02X204163Y285008I0J-4000D01*
G01Y142850D01*
G01X193537Y138850D02*
G02X189537Y142850I0J4000D01*
G01D02*
Y285008D01*
G02X193537Y289008I4000J0D01*
G01X200163Y138850D02*
X193537D01*
G01X204163Y142850D02*
G02X200163Y138850I-4000J0D01*
G01X293537Y289008D02*
G03X289537Y285008I0J-4000D01*
G01Y142850D01*
G03X293537Y138850I4000J0D01*
G01X300163D01*
G03X304163Y142850I0J4000D01*
G01Y285008D01*
G03X300163Y289008I-4000J0D01*
G01X293537D01*
G01D02*
X300163D01*
G02X304163Y285008I0J-4000D01*
G01Y142850D01*
G01X293537Y138850D02*
G02X289537Y142850I0J4000D01*
G01D02*
Y285008D01*
G02X293537Y289008I4000J0D01*
G01X300163Y138850D02*
X293537D01*
G01X304163Y142850D02*
G02X300163Y138850I-4000J0D01*
G01X380016Y19685D02*
G03I-6000J0D01*
G01Y374016D02*
G03I-6000J0D01*
G54D54*
X350000Y46000D03*
Y56000D03*
Y66000D03*
Y76000D03*
G54D18*
X46401Y50990D03*
X107799D03*
G54D27*
X102187Y358965D03*
X131714D03*
G54D45*
X170850Y376500D03*
X164150D03*
G54D36*
X111250Y377500D03*
X116750D03*
X111250Y371500D03*
X116750D03*
X284250Y340500D03*
X278750D03*
X284250Y347000D03*
X278750D03*
X349750Y346500D03*
Y352500D03*
X355250Y346500D03*
Y352500D03*
G54D64*
G01X124015Y185433D02*
Y185434D01*
X127074D01*
G01X136141Y172835D02*
X133200D01*
X133050Y172685D01*
G01X136141Y177559D02*
X133041Y177559D01*
X132900Y177700D01*
G01X136141Y183858D02*
X134542Y183858D01*
X132600Y185800D01*
G01X124015Y168110D02*
X123800Y167894D01*
Y166000D01*
G01X124015Y172835D02*
X120665D01*
X120500Y173000D01*
G01X124015Y177559D02*
X123915Y177659D01*
X121041D01*
X120900Y177800D01*
G01X139000Y168900D02*
X138210Y168110D01*
X136141D01*
G01X119900Y185100D02*
X121142Y183858D01*
X124015D01*
G01Y213780D02*
X119680D01*
G01X139200D02*
X136141D01*
G01X139200Y207480D02*
X136141D01*
G01X139200Y199606D02*
X136141D01*
G01Y224803D02*
X139500Y224803D01*
G01X124015Y223228D02*
X122272Y223228D01*
X120400Y225100D01*
X119800D01*
G01X124015Y218504D02*
X120196D01*
X119100Y219600D01*
G01X136141Y191732D02*
X132600Y191732D01*
G01X124015Y193307D02*
Y193308D01*
X127074D01*
G01X124015Y201181D02*
Y201182D01*
X121518D01*
X120700Y202000D01*
G01X136141Y218504D02*
X138196D01*
X139300Y217400D01*
G01X124015Y209055D02*
X121855D01*
X120800Y208000D01*
X120000D01*
G01X139300Y217400D02*
Y216400D01*
G01X136141Y243701D02*
X133701Y243701D01*
X133250Y243250D01*
G01X183205Y326831D02*
Y330605D01*
X183400Y330800D01*
G01X187929Y326831D02*
Y330600D01*
G01X178480Y345926D02*
X176326D01*
X176000Y345600D01*
X171500D01*
X171000Y346100D01*
G01X173400Y351600D02*
X174351Y350649D01*
G01X178480Y336477D02*
X172827D01*
X171500Y335150D01*
G01X174351Y350649D02*
X178480D01*
Y350650D01*
G01X187929Y361871D02*
Y365800D01*
G01X180600Y363100D02*
X181630Y362070D01*
Y361871D01*
G01X209400Y345700D02*
X210749Y344351D01*
X213520D01*
G01X199200Y330600D02*
X199400D01*
X200528Y329472D01*
Y326831D01*
G01X212050Y326250D02*
X211470Y326830D01*
X209976D01*
Y326831D01*
G01X213520Y339627D02*
X210973D01*
X210100Y340500D01*
G01X213520Y349075D02*
Y349074D01*
X210826D01*
X209900Y350000D01*
G01X213520Y333327D02*
X209900D01*
G01X202102Y326831D02*
Y324702D01*
X200600Y323200D01*
G01X192654Y361871D02*
Y364154D01*
X194000Y365500D01*
G01X196250Y366750D02*
X197378Y365622D01*
Y361871D01*
G01X205252D02*
Y365600D01*
G01X209976Y361871D02*
Y358476D01*
X209500Y358000D01*
G01X213520Y353800D02*
Y353799D01*
X209701D01*
X209500Y354000D01*
G01X269685Y187008D02*
X266046Y187008D01*
G01X269685Y182284D02*
X266046Y182284D01*
G01X269685Y172835D02*
X267035D01*
X266200Y172000D01*
G01X269685Y177559D02*
X266559Y177559D01*
X266200Y177200D01*
G01X257560Y182284D02*
X257559Y182284D01*
X254500D01*
G01X257560Y187008D02*
X257559D01*
X254500Y187008D01*
G01X257560Y172835D02*
X254865D01*
X254500Y173200D01*
G01Y178300D02*
X255200D01*
G01D02*
X255941Y177559D01*
X257559D01*
X257560Y177559D01*
G01X269685Y229528D02*
X266228Y229528D01*
G01X269685Y224803D02*
X266100Y224803D01*
G01X269685Y220079D02*
X266021D01*
G01X269685Y215354D02*
X266046D01*
G01X269685Y210630D02*
X266046D01*
G01X269685Y205906D02*
X266046D01*
G01X269685Y201181D02*
Y201182D01*
X266046D01*
G01X269685Y196457D02*
Y196458D01*
X266046D01*
G01X269685Y191732D02*
X266046Y191732D01*
G01X257560Y210630D02*
X253920D01*
G01X257560Y220079D02*
X253920D01*
G01X257560Y215354D02*
X253920D01*
G01X257560Y224803D02*
X257559Y224803D01*
X253920D01*
G01X257560Y229528D02*
X257559Y229528D01*
X261199D01*
G01X257560Y196457D02*
X257559D01*
Y196458D01*
X254600D01*
G01X257560Y191732D02*
X257559D01*
X254600Y191732D01*
G01X269685Y238976D02*
X272276Y238976D01*
X272900Y239600D01*
G01X257560Y243701D02*
X257559D01*
X254400Y243701D01*
G01X269685Y234252D02*
X267252Y234252D01*
X266500Y233500D01*
G01X257560Y234252D02*
X257559D01*
X261199Y234252D01*
G01X257560Y238976D02*
X257559D01*
X260024Y238976D01*
X261200Y237800D01*
G01X269685Y243701D02*
X272799D01*
X273500Y243000D01*
G54D46*
X220457Y10207D03*
X277543D03*
G54D28*
X145740Y47680D03*
G54D55*
X344800Y310000D03*
X351200D03*
X344800Y325500D03*
X351200D03*
X344800Y318000D03*
X351200D03*
G54D37*
X145500Y382200D03*
Y375800D03*
X154500Y361800D03*
Y368200D03*
Y382200D03*
Y375800D03*
X239500Y352300D03*
Y339300D03*
Y345700D03*
X248500Y334300D03*
Y340700D03*
X239500Y358700D03*
X309000Y348300D03*
X293500D03*
X301500D03*
X309000Y354700D03*
X293500D03*
X301500D03*
X366500Y59800D03*
Y66200D03*
G54D19*
X54600Y38982D03*
X99600D03*
G54D65*
G01X108500Y331500D02*
X106000D01*
X104200Y329700D01*
Y322900D01*
G01X117500Y331500D02*
X108500D01*
G01X104200Y314800D02*
Y322900D01*
G01Y314800D02*
X105000Y314000D01*
X114600D01*
X117500Y316900D01*
G01X214900Y308300D02*
Y306400D01*
X215900Y305400D01*
X230600D01*
X231600Y306400D01*
Y309269D01*
X231400Y309469D01*
G01X221400Y322700D02*
X221500Y322800D01*
X227400D01*
G01X231400Y318700D02*
Y309469D01*
G01X216600Y320200D02*
X219100Y322700D01*
X221400D01*
G01X214900Y311050D02*
X207850D01*
X204800Y314100D01*
G54D29*
X145740Y58310D03*
X173300Y47680D03*
X163460D03*
X155580D03*
X173300Y58310D03*
X163460D03*
X155580D03*
G54D56*
X367500Y48250D03*
Y42750D03*
X362000Y48250D03*
Y42750D03*
G54D47*
X220457Y33671D03*
X277543D03*
G54D38*
X178480Y350650D03*
Y349075D03*
Y347501D03*
Y345926D03*
Y344351D03*
Y342776D03*
Y341201D03*
Y339627D03*
Y338052D03*
Y336477D03*
Y334902D03*
Y333327D03*
Y331753D03*
Y330178D03*
Y358524D03*
Y356949D03*
Y355375D03*
Y353800D03*
Y352225D03*
X213520Y330178D03*
Y331753D03*
Y333327D03*
Y334902D03*
Y336477D03*
Y338052D03*
Y339627D03*
Y341201D03*
Y342776D03*
Y344351D03*
Y345926D03*
Y347501D03*
Y349075D03*
Y350650D03*
Y352225D03*
Y353800D03*
Y355375D03*
Y356949D03*
Y358524D03*
G54D66*
G01X30000Y44000D02*
Y49000D01*
X27000Y52000D01*
X22000D01*
X19000Y49000D01*
Y44000D01*
X22000Y41000D01*
X27000D01*
X30000Y44000D01*
G01X47000Y375500D02*
Y380500D01*
X44000Y383500D01*
X39000D01*
X36000Y380500D01*
Y375500D01*
X39000Y372500D01*
X44000D01*
X47000Y375500D01*
G01X358600Y20500D02*
Y25500D01*
X355600Y28500D01*
X350600D01*
X347600Y25500D01*
Y20500D01*
X350600Y17500D01*
X355600D01*
X358600Y20500D01*
G01X380500Y346000D02*
Y351000D01*
X377500Y354000D01*
X372500D01*
X369500Y351000D01*
Y346000D01*
X372500Y343000D01*
X377500D01*
X380500Y346000D01*
G54D48*
X220650Y309469D03*
X226950D03*
X220650Y318131D03*
X226950D03*
G54D57*
X381000Y45500D03*
Y68500D03*
X357000Y138000D03*
Y173500D03*
Y161000D03*
Y196500D03*
G54D39*
X181630Y326831D03*
X183205D03*
X184780D03*
X186354D03*
X187929D03*
X189504D03*
Y361871D03*
X187929D03*
X186354D03*
X184780D03*
X183205D03*
X181630D03*
X191079Y326831D03*
X192654D03*
X194228D03*
X195803D03*
X197378D03*
X198953D03*
X200528D03*
X202102D03*
X203677D03*
X205252D03*
X206827D03*
X208402D03*
X209976D03*
Y361871D03*
X208402D03*
X206827D03*
X205252D03*
X203677D03*
X202102D03*
X200528D03*
X198953D03*
X197378D03*
X195803D03*
X194228D03*
X192654D03*
X191079D03*
G54D67*
G01X124280Y348382D02*
Y352400D01*
G01X121720Y348382D02*
Y344680D01*
X123400Y343000D01*
G01X269500Y376400D02*
Y375000D01*
X270720Y373780D01*
G01X269500Y379600D02*
X273500D01*
G01X269500D02*
X265500D01*
G01X270720Y369618D02*
Y373780D01*
G01X273280Y369618D02*
Y376180D01*
X273500Y376400D01*
G01X350000Y129600D02*
X347500D01*
G01X355667Y123000D02*
X350900D01*
X350000Y122100D01*
G01X355667Y128000D02*
X353000D01*
X351400Y126400D01*
X350000D01*
G01X350400Y233500D02*
Y229500D01*
G01X346000Y233100D02*
X350000D01*
X350400Y233500D01*
G01X345900Y238000D02*
Y233200D01*
X346000Y233100D01*
G01X356667Y239000D02*
X350100D01*
X349100Y238000D01*
G01X345900Y247500D02*
Y251500D01*
G01X349100Y242000D02*
X349600Y242500D01*
X350000D01*
X351500Y244000D01*
X356667D01*
G01X349100Y247500D02*
Y242000D01*
G01X341220Y373618D02*
Y369600D01*
G01X338661Y363382D02*
Y363400D01*
X337161Y364900D01*
X336300D01*
G01X334000Y363200D02*
X335179Y362021D01*
X337300D01*
X338661Y363382D01*
G01X343780Y373618D02*
Y379180D01*
X344000Y379400D01*
G01X346339Y373618D02*
X350282D01*
X352400Y371500D01*
G01X357100Y107500D02*
Y111567D01*
X355667Y113000D01*
G01X353900Y103500D02*
Y107500D01*
G01X386000Y137100D02*
X389300D01*
G01X386100Y124500D02*
X387200D01*
X389500Y126800D01*
G01X386000Y133900D02*
Y129600D01*
X386100Y129500D01*
G01X386000Y133900D02*
X382200D01*
X382100Y134000D01*
G01Y138000D02*
X382200Y137900D01*
Y134100D01*
X382100Y134000D01*
G01X386100Y120000D02*
Y116000D01*
G01X382900Y124500D02*
Y120000D01*
G01X375333Y123000D02*
X381400D01*
X382900Y124500D01*
G01X375333Y128000D02*
X376333Y129000D01*
X382400D01*
X382900Y129500D01*
G01X378900Y138000D02*
Y134000D01*
G01D02*
Y132100D01*
X379500Y131500D01*
G01X366000Y264500D02*
X375400D01*
G01Y260000D02*
Y254933D01*
X376333Y254000D01*
G01X378600Y260000D02*
Y264500D01*
G01X352400Y371500D02*
Y366500D01*
G54D58*
X377000Y104183D03*
Y79817D03*
X358000Y263317D03*
Y287683D03*
G54D49*
X303059Y18316D03*
Y37214D03*
X342941Y18316D03*
Y37214D03*
G54D59*
X365500Y120500D03*
X366500Y246500D03*
M02*
