M48
INCH,TZ
T01C.027559
T02C.031496
T03C.044094
T04C.044488
T05C.066929
;EXTENTS: -78.740 -78.740 78.740  140.517 
;LEADER: 12 
;HEADER: 
;CODE  : ASCII 
;FILE  : F:/upwork/CM4_Carrier_Board/CM4_SATAX4_Substrate_A1/gerber/CM4_SATAX4_Substrate_V11-20210307.rou for board #Taaaaba04760.tmp
%
G90
F1
M16
T01
M16
G00X320638Y20679
G40
M15
G01X325362Y20679
M16
T04
M16
G00X342941Y16801
G40
M15
G01X342941Y19832
M16
G00X303059Y16801
G40
M15
G01X303059Y19832
M16
G00X342941Y35699
G40
M15
G01X342941Y38730
M16
G00X303059Y35699
G40
M15
G01X303059Y38730
M16
T03
M16
G00X50958Y19691
G40
M15
G01X50958Y22998
M16
G00X60958Y19691
G40
M15
G01X60958Y22998
M16
G00X93242Y19691
G40
M15
G01X93242Y22998
M16
G00X103242Y19691
G40
M15
G01X103242Y22998
M16
T05
M16
G00X46195Y50990
G40
M15
G01X46608Y50990
M16
G00X107592Y50990
G40
M15
G01X108006Y50990
M16
T02
M16
G00X277543Y31112
G40
M15
G01X277543Y36230
M16
G00X220457Y31112
G40
M15
G01X220457Y36230
M16
G00X220457Y8829
G40
M15
G01X220457Y11585
M16
G00X277543Y8829
G40
M15
G01X277543Y11585
M16
G40
M30
