G04 ================== begin FILE IDENTIFICATION RECORD ==================*
G04 Layout Name:  CM4_SATAX4_Substrate_V11-20210307.brd*
G04 Film Name:    L3_VCC*
G04 File Format:  Gerber RS274X*
G04 File Origin:  Cadence Allegro 16.6-2015-S066*
G04 Origin Date:  Sun Mar 07 16:05:33 2021*
G04 *
G04 Layer:  ETCH/L3_VCC*
G04 Layer:  PIN/L3_VCC*
G04 Layer:  VIA CLASS/L3_VCC*
G04 Layer:  BOARD GEOMETRY/OUTLINE*
G04 *
G04 Offset:    (0.000 0.000)*
G04 Mirror:    No*
G04 Mode:      Positive*
G04 Rotation:  0*
G04 FullContactRelief:  No*
G04 UndefLineWidth:     6.000*
G04 ================== end FILE IDENTIFICATION RECORD ====================*
%FSLAX55Y55*MOIN*%
%IR0*IPPOS*OFA0.00000B0.00000*MIA0B0*SFA1.00000B1.00000*%
%ADD29O,.064169X.094488*%
%ADD11C,.12*%
%ADD24C,.106*%
%ADD33C,.005*%
%ADD19C,.131894*%
%ADD28O,.070866X.122047*%
%ADD16C,.001969*%
%ADD26C,.137795*%
%ADD12C,.02*%
%ADD31C,.04*%
%ADD36C,.071*%
%ADD25C,.053*%
%ADD10C,.036*%
%ADD30C,.01772*%
%ADD20C,.055433*%
%ADD15C,.055118*%
%ADD21C,.05937*%
%ADD14C,.05984*%
%ADD17O,.066142X.099213*%
%ADD23C,.019685*%
%ADD22R,.05937X.05937*%
%ADD18O,.096457X.09252*%
%ADD35C,.062988*%
%ADD13C,.059839*%
%ADD32O,.094488X.047244*%
%ADD27O,.070866X.098425*%
%ADD34C,.087988*%
%ADD37C,.006*%
%ADD48R,.069374X.069374*%
%ADD41C,.1478*%
%ADD49C,.141898*%
%ADD38C,.030004*%
%ADD56C,.070011*%
%ADD55C,.070004*%
%ADD53C,.081004*%
%ADD45C,.063004*%
%ADD50C,.065122*%
%ADD39C,.051438*%
%ADD43C,.027724*%
%ADD44C,.063248*%
%ADD52C,.03985*%
%ADD47C,.065438*%
%ADD40C,.082934*%
%ADD42C,.067186*%
%ADD54C,.072992*%
%ADD46C,.069374*%
%ADD51C,.069844*%
G75*
%LPD*%
G75*
G36*
G01X190628Y384636D02*
G02X191112Y384194I87J-390D01*
G03X193784Y383079I1488J-194D01*
G02X194416I316J-246D01*
G03X197047Y384395I1184J921D01*
G02X197433Y384900I386J105D01*
G01X199827D01*
G02X200137Y384247I0J-400D01*
G03X200388Y382109I1163J-947D01*
G02X200472Y381562I-243J-318D01*
G03X202612Y381891I1228J-862D01*
G02X202528Y382438I243J318D01*
G03X202463Y384247I-1228J862D01*
G02X202773Y384900I310J253D01*
G01X223982D01*
G02X224376Y384426I0J-400D01*
G03X227327Y383885I1475J-276D01*
G02X228003Y384097I394J-71D01*
G01X245100Y367000D01*
Y354973D01*
G02X244447Y354663I-400J0D01*
G03X244781Y352720I-947J-1163D01*
G02X245406Y352794I342J-208D01*
G01X269500Y328700D01*
X303676D01*
G02X304039Y328132I0J-400D01*
G03X306761I1361J-632D01*
G02X307124Y328700I363J168D01*
G01X340500D01*
X343500Y325700D01*
Y221000D01*
X360550Y203950D01*
Y189616D01*
X360426Y189565D01*
G03X359744Y188999I573J-1386D01*
G02X359072Y189001I-335J219D01*
G03X356625Y189109I-1262J-812D01*
G02X355992Y189111I-316J245D01*
G03X353623Y189130I-1192J-911D01*
G02X353033Y189088I-314J248D01*
G03X353177Y187070I-1033J-1088D01*
G02X353767Y187112I314J-248D01*
G03X355985Y187280I1033J1088D01*
G02X356619Y187278I316J-245D01*
G03X359067Y187369I1192J911D01*
G02X359738Y187367I335J-219D01*
G03X360426Y186792I1262J812D01*
G01X360550Y186741D01*
Y151200D01*
X358100Y148750D01*
X338689D01*
X333750Y143811D01*
Y127811D01*
X333174Y127234D01*
X333037Y127326D01*
G03X328469Y122530I-1876J-2787D01*
G01X311364Y105425D01*
X268537D01*
G03X255086I-6725J-3063D01*
G01X235925D01*
X231550Y109800D01*
X230249D01*
G03X228751I-749J-1300D01*
G01X225749D01*
G03X224251I-749J-1300D01*
G01X221749D01*
G03X220251I-749J-1300D01*
G01X217249D01*
G03X215751I-749J-1300D01*
G01X194749D01*
G03X193251I-749J-1300D01*
G01X189749D01*
G03X188251I-749J-1300D01*
G01X185249D01*
G03X183751I-749J-1300D01*
G01X180749D01*
G03X179251I-749J-1300D01*
G01X174500D01*
X173526Y110774D01*
G02X173575Y111382I283J283D01*
G03X171482Y113475I-875J1218D01*
G02X170874Y113426I-325J233D01*
G01X161100Y123200D01*
X155361D01*
X154488Y124072D01*
G03X150694Y127866I-3327J467D01*
G01X147811Y130750D01*
X139311D01*
X136311Y133750D01*
X129550D01*
X125600Y137700D01*
X107300D01*
X105281Y139719D01*
G03X106164Y142850I-5118J3132D01*
G01Y285008D01*
G03X105521Y287709I-6000J0D01*
G01X105500Y287751D01*
Y289500D01*
X102000Y293000D01*
X90000D01*
X83500Y299500D01*
Y341500D01*
X79000Y346000D01*
X60011D01*
X59990Y346176D01*
G03X57010I-1490J-177D01*
G01X56990Y346000D01*
X52500D01*
X48800Y342300D01*
Y90700D01*
X61000Y78500D01*
X97300D01*
X109550Y66250D01*
X185689D01*
X211189Y40750D01*
X222689D01*
X222970Y40470D01*
X318400D01*
X319071Y39799D01*
X319080Y39786D01*
X319081Y39786D01*
X319089Y39775D01*
G03X320062Y38805I3911J2951D01*
G01X320073Y38796D01*
X333470Y25400D01*
X362400D01*
X363875Y26875D01*
G02X364556Y26631I283J-283D01*
G03X367400Y24623I2289J224D01*
G02X367824Y24006I96J-388D01*
G03X366582Y21008I6192J-4320D01*
G02X365846Y20872I-394J70D01*
G03X365846Y18498I-1970J-1187D01*
G02X366582Y18362I343J-206D01*
G03X367832Y15353I7433J1323D01*
G02X367407Y14736I-328J-229D01*
G03X369076Y13069I-561J-2231D01*
G02X369692Y13495I388J98D01*
G03X372712Y12248I4323J6190D01*
G02X372848Y11511I-69J-394D01*
G03X375200Y11513I1178J-1976D01*
G02X375334Y12251I204J344D01*
G03X378350Y13503I-1318J7434D01*
G02X378967Y13076I230J-327D01*
G03X380624Y14733I2228J-571D01*
G02X380198Y15350I-99J387D01*
G03X381453Y18386I-6182J4335D01*
G02X382192Y18520I394J-69D01*
G03Y20850I1983J1165D01*
G02X381453Y20984I-345J203D01*
G03X380214Y23996I-7438J-1299D01*
G02X380639Y24613I328J228D01*
G03X378962Y26294I557J2232D01*
G02X378345Y25871I-388J-96D01*
G03X375334Y27119I-4329J-6186D01*
G02X375200Y27857I70J394D01*
G03X372848Y27859I-1174J1978D01*
G02X372712Y27122I-205J-344D01*
G03X369695Y25877I1304J-7437D01*
G02X369078Y26301I-229J328D01*
G03X367069Y29144I-2233J554D01*
G02X366825Y29825I39J398D01*
G01X370700Y33700D01*
X389100D01*
X391700Y31100D01*
Y10000D01*
G02X383701Y2000I-8000J0D01*
G01X10000D01*
G02X2000Y10000I0J8000D01*
G01Y319197D01*
G02X2711Y319449I400J0D01*
G03Y323551I2535J2051D01*
G02X2000Y323803I-311J252D01*
G01Y383701D01*
G02X10000Y391700I8000J0D01*
G01X158500D01*
X159650Y390550D01*
Y387950D01*
X156900Y385200D01*
X128300D01*
X124400Y389100D01*
X108700D01*
X107500Y387900D01*
Y380600D01*
X112600Y375500D01*
X159900D01*
X169300Y384900D01*
X187100D01*
G03X188851Y384865I900J1200D01*
G01X188903Y384900D01*
X189398D01*
X189449Y384865D01*
G03X190628Y384636I851J1235D01*
G37*
G36*
G01X325554Y38545D02*
G03X318101Y42706I-2554J4181D01*
G01Y42500D01*
X316803D01*
G02X316423Y43026I0J400D01*
G03X313577I-1423J474D01*
G02X313197Y42500I-380J-126D01*
G01X297398D01*
G02X296998Y42921I0J400D01*
G03X294002I-1498J79D01*
G02X293603Y42500I-399J-21D01*
G01X284511D01*
X284490Y42676D01*
G03X281510I-1490J-177D01*
G01X281489Y42500D01*
X237803D01*
G02X237423Y43026I0J400D01*
G03X234577I-1423J474D01*
G02X234197Y42500I-380J-126D01*
G01X212100D01*
X193750Y60850D01*
Y63250D01*
X188500Y68500D01*
X109900D01*
X98000Y80400D01*
X94166D01*
G02X93921Y81116I0J400D01*
G03X92079I-921J1184D01*
G02X91834Y80400I-246J-316D01*
G01X83773D01*
G02X83463Y81053I0J400D01*
G03X81137I-1163J947D01*
G02X80827Y80400I-310J-253D01*
G01X62400D01*
X50500Y92300D01*
Y315700D01*
X50650Y315850D01*
Y341150D01*
X53500Y344000D01*
X78000D01*
X81000Y341000D01*
Y297200D01*
X87500Y290700D01*
Y158400D01*
X85514Y156414D01*
X85402Y156445D01*
G03X83555Y154598I-402J-1445D01*
G01X83586Y154486D01*
X75150Y146050D01*
Y134650D01*
X75350Y134450D01*
Y127250D01*
X85950Y116650D01*
X114800D01*
X125454Y105996D01*
G03X137411Y97450I6435J-3634D01*
G01X153550D01*
X163050Y87950D01*
X168941D01*
G02X169275Y87329I0J-400D01*
G03X171775I1250J-829D01*
G02X172109Y87950I333J221D01*
G01X180250D01*
X182700Y85500D01*
X213000D01*
X221250Y77250D01*
X333000D01*
X364879Y109129D01*
X364998Y109086D01*
G03X366982Y110267I502J1414D01*
G02X367508Y110583I395J-62D01*
G03X369100Y113020I492J1417D01*
G01X369075Y113047D01*
X368995Y113245D01*
X370500Y114750D01*
Y127882D01*
G03Y130118I-1000J1118D01*
G01Y140900D01*
X366000Y145400D01*
Y145900D01*
X362000Y149900D01*
Y187060D01*
G03Y189297I-1000J1118D01*
G01Y204500D01*
X353183Y213317D01*
G02X353473Y214000I283J283D01*
G03X352000Y215473I27J1500D01*
G02X351317Y215183I-400J-7D01*
G01X345000Y221500D01*
Y225197D01*
G02X345526Y225577I400J0D01*
G03Y228423I474J1423D01*
G02X345000Y228803I-126J380D01*
G01Y243067D01*
G02X345505Y243453I400J0D01*
G03Y246347I395J1447D01*
G02X345000Y246733I-105J386D01*
G01Y329000D01*
X343400Y330600D01*
X343023D01*
X342967Y330647D01*
G03X340980Y330600I-967J-1147D01*
G01X314628D01*
G02X314242Y331105I0J400D01*
G03X311348I-1447J395D01*
G02X310962Y330600I-386J-105D01*
G01X270200D01*
X249242Y351558D01*
G03X247158Y353642I-1242J842D01*
G01X246800Y354000D01*
Y361731D01*
G03Y364269I-800J1269D01*
G01Y367100D01*
X227700Y386200D01*
X191806D01*
X191777Y386365D01*
G03X189285Y387205I-1477J-265D01*
G01X189150Y387152D01*
X189015Y387205D01*
G03X186523Y386365I-1015J-1105D01*
G01X186494Y386200D01*
X168500D01*
X159100Y376800D01*
X114100D01*
X108900Y382000D01*
Y387200D01*
X109700Y388000D01*
X123700D01*
X127600Y384100D01*
X157100D01*
X164600Y391600D01*
X235200D01*
X260100Y366700D01*
Y356300D01*
X275400Y341000D01*
X292882D01*
G03X295118I1118J1000D01*
G01X297382D01*
G03X299618I1118J1000D01*
G01X302080D01*
X302133Y340882D01*
G03X304867I1367J618D01*
G01X304920Y341000D01*
X306580D01*
X306633Y340882D01*
G03X309367I1367J618D01*
G01X309420Y341000D01*
X377000D01*
X385214Y332786D01*
X385152Y332658D01*
G03X386579Y330502I1348J-658D01*
G02X387000Y330102I21J-399D01*
G01Y320398D01*
G02X386579Y319998I-400J0D01*
G03Y317002I-79J-1498D01*
G02X387000Y316603I21J-399D01*
G01Y313398D01*
G02X386579Y312998I-400J0D01*
G03Y310002I-79J-1498D01*
G02X387000Y309602I21J-399D01*
G01Y299511D01*
X386824Y299490D01*
G03Y296510I176J-1490D01*
G01X387000Y296489D01*
Y247549D01*
G02X386368Y247223I-400J0D01*
G03X386321Y244745I-868J-1223D01*
G02X386932Y244492I219J-335D01*
G03X386988Y244293I1468J308D01*
G01X387000Y244260D01*
Y231820D01*
X386882Y231767D01*
G03Y229033I618J-1367D01*
G01X387000Y228980D01*
Y217720D01*
X386882Y217667D01*
G03Y214933I618J-1367D01*
G01X387000Y214880D01*
Y203320D01*
X386882Y203267D01*
G03Y200533I618J-1367D01*
G01X387000Y200480D01*
Y179265D01*
X386853Y179225D01*
G03Y172491I927J-3367D01*
G01X387000Y172451D01*
Y161550D01*
X386853Y161509D01*
G03X387938Y154654I927J-3367D01*
G01X387943Y154654D01*
X387953Y154654D01*
X388042Y154658D01*
X391200Y151500D01*
Y151224D01*
G02X390632Y150861I-400J0D01*
G03Y148139I-632J-1361D01*
G02X391200Y147776I168J-363D01*
G01Y138266D01*
G02X390484Y138021I-400J0D01*
G03Y136179I-1184J-921D01*
G02X391200Y135934I316J-246D01*
G01Y128186D01*
G02X390526Y127894I-400J0D01*
G03Y125706I-1026J-1094D01*
G02X391200Y125414I274J-292D01*
G01Y85224D01*
G02X390632Y84861I-400J0D01*
G03X389079Y82316I-632J-1361D01*
G02Y81684I-246J-316D01*
G03X390632Y79139I921J-1184D01*
G02X391200Y78776I168J-363D01*
G01Y40500D01*
X386906Y36206D01*
X386772Y36286D01*
G03X384596Y35529I-772J-1286D01*
G01X384548Y35400D01*
X369800D01*
X361800Y27400D01*
X336000D01*
X325480Y37920D01*
G02X325554Y38545I283J283D01*
G37*
G36*
G01X221950Y78950D02*
X213650Y87250D01*
X182650D01*
X180900Y89000D01*
X164561D01*
X153761Y99800D01*
X139373D01*
G02X138989Y100311I0J400D01*
G03X126663Y107587I-7100J2051D01*
G01X116000Y118250D01*
X86750D01*
X77200Y127800D01*
Y145000D01*
X80000Y147800D01*
X86300D01*
X87537Y146563D01*
Y142850D01*
G03X87792Y141122I6000J0D01*
G01X87800Y141094D01*
Y139700D01*
X90850Y136650D01*
X125050D01*
X129200Y132500D01*
X135439D01*
X138689Y129250D01*
X147189D01*
X148874Y127566D01*
G02X148864Y126991I-283J-283D01*
G03X153742Y122389I2297J-2451D01*
G01X153748Y122396D01*
X153896Y122544D01*
X154120Y122320D01*
X160680D01*
X174000Y109000D01*
X178102D01*
G02X178502Y108579I0J-400D01*
G03X181498I1498J-79D01*
G02X181898Y109000I399J21D01*
G01X182602D01*
G02X183002Y108579I0J-400D01*
G03X185998I1498J-79D01*
G02X186398Y109000I399J21D01*
G01X187102D01*
G02X187502Y108579I0J-400D01*
G03X190498I1498J-79D01*
G02X190898Y109000I399J21D01*
G01X192102D01*
G02X192502Y108579I0J-400D01*
G03X195498I1498J-79D01*
G02X195898Y109000I399J21D01*
G01X230750D01*
X235500Y104250D01*
X254165D01*
G02X254558Y103774I0J-400D01*
G03X269065I7254J-1412D01*
G02X269458Y104250I393J76D01*
G01X293106D01*
G02X293504Y103882I0J-400D01*
G03X296496I1496J118D01*
G02X296894Y104250I399J-32D01*
G01X312311D01*
X329617Y121556D01*
G03X334145Y126084I1545J2983D01*
G01X335250Y127189D01*
Y143189D01*
X339311Y147250D01*
X362400D01*
X369250Y140400D01*
Y133100D01*
X369175Y133025D01*
Y130472D01*
X369037Y130427D01*
G03Y127573I463J-1427D01*
G01X369175Y127528D01*
Y116000D01*
X368670Y115495D01*
G02X367990Y115825I-283J283D01*
G03X366675Y114510I-1490J175D01*
G02X367005Y113830I47J-397D01*
G01X365129Y111955D01*
X365080Y111940D01*
G03X364060Y110920I420J-1440D01*
G01X364045Y110871D01*
X363676Y110502D01*
X363490Y110688D01*
X363479Y110751D01*
G03X361472Y109096I-1479J-251D01*
G02X361614Y108439I-141J-374D01*
G01X332125Y78950D01*
X221950D01*
G37*
G36*
G01X308039Y343000D02*
G02X307723Y343631I10J400D01*
G03X306795Y343029I-1223J869D01*
G01X306945Y343059D01*
X307114Y342720D01*
X307000Y342618D01*
G03X306839Y342450I1000J-1118D01*
G01X304661D01*
G03X302339I-1161J-950D01*
G01X299937D01*
X299886Y342574D01*
G03X297114I-1386J-574D01*
G01X297063Y342450D01*
X295437D01*
X295386Y342574D01*
G03X295378Y342594I-1387J-573D01*
G02X295588Y343120I367J158D01*
G03X293622Y343906I-588J1380D01*
G02X293412Y343380I-367J-158D01*
G03X292614Y342574I588J-1380D01*
G01X292563Y342450D01*
X277650D01*
X277600Y342400D01*
X275900D01*
X261000Y357300D01*
Y367900D01*
X242200Y386700D01*
Y390600D01*
X243300Y391700D01*
X383701D01*
G02X391700Y383701I0J-8000D01*
G01Y338700D01*
X390000Y337000D01*
X384500D01*
X379000Y342500D01*
X355000D01*
X354950Y342450D01*
X309161D01*
G03X308039Y343000I-1161J-950D01*
G37*
%LPC*%
G75*
G36*
G01X20869Y11513D02*
G02X18517Y11511I-1174J-1978D01*
G03X18381Y12248I-205J344D01*
G02X15362Y13495I1304J7437D01*
G03X14745Y13069I-229J-328D01*
G02X13076Y14736I-2230J-564D01*
G03X13501Y15353I98J388D01*
G02X12252Y18362I6184J4332D01*
G03X11515Y18498I-394J-70D01*
G02Y20872I-1970J1187D01*
G03X12252Y21008I343J206D01*
G02X13493Y24006I7433J-1323D01*
G03X13069Y24623I-328J229D01*
G02X14747Y26301I-554J2232D01*
G03X15364Y25877I388J-96D01*
G02X18381Y27122I4321J-6192D01*
G03X18517Y27859I-69J394D01*
G02X20869Y27857I1178J1976D01*
G03X21003Y27119I204J-344D01*
G02X24014Y25871I-1318J-7434D01*
G03X24632Y26294I229J328D01*
G02X26308Y24613I2233J550D01*
G03X25883Y23996I-97J-388D01*
G02X27123Y20984I-6198J-4311D01*
G03X27862Y20850I394J69D01*
G02Y18520I1983J-1165D01*
G03X27123Y18386I-345J-203D01*
G02X25867Y15350I-7438J1299D01*
G03X26294Y14733I328J-230D01*
G02X24637Y13076I571J-2228D01*
G03X24020Y13503I-387J99D01*
G02X21003Y12251I-4335J6182D01*
G03X20869Y11513I70J-394D01*
G37*
G36*
G01X172569Y63087D02*
G02X169948Y62873I-1369J613D01*
G03X169296Y62894I-334J-221D01*
G02X169352Y64627I-1196J906D01*
G03X170004Y64606I334J221D01*
G02X172436Y64550I1196J-906D01*
G03X173131Y64613I330J227D01*
G02X173264Y63150I1369J-613D01*
G03X172569Y63087I-330J-227D01*
G37*
G36*
G01X133492Y139160D02*
G02X130500Y138961I-1492J-160D01*
G03X129869Y139277I-400J-10D01*
G02X130500Y140539I-869J1223D01*
G03X131131Y140223I400J10D01*
G02X132087Y140498I869J-1223D01*
G03X132508Y140940I23J399D01*
G02X134988Y142229I1492J160D01*
G03X135556Y142271I263J301D01*
G02X138122Y141777I1144J-971D01*
G03X138628Y141524I379J127D01*
G02X137678Y139624I472J-1424D01*
G03X137172Y139876I-379J-127D01*
G02X135712Y140171I-472J1424D01*
G03X135144Y140129I-263J-301D01*
G02X133913Y139602I-1144J971D01*
G03X133492Y139160I-23J-399D01*
G37*
G36*
G01X235992Y155158D02*
G02X234982Y156421I-1492J-158D01*
G03X235508Y156842I129J379D01*
G02X236518Y155579I1492J158D01*
G03X235992Y155158I-129J-379D01*
G37*
G36*
G01X131830Y174587D02*
G02X129570I-1130J-987D01*
G03Y175113I-301J263D01*
G02X130030Y177442I1130J987D01*
G03Y178158I-179J358D01*
G02X131370I670J1342D01*
G03Y177442I179J-358D01*
G02X131830Y175113I-670J-1342D01*
G03Y174587I301J-263D01*
G37*
G36*
G01X119306Y186478D02*
G02X118442Y184749I594J-1377D01*
G03X117894Y185022I-389J-94D01*
G02X116463Y187645I-594J1377D01*
G03X116506Y188277I-223J332D01*
G02X118337Y188155I995J1123D01*
G03X118294Y187523I223J-332D01*
G02X118759Y186751I-995J-1123D01*
G03X119306Y186478I389J94D01*
G37*
G36*
G01X130806Y233196D02*
G02X129073Y233252I-906J-1196D01*
G03X129094Y233904I-221J334D01*
G02X130827Y233848I906J1196D01*
G03X130806Y233196I221J-334D01*
G37*
G36*
G01X117500Y307461D02*
G02X116869Y308723I-1500J39D01*
G03X117500Y309039I232J326D01*
G02X118310Y310332I1500J-39D01*
G03X118415Y310964I-184J355D01*
G02X120190Y310668I1085J1036D01*
G03X120085Y310036I184J-355D01*
G02X118131Y307777I-1085J-1036D01*
G03X117500Y307461I-232J-326D01*
G37*
G36*
G01X131263Y335924D02*
G02X131168Y334088I1137J-979D01*
G03X130537Y334121I-328J-228D01*
G02X130632Y335956I-1137J979D01*
G03X131263Y335924I328J228D01*
G37*
G36*
G01X174766Y358996D02*
G02X172175Y359097I-1267J804D01*
G03X171480Y359118I-353J-188D01*
G02X171525Y360603I-1280J782D01*
G03X172220Y360582I353J188D01*
G02X174286Y361078I1280J-782D01*
G03X174834Y361204I210J341D01*
G02X175314Y359122I1267J-804D01*
G03X174766Y358996I-210J-341D01*
G37*
G36*
G01X20869Y365844D02*
G02X18517Y365842I-1174J-1978D01*
G03X18381Y366579I-205J344D01*
G02X15362Y367826I1304J7437D01*
G03X14745Y367400I-229J-328D01*
G02X13076Y369066I-2230J-564D01*
G03X13501Y369684I98J388D01*
G02X12252Y372693I6184J4332D01*
G03X11515Y372829I-394J-70D01*
G02Y375202I-1970J1187D01*
G03X12252Y375339I343J206D01*
G02X13493Y378336I7433J-1323D01*
G03X13069Y378953I-328J229D01*
G02X14747Y380632I-554J2233D01*
G03X15364Y380208I388J-96D01*
G02X18381Y381452I4321J-6192D01*
G03X18517Y382190I-69J394D01*
G02X20869Y382188I1178J1976D01*
G03X21003Y381450I204J-344D01*
G02X24014Y380202I-1318J-7434D01*
G03X24632Y380625I229J328D01*
G02X26308Y378944I2233J550D01*
G03X25883Y378327I-97J-388D01*
G02X27123Y375315I-6198J-4311D01*
G03X27862Y375181I394J69D01*
G02Y372851I1983J-1165D01*
G03X27123Y372717I-345J-203D01*
G02X25867Y369681I-7438J1299D01*
G03X26294Y369064I328J-230D01*
G02X24637Y367407I571J-2228D01*
G03X24020Y367834I-387J99D01*
G02X21003Y366582I-4335J6182D01*
G03X20869Y365844I70J-394D01*
G37*
G36*
G01X181609Y366707D02*
G02X181022Y365240I891J-1207D01*
G03X180391Y365493I-394J-69D01*
G02X180977Y366959I-891J1207D01*
G03X181609Y366707I394J69D01*
G37*
G36*
G01X229478Y139394D02*
G03X228951Y139120I-139J-375D01*
G02X228023Y140906I-1451J380D01*
G03X228549Y141180I139J375D01*
G02X229478Y139394I1451J-380D01*
G37*
G36*
G01X135230Y155163D02*
G03Y154637I301J-263D01*
G02X132970I-1130J-987D01*
G03Y155163I-301J263D01*
G02X135230I1130J987D01*
G37*
G36*
G01X124521Y156322D02*
G03Y155796I301J-263D01*
G02X122261I-1130J-987D01*
G03Y156322I-301J263D01*
G02X124521I1130J987D01*
G37*
G36*
G01X233221Y161388D02*
G03Y160757I246J-316D01*
G02X231379I-921J-1184D01*
G03Y161388I-246J316D01*
G02X233221I921J1184D01*
G37*
G36*
G01X138530Y164913D02*
G03Y164387I301J-263D01*
G02X136270I-1130J-987D01*
G03Y164913I-301J263D01*
G02X138530I1130J987D01*
G37*
G36*
G01X345921Y168316D02*
G03Y167684I246J-316D01*
G02X344079I-921J-1184D01*
G03Y168316I-246J316D01*
G02X345921I921J1184D01*
G37*
G36*
G01X284521Y220116D02*
G03Y219484I246J-316D01*
G02X282679I-921J-1184D01*
G03Y220116I-246J316D01*
G02X284521I921J1184D01*
G37*
G36*
G01X281674Y225616D02*
G03Y224984I246J-316D01*
G02X279832I-921J-1184D01*
G03Y225616I-246J316D01*
G02X281674I921J1184D01*
G37*
G36*
G01X282184Y232028D02*
G03Y231397I246J-316D01*
G02X280342I-921J-1184D01*
G03Y232028I-246J316D01*
G02X282184I921J1184D01*
G37*
G36*
G01X139279Y235407D02*
G03X139511Y235933I-139J375D01*
G02X141421Y235093I1389J567D01*
G03X141189Y234567I139J-375D01*
G02X139279Y235407I-1389J-567D01*
G37*
G36*
G01X281921Y238816D02*
G03Y238184I246J-316D01*
G02X280079I-921J-1184D01*
G03Y238816I-246J316D01*
G02X281921I921J1184D01*
G37*
G36*
G01X311621Y243016D02*
G03Y242384I246J-316D01*
G02X309779I-921J-1184D01*
G03Y243016I-246J316D01*
G02X311621I921J1184D01*
G37*
G36*
G01X311749Y252816D02*
G03Y252184I246J-316D01*
G02X309907I-921J-1184D01*
G03Y252816I-246J316D01*
G02X311749I921J1184D01*
G37*
G36*
G01X273063Y290519D02*
G03X272537I-263J-301D01*
G02Y292778I-987J1130D01*
G03X273063I263J301D01*
G02Y290519I987J-1130D01*
G37*
G36*
G01X279463Y293370D02*
G03X278937I-263J-301D01*
G02Y295630I-987J1130D01*
G03X279463I263J301D01*
G02Y293370I987J-1130D01*
G37*
G36*
G01X176010Y308779D02*
G03X175378I-316J-246D01*
G02Y310621I-1184J921D01*
G03X176010I316J246D01*
G02Y308779I1184J-921D01*
G37*
G36*
G01X179022Y319477D02*
G03X178390I-316J-246D01*
G02Y321319I-1184J921D01*
G03X179022I316J246D01*
G02Y319477I1184J-921D01*
G37*
G36*
G01X234294Y346838D02*
G03X234757Y346480I398J37D01*
G02X233506Y344862I243J-1480D01*
G03X233043Y345220I-398J-37D01*
G02X234294Y346838I-243J1480D01*
G37*
G36*
G01X173978Y349393D02*
G03X174473Y349172I367J158D01*
G02X173572Y347157I477J-1422D01*
G03X173077Y347378I-367J-158D01*
G02X173978Y349393I-477J1422D01*
G37*
G36*
G01X183430Y353563D02*
G03Y353037I301J-263D01*
G02X181170I-1130J-987D01*
G03Y353563I-301J263D01*
G02X183430I1130J987D01*
G37*
G36*
G01X197134Y354944D02*
G03X196566I-284J-281D01*
G02Y357056I-1066J1056D01*
G03X197134I284J281D01*
G02Y354944I1066J-1056D01*
G37*
G36*
G01X179234Y375344D02*
G03X178666I-284J-281D01*
G02Y377456I-1066J1056D01*
G03X179234I284J281D01*
G02Y375344I1066J-1056D01*
G37*
G36*
G01X193537Y136850D02*
G02X187537Y142850I0J6000D01*
G01Y285008D01*
G02X193537Y291008I6000J0D01*
G01X200163D01*
G02X206164Y285008I0J-6000D01*
G01Y142850D01*
G02X200163Y136850I-6000J0D01*
G01X193537D01*
G37*
G36*
G01X293537D02*
G02X287537Y142850I0J6000D01*
G01Y285008D01*
G02X293537Y291008I6000J0D01*
G01X300163D01*
G02X306164Y285008I0J-6000D01*
G01Y142850D01*
G02X300163Y136850I-6000J0D01*
G01X293537D01*
G37*
G36*
G01X107049Y19691D02*
G02X99434I-3807J0D01*
G01Y22998D01*
G02X107049I3807J0D01*
G01Y19691D01*
G37*
G36*
G01X97049D02*
G02X89434I-3807J0D01*
G01Y22998D01*
G02X97049I3807J0D01*
G01Y19691D01*
G37*
G36*
G01X64766D02*
G02X57151I-3807J0D01*
G01Y22998D01*
G02X64766I3807J0D01*
G01Y19691D01*
G37*
G36*
G01X54766D02*
G02X47151I-3807J0D01*
G01Y22998D01*
G02X54766I3807J0D01*
G01Y19691D01*
G37*
G36*
G01X314316Y60579D02*
G03X313684I-316J-246D01*
G02Y62421I-1184J921D01*
G03X314316I316J246D01*
G02Y60579I1184J-921D01*
G37*
G36*
G01X373316Y64579D02*
G03X372684I-316J-246D01*
G02Y66421I-1184J921D01*
G03X373316I316J246D01*
G02Y64579I1184J-921D01*
G37*
G36*
G01X313816Y67579D02*
G03X313184I-316J-246D01*
G02Y69421I-1184J921D01*
G03X313816I316J246D01*
G02X316184I1184J-921D01*
G03X316816I316J246D01*
G02Y67579I1184J-921D01*
G03X316184I-316J-246D01*
G02X313816I-1184J921D01*
G37*
G36*
G01X222976Y70934D02*
G03X223292Y70471I394J-71D01*
G02X221523Y69266I-292J-1471D01*
G03X221208Y69729I-394J71D01*
G02X222976Y70934I292J1471D01*
G37*
G36*
G01X373316Y68079D02*
G03X372684I-316J-246D01*
G02Y69921I-1184J921D01*
G03X373316I316J246D01*
G02Y68079I1184J-921D01*
G37*
G36*
G01Y71579D02*
G03X372684I-316J-246D01*
G02Y73421I-1184J921D01*
G03X373316I316J246D01*
G02Y71579I1184J-921D01*
G37*
G36*
G01X386421Y76316D02*
G03Y75684I246J-316D01*
G02X384579I-921J-1184D01*
G03Y76316I-246J316D01*
G02X386421I921J1184D01*
G37*
G36*
G01X369421Y76816D02*
G03Y76184I246J-316D01*
G02X367579I-921J-1184D01*
G03Y76816I-246J316D01*
G02X369421I921J1184D01*
G37*
G36*
G01X365285Y84895D02*
G03X365015I-135J-147D01*
G02Y87105I-1015J1105D01*
G03X365285I135J147D01*
G02Y84895I1015J-1105D01*
G37*
G36*
G01X57421Y190316D02*
G03Y189684I246J-316D01*
G02X55579I-921J-1184D01*
G03Y190316I-246J316D01*
G02X57421I921J1184D01*
G37*
G36*
G01X76921D02*
G03Y189684I246J-316D01*
G02X75079I-921J-1184D01*
G03Y190316I-246J316D01*
G02X76921I921J1184D01*
G37*
G36*
G01X384508Y248583D02*
G03X383982Y248267I-131J-378D01*
G02X381370Y249487I-1482J233D01*
G03Y250013I-301J263D01*
G02X383880Y251588I1130J987D01*
G03X384406Y251378I368J157D01*
G02X384508Y248583I594J-1378D01*
G37*
G36*
G01X346650Y35698D02*
G02X339232I-3709J0D01*
G01Y38730D01*
G02X346650I3709J0D01*
G01Y35698D01*
G37*
G36*
G01X375200Y365844D02*
G02X372848Y365842I-1174J-1978D01*
G03X372712Y366579I-205J344D01*
G02X369692Y367826I1304J7437D01*
G03X369076Y367400I-229J-328D01*
G02X367407Y369066I-2230J-564D01*
G03X367832Y369684I98J388D01*
G02X366582Y372693I6184J4332D01*
G03X365846Y372829I-394J-70D01*
G02X365846Y375202I-1970J1187D01*
G03X366582Y375339I343J206D01*
G02X367824Y378336I7433J-1323D01*
G03X367400Y378953I-328J229D01*
G02X369078Y380632I-554J2232D01*
G03X369695Y380208I388J-96D01*
G02X372712Y381452I4320J-6192D01*
G03X372848Y382190I-69J394D01*
G02X375200Y382188I1178J1976D01*
G03X375334Y381450I204J-344D01*
G02X378345Y380202I-1318J-7434D01*
G03X378962Y380625I229J328D01*
G02X380639Y378944I2233J550D01*
G03X380214Y378327I-97J-388D01*
G02X381453Y375315I-6198J-4311D01*
G03X382192Y375181I394J69D01*
G02Y372851I1983J-1165D01*
G03X381453Y372717I-345J-203D01*
G02X380198Y369681I-7438J1299D01*
G03X380624Y369064I328J-230D01*
G02X378967Y367407I571J-2228D01*
G03X378350Y367834I-387J99D01*
G02X375334Y366582I-4335J6182D01*
G03X375200Y365844I70J-394D01*
G37*
G54D48*
X54600Y73982D03*
G54D41*
X261811Y291339D03*
X131889D03*
G54D49*
X99600Y38982D03*
X54600D03*
G54D38*
X305400Y317700D03*
X322000Y317000D03*
X316100Y312600D03*
X328300Y310800D03*
X335000Y310000D03*
X336000Y318500D03*
X312000Y310200D03*
X308000Y310500D03*
X331112Y318612D03*
X291000Y312700D03*
X297500Y312400D03*
X300300Y325300D03*
X345000Y207500D03*
Y203500D03*
Y199500D03*
X327500Y207000D03*
Y203500D03*
Y200000D03*
X345000Y176500D03*
Y173000D03*
X317900Y121900D03*
X296100Y133621D03*
X317000Y38500D03*
X235500Y353500D03*
Y350000D03*
X243000Y349000D03*
X244500Y343500D03*
X284500Y312600D03*
X281607Y310493D03*
X250300Y328500D03*
X231550Y182050D03*
X266100Y167100D03*
X256500Y166000D03*
X250000Y107500D03*
X215200Y365351D03*
X171800Y363000D03*
X209500Y358000D03*
Y354000D03*
X212025Y378275D03*
X205252Y365600D03*
X209900Y350000D03*
X187929Y365800D03*
X196250Y366750D03*
X174400Y372600D03*
X200600Y323200D03*
X209900Y333327D03*
X210100Y340500D03*
X212050Y326250D03*
X187929Y330600D03*
X181000Y304000D03*
X209700Y307800D03*
X185000Y304000D03*
X182000Y299000D03*
X187000D03*
X192000D03*
Y294500D03*
X187000D03*
X182000D03*
Y290000D03*
X187000D03*
X161000Y346100D03*
X162450Y329950D03*
X145100Y291600D03*
X150200Y315800D03*
X116000Y312000D03*
X133000Y310900D03*
X132800Y306300D03*
X129200Y302600D03*
X125800Y299600D03*
X147856Y345500D03*
X127100Y238800D03*
X141500Y247500D03*
Y251000D03*
Y255000D03*
X139500Y227953D03*
X133900Y262000D03*
X141600Y259400D03*
X140500Y287000D03*
X121500Y281800D03*
X141700Y240600D03*
X130000Y211400D03*
X130400Y203000D03*
X127500Y200600D03*
Y223000D03*
X133000Y194882D03*
X119000D03*
X132600Y183100D03*
X132583Y188583D03*
X166000Y207000D03*
Y202500D03*
Y198000D03*
X147000Y198500D03*
Y207000D03*
Y202500D03*
X116200Y179000D03*
X118800Y181200D03*
X139000Y181600D03*
Y189300D03*
X48500Y348000D03*
X58500Y378000D03*
X104500Y344500D03*
X100500Y340500D03*
X93900Y338300D03*
X97800Y338100D03*
X98000Y342944D03*
X45500Y346000D03*
X9500Y198500D03*
Y191500D03*
X14000Y207000D03*
X32000Y140000D03*
Y144000D03*
X379600Y39900D03*
X382000Y283500D03*
X371000Y96000D03*
X380600Y126600D03*
X383000Y298000D03*
Y311500D03*
X381500Y318500D03*
Y332000D03*
X352000Y249000D03*
X385000Y253900D03*
X382500Y260000D03*
X348000Y254500D03*
X362500Y238000D03*
X366000D03*
X369500D03*
X362500Y255000D03*
X366500Y257000D03*
X369500Y233000D03*
X370000Y257000D03*
X374000Y212000D03*
X368500D03*
Y217000D03*
X374000D03*
X364500Y221700D03*
X372000Y222100D03*
X380000Y118000D03*
Y114500D03*
X381000Y141600D03*
X362000Y52000D03*
X367500D03*
X370500Y59800D03*
X388000Y49000D03*
X374500D03*
X362000Y101000D03*
X371000Y86500D03*
X379000D03*
X375000D03*
X366500Y55500D03*
X364900Y75000D03*
X361000Y61000D03*
X376500Y56500D03*
X381500D03*
X388500D03*
X388000Y45500D03*
Y42000D03*
X374500Y45500D03*
X347000Y329500D03*
X330512Y333500D03*
X344500Y339000D03*
X323000Y70500D03*
Y61500D03*
X319000D03*
X331000Y50000D03*
X336000D03*
X346000D03*
X295500D03*
X290500Y63500D03*
X294500D03*
X333000Y43000D03*
X340500Y46500D03*
X295500D03*
X252800Y364400D03*
X252900Y360500D03*
X273031Y334031D03*
X233200Y61500D03*
X242700Y52300D03*
X263600Y57400D03*
X253900Y58700D03*
X245400Y58000D03*
X283000Y50500D03*
X286000Y63500D03*
X231499Y47501D03*
X283000Y46500D03*
X183500Y79800D03*
X178000Y77000D03*
X174000D03*
X217000Y48000D03*
X202000Y62000D03*
X221000Y48000D03*
X223000Y57000D03*
X161000Y83000D03*
X114700Y71600D03*
X148000Y89500D03*
X152500D03*
Y76000D03*
X147500D03*
X143500D03*
X112000Y80500D03*
X118000D03*
X122000Y86000D03*
X108500D03*
X117500Y93200D03*
X112500D03*
X71000Y323000D03*
Y319000D03*
X58000Y322500D03*
Y318500D03*
X60500Y314000D03*
X64000D03*
X68000D03*
X61000Y307000D03*
X65000D03*
X68500D03*
X69500Y303500D03*
Y299000D03*
X58500Y299500D03*
Y303500D03*
X61000Y294000D03*
X64500D03*
X68000D03*
X57500Y261350D03*
Y246350D03*
Y231350D03*
X69626Y284874D03*
X70500Y228000D03*
X84800Y171000D03*
X57400Y216600D03*
X57500Y223500D03*
X82300Y189000D03*
X82500Y183400D03*
X78500Y205000D03*
Y209000D03*
X75000Y205000D03*
Y209000D03*
X70500Y222000D03*
X75500Y172500D03*
Y176000D03*
X56500Y172500D03*
Y176500D03*
Y168000D03*
X75500D03*
X76000Y181500D03*
Y185000D03*
X56500Y181500D03*
Y185000D03*
X54000Y112827D03*
X57500Y156500D03*
X75500Y157500D03*
X57500Y151350D03*
X57150Y161350D03*
X75350D03*
X75500Y151350D03*
X85000Y162500D03*
X82300Y91800D03*
X62500Y92700D03*
Y83100D03*
X93000Y91300D03*
X379500Y131500D03*
X375500Y132500D03*
X382000Y272000D03*
X358100Y30800D03*
X357400Y35200D03*
X154500Y106000D03*
X150000D03*
X216500Y88000D03*
X222000D03*
X226000Y92000D03*
Y96500D03*
X212500Y92000D03*
X213000Y96500D03*
X193500Y96000D03*
X189500D03*
X207000Y92000D03*
Y96000D03*
X194000Y105000D03*
X189000D03*
X184500D03*
X180000D03*
X170000Y103500D03*
X174500D03*
X347500Y107500D03*
X312200Y95000D03*
X308500D03*
X312000Y101500D03*
X308500D03*
X327900Y100800D03*
X347500Y129600D03*
X324000Y112827D03*
X366500Y120500D03*
Y125000D03*
X365000Y129000D03*
X361500D03*
X335639Y376640D03*
X289500Y348500D03*
X297500Y349000D03*
X301500Y344500D03*
X311500D03*
X265000Y373200D03*
G54D56*
X287992Y377883D03*
G54D55*
X319488D03*
G54D53*
X377937Y180780D03*
Y153220D03*
G54D45*
X145740Y58310D03*
X155580D03*
X163460D03*
X145740Y47680D03*
X155580D03*
X163460D03*
G54D50*
X13750Y321500D03*
Y311500D03*
Y301500D03*
G54D39*
X331161Y273161D03*
X241161D03*
X151161D03*
X61161D03*
G54D43*
X287500Y115000D03*
G54D44*
X131714Y358965D03*
X102187D03*
G54D52*
X359500Y229500D03*
G54D47*
X99600Y54061D03*
X54600D03*
G54D40*
X323000Y7293D03*
G54D42*
X241161Y124539D03*
X61161D03*
G54D54*
X350000Y76000D03*
Y66000D03*
Y56000D03*
Y46000D03*
G54D46*
X94600Y73982D03*
X89600Y63982D03*
X84600Y73982D03*
X79600Y63982D03*
X74600Y73982D03*
X69600Y63982D03*
X64600Y73982D03*
X59600Y63982D03*
X89600Y49061D03*
X64600D03*
X99600Y63982D03*
G54D51*
X14000Y160000D03*
Y140000D03*
Y130000D03*
%LPD*%
G75*
G54D10*
X26865Y12505D03*
X12515D03*
Y26855D03*
X26865Y26845D03*
X29845Y19685D03*
X9545D03*
X19695Y9535D03*
Y29835D03*
X26865Y366836D03*
X12515D03*
Y381186D03*
X26865Y381176D03*
X29845Y374016D03*
X9545D03*
X19695Y363866D03*
Y384166D03*
X381196Y12505D03*
X366846D03*
Y26855D03*
X381196Y26845D03*
X384176Y19685D03*
X363876D03*
X374026Y9535D03*
Y29835D03*
X381196Y366836D03*
X366846D03*
Y381186D03*
X381196Y381176D03*
X384176Y374016D03*
X363876D03*
X374026Y363866D03*
Y384166D03*
G54D20*
X54600Y54061D03*
X99600D03*
G54D11*
X19685Y19685D03*
Y374016D03*
X374016Y19685D03*
Y374016D03*
G54D21*
X64600Y49061D03*
X59600Y63982D03*
X69600D03*
X64600Y73982D03*
X99600Y63982D03*
X89600Y49061D03*
X79600Y63982D03*
X89600D03*
X74600Y73982D03*
X84600D03*
X94600D03*
G54D30*
X287500Y115000D03*
G54D12*
X16500Y58500D03*
X15500Y66000D03*
X24500Y62500D03*
X14500Y51500D03*
X22300Y55700D03*
X8000Y52000D03*
X26300Y69700D03*
X7100Y60200D03*
X3500Y97000D03*
X23000Y101000D03*
X28000Y81500D03*
X12800Y74000D03*
X7100Y81600D03*
X17300Y85800D03*
X26800Y92500D03*
X16600Y106800D03*
X4500Y126500D03*
Y149000D03*
X6100Y115500D03*
X4300Y136900D03*
X4100Y159800D03*
X4200Y184800D03*
X25000Y178500D03*
X28500D03*
X9500Y198500D03*
Y191500D03*
X4000Y200200D03*
X3700Y227300D03*
X14000Y207000D03*
X3800Y246900D03*
X3300Y266000D03*
X3800Y300900D03*
X9000Y294700D03*
X3600Y281000D03*
X10500Y345500D03*
X16900Y341700D03*
X22700Y344900D03*
X5200Y343400D03*
X7100Y351500D03*
X13900Y335900D03*
X3600D03*
X8100Y327400D03*
X4400Y316900D03*
X4600Y377800D03*
X4700Y358000D03*
X5500Y364600D03*
X24500Y388600D03*
X11200Y389500D03*
X43800Y6900D03*
X38200Y19900D03*
X32900Y33700D03*
X62500Y83100D03*
Y92700D03*
X32000Y144000D03*
Y140000D03*
X29500Y123500D03*
X34500Y118500D03*
X37500D03*
X42500D03*
X54000Y112827D03*
X45500Y118500D03*
X37500Y156500D03*
X40500Y152500D03*
X43800Y177000D03*
X46600Y184800D03*
X42500Y172500D03*
X46500Y166000D03*
X46000Y170000D03*
X45500Y152500D03*
X37500Y161500D03*
X38000Y172500D03*
X56500Y185000D03*
Y181500D03*
Y188500D03*
X33500Y178500D03*
X38500D03*
X57150Y161350D03*
X57500Y151350D03*
Y156500D03*
X56500Y168000D03*
Y172500D03*
Y176500D03*
X57500Y223500D03*
X57400Y216600D03*
X45900Y221800D03*
X44600Y226500D03*
X46900Y230400D03*
X45300Y215700D03*
X43100Y196400D03*
X36500Y213000D03*
X45100Y201900D03*
X56500Y191500D03*
X47900Y265000D03*
X32200Y236900D03*
X32000Y250700D03*
X57500Y231350D03*
Y246350D03*
Y261350D03*
X68000Y294000D03*
X64500D03*
X61000D03*
X58500Y303500D03*
Y299500D03*
X69500Y299000D03*
Y303500D03*
X68500Y307000D03*
X65000D03*
X61000D03*
X47700Y275600D03*
X47800Y300000D03*
Y311000D03*
Y286300D03*
X69626Y284874D03*
X62500Y339500D03*
Y343000D03*
X67000Y339500D03*
Y343000D03*
X53500Y342500D03*
X68000Y314000D03*
X64000D03*
X60500D03*
X58000Y318500D03*
Y322500D03*
X45500Y346000D03*
X48500Y348000D03*
X58500Y346000D03*
X31400Y354300D03*
X42000Y364000D03*
X45600Y388600D03*
X38500Y389100D03*
X50500Y380500D03*
X66200Y380400D03*
X58900Y388300D03*
X51161Y365500D03*
X58500Y378000D03*
X108500Y86000D03*
X93000Y91300D03*
Y82300D03*
X82300Y82000D03*
Y91800D03*
X82000Y142500D03*
Y138000D03*
X84100Y140300D03*
X79700D03*
X79600Y145200D03*
X83900Y145100D03*
X85000Y162500D03*
X82500Y183400D03*
X82300Y189000D03*
X85000Y155000D03*
X84800Y171000D03*
X76000Y188500D03*
Y181500D03*
Y185000D03*
X75350Y161350D03*
X75500Y151350D03*
Y157500D03*
Y168000D03*
Y172500D03*
Y176000D03*
X70500Y228000D03*
Y222000D03*
X76000Y191500D03*
X78500Y205000D03*
Y209000D03*
X75000Y205000D03*
Y209000D03*
X77500Y339500D03*
X72500D03*
Y343000D03*
X77500D03*
X97800Y338100D03*
X71000Y323000D03*
Y319000D03*
X108500Y331500D03*
X104200Y322900D03*
Y314800D03*
X100500Y340500D03*
X93900Y338300D03*
X98000Y342944D03*
X104500Y344500D03*
X89000Y366500D03*
X79000Y366000D03*
X107000Y355000D03*
Y359500D03*
X78800Y388900D03*
X78000Y381000D03*
X90900Y389800D03*
X105000Y390200D03*
X109400Y367300D03*
X107500Y364000D03*
X107600Y376600D03*
Y373200D03*
X107400Y369800D03*
X111900Y12700D03*
X139200Y25100D03*
X148800Y20800D03*
X136900Y10700D03*
X119000Y6600D03*
X119200Y24500D03*
X121400Y15000D03*
X121900Y55900D03*
X122200Y40000D03*
X118400Y48900D03*
X118300Y65300D03*
X127700Y48500D03*
X118200Y34500D03*
X126500Y109500D03*
X117500Y93200D03*
X112500D03*
X122000Y86000D03*
X143500Y76000D03*
X148000Y89500D03*
X114700Y71600D03*
X112000Y80500D03*
X118000D03*
X150000Y106000D03*
X147500Y76000D03*
X129500Y123500D03*
X142000Y124000D03*
X124000Y112000D03*
X121500Y114500D03*
X137500Y118500D03*
X140000Y134500D03*
X130000Y135000D03*
X134000Y141100D03*
X132000Y139000D03*
X139100Y140100D03*
X136700Y141300D03*
X129000Y140500D03*
X132600Y183100D03*
X116200Y179000D03*
X118800Y181200D03*
X130700Y179500D03*
X139000Y181600D03*
X121000Y153500D03*
X121900Y159700D03*
X136800Y155800D03*
X131500Y157500D03*
X134900Y162200D03*
X147500Y157400D03*
X127074Y185434D03*
X132900Y177700D03*
X133050Y172685D03*
X132600Y185800D03*
X120500Y173000D03*
X120900Y177800D03*
X147400Y184800D03*
Y181100D03*
Y188300D03*
X147150Y161350D03*
X147400Y151900D03*
X123800Y166000D03*
X139000Y168900D03*
X130700Y173600D03*
Y176100D03*
X137400Y163400D03*
Y165900D03*
X123391Y157309D03*
Y154809D03*
X134100Y153650D03*
Y156150D03*
X132583Y188583D03*
X139000Y189300D03*
X119900Y185100D03*
X117500Y189400D03*
X117300Y186400D03*
X119680Y213780D03*
X139300Y216400D03*
X139200Y213780D03*
Y207480D03*
Y199606D03*
X127074Y193308D03*
X120700Y202000D03*
X132600Y191732D03*
X139500Y224803D03*
X119800Y225100D03*
X120000Y208000D03*
X119100Y219600D03*
X147500Y192000D03*
X119000Y194882D03*
X133000D03*
X139500Y227953D03*
X147000Y207000D03*
Y202500D03*
Y198500D03*
X127500Y200600D03*
Y223000D03*
X130400Y203000D03*
X130000Y211400D03*
X133250Y243250D03*
X129760Y261300D03*
X130000Y235100D03*
X129900Y232000D03*
X139800Y234000D03*
X140900Y236500D03*
X141500Y255000D03*
Y251000D03*
Y247500D03*
X141700Y240600D03*
X133900Y262000D03*
X141600Y259400D03*
X127100Y238800D03*
X140500Y287000D03*
X121500Y281800D03*
X145100Y291600D03*
X147100Y277800D03*
X145385Y300200D03*
X128300Y273500D03*
X125800Y299600D03*
X129200Y302600D03*
X132800Y306300D03*
X116000Y307500D03*
X119000Y309000D03*
X133000Y310900D03*
X120000Y316900D03*
X111300Y342200D03*
X117500Y331500D03*
X119000Y334944D03*
X138000Y343000D03*
X150200Y315800D03*
X119500Y312000D03*
X116000D03*
X129400Y335100D03*
X132400Y334944D03*
X147856Y345500D03*
X121000Y386500D03*
X116000D03*
X111500D03*
X146500Y388000D03*
X143000D03*
Y352500D03*
X119800Y353800D03*
X114200Y354000D03*
X113400Y358400D03*
X117000Y390200D03*
X150000Y388000D03*
X126000Y389500D03*
X131500Y389000D03*
X137000D03*
X140000Y352500D03*
X137000Y359000D03*
X129500Y362500D03*
Y356000D03*
X127000Y354400D03*
X124280Y352400D03*
X187300Y7100D03*
X172700Y14400D03*
X163000Y8000D03*
X160200Y23700D03*
X150800Y29000D03*
X186800Y49700D03*
X179600Y30500D03*
X163400Y31500D03*
X168100Y63800D03*
X174500Y64000D03*
X171200Y63700D03*
X186200Y82000D03*
X180100Y86600D03*
X188500Y79200D03*
X188300Y84500D03*
X189500Y96000D03*
X152500Y76000D03*
X154500Y106000D03*
X174000Y77000D03*
X178000D03*
X183500Y79800D03*
X170000Y103500D03*
X174500D03*
X152500Y89500D03*
X161000Y83000D03*
X189000Y105000D03*
X184500D03*
X180000D03*
Y108500D03*
X184500D03*
X189000D03*
X170525Y86500D03*
X166000Y148000D03*
X172700Y112600D03*
X180900Y190400D03*
X184200Y183500D03*
X176000Y184000D03*
Y188500D03*
X171500Y151500D03*
X168500D03*
X165000Y157000D03*
Y188500D03*
Y181500D03*
Y185000D03*
Y160500D03*
Y151350D03*
X181400Y205800D03*
X176300Y221300D03*
X183500Y216900D03*
X183000Y230700D03*
X176000Y192500D03*
X165000Y191500D03*
X166000Y198000D03*
Y202500D03*
Y207000D03*
X175100Y243700D03*
X165500Y231350D03*
Y246350D03*
X165850Y261350D03*
X179800Y310100D03*
X172200Y311500D03*
X151850Y277500D03*
X152000Y300600D03*
X181000Y304000D03*
X177194Y309700D03*
X174194D03*
X185000Y304000D03*
X187000Y290000D03*
X182000D03*
Y294500D03*
X187000D03*
Y299000D03*
X182000D03*
X182500Y348700D03*
X187700Y335700D03*
X176300Y322800D03*
X164000Y350500D03*
X174400Y342900D03*
X183400Y330800D03*
Y320000D03*
X159500D03*
X163900Y339900D03*
X174350Y338850D03*
X163800Y342500D03*
X174950Y347750D03*
X172600Y348800D03*
X180206Y320398D03*
X177206D03*
X187929Y330600D03*
X162450Y329950D03*
X161000Y346100D03*
X189900Y383500D03*
X176700Y368200D03*
X164000Y354000D03*
X154100Y387800D03*
X157600D03*
X153000Y352500D03*
X150500D03*
X176900Y371500D03*
X182900Y375200D03*
X189600Y374700D03*
X182300Y352050D03*
Y354550D03*
X179500Y366700D03*
X187929Y365800D03*
X174400Y372600D03*
X171800Y363000D03*
X173500Y359800D03*
X170200Y359900D03*
X176100Y360400D03*
X190300Y386100D03*
X180300Y376400D03*
X188000Y386100D03*
X177600Y376400D03*
X182500Y365500D03*
X206200Y9300D03*
X222700Y21700D03*
X207800Y24600D03*
X193500Y15600D03*
X191600Y27000D03*
X213000Y51650D03*
X209000Y47500D03*
X223000Y57000D03*
X198500Y46900D03*
X202700Y36400D03*
X202000Y62000D03*
X223000Y69000D03*
X217000Y48000D03*
X221000D03*
X229500Y108500D03*
X225000D03*
X221000D03*
X216500D03*
X192200Y79200D03*
X216800Y78000D03*
X216500Y88000D03*
X226000Y92000D03*
Y96500D03*
X212500Y92000D03*
X213000Y96500D03*
X222000Y88000D03*
X207000Y92000D03*
Y96000D03*
X193500D03*
X221500Y71200D03*
X194000Y105000D03*
Y108500D03*
X220800Y147800D03*
X223700Y147900D03*
X230000Y140800D03*
X227500Y139500D03*
X223200Y187700D03*
X210200Y188000D03*
X229500Y163500D03*
X223000Y192500D03*
Y196000D03*
X210000Y192000D03*
Y195500D03*
Y199000D03*
Y202500D03*
Y213500D03*
X214900Y308300D03*
X209700Y307800D03*
X192000Y294500D03*
Y299000D03*
X191500Y339000D03*
X193200Y335600D03*
X196300Y337700D03*
X199600Y338700D03*
X200400Y349500D03*
X193800Y351300D03*
X204800Y314100D03*
X221300Y349200D03*
X198100Y351600D03*
X220700Y344100D03*
X209400Y345700D03*
X209900Y336100D03*
X220700Y330900D03*
X219800Y328500D03*
X216600Y320200D03*
X219500Y325700D03*
X221400Y322700D03*
X193850Y330450D03*
X202500Y314200D03*
X197200Y321000D03*
X203200Y323100D03*
X207200Y330400D03*
X199200Y330600D03*
X207500Y347500D03*
X212050Y326250D03*
X210100Y340500D03*
X209900Y350000D03*
Y333327D03*
X200600Y323200D03*
X226000Y370500D03*
X215000Y371000D03*
X204100Y383800D03*
X229000Y360000D03*
X227500Y365000D03*
X196700Y375600D03*
X204850Y372000D03*
X210600Y371600D03*
X213200Y369100D03*
X225500Y355900D03*
X218000Y361900D03*
X212500Y361600D03*
X208200Y380400D03*
X194000Y365500D03*
X200700Y356000D03*
X195600Y384000D03*
X192600D03*
X196250Y366750D03*
X225850Y384150D03*
X205252Y365600D03*
X212025Y378275D03*
X209500Y358000D03*
Y354000D03*
X215200Y365351D03*
X195500Y356000D03*
X201300Y383300D03*
X198200Y356000D03*
X201700Y380700D03*
X237500Y22000D03*
X257500Y17000D03*
X260000Y22500D03*
X248500Y20000D03*
X266100Y8700D03*
X254300Y6500D03*
X237500Y6700D03*
X244400Y10100D03*
X231400Y14500D03*
X231499Y47501D03*
X253900Y58700D03*
X263600Y57400D03*
X242700Y52300D03*
X233200Y61500D03*
X264748Y29848D03*
X258843D03*
X252937D03*
X247032D03*
X236000Y43500D03*
X245400Y58000D03*
X232000Y106500D03*
X238000Y106000D03*
X245500D03*
X250000Y107500D03*
X255100Y127300D03*
X262600Y130900D03*
X259300D03*
X257900Y160000D03*
X260500D03*
X232500Y157000D03*
X259300Y151100D03*
X254500Y187008D03*
Y182284D03*
Y178300D03*
Y173200D03*
X266046Y187008D03*
Y182284D03*
X266200Y172000D03*
X237500Y185000D03*
Y181500D03*
Y188500D03*
X234800Y185100D03*
Y181600D03*
Y188600D03*
X266200Y177200D03*
X255100Y160000D03*
X237000Y163100D03*
X238000Y152000D03*
X254900Y151350D03*
X237000Y157000D03*
X234500Y155000D03*
X266100Y167100D03*
X231550Y182050D03*
X232300Y159572D03*
X256500Y166000D03*
X232300Y162572D03*
X242800Y227300D03*
X246300Y224800D03*
X261199Y229528D03*
X253920Y224803D03*
Y215354D03*
Y220079D03*
Y210630D03*
X254600Y196458D03*
Y191732D03*
X266228Y229528D03*
X266100Y224803D03*
X266021Y220079D03*
X266046Y215354D03*
Y210630D03*
Y205906D03*
Y201182D03*
Y196458D03*
Y191732D03*
X237500Y191500D03*
X234800Y191600D03*
X268800Y262400D03*
X262100Y271300D03*
X248000Y265900D03*
X239400Y267100D03*
X256300Y265600D03*
X261200Y237800D03*
X261199Y234252D03*
X237500Y246350D03*
X237650Y231350D03*
X254400Y243701D03*
X237500Y261350D03*
X266500Y233500D03*
X251900Y273200D03*
X270000Y289000D03*
X244000Y296300D03*
X246400Y271500D03*
X231400Y309469D03*
X241850Y277800D03*
Y292000D03*
X243400Y336500D03*
X243500Y339300D03*
X253000Y332500D03*
X252800Y335800D03*
X235000Y345000D03*
X232800Y346700D03*
X250300Y328500D03*
X244500Y343500D03*
X243000Y349000D03*
X235500Y350000D03*
X262700Y384000D03*
X257300Y383000D03*
X257800Y374700D03*
X269000Y383500D03*
X232500Y360500D03*
X252900D03*
X243000Y362000D03*
X246000Y363000D03*
X252800Y364400D03*
X262000Y365500D03*
Y362500D03*
Y359000D03*
X265000Y365500D03*
X268000Y364500D03*
X270720Y373780D03*
X265300Y362508D03*
X243500Y353500D03*
X235500D03*
X248000Y352400D03*
X265000Y373200D03*
X271500Y21500D03*
X294000Y18000D03*
X297000Y25000D03*
X305000Y7000D03*
X310500Y13500D03*
X309000Y21000D03*
X286900Y6100D03*
X289000Y27000D03*
X284500Y16000D03*
X293000Y7000D03*
X294500Y63500D03*
X290500D03*
X286000D03*
X295500Y50000D03*
Y46500D03*
Y43000D03*
X292500Y39500D03*
X287000D03*
X283000Y42500D03*
Y46500D03*
Y50500D03*
X284500Y32000D03*
X299500Y96500D03*
Y91500D03*
Y87500D03*
Y82500D03*
X295500D03*
Y87500D03*
Y91500D03*
Y96500D03*
X283500Y83000D03*
Y87500D03*
Y91500D03*
Y96000D03*
X308500Y95000D03*
Y101500D03*
X295000Y104000D03*
X285300Y149200D03*
X285400Y139600D03*
X306200Y117500D03*
X302000Y113100D03*
X296100Y133621D03*
X285300Y176100D03*
X285400Y202900D03*
X283500Y215400D03*
Y224400D03*
X283400Y227700D03*
X281263Y230213D03*
X280753Y226800D03*
Y223800D03*
X283600Y221300D03*
Y218300D03*
X278600Y258700D03*
X283000Y256900D03*
Y263700D03*
Y270400D03*
X274900Y270200D03*
X279500Y253600D03*
X275100Y254000D03*
X310000Y266200D03*
X283400Y235100D03*
X283800Y231500D03*
X283600Y238300D03*
X278200Y241500D03*
X310500Y238300D03*
X310700Y257200D03*
X310500Y247500D03*
X272900Y239600D03*
X273500Y243000D03*
X281000Y240000D03*
Y237000D03*
X281263Y233213D03*
X310700Y244200D03*
Y241200D03*
X310828Y251000D03*
Y254000D03*
X276000Y290000D03*
X275200Y294900D03*
X283100Y295100D03*
X309700Y272600D03*
X309000Y281600D03*
X277950Y294500D03*
X280450D03*
X281607Y310493D03*
X308000Y310500D03*
X274050Y291648D03*
X271550D03*
X282500Y350200D03*
X282400Y343600D03*
X308600Y317600D03*
X308400Y327800D03*
X282500Y322000D03*
X285400Y350200D03*
X286200Y343600D03*
X273031Y334031D03*
X308000Y341500D03*
X303500D03*
X298500Y342000D03*
X294000D03*
X289500Y348500D03*
X311500Y344500D03*
X306500D03*
X301500D03*
X295000D03*
X297500Y349000D03*
X305400Y317700D03*
Y327500D03*
X300300Y325300D03*
X297500Y312400D03*
X284500Y312600D03*
X291000Y312700D03*
X288500Y389500D03*
X294600Y389200D03*
X301500Y382400D03*
X308300Y387400D03*
X293600Y379600D03*
X298400Y371400D03*
X310100Y379100D03*
X291800Y358300D03*
X295100Y358400D03*
X300200Y362700D03*
X300300Y358400D03*
X306300Y363200D03*
Y358500D03*
X280600Y376200D03*
X317500Y15000D03*
X312500Y6500D03*
X334000Y22000D03*
X331500Y12500D03*
X342500Y5500D03*
X323000Y61500D03*
X319000D03*
X315500D03*
X312500D03*
X312000Y68500D03*
X318000D03*
X315000D03*
X346000Y50000D03*
X340500Y46500D03*
X333000Y43000D03*
X317000Y38500D03*
X315000Y43500D03*
X336000Y50000D03*
X331000D03*
X347500Y107500D03*
X312200Y95000D03*
X312000Y101500D03*
X323000Y70500D03*
X327900Y100800D03*
X350500Y136000D03*
Y139500D03*
X347000Y111000D03*
Y113500D03*
Y116500D03*
Y119500D03*
X351000Y150000D03*
X324000Y112827D03*
X314400Y117700D03*
X347500Y129600D03*
X317900Y121900D03*
X350500Y159000D03*
Y162000D03*
X325500Y157500D03*
X326000Y166500D03*
X345000Y188500D03*
Y181500D03*
X327500D03*
Y185000D03*
Y188500D03*
X325650Y161350D03*
X345350D03*
X325500Y153500D03*
X344850Y151350D03*
X345000Y166500D03*
Y169500D03*
Y173000D03*
Y176500D03*
X322500Y222000D03*
X326000Y226000D03*
X350500Y194000D03*
Y198000D03*
X346000Y227000D03*
X328000Y230000D03*
X345000Y191500D03*
X327500D03*
Y200000D03*
Y203500D03*
Y207000D03*
X345000Y199500D03*
Y203500D03*
Y207500D03*
X326600Y269400D03*
X326650Y261350D03*
Y246350D03*
X348000Y254500D03*
X345900Y244900D03*
X350500Y302000D03*
X341000Y308500D03*
X328400Y278000D03*
X331850Y277800D03*
X341000Y311500D03*
X312000Y310200D03*
X328300Y310800D03*
X335000Y310000D03*
X351500Y330000D03*
X341000Y315500D03*
X347000Y329500D03*
X311750Y317800D03*
X312700Y324700D03*
X330512Y333500D03*
X312795Y331500D03*
X336700Y327700D03*
X342000Y329500D03*
X341000Y318500D03*
X344500Y344000D03*
Y339000D03*
X331112Y318612D03*
X322000Y317000D03*
X336000Y318500D03*
X316100Y312600D03*
X345800Y369500D03*
X346300Y385700D03*
X317000Y372000D03*
X316400Y385100D03*
X324700Y370700D03*
X326400Y387500D03*
X335500Y389200D03*
X348500Y389500D03*
X337000Y379400D03*
X349500Y361000D03*
X314700Y362500D03*
X318900D03*
X341220Y369600D03*
X334000Y363200D03*
X336300Y364900D03*
X338500Y367600D03*
X335639Y376640D03*
X355000Y9000D03*
X365000Y6000D03*
X381000Y5000D03*
X388500Y12500D03*
X389600Y28200D03*
X386000Y35000D03*
X388500Y56500D03*
X381500D03*
X376500D03*
X358100Y30800D03*
X357400Y35200D03*
X379600Y39900D03*
X374500Y45500D03*
Y49000D03*
X388000Y42000D03*
Y45500D03*
Y49000D03*
X366500Y55500D03*
X367500Y52000D03*
X362000D03*
X370500Y59800D03*
X374500Y65500D03*
X371500D03*
Y69000D03*
X374500D03*
X361000Y61000D03*
X371000Y96000D03*
X390000Y80500D03*
X364000Y86000D03*
X362000Y101000D03*
X364900Y75000D03*
X366300Y86000D03*
X390000Y83500D03*
X379000Y86500D03*
X375000D03*
X371000D03*
X374500Y72500D03*
X371500D03*
X385500Y74500D03*
X368500Y75000D03*
X385500Y77500D03*
X368500Y78000D03*
X368000Y136000D03*
Y140000D03*
X363500Y135500D03*
X365000Y138000D03*
Y142000D03*
X389200Y141899D03*
X390000Y149500D03*
X366500Y125000D03*
Y116000D03*
Y120500D03*
X368000Y112000D03*
X355000Y150000D03*
X365000Y129000D03*
X361500D03*
X369500D03*
X365500Y110500D03*
X362000D03*
X389300Y137100D03*
X389500Y126800D03*
X380000Y118000D03*
Y114500D03*
X381000Y141600D03*
X380600Y126600D03*
X379500Y131500D03*
X375500Y132500D03*
X357000Y167000D03*
Y180000D03*
X356800Y183100D03*
X359500Y183000D03*
X389500Y182500D03*
X389200Y163400D03*
X357811Y188189D03*
X361000Y188179D03*
X354800Y188200D03*
X352000Y188000D03*
X372000Y222100D03*
X364500Y221700D03*
X374000Y217000D03*
X368500D03*
Y212000D03*
X374000D03*
X359500Y229500D03*
X390000Y211500D03*
Y192000D03*
X358500Y202500D03*
X354500D03*
X390200Y221100D03*
X390100Y200700D03*
X387500Y201900D03*
Y216300D03*
Y230400D03*
X353500Y215500D03*
X385000Y250000D03*
X385500Y246000D03*
X382500Y248500D03*
Y251000D03*
X385000Y253900D03*
X390000Y233500D03*
X370000Y257000D03*
X366500D03*
X362500Y255000D03*
X369500Y238000D03*
X366000D03*
X362500D03*
X390000Y265000D03*
Y240500D03*
X352000Y249000D03*
X369500Y233000D03*
X382500Y260000D03*
X388400Y244800D03*
X367000Y308000D03*
X364000Y311000D03*
X359500D03*
X354500Y302000D03*
X382000Y283500D03*
Y272000D03*
X383000Y311500D03*
X386500D03*
X387000Y298000D03*
X383000D03*
X390000Y302000D03*
Y307000D03*
X389700Y289200D03*
X367500Y329500D03*
Y325500D03*
Y321000D03*
X359000Y331500D03*
X355000Y326500D03*
X355500Y319000D03*
Y315500D03*
Y312000D03*
X383500Y346500D03*
X389000Y340500D03*
X386500Y332000D03*
X381500D03*
Y318500D03*
X386500D03*
X390000Y320000D03*
Y324500D03*
Y329000D03*
X390200Y312700D03*
X387400Y348900D03*
X383900Y340100D03*
X359500Y350000D03*
X359000Y346500D03*
X379500Y358500D03*
X364000Y389500D03*
X355500D03*
X380500D03*
X389500Y383000D03*
X387000Y358000D03*
X388300Y364100D03*
X382200Y355100D03*
X361500Y363500D03*
X356500Y358000D03*
X359500Y354000D03*
G54D13*
X14000Y130000D03*
Y140000D03*
Y150000D03*
X387780Y158142D03*
Y175858D03*
G54D22*
X54600Y73982D03*
G54D31*
X287992Y377883D03*
X319488D03*
G54D32*
X323000Y20679D03*
G54D23*
X102187Y358965D03*
X131714D03*
G54D14*
X14000Y160000D03*
G54D15*
X13750Y301500D03*
Y311500D03*
Y321500D03*
Y331500D03*
G54D33*
X323000Y7293D03*
G54D24*
X133650Y37325D03*
Y59725D03*
X185350Y37325D03*
Y59725D03*
G54D34*
X323000Y42726D03*
G54D25*
X145740Y47680D03*
Y58310D03*
X173300Y47680D03*
X163460D03*
X155580D03*
X173300Y58310D03*
X163460D03*
X155580D03*
G54D16*
X5246Y321500D03*
X61161Y124539D03*
Y273161D03*
X151161Y124539D03*
Y273161D03*
X241161Y124539D03*
Y273161D03*
X331161Y124539D03*
Y273161D03*
G54D35*
X350000Y46000D03*
Y56000D03*
Y66000D03*
Y76000D03*
G54D17*
X60958Y21344D03*
X50958D03*
X103242D03*
X93242D03*
G54D26*
X131889Y102362D03*
Y291339D03*
X261811Y102362D03*
Y291339D03*
G54D27*
X220457Y10207D03*
X277543D03*
G54D18*
X46401Y50990D03*
X107799D03*
G54D36*
X377937Y153220D03*
Y180780D03*
G54D37*
G01X10000Y0D02*
X383701D01*
G03X393701Y10000I0J10000D01*
G01Y383701D01*
G03X383701Y393701I-10000J0D01*
G01X10000D01*
G03X0Y383701I0J-10000D01*
G01Y10000D01*
G03X10000Y0I10000J0D01*
G01X25685Y19685D02*
G03I-6000J0D01*
G01Y374016D02*
G03I-6000J0D01*
G01X93537Y289008D02*
G03X89537Y285008I0J-4000D01*
G01Y142850D01*
G03X93537Y138850I4000J0D01*
G01X100163D01*
G03X104163Y142850I0J4000D01*
G01Y285008D01*
G03X100163Y289008I-4000J0D01*
G01X93537D01*
G01D02*
X100163D01*
G02X104163Y285008I0J-4000D01*
G01Y142850D01*
G01X93537Y138850D02*
G02X89537Y142850I0J4000D01*
G01D02*
Y285008D01*
G02X93537Y289008I4000J0D01*
G01X100163Y138850D02*
X93537D01*
G01X104163Y142850D02*
G02X100163Y138850I-4000J0D01*
G01X193537Y289008D02*
G03X189537Y285008I0J-4000D01*
G01Y142850D01*
G03X193537Y138850I4000J0D01*
G01X200163D01*
G03X204163Y142850I0J4000D01*
G01Y285008D01*
G03X200163Y289008I-4000J0D01*
G01X193537D01*
G01D02*
X200163D01*
G02X204163Y285008I0J-4000D01*
G01Y142850D01*
G01X193537Y138850D02*
G02X189537Y142850I0J4000D01*
G01D02*
Y285008D01*
G02X193537Y289008I4000J0D01*
G01X200163Y138850D02*
X193537D01*
G01X204163Y142850D02*
G02X200163Y138850I-4000J0D01*
G01X293537Y289008D02*
G03X289537Y285008I0J-4000D01*
G01Y142850D01*
G03X293537Y138850I4000J0D01*
G01X300163D01*
G03X304163Y142850I0J4000D01*
G01Y285008D01*
G03X300163Y289008I-4000J0D01*
G01X293537D01*
G01D02*
X300163D01*
G02X304163Y285008I0J-4000D01*
G01Y142850D01*
G01X293537Y138850D02*
G02X289537Y142850I0J4000D01*
G01D02*
Y285008D01*
G02X293537Y289008I4000J0D01*
G01X300163Y138850D02*
X293537D01*
G01X304163Y142850D02*
G02X300163Y138850I-4000J0D01*
G01X380016Y19685D02*
G03I-6000J0D01*
G01Y374016D02*
G03I-6000J0D01*
G54D28*
X220457Y33671D03*
X277543D03*
G54D19*
X54600Y38982D03*
X99600D03*
G54D29*
X303059Y18316D03*
Y37214D03*
X342941Y18316D03*
Y37214D03*
M02*
