G04 ================== begin FILE IDENTIFICATION RECORD ==================*
G04 Layout Name:  CM4_SATAX4_Substrate_V11-20210307.brd*
G04 Film Name:    PASTE_BOT*
G04 File Format:  Gerber RS274X*
G04 File Origin:  Cadence Allegro 16.6-2015-S066*
G04 Origin Date:  Sun Mar 07 16:05:33 2021*
G04 *
G04 Layer:  PACKAGE GEOMETRY/PASTEMASK_BOTTOM*
G04 Layer:  PIN/PASTEMASK_BOTTOM*
G04 Layer:  BOARD GEOMETRY/OUTLINE*
G04 *
G04 Offset:    (0.000 0.000)*
G04 Mirror:    No*
G04 Mode:      Positive*
G04 Rotation:  0*
G04 FullContactRelief:  No*
G04 UndefLineWidth:     6.000*
G04 ================== end FILE IDENTIFICATION RECORD ====================*
%FSLAX55Y55*MOIN*%
%IR0*IPPOS*OFA0.00000B0.00000*MIA0B0*SFA1.00000B1.00000*%
%AMMACRO39*
4,1,5,.01,.0095,
.01,-.0095,
-.01,-.0095,
-.01,.0095,
0.0,.0065,
.01,.0095,
0.0*
%
%ADD39MACRO39*%
%ADD32O,.008X.04*%
%ADD31O,.04X.008*%
%AMMACRO38*
4,1,5,.01,.0095,
.01,-.0095,
0.0,-.0065,
-.01,-.0095,
-.01,.0095,
.01,.0095,
0.0*
%
%ADD38MACRO38*%
%ADD26R,.044X.146*%
%ADD33R,.2X.2*%
%ADD50R,.134X.098*%
%AMMACRO24*
4,1,5,.01,-.01,
.01,.01,
0.0,.007,
-.01,.01,
-.01,-.01,
.01,-.01,
0.0*
%
%ADD24MACRO24*%
%AMMACRO43*
4,1,5,-.01,-.01,
-.01,.01,
.01,.01,
.01,-.01,
0.0,-.007,
-.01,-.01,
0.0*
%
%ADD43MACRO43*%
%AMMACRO28*
4,1,5,-.01,-.01,
.01,-.01,
.007,0.0,
.01,.01,
-.01,.01,
-.01,-.01,
0.0*
%
%ADD28MACRO28*%
%AMMACRO25*
4,1,5,-.01,.01,
-.01,-.01,
0.0,-.007,
.01,-.01,
.01,.01,
-.01,.01,
0.0*
%
%ADD25MACRO25*%
%AMMACRO15*
4,1,5,-.01,.01,
.01,.01,
.01,-.01,
-.01,-.01,
-.007,0.0,
-.01,.01,
0.0*
%
%ADD15MACRO15*%
%AMMACRO29*
4,1,5,.01,.01,
-.01,.01,
-.007,0.0,
-.01,-.01,
.01,-.01,
.01,.01,
0.0*
%
%ADD29MACRO29*%
%AMMACRO42*
4,1,5,-.01,-.01,
-.01,.01,
0.0,.007,
.01,.01,
.01,-.01,
-.01,-.01,
0.0*
%
%ADD42MACRO42*%
%AMMACRO14*
4,1,5,-.01,.01,
.01,.01,
.007,0.0,
.01,-.01,
-.01,-.01,
-.01,.01,
0.0*
%
%ADD14MACRO14*%
%ADD16R,.027559X.00787*%
%ADD48R,.032X.03*%
%ADD27R,.03X.032*%
%ADD13R,.07X.04*%
%ADD19R,.06X.024*%
%ADD17R,.044X.032*%
%ADD40R,.037X.05*%
%ADD30R,.05X.039*%
%ADD11R,.065X.051*%
%ADD47R,.039X.05*%
%ADD18R,.015X.047*%
%ADD10C,.04*%
%ADD49R,.095X.08*%
%ADD41R,.048X.055*%
%ADD12R,.08X.095*%
%AMMACRO45*
4,1,5,.01,.01,
-.01,.01,
-.007,0.0,
-.01,-.01,
.01,-.01,
.01,.01,
0.0*
%
%ADD45MACRO45*%
%AMMACRO22*
4,1,5,-.01,.01,
-.01,-.01,
0.0,-.007,
.01,-.01,
.01,.01,
-.01,.01,
0.0*
%
%ADD22MACRO22*%
%AMMACRO46*
4,1,5,-.01,-.01,
.01,-.01,
.007,0.0,
.01,.01,
-.01,.01,
-.01,-.01,
0.0*
%
%ADD46MACRO46*%
%AMMACRO23*
4,1,5,.01,-.01,
.01,.01,
0.0,.007,
-.01,.01,
-.01,-.01,
.01,-.01,
0.0*
%
%ADD23MACRO23*%
%AMMACRO21*
4,1,5,.01,.01,
.01,-.01,
-.01,-.01,
-.01,.01,
0.0,.007,
.01,.01,
0.0*
%
%ADD21MACRO21*%
%AMMACRO35*
4,1,5,.01,-.01,
-.01,-.01,
-.01,.01,
.01,.01,
.007,0.0,
.01,-.01,
0.0*
%
%ADD35MACRO35*%
%ADD44C,.02598*%
%AMMACRO20*
4,1,5,.01,.01,
.01,-.01,
0.0,-.007,
-.01,-.01,
-.01,.01,
.01,.01,
0.0*
%
%ADD20MACRO20*%
%AMMACRO34*
4,1,5,.01,-.01,
-.01,-.01,
-.007,0.0,
-.01,.01,
.01,.01,
.01,-.01,
0.0*
%
%ADD34MACRO34*%
%ADD52R,.059252X.031575*%
%ADD51R,.102874X.137874*%
%ADD53C,.006*%
G75*
%LPD*%
G75*
G36*
G01X288646Y115000D02*
G02I-1146J0D01*
G37*
G54D10*
X24500Y46500D03*
X41500Y378000D03*
X353100Y23000D03*
X375000Y348500D03*
G54D20*
X132000Y350600D03*
X202500Y320100D03*
X269500Y379600D03*
X346000Y233100D03*
X340000Y382600D03*
X382500Y245100D03*
G54D11*
X70500Y173700D03*
Y184300D03*
X61500Y173700D03*
Y184300D03*
X70000Y207200D03*
Y217800D03*
X146000Y368300D03*
Y357700D03*
X248000Y347700D03*
Y358300D03*
X333500Y190700D03*
Y201300D03*
X317000Y346200D03*
Y356800D03*
G54D21*
X132000Y347400D03*
X202500Y316900D03*
X269500Y376400D03*
X346000Y229900D03*
X340000Y379400D03*
X382500Y241900D03*
G54D12*
X43000Y159500D03*
X66000D03*
X64000Y300500D03*
Y320500D03*
X87000Y300500D03*
Y320500D03*
X384000Y304500D03*
X361000D03*
X384000Y325000D03*
X361000D03*
G54D30*
X145500Y382200D03*
Y375800D03*
X154500Y361800D03*
Y368200D03*
Y382200D03*
Y375800D03*
X239500Y352300D03*
Y339300D03*
Y345700D03*
X248500Y334300D03*
Y340700D03*
X239500Y358700D03*
X309000Y348300D03*
X293500D03*
X301500D03*
X309000Y354700D03*
X293500D03*
X301500D03*
X366500Y59800D03*
Y66200D03*
G54D22*
X117500Y328600D03*
X166500Y338600D03*
X174000Y369600D03*
X280600Y372300D03*
X350000Y129600D03*
X382500Y257100D03*
G54D40*
X170850Y376500D03*
X164150D03*
G54D13*
X110000Y327421D03*
Y317579D03*
G54D31*
X178480Y350650D03*
Y349075D03*
Y347501D03*
Y345926D03*
Y344351D03*
Y342776D03*
Y341201D03*
Y339627D03*
Y338052D03*
Y336477D03*
Y334902D03*
Y333327D03*
Y331753D03*
Y330178D03*
Y358524D03*
Y356949D03*
Y355375D03*
Y353800D03*
Y352225D03*
X213520Y330178D03*
Y331753D03*
Y333327D03*
Y334902D03*
Y336477D03*
Y338052D03*
Y339627D03*
Y341201D03*
Y342776D03*
Y344351D03*
Y345926D03*
Y347501D03*
Y349075D03*
Y350650D03*
Y352225D03*
Y353800D03*
Y355375D03*
Y356949D03*
Y358524D03*
G54D23*
X117500Y325400D03*
X166500Y335400D03*
X174000Y366400D03*
X280600Y369100D03*
X350000Y126400D03*
X382500Y253900D03*
G54D41*
X220650Y309469D03*
X226950D03*
X220650Y318131D03*
X226950D03*
G54D14*
X105900Y348000D03*
X131900Y343000D03*
X123400Y343000D03*
X153400Y320000D03*
X210900Y375500D03*
X219300Y355900D03*
X345900Y247500D03*
X353900Y103500D03*
X378900Y134000D03*
X382900Y129500D03*
G54D50*
X377000Y104183D03*
Y79817D03*
X358000Y263317D03*
Y287683D03*
G54D32*
X181630Y326831D03*
X183205D03*
X184780D03*
X186354D03*
X187929D03*
X189504D03*
Y361871D03*
X187929D03*
X186354D03*
X184780D03*
X183205D03*
X181630D03*
X191079Y326831D03*
X192654D03*
X194228D03*
X195803D03*
X197378D03*
X198953D03*
X200528D03*
X202102D03*
X203677D03*
X205252D03*
X206827D03*
X208402D03*
X209976D03*
Y361871D03*
X208402D03*
X206827D03*
X205252D03*
X203677D03*
X202102D03*
X200528D03*
X198953D03*
X197378D03*
X195803D03*
X194228D03*
X192654D03*
X191079D03*
G54D51*
X365500Y120500D03*
X366500Y246500D03*
G54D42*
X265500Y376400D03*
X273500D03*
X280500Y361400D03*
X350000Y118900D03*
X344000Y379400D03*
X334000D03*
X386000Y133900D03*
G54D15*
X109100Y348000D03*
X135100Y343000D03*
X126600Y343000D03*
X156600Y320000D03*
X214100Y375500D03*
X222500Y355900D03*
X349100Y247500D03*
X357100Y103500D03*
X382100Y134000D03*
X386100Y129500D03*
G54D24*
X117500Y316900D03*
X114000Y344900D03*
X166500Y342900D03*
X171000D03*
X350000Y108900D03*
X339500Y328400D03*
G54D33*
X196000Y344351D03*
G54D52*
X355667Y113000D03*
Y118000D03*
Y123000D03*
Y128000D03*
X375333Y113000D03*
Y118000D03*
Y123000D03*
Y128000D03*
X376333Y254000D03*
Y249000D03*
Y244000D03*
Y239000D03*
X356667Y254000D03*
Y249000D03*
Y244000D03*
Y239000D03*
G54D34*
X169600Y326000D03*
X156600Y334500D03*
Y330000D03*
X156600Y316000D03*
X169600Y330500D03*
X210600Y315500D03*
Y320000D03*
X251100Y370500D03*
Y380000D03*
X349100Y238000D03*
X386100Y120000D03*
X378600Y264500D03*
X353600Y233500D03*
X355600Y366500D03*
G54D16*
X136141Y185433D03*
Y187008D03*
Y188583D03*
X124015Y185433D03*
Y187008D03*
Y188583D03*
X136141Y168110D03*
Y169685D03*
Y171260D03*
Y172835D03*
Y174410D03*
Y175984D03*
Y177559D03*
Y179134D03*
Y180709D03*
Y182284D03*
Y183858D03*
X124015Y168110D03*
Y169685D03*
Y171260D03*
Y172835D03*
Y174410D03*
Y175984D03*
Y177559D03*
Y179134D03*
Y180709D03*
Y182284D03*
Y183858D03*
X136141Y220079D03*
Y221654D03*
Y223228D03*
Y224803D03*
Y226378D03*
Y227953D03*
Y229528D03*
X124015Y220079D03*
Y221654D03*
Y223228D03*
Y224803D03*
Y226378D03*
Y227953D03*
Y229528D03*
X136141Y202756D03*
Y204331D03*
Y205906D03*
Y207480D03*
Y209055D03*
Y210630D03*
Y212205D03*
Y213780D03*
Y215354D03*
Y216929D03*
Y218504D03*
X124015Y202756D03*
Y204331D03*
Y205906D03*
Y207480D03*
Y209055D03*
Y210630D03*
Y212205D03*
Y213780D03*
Y215354D03*
Y216929D03*
Y218504D03*
X136141Y190158D03*
Y191732D03*
Y193307D03*
Y194882D03*
Y196457D03*
Y198032D03*
Y199606D03*
Y201181D03*
X124015Y190158D03*
Y191732D03*
Y193307D03*
Y194882D03*
Y196457D03*
Y198032D03*
Y199606D03*
Y201181D03*
X136141Y235827D03*
Y237402D03*
Y238976D03*
Y240551D03*
Y242126D03*
Y243701D03*
Y245276D03*
X124015Y235827D03*
Y237402D03*
Y238976D03*
Y240551D03*
Y242126D03*
Y243701D03*
Y245276D03*
X136141Y231102D03*
Y232677D03*
Y234252D03*
X124015Y231102D03*
Y232677D03*
Y234252D03*
X257560Y168110D03*
X269685D03*
X257560Y169685D03*
X269685D03*
X257560Y171260D03*
X269685D03*
X257560Y172835D03*
X269685D03*
X257560Y174410D03*
X269685D03*
X257560Y175984D03*
X269685D03*
X257560Y177559D03*
X269685D03*
X257560Y179134D03*
X269685D03*
X257560Y180709D03*
X269685D03*
X257560Y182284D03*
X269685D03*
X257560Y183858D03*
X269685D03*
X257560Y185433D03*
X269685D03*
X257560Y187008D03*
X269685D03*
X257560Y188583D03*
X269685D03*
X257560Y190158D03*
X269685D03*
X257560Y191732D03*
X269685D03*
X257560Y193307D03*
X269685D03*
X257560Y194882D03*
X269685D03*
X257560Y196457D03*
X269685D03*
X257560Y198032D03*
X269685D03*
X257560Y199606D03*
X269685D03*
X257560Y201181D03*
X269685D03*
X257560Y202756D03*
X269685D03*
X257560Y204331D03*
X269685D03*
X257560Y205906D03*
X269685D03*
X257560Y207480D03*
X269685D03*
X257560Y209055D03*
X269685D03*
X257560Y210630D03*
X269685D03*
X257560Y212205D03*
X269685D03*
X257560Y213780D03*
X269685D03*
X257560Y215354D03*
X269685D03*
X257560Y216929D03*
X269685D03*
X257560Y218504D03*
X269685D03*
X257560Y220079D03*
X269685D03*
X257560Y221654D03*
X269685D03*
X257560Y223228D03*
X269685D03*
X257560Y224803D03*
X269685D03*
X257560Y226378D03*
X269685D03*
X257560Y227953D03*
X269685D03*
X257560Y229528D03*
X269685D03*
X257560Y231102D03*
X269685D03*
X257560Y232677D03*
X269685D03*
X257560Y234252D03*
X269685D03*
X257560Y235827D03*
X269685D03*
X257560Y237402D03*
X269685D03*
X257560Y238976D03*
X269685D03*
X257560Y240551D03*
X269685D03*
X257560Y242126D03*
X269685D03*
X257560Y243701D03*
X269685D03*
X257560Y245276D03*
X269685D03*
G54D25*
X117500Y320100D03*
X114000Y348100D03*
X166500Y346100D03*
X171000D03*
X350000Y112100D03*
X339500Y331600D03*
G54D43*
X265500Y379600D03*
X273500D03*
X280500Y364600D03*
X350000Y122100D03*
X344000Y382600D03*
X334000D03*
X386000Y137100D03*
G54D53*
G01X10000Y0D02*
X383701D01*
G03X393701Y10000I0J10000D01*
G01Y383701D01*
G03X383701Y393701I-10000J0D01*
G01X10000D01*
G03X0Y383701I0J-10000D01*
G01Y10000D01*
G03X10000Y0I10000J0D01*
G01X25685Y19685D02*
G03I-6000J0D01*
G01Y374016D02*
G03I-6000J0D01*
G01X93537Y289008D02*
G03X89537Y285008I0J-4000D01*
G01Y142850D01*
G03X93537Y138850I4000J0D01*
G01X100163D01*
G03X104163Y142850I0J4000D01*
G01Y285008D01*
G03X100163Y289008I-4000J0D01*
G01X93537D01*
G01D02*
X100163D01*
G02X104163Y285008I0J-4000D01*
G01Y142850D01*
G01X93537Y138850D02*
G02X89537Y142850I0J4000D01*
G01D02*
Y285008D01*
G02X93537Y289008I4000J0D01*
G01X100163Y138850D02*
X93537D01*
G01X104163Y142850D02*
G02X100163Y138850I-4000J0D01*
G01X193537Y289008D02*
G03X189537Y285008I0J-4000D01*
G01Y142850D01*
G03X193537Y138850I4000J0D01*
G01X200163D01*
G03X204163Y142850I0J4000D01*
G01Y285008D01*
G03X200163Y289008I-4000J0D01*
G01X193537D01*
G01D02*
X200163D01*
G02X204163Y285008I0J-4000D01*
G01Y142850D01*
G01X193537Y138850D02*
G02X189537Y142850I0J4000D01*
G01D02*
Y285008D01*
G02X193537Y289008I4000J0D01*
G01X200163Y138850D02*
X193537D01*
G01X204163Y142850D02*
G02X200163Y138850I-4000J0D01*
G01X293537Y289008D02*
G03X289537Y285008I0J-4000D01*
G01Y142850D01*
G03X293537Y138850I4000J0D01*
G01X300163D01*
G03X304163Y142850I0J4000D01*
G01Y285008D01*
G03X300163Y289008I-4000J0D01*
G01X293537D01*
G01D02*
X300163D01*
G02X304163Y285008I0J-4000D01*
G01Y142850D01*
G01X293537Y138850D02*
G02X289537Y142850I0J4000D01*
G01D02*
Y285008D01*
G02X293537Y289008I4000J0D01*
G01X300163Y138850D02*
X293537D01*
G01X304163Y142850D02*
G02X300163Y138850I-4000J0D01*
G01X380016Y19685D02*
G03I-6000J0D01*
G01Y374016D02*
G03I-6000J0D01*
G54D44*
X287500Y115000D03*
G54D35*
X166400Y326000D03*
X153400Y334500D03*
Y330000D03*
X153400Y316000D03*
X166400Y330500D03*
X207400Y315500D03*
Y320000D03*
X247900Y370500D03*
Y380000D03*
X350400Y233500D03*
X345900Y238000D03*
X382900Y120000D03*
X375400Y264500D03*
X352400Y366500D03*
G54D17*
X146100Y310000D03*
X156900D03*
G54D26*
X137906Y372500D03*
X126094D03*
X257094Y346000D03*
X268906D03*
X326094Y350500D03*
X337906D03*
G36*
G01X172499Y338900D02*
X172504Y338805D01*
X172499Y338711D01*
X172487Y338617D01*
X172466Y338524D01*
X172436Y338434D01*
X172399Y338347D01*
X172354Y338264D01*
X172302Y338185D01*
X172242Y338111D01*
X172177Y338042D01*
X172105Y337980D01*
X172028Y337925D01*
X171938Y337880D01*
X171844Y337844D01*
X171747Y337817D01*
X171648Y337798D01*
X171548Y337789D01*
X171448D01*
X171348Y337798D01*
X171249Y337817D01*
X171152Y337844D01*
X171058Y337880D01*
X170968Y337925D01*
X170890Y337978D01*
X170817Y338038D01*
X170750Y338105D01*
X170690Y338179D01*
X170637Y338257D01*
X170592Y338341D01*
X170555Y338428D01*
X170527Y338518D01*
X170508Y338611D01*
X170498Y338705D01*
X170497Y338800D01*
X170496Y338886D01*
X170505Y338971D01*
X170522Y339055D01*
X170548Y339136D01*
X170583Y339215D01*
X170625Y339289D01*
X170675Y339358D01*
X170732Y339422D01*
X170796Y339480D01*
X170865Y339530D01*
X170939Y339573D01*
X171017Y339608D01*
X171099Y339635D01*
X171183Y339652D01*
X171268Y339661D01*
X171727D01*
X171811Y339653D01*
X171894Y339635D01*
X171975Y339609D01*
X172052Y339575D01*
X172126Y339533D01*
X172195Y339484D01*
X172258Y339428D01*
X172315Y339365D01*
X172365Y339297D01*
X172408Y339224D01*
X172444Y339147D01*
X172471Y339067D01*
X172489Y338984D01*
X172499Y338900D01*
G37*
G36*
G01X190499Y319900D02*
X190504Y319805D01*
X190499Y319711D01*
X190487Y319617D01*
X190466Y319524D01*
X190436Y319434D01*
X190399Y319347D01*
X190354Y319264D01*
X190302Y319185D01*
X190242Y319111D01*
X190177Y319042D01*
X190105Y318980D01*
X190028Y318925D01*
X189938Y318880D01*
X189844Y318844D01*
X189747Y318817D01*
X189648Y318798D01*
X189548Y318789D01*
X189448D01*
X189348Y318798D01*
X189249Y318817D01*
X189152Y318844D01*
X189058Y318880D01*
X188968Y318925D01*
X188890Y318978D01*
X188817Y319038D01*
X188750Y319105D01*
X188690Y319179D01*
X188637Y319257D01*
X188592Y319341D01*
X188555Y319428D01*
X188527Y319518D01*
X188508Y319611D01*
X188498Y319705D01*
X188497Y319800D01*
X188496Y319886D01*
X188505Y319971D01*
X188522Y320055D01*
X188548Y320136D01*
X188583Y320215D01*
X188625Y320289D01*
X188675Y320358D01*
X188732Y320422D01*
X188796Y320480D01*
X188865Y320530D01*
X188939Y320573D01*
X189017Y320608D01*
X189099Y320635D01*
X189183Y320652D01*
X189268Y320661D01*
X189727D01*
X189811Y320653D01*
X189894Y320635D01*
X189975Y320609D01*
X190052Y320575D01*
X190126Y320533D01*
X190195Y320484D01*
X190258Y320428D01*
X190315Y320365D01*
X190365Y320297D01*
X190408Y320224D01*
X190444Y320147D01*
X190471Y320067D01*
X190489Y319984D01*
X190499Y319900D01*
G37*
G36*
G01X215899Y314800D02*
X215904Y314705D01*
X215899Y314611D01*
X215887Y314517D01*
X215866Y314424D01*
X215836Y314334D01*
X215799Y314247D01*
X215754Y314164D01*
X215702Y314085D01*
X215642Y314011D01*
X215577Y313942D01*
X215505Y313880D01*
X215428Y313825D01*
X215338Y313780D01*
X215244Y313744D01*
X215147Y313717D01*
X215048Y313698D01*
X214948Y313689D01*
X214848D01*
X214748Y313698D01*
X214649Y313717D01*
X214552Y313744D01*
X214458Y313780D01*
X214368Y313825D01*
X214290Y313878D01*
X214217Y313938D01*
X214150Y314005D01*
X214090Y314079D01*
X214037Y314157D01*
X213992Y314241D01*
X213955Y314328D01*
X213927Y314418D01*
X213908Y314511D01*
X213898Y314605D01*
X213897Y314700D01*
X213896Y314786D01*
X213905Y314871D01*
X213922Y314955D01*
X213948Y315036D01*
X213983Y315115D01*
X214025Y315189D01*
X214075Y315258D01*
X214132Y315322D01*
X214196Y315380D01*
X214265Y315430D01*
X214339Y315473D01*
X214417Y315508D01*
X214499Y315535D01*
X214583Y315552D01*
X214668Y315561D01*
X215127D01*
X215211Y315553D01*
X215294Y315535D01*
X215375Y315509D01*
X215452Y315475D01*
X215526Y315433D01*
X215595Y315384D01*
X215658Y315328D01*
X215715Y315265D01*
X215765Y315197D01*
X215808Y315124D01*
X215844Y315047D01*
X215871Y314967D01*
X215889Y314884D01*
X215899Y314800D01*
G37*
G36*
G01X215699Y322000D02*
X215704Y321905D01*
X215699Y321811D01*
X215687Y321717D01*
X215666Y321624D01*
X215636Y321534D01*
X215599Y321447D01*
X215554Y321364D01*
X215502Y321285D01*
X215442Y321211D01*
X215377Y321142D01*
X215305Y321080D01*
X215228Y321025D01*
X215138Y320980D01*
X215044Y320944D01*
X214947Y320917D01*
X214848Y320898D01*
X214748Y320889D01*
X214648D01*
X214548Y320898D01*
X214449Y320917D01*
X214352Y320944D01*
X214258Y320980D01*
X214168Y321025D01*
X214090Y321078D01*
X214017Y321138D01*
X213950Y321205D01*
X213890Y321279D01*
X213837Y321357D01*
X213792Y321441D01*
X213755Y321528D01*
X213727Y321618D01*
X213708Y321711D01*
X213698Y321805D01*
X213697Y321900D01*
X213696Y321986D01*
X213705Y322071D01*
X213722Y322155D01*
X213748Y322236D01*
X213783Y322315D01*
X213825Y322389D01*
X213875Y322458D01*
X213932Y322522D01*
X213996Y322580D01*
X214065Y322630D01*
X214139Y322673D01*
X214217Y322708D01*
X214299Y322735D01*
X214383Y322752D01*
X214468Y322761D01*
X214927D01*
X215011Y322753D01*
X215094Y322735D01*
X215175Y322709D01*
X215252Y322675D01*
X215326Y322633D01*
X215395Y322584D01*
X215458Y322528D01*
X215515Y322465D01*
X215565Y322397D01*
X215608Y322324D01*
X215644Y322247D01*
X215671Y322167D01*
X215689Y322084D01*
X215699Y322000D01*
G37*
G36*
G01X194499Y319900D02*
X194504Y319805D01*
X194499Y319711D01*
X194487Y319617D01*
X194466Y319524D01*
X194436Y319434D01*
X194399Y319347D01*
X194354Y319264D01*
X194302Y319185D01*
X194242Y319111D01*
X194177Y319042D01*
X194105Y318980D01*
X194028Y318925D01*
X193938Y318880D01*
X193844Y318844D01*
X193747Y318817D01*
X193648Y318798D01*
X193548Y318789D01*
X193448D01*
X193348Y318798D01*
X193249Y318817D01*
X193152Y318844D01*
X193058Y318880D01*
X192968Y318925D01*
X192890Y318978D01*
X192817Y319038D01*
X192750Y319105D01*
X192690Y319179D01*
X192637Y319257D01*
X192592Y319341D01*
X192555Y319428D01*
X192527Y319518D01*
X192508Y319611D01*
X192498Y319705D01*
X192497Y319800D01*
X192496Y319886D01*
X192505Y319971D01*
X192522Y320055D01*
X192548Y320136D01*
X192583Y320215D01*
X192625Y320289D01*
X192675Y320358D01*
X192732Y320422D01*
X192796Y320480D01*
X192865Y320530D01*
X192939Y320573D01*
X193017Y320608D01*
X193099Y320635D01*
X193183Y320652D01*
X193268Y320661D01*
X193727D01*
X193811Y320653D01*
X193894Y320635D01*
X193975Y320609D01*
X194052Y320575D01*
X194126Y320533D01*
X194195Y320484D01*
X194258Y320428D01*
X194315Y320365D01*
X194365Y320297D01*
X194408Y320224D01*
X194444Y320147D01*
X194471Y320067D01*
X194489Y319984D01*
X194499Y319900D01*
G37*
G54D45*
X282600Y353000D03*
X349100Y251500D03*
X357100Y107500D03*
X382100Y138000D03*
X386100Y124500D03*
X355600Y371500D03*
X353600Y357100D03*
G54D18*
X126839Y348382D03*
X124280D03*
X121720D03*
X119161D03*
X126839Y358618D03*
X124280D03*
X121720D03*
X119161D03*
X268161Y359382D03*
X270720D03*
X268161Y369618D03*
X270720D03*
X273280Y359382D03*
X275839D03*
X273280Y369618D03*
X275839D03*
X338661Y363382D03*
X341220D03*
X343780D03*
X346339D03*
X338661Y373618D03*
X341220D03*
X343780D03*
X346339D03*
G54D27*
X111250Y377500D03*
X116750D03*
X111250Y371500D03*
X116750D03*
X284250Y340500D03*
X278750D03*
X284250Y347000D03*
X278750D03*
X349750Y346500D03*
Y352500D03*
X355250Y346500D03*
Y352500D03*
G54D46*
X279400Y353000D03*
X345900Y251500D03*
X350400Y357100D03*
X353900Y107500D03*
X378900Y138000D03*
X382900Y124500D03*
X352400Y371500D03*
G54D19*
X146001Y319945D03*
Y324944D03*
Y329945D03*
Y334944D03*
X124001D03*
Y329945D03*
Y324944D03*
Y319945D03*
X220000Y380500D03*
Y375500D03*
Y370500D03*
Y365500D03*
X242000D03*
Y370500D03*
Y375500D03*
Y380500D03*
G36*
G01X170501Y335100D02*
X170496Y335195D01*
X170501Y335289D01*
X170513Y335383D01*
X170534Y335476D01*
X170564Y335566D01*
X170601Y335653D01*
X170646Y335736D01*
X170698Y335815D01*
X170758Y335889D01*
X170823Y335958D01*
X170895Y336020D01*
X170972Y336075D01*
X171062Y336120D01*
X171156Y336156D01*
X171253Y336183D01*
X171352Y336202D01*
X171452Y336211D01*
X171552D01*
X171652Y336202D01*
X171751Y336183D01*
X171848Y336156D01*
X171942Y336120D01*
X172032Y336075D01*
X172110Y336022D01*
X172183Y335962D01*
X172250Y335895D01*
X172310Y335821D01*
X172363Y335743D01*
X172408Y335659D01*
X172445Y335572D01*
X172473Y335482D01*
X172492Y335389D01*
X172502Y335295D01*
X172503Y335200D01*
X172504Y335114D01*
X172495Y335029D01*
X172478Y334945D01*
X172452Y334864D01*
X172417Y334785D01*
X172375Y334711D01*
X172325Y334642D01*
X172268Y334578D01*
X172204Y334520D01*
X172135Y334470D01*
X172061Y334427D01*
X171983Y334392D01*
X171901Y334365D01*
X171817Y334348D01*
X171732Y334339D01*
X171273D01*
X171189Y334347D01*
X171106Y334365D01*
X171025Y334391D01*
X170948Y334425D01*
X170874Y334467D01*
X170805Y334516D01*
X170742Y334572D01*
X170685Y334635D01*
X170635Y334703D01*
X170592Y334776D01*
X170556Y334853D01*
X170529Y334933D01*
X170511Y335016D01*
X170501Y335100D01*
G37*
G36*
G01X188501Y316100D02*
X188496Y316195D01*
X188501Y316289D01*
X188513Y316383D01*
X188534Y316476D01*
X188564Y316566D01*
X188601Y316653D01*
X188646Y316736D01*
X188698Y316815D01*
X188758Y316889D01*
X188823Y316958D01*
X188895Y317020D01*
X188972Y317075D01*
X189062Y317120D01*
X189156Y317156D01*
X189253Y317183D01*
X189352Y317202D01*
X189452Y317211D01*
X189552D01*
X189652Y317202D01*
X189751Y317183D01*
X189848Y317156D01*
X189942Y317120D01*
X190032Y317075D01*
X190110Y317022D01*
X190183Y316962D01*
X190250Y316895D01*
X190310Y316821D01*
X190363Y316743D01*
X190408Y316659D01*
X190445Y316572D01*
X190473Y316482D01*
X190492Y316389D01*
X190502Y316295D01*
X190503Y316200D01*
X190504Y316114D01*
X190495Y316029D01*
X190478Y315945D01*
X190452Y315864D01*
X190417Y315785D01*
X190375Y315711D01*
X190325Y315642D01*
X190268Y315578D01*
X190204Y315520D01*
X190135Y315470D01*
X190061Y315427D01*
X189983Y315392D01*
X189901Y315365D01*
X189817Y315348D01*
X189732Y315339D01*
X189273D01*
X189189Y315347D01*
X189106Y315365D01*
X189025Y315391D01*
X188948Y315425D01*
X188874Y315467D01*
X188805Y315516D01*
X188742Y315572D01*
X188685Y315635D01*
X188635Y315703D01*
X188592Y315776D01*
X188556Y315853D01*
X188529Y315933D01*
X188511Y316016D01*
X188501Y316100D01*
G37*
G36*
G01X213901Y311000D02*
X213896Y311095D01*
X213901Y311189D01*
X213913Y311283D01*
X213934Y311376D01*
X213964Y311466D01*
X214001Y311553D01*
X214046Y311636D01*
X214098Y311715D01*
X214158Y311789D01*
X214223Y311858D01*
X214295Y311920D01*
X214372Y311975D01*
X214462Y312020D01*
X214556Y312056D01*
X214653Y312083D01*
X214752Y312102D01*
X214852Y312111D01*
X214952D01*
X215052Y312102D01*
X215151Y312083D01*
X215248Y312056D01*
X215342Y312020D01*
X215432Y311975D01*
X215510Y311922D01*
X215583Y311862D01*
X215650Y311795D01*
X215710Y311721D01*
X215763Y311643D01*
X215808Y311559D01*
X215845Y311472D01*
X215873Y311382D01*
X215892Y311289D01*
X215902Y311195D01*
X215903Y311100D01*
X215904Y311014D01*
X215895Y310929D01*
X215878Y310845D01*
X215852Y310764D01*
X215817Y310685D01*
X215775Y310611D01*
X215725Y310542D01*
X215668Y310478D01*
X215604Y310420D01*
X215535Y310370D01*
X215461Y310327D01*
X215383Y310292D01*
X215301Y310265D01*
X215217Y310248D01*
X215132Y310239D01*
X214673D01*
X214589Y310247D01*
X214506Y310265D01*
X214425Y310291D01*
X214348Y310325D01*
X214274Y310367D01*
X214205Y310416D01*
X214142Y310472D01*
X214085Y310535D01*
X214035Y310603D01*
X213992Y310676D01*
X213956Y310753D01*
X213929Y310833D01*
X213911Y310916D01*
X213901Y311000D01*
G37*
G36*
G01X213701Y318200D02*
X213696Y318295D01*
X213701Y318389D01*
X213713Y318483D01*
X213734Y318576D01*
X213764Y318666D01*
X213801Y318753D01*
X213846Y318836D01*
X213898Y318915D01*
X213958Y318989D01*
X214023Y319058D01*
X214095Y319120D01*
X214172Y319175D01*
X214262Y319220D01*
X214356Y319256D01*
X214453Y319283D01*
X214552Y319302D01*
X214652Y319311D01*
X214752D01*
X214852Y319302D01*
X214951Y319283D01*
X215048Y319256D01*
X215142Y319220D01*
X215232Y319175D01*
X215310Y319122D01*
X215383Y319062D01*
X215450Y318995D01*
X215510Y318921D01*
X215563Y318843D01*
X215608Y318759D01*
X215645Y318672D01*
X215673Y318582D01*
X215692Y318489D01*
X215702Y318395D01*
X215703Y318300D01*
X215704Y318214D01*
X215695Y318129D01*
X215678Y318045D01*
X215652Y317964D01*
X215617Y317885D01*
X215575Y317811D01*
X215525Y317742D01*
X215468Y317678D01*
X215404Y317620D01*
X215335Y317570D01*
X215261Y317527D01*
X215183Y317492D01*
X215101Y317465D01*
X215017Y317448D01*
X214932Y317439D01*
X214473D01*
X214389Y317447D01*
X214306Y317465D01*
X214225Y317491D01*
X214148Y317525D01*
X214074Y317567D01*
X214005Y317616D01*
X213942Y317672D01*
X213885Y317735D01*
X213835Y317803D01*
X213792Y317876D01*
X213756Y317953D01*
X213729Y318033D01*
X213711Y318116D01*
X213701Y318200D01*
G37*
G36*
G01X192501Y316100D02*
X192496Y316195D01*
X192501Y316289D01*
X192513Y316383D01*
X192534Y316476D01*
X192564Y316566D01*
X192601Y316653D01*
X192646Y316736D01*
X192698Y316815D01*
X192758Y316889D01*
X192823Y316958D01*
X192895Y317020D01*
X192972Y317075D01*
X193062Y317120D01*
X193156Y317156D01*
X193253Y317183D01*
X193352Y317202D01*
X193452Y317211D01*
X193552D01*
X193652Y317202D01*
X193751Y317183D01*
X193848Y317156D01*
X193942Y317120D01*
X194032Y317075D01*
X194110Y317022D01*
X194183Y316962D01*
X194250Y316895D01*
X194310Y316821D01*
X194363Y316743D01*
X194408Y316659D01*
X194445Y316572D01*
X194473Y316482D01*
X194492Y316389D01*
X194502Y316295D01*
X194503Y316200D01*
X194504Y316114D01*
X194495Y316029D01*
X194478Y315945D01*
X194452Y315864D01*
X194417Y315785D01*
X194375Y315711D01*
X194325Y315642D01*
X194268Y315578D01*
X194204Y315520D01*
X194135Y315470D01*
X194061Y315427D01*
X193983Y315392D01*
X193901Y315365D01*
X193817Y315348D01*
X193732Y315339D01*
X193273D01*
X193189Y315347D01*
X193106Y315365D01*
X193025Y315391D01*
X192948Y315425D01*
X192874Y315467D01*
X192805Y315516D01*
X192742Y315572D01*
X192685Y315635D01*
X192635Y315703D01*
X192592Y315776D01*
X192556Y315853D01*
X192529Y315933D01*
X192511Y316016D01*
X192501Y316100D01*
G37*
G54D28*
X112400Y366000D03*
X166900Y350500D03*
Y355000D03*
X210800Y381500D03*
X350400Y229500D03*
X345900Y242000D03*
X364900Y72000D03*
X382900Y116000D03*
X372900Y233000D03*
X375400Y260000D03*
G54D47*
X344800Y310000D03*
X351200D03*
X344800Y325500D03*
X351200D03*
X344800Y318000D03*
X351200D03*
G54D29*
X115600Y366000D03*
X170100Y350500D03*
Y355000D03*
X214000Y381500D03*
X349100Y242000D03*
X368100Y72000D03*
X386100Y116000D03*
X353600Y229500D03*
X376100Y233000D03*
X378600Y260000D03*
G54D38*
X179500Y372550D03*
G54D48*
X367500Y48250D03*
Y42750D03*
X362000Y48250D03*
Y42750D03*
G54D39*
X179500Y369450D03*
G54D49*
X381000Y45500D03*
Y68500D03*
X357000Y138000D03*
Y173500D03*
Y161000D03*
Y196500D03*
M02*
