G04 ================== begin FILE IDENTIFICATION RECORD ==================*
G04 Layout Name:  CM4_SATAX4_Substrate_V11-20210307.brd*
G04 Film Name:    SILK_BOT*
G04 File Format:  Gerber RS274X*
G04 File Origin:  Cadence Allegro 16.6-2015-S066*
G04 Origin Date:  Sun Mar 07 16:05:33 2021*
G04 *
G04 Layer:  PIN/BOTTOM*
G04 Layer:  BOARD GEOMETRY/SILKSCREEN_BOTTOM*
G04 Layer:  PACKAGE GEOMETRY/SILKSCREEN_BOTTOM*
G04 Layer:  REF DES/SILKSCREEN_BOTTOM*
G04 Layer:  BOARD GEOMETRY/OUTLINE*
G04 *
G04 Offset:    (0.000 0.000)*
G04 Mirror:    Yes*
G04 Mode:      Positive*
G04 Rotation:  0*
G04 FullContactRelief:  No*
G04 UndefLineWidth:     6.000*
G04 ================== end FILE IDENTIFICATION RECORD ====================*
%FSLAX55Y55*MOIN*%
%IR0*IPPOS*OFA0.00000B0.00000*MIA1B0*SFA1.00000B1.00000*%
%ADD48O,.064169X.094488*%
%ADD38O,.008X.04*%
%ADD37O,.04X.008*%
%ADD11C,.12*%
%ADD34R,.044X.146*%
%ADD39R,.2X.2*%
%ADD51C,.005*%
%ADD57R,.134X.098*%
%ADD18C,.131894*%
%ADD46O,.070866X.122047*%
%ADD15C,.001969*%
%ADD29C,.137795*%
%ADD30R,.027559X.00787*%
%ADD55R,.032X.03*%
%ADD35R,.03X.032*%
%ADD24R,.07X.04*%
%ADD43R,.02X.019*%
%ADD33R,.06X.024*%
%ADD31R,.044X.032*%
%ADD44R,.037X.05*%
%ADD42C,.03*%
%ADD36R,.05X.039*%
%ADD22R,.065X.051*%
%ADD54R,.039X.05*%
%ADD32R,.015X.047*%
%ADD10C,.04*%
%ADD60C,.071*%
%ADD56R,.095X.08*%
%ADD47R,.048X.055*%
%ADD28C,.053*%
%ADD25R,.02X.02*%
%ADD23R,.08X.095*%
%ADD27R,.053X.053*%
%ADD19C,.055433*%
%ADD14C,.055118*%
%ADD20C,.05937*%
%ADD16O,.066142X.099213*%
%ADD26C,.019685*%
%ADD59R,.059252X.031575*%
%ADD49C,.027949*%
%ADD21R,.05937X.05937*%
%ADD17O,.096457X.09252*%
%ADD53C,.062988*%
%ADD13R,.05984X.05984*%
%ADD58R,.102874X.137874*%
%ADD12C,.059839*%
%ADD50O,.094488X.047244*%
%ADD45O,.070866X.098425*%
%ADD52C,.087988*%
%ADD61C,.006*%
%ADD62C,.00472*%
%ADD63C,.00787*%
%ADD64C,.005909*%
%ADD65C,.01*%
%ADD66C,.016*%
%ADD67C,.000791*%
G75*
%LPD*%
G75*
G36*
G01X122500Y317500D02*
X123000Y315500D01*
X122000D01*
X122500Y317500D01*
G37*
G36*
G01X183008Y365610D02*
G03I-1181J0D01*
G37*
G36*
G01X243000Y383000D02*
X242500Y385000D01*
X243500D01*
X243000Y383000D01*
G37*
G54D10*
X26865Y12505D03*
X12515D03*
Y26855D03*
X26865Y26845D03*
X29845Y19685D03*
X9545D03*
X19695Y9535D03*
Y29835D03*
X24500Y46500D03*
X26865Y366836D03*
X12515D03*
Y381186D03*
X26865Y381176D03*
X29845Y374016D03*
X9545D03*
X19695Y363866D03*
Y384166D03*
X41500Y378000D03*
X287992Y377883D03*
X353100Y23000D03*
X319488Y377883D03*
X381196Y12505D03*
X366846D03*
Y26855D03*
X381196Y26845D03*
X384176Y19685D03*
X363876D03*
X374026Y9535D03*
Y29835D03*
X375000Y348500D03*
X381196Y366836D03*
X366846D03*
Y381186D03*
X381196Y381176D03*
X384176Y374016D03*
X363876D03*
X374026Y363866D03*
Y384166D03*
G54D20*
X64600Y49061D03*
X59600Y63982D03*
X69600D03*
X64600Y73982D03*
X99600Y63982D03*
X89600Y49061D03*
X79600Y63982D03*
X89600D03*
X74600Y73982D03*
X84600D03*
X94600D03*
G54D11*
X19685Y19685D03*
Y374016D03*
X133650Y37325D03*
Y59725D03*
X185350Y37325D03*
Y59725D03*
X374016Y19685D03*
Y374016D03*
G54D12*
X14000Y130000D03*
Y140000D03*
Y150000D03*
X387780Y158142D03*
Y175858D03*
G54D21*
X54600Y73982D03*
G54D30*
X136141Y185433D03*
Y187008D03*
Y188583D03*
X124015Y185433D03*
Y187008D03*
Y188583D03*
X136141Y168110D03*
Y169685D03*
Y171260D03*
Y172835D03*
Y174410D03*
Y175984D03*
Y177559D03*
Y179134D03*
Y180709D03*
Y182284D03*
Y183858D03*
X124015Y168110D03*
Y169685D03*
Y171260D03*
Y172835D03*
Y174410D03*
Y175984D03*
Y177559D03*
Y179134D03*
Y180709D03*
Y182284D03*
Y183858D03*
X136141Y220079D03*
Y221654D03*
Y223228D03*
Y224803D03*
Y226378D03*
Y227953D03*
Y229528D03*
X124015Y220079D03*
Y221654D03*
Y223228D03*
Y224803D03*
Y226378D03*
Y227953D03*
Y229528D03*
X136141Y202756D03*
Y204331D03*
Y205906D03*
Y207480D03*
Y209055D03*
Y210630D03*
Y212205D03*
Y213780D03*
Y215354D03*
Y216929D03*
Y218504D03*
X124015Y202756D03*
Y204331D03*
Y205906D03*
Y207480D03*
Y209055D03*
Y210630D03*
Y212205D03*
Y213780D03*
Y215354D03*
Y216929D03*
Y218504D03*
X136141Y190158D03*
Y191732D03*
Y193307D03*
Y194882D03*
Y196457D03*
Y198032D03*
Y199606D03*
Y201181D03*
X124015Y190158D03*
Y191732D03*
Y193307D03*
Y194882D03*
Y196457D03*
Y198032D03*
Y199606D03*
Y201181D03*
X136141Y235827D03*
Y237402D03*
Y238976D03*
Y240551D03*
Y242126D03*
Y243701D03*
Y245276D03*
X124015Y235827D03*
Y237402D03*
Y238976D03*
Y240551D03*
Y242126D03*
Y243701D03*
Y245276D03*
X136141Y231102D03*
Y232677D03*
Y234252D03*
X124015Y231102D03*
Y232677D03*
Y234252D03*
X257560Y168110D03*
X269685D03*
X257560Y169685D03*
X269685D03*
X257560Y171260D03*
X269685D03*
X257560Y172835D03*
X269685D03*
X257560Y174410D03*
X269685D03*
X257560Y175984D03*
X269685D03*
X257560Y177559D03*
X269685D03*
X257560Y179134D03*
X269685D03*
X257560Y180709D03*
X269685D03*
X257560Y182284D03*
X269685D03*
X257560Y183858D03*
X269685D03*
X257560Y185433D03*
X269685D03*
X257560Y187008D03*
X269685D03*
X257560Y188583D03*
X269685D03*
X257560Y190158D03*
X269685D03*
X257560Y191732D03*
X269685D03*
X257560Y193307D03*
X269685D03*
X257560Y194882D03*
X269685D03*
X257560Y196457D03*
X269685D03*
X257560Y198032D03*
X269685D03*
X257560Y199606D03*
X269685D03*
X257560Y201181D03*
X269685D03*
X257560Y202756D03*
X269685D03*
X257560Y204331D03*
X269685D03*
X257560Y205906D03*
X269685D03*
X257560Y207480D03*
X269685D03*
X257560Y209055D03*
X269685D03*
X257560Y210630D03*
X269685D03*
X257560Y212205D03*
X269685D03*
X257560Y213780D03*
X269685D03*
X257560Y215354D03*
X269685D03*
X257560Y216929D03*
X269685D03*
X257560Y218504D03*
X269685D03*
X257560Y220079D03*
X269685D03*
X257560Y221654D03*
X269685D03*
X257560Y223228D03*
X269685D03*
X257560Y224803D03*
X269685D03*
X257560Y226378D03*
X269685D03*
X257560Y227953D03*
X269685D03*
X257560Y229528D03*
X269685D03*
X257560Y231102D03*
X269685D03*
X257560Y232677D03*
X269685D03*
X257560Y234252D03*
X269685D03*
X257560Y235827D03*
X269685D03*
X257560Y237402D03*
X269685D03*
X257560Y238976D03*
X269685D03*
X257560Y240551D03*
X269685D03*
X257560Y242126D03*
X269685D03*
X257560Y243701D03*
X269685D03*
X257560Y245276D03*
X269685D03*
G36*
G01X172499Y338900D02*
X172504Y338805D01*
X172499Y338711D01*
X172487Y338617D01*
X172466Y338524D01*
X172436Y338434D01*
X172399Y338347D01*
X172354Y338264D01*
X172302Y338185D01*
X172242Y338111D01*
X172177Y338042D01*
X172105Y337980D01*
X172028Y337925D01*
X171938Y337880D01*
X171844Y337844D01*
X171747Y337817D01*
X171648Y337798D01*
X171548Y337789D01*
X171448D01*
X171348Y337798D01*
X171249Y337817D01*
X171152Y337844D01*
X171058Y337880D01*
X170968Y337925D01*
X170890Y337978D01*
X170817Y338038D01*
X170750Y338105D01*
X170690Y338179D01*
X170637Y338257D01*
X170592Y338341D01*
X170555Y338428D01*
X170527Y338518D01*
X170508Y338611D01*
X170498Y338705D01*
X170497Y338800D01*
X170496Y338886D01*
X170505Y338971D01*
X170522Y339055D01*
X170548Y339136D01*
X170583Y339215D01*
X170625Y339289D01*
X170675Y339358D01*
X170732Y339422D01*
X170796Y339480D01*
X170865Y339530D01*
X170939Y339573D01*
X171017Y339608D01*
X171099Y339635D01*
X171183Y339652D01*
X171268Y339661D01*
X171727D01*
X171811Y339653D01*
X171894Y339635D01*
X171975Y339609D01*
X172052Y339575D01*
X172126Y339533D01*
X172195Y339484D01*
X172258Y339428D01*
X172315Y339365D01*
X172365Y339297D01*
X172408Y339224D01*
X172444Y339147D01*
X172471Y339067D01*
X172489Y338984D01*
X172499Y338900D01*
G37*
G36*
G01X190499Y319900D02*
X190504Y319805D01*
X190499Y319711D01*
X190487Y319617D01*
X190466Y319524D01*
X190436Y319434D01*
X190399Y319347D01*
X190354Y319264D01*
X190302Y319185D01*
X190242Y319111D01*
X190177Y319042D01*
X190105Y318980D01*
X190028Y318925D01*
X189938Y318880D01*
X189844Y318844D01*
X189747Y318817D01*
X189648Y318798D01*
X189548Y318789D01*
X189448D01*
X189348Y318798D01*
X189249Y318817D01*
X189152Y318844D01*
X189058Y318880D01*
X188968Y318925D01*
X188890Y318978D01*
X188817Y319038D01*
X188750Y319105D01*
X188690Y319179D01*
X188637Y319257D01*
X188592Y319341D01*
X188555Y319428D01*
X188527Y319518D01*
X188508Y319611D01*
X188498Y319705D01*
X188497Y319800D01*
X188496Y319886D01*
X188505Y319971D01*
X188522Y320055D01*
X188548Y320136D01*
X188583Y320215D01*
X188625Y320289D01*
X188675Y320358D01*
X188732Y320422D01*
X188796Y320480D01*
X188865Y320530D01*
X188939Y320573D01*
X189017Y320608D01*
X189099Y320635D01*
X189183Y320652D01*
X189268Y320661D01*
X189727D01*
X189811Y320653D01*
X189894Y320635D01*
X189975Y320609D01*
X190052Y320575D01*
X190126Y320533D01*
X190195Y320484D01*
X190258Y320428D01*
X190315Y320365D01*
X190365Y320297D01*
X190408Y320224D01*
X190444Y320147D01*
X190471Y320067D01*
X190489Y319984D01*
X190499Y319900D01*
G37*
G36*
G01X215899Y314800D02*
X215904Y314705D01*
X215899Y314611D01*
X215887Y314517D01*
X215866Y314424D01*
X215836Y314334D01*
X215799Y314247D01*
X215754Y314164D01*
X215702Y314085D01*
X215642Y314011D01*
X215577Y313942D01*
X215505Y313880D01*
X215428Y313825D01*
X215338Y313780D01*
X215244Y313744D01*
X215147Y313717D01*
X215048Y313698D01*
X214948Y313689D01*
X214848D01*
X214748Y313698D01*
X214649Y313717D01*
X214552Y313744D01*
X214458Y313780D01*
X214368Y313825D01*
X214290Y313878D01*
X214217Y313938D01*
X214150Y314005D01*
X214090Y314079D01*
X214037Y314157D01*
X213992Y314241D01*
X213955Y314328D01*
X213927Y314418D01*
X213908Y314511D01*
X213898Y314605D01*
X213897Y314700D01*
X213896Y314786D01*
X213905Y314871D01*
X213922Y314955D01*
X213948Y315036D01*
X213983Y315115D01*
X214025Y315189D01*
X214075Y315258D01*
X214132Y315322D01*
X214196Y315380D01*
X214265Y315430D01*
X214339Y315473D01*
X214417Y315508D01*
X214499Y315535D01*
X214583Y315552D01*
X214668Y315561D01*
X215127D01*
X215211Y315553D01*
X215294Y315535D01*
X215375Y315509D01*
X215452Y315475D01*
X215526Y315433D01*
X215595Y315384D01*
X215658Y315328D01*
X215715Y315265D01*
X215765Y315197D01*
X215808Y315124D01*
X215844Y315047D01*
X215871Y314967D01*
X215889Y314884D01*
X215899Y314800D01*
G37*
G36*
G01X215699Y322000D02*
X215704Y321905D01*
X215699Y321811D01*
X215687Y321717D01*
X215666Y321624D01*
X215636Y321534D01*
X215599Y321447D01*
X215554Y321364D01*
X215502Y321285D01*
X215442Y321211D01*
X215377Y321142D01*
X215305Y321080D01*
X215228Y321025D01*
X215138Y320980D01*
X215044Y320944D01*
X214947Y320917D01*
X214848Y320898D01*
X214748Y320889D01*
X214648D01*
X214548Y320898D01*
X214449Y320917D01*
X214352Y320944D01*
X214258Y320980D01*
X214168Y321025D01*
X214090Y321078D01*
X214017Y321138D01*
X213950Y321205D01*
X213890Y321279D01*
X213837Y321357D01*
X213792Y321441D01*
X213755Y321528D01*
X213727Y321618D01*
X213708Y321711D01*
X213698Y321805D01*
X213697Y321900D01*
X213696Y321986D01*
X213705Y322071D01*
X213722Y322155D01*
X213748Y322236D01*
X213783Y322315D01*
X213825Y322389D01*
X213875Y322458D01*
X213932Y322522D01*
X213996Y322580D01*
X214065Y322630D01*
X214139Y322673D01*
X214217Y322708D01*
X214299Y322735D01*
X214383Y322752D01*
X214468Y322761D01*
X214927D01*
X215011Y322753D01*
X215094Y322735D01*
X215175Y322709D01*
X215252Y322675D01*
X215326Y322633D01*
X215395Y322584D01*
X215458Y322528D01*
X215515Y322465D01*
X215565Y322397D01*
X215608Y322324D01*
X215644Y322247D01*
X215671Y322167D01*
X215689Y322084D01*
X215699Y322000D01*
G37*
G36*
G01X194499Y319900D02*
X194504Y319805D01*
X194499Y319711D01*
X194487Y319617D01*
X194466Y319524D01*
X194436Y319434D01*
X194399Y319347D01*
X194354Y319264D01*
X194302Y319185D01*
X194242Y319111D01*
X194177Y319042D01*
X194105Y318980D01*
X194028Y318925D01*
X193938Y318880D01*
X193844Y318844D01*
X193747Y318817D01*
X193648Y318798D01*
X193548Y318789D01*
X193448D01*
X193348Y318798D01*
X193249Y318817D01*
X193152Y318844D01*
X193058Y318880D01*
X192968Y318925D01*
X192890Y318978D01*
X192817Y319038D01*
X192750Y319105D01*
X192690Y319179D01*
X192637Y319257D01*
X192592Y319341D01*
X192555Y319428D01*
X192527Y319518D01*
X192508Y319611D01*
X192498Y319705D01*
X192497Y319800D01*
X192496Y319886D01*
X192505Y319971D01*
X192522Y320055D01*
X192548Y320136D01*
X192583Y320215D01*
X192625Y320289D01*
X192675Y320358D01*
X192732Y320422D01*
X192796Y320480D01*
X192865Y320530D01*
X192939Y320573D01*
X193017Y320608D01*
X193099Y320635D01*
X193183Y320652D01*
X193268Y320661D01*
X193727D01*
X193811Y320653D01*
X193894Y320635D01*
X193975Y320609D01*
X194052Y320575D01*
X194126Y320533D01*
X194195Y320484D01*
X194258Y320428D01*
X194315Y320365D01*
X194365Y320297D01*
X194408Y320224D01*
X194444Y320147D01*
X194471Y320067D01*
X194489Y319984D01*
X194499Y319900D01*
G37*
G54D13*
X14000Y160000D03*
G54D22*
X70500Y173700D03*
Y184300D03*
X61500Y173700D03*
Y184300D03*
X70000Y207200D03*
Y217800D03*
X146000Y368300D03*
Y357700D03*
X248000Y347700D03*
Y358300D03*
X333500Y190700D03*
Y201300D03*
X317000Y346200D03*
Y356800D03*
G54D31*
X146100Y310000D03*
X156900D03*
G54D50*
X323000Y20679D03*
G54D14*
X13750Y301500D03*
Y311500D03*
Y321500D03*
Y331500D03*
G54D23*
X43000Y159500D03*
X66000D03*
X64000Y300500D03*
Y320500D03*
X87000Y300500D03*
Y320500D03*
X384000Y304500D03*
X361000D03*
X384000Y325000D03*
X361000D03*
G54D32*
X126839Y348382D03*
X124280D03*
X121720D03*
X119161D03*
X126839Y358618D03*
X124280D03*
X121720D03*
X119161D03*
X268161Y359382D03*
X270720D03*
X268161Y369618D03*
X270720D03*
X273280Y359382D03*
X275839D03*
X273280Y369618D03*
X275839D03*
X338661Y363382D03*
X341220D03*
X343780D03*
X346339D03*
X338661Y373618D03*
X341220D03*
X343780D03*
X346339D03*
G36*
G01X170501Y335100D02*
X170496Y335195D01*
X170501Y335289D01*
X170513Y335383D01*
X170534Y335476D01*
X170564Y335566D01*
X170601Y335653D01*
X170646Y335736D01*
X170698Y335815D01*
X170758Y335889D01*
X170823Y335958D01*
X170895Y336020D01*
X170972Y336075D01*
X171062Y336120D01*
X171156Y336156D01*
X171253Y336183D01*
X171352Y336202D01*
X171452Y336211D01*
X171552D01*
X171652Y336202D01*
X171751Y336183D01*
X171848Y336156D01*
X171942Y336120D01*
X172032Y336075D01*
X172110Y336022D01*
X172183Y335962D01*
X172250Y335895D01*
X172310Y335821D01*
X172363Y335743D01*
X172408Y335659D01*
X172445Y335572D01*
X172473Y335482D01*
X172492Y335389D01*
X172502Y335295D01*
X172503Y335200D01*
X172504Y335114D01*
X172495Y335029D01*
X172478Y334945D01*
X172452Y334864D01*
X172417Y334785D01*
X172375Y334711D01*
X172325Y334642D01*
X172268Y334578D01*
X172204Y334520D01*
X172135Y334470D01*
X172061Y334427D01*
X171983Y334392D01*
X171901Y334365D01*
X171817Y334348D01*
X171732Y334339D01*
X171273D01*
X171189Y334347D01*
X171106Y334365D01*
X171025Y334391D01*
X170948Y334425D01*
X170874Y334467D01*
X170805Y334516D01*
X170742Y334572D01*
X170685Y334635D01*
X170635Y334703D01*
X170592Y334776D01*
X170556Y334853D01*
X170529Y334933D01*
X170511Y335016D01*
X170501Y335100D01*
G37*
G36*
G01X188501Y316100D02*
X188496Y316195D01*
X188501Y316289D01*
X188513Y316383D01*
X188534Y316476D01*
X188564Y316566D01*
X188601Y316653D01*
X188646Y316736D01*
X188698Y316815D01*
X188758Y316889D01*
X188823Y316958D01*
X188895Y317020D01*
X188972Y317075D01*
X189062Y317120D01*
X189156Y317156D01*
X189253Y317183D01*
X189352Y317202D01*
X189452Y317211D01*
X189552D01*
X189652Y317202D01*
X189751Y317183D01*
X189848Y317156D01*
X189942Y317120D01*
X190032Y317075D01*
X190110Y317022D01*
X190183Y316962D01*
X190250Y316895D01*
X190310Y316821D01*
X190363Y316743D01*
X190408Y316659D01*
X190445Y316572D01*
X190473Y316482D01*
X190492Y316389D01*
X190502Y316295D01*
X190503Y316200D01*
X190504Y316114D01*
X190495Y316029D01*
X190478Y315945D01*
X190452Y315864D01*
X190417Y315785D01*
X190375Y315711D01*
X190325Y315642D01*
X190268Y315578D01*
X190204Y315520D01*
X190135Y315470D01*
X190061Y315427D01*
X189983Y315392D01*
X189901Y315365D01*
X189817Y315348D01*
X189732Y315339D01*
X189273D01*
X189189Y315347D01*
X189106Y315365D01*
X189025Y315391D01*
X188948Y315425D01*
X188874Y315467D01*
X188805Y315516D01*
X188742Y315572D01*
X188685Y315635D01*
X188635Y315703D01*
X188592Y315776D01*
X188556Y315853D01*
X188529Y315933D01*
X188511Y316016D01*
X188501Y316100D01*
G37*
G36*
G01X213901Y311000D02*
X213896Y311095D01*
X213901Y311189D01*
X213913Y311283D01*
X213934Y311376D01*
X213964Y311466D01*
X214001Y311553D01*
X214046Y311636D01*
X214098Y311715D01*
X214158Y311789D01*
X214223Y311858D01*
X214295Y311920D01*
X214372Y311975D01*
X214462Y312020D01*
X214556Y312056D01*
X214653Y312083D01*
X214752Y312102D01*
X214852Y312111D01*
X214952D01*
X215052Y312102D01*
X215151Y312083D01*
X215248Y312056D01*
X215342Y312020D01*
X215432Y311975D01*
X215510Y311922D01*
X215583Y311862D01*
X215650Y311795D01*
X215710Y311721D01*
X215763Y311643D01*
X215808Y311559D01*
X215845Y311472D01*
X215873Y311382D01*
X215892Y311289D01*
X215902Y311195D01*
X215903Y311100D01*
X215904Y311014D01*
X215895Y310929D01*
X215878Y310845D01*
X215852Y310764D01*
X215817Y310685D01*
X215775Y310611D01*
X215725Y310542D01*
X215668Y310478D01*
X215604Y310420D01*
X215535Y310370D01*
X215461Y310327D01*
X215383Y310292D01*
X215301Y310265D01*
X215217Y310248D01*
X215132Y310239D01*
X214673D01*
X214589Y310247D01*
X214506Y310265D01*
X214425Y310291D01*
X214348Y310325D01*
X214274Y310367D01*
X214205Y310416D01*
X214142Y310472D01*
X214085Y310535D01*
X214035Y310603D01*
X213992Y310676D01*
X213956Y310753D01*
X213929Y310833D01*
X213911Y310916D01*
X213901Y311000D01*
G37*
G36*
G01X213701Y318200D02*
X213696Y318295D01*
X213701Y318389D01*
X213713Y318483D01*
X213734Y318576D01*
X213764Y318666D01*
X213801Y318753D01*
X213846Y318836D01*
X213898Y318915D01*
X213958Y318989D01*
X214023Y319058D01*
X214095Y319120D01*
X214172Y319175D01*
X214262Y319220D01*
X214356Y319256D01*
X214453Y319283D01*
X214552Y319302D01*
X214652Y319311D01*
X214752D01*
X214852Y319302D01*
X214951Y319283D01*
X215048Y319256D01*
X215142Y319220D01*
X215232Y319175D01*
X215310Y319122D01*
X215383Y319062D01*
X215450Y318995D01*
X215510Y318921D01*
X215563Y318843D01*
X215608Y318759D01*
X215645Y318672D01*
X215673Y318582D01*
X215692Y318489D01*
X215702Y318395D01*
X215703Y318300D01*
X215704Y318214D01*
X215695Y318129D01*
X215678Y318045D01*
X215652Y317964D01*
X215617Y317885D01*
X215575Y317811D01*
X215525Y317742D01*
X215468Y317678D01*
X215404Y317620D01*
X215335Y317570D01*
X215261Y317527D01*
X215183Y317492D01*
X215101Y317465D01*
X215017Y317448D01*
X214932Y317439D01*
X214473D01*
X214389Y317447D01*
X214306Y317465D01*
X214225Y317491D01*
X214148Y317525D01*
X214074Y317567D01*
X214005Y317616D01*
X213942Y317672D01*
X213885Y317735D01*
X213835Y317803D01*
X213792Y317876D01*
X213756Y317953D01*
X213729Y318033D01*
X213711Y318116D01*
X213701Y318200D01*
G37*
G36*
G01X192501Y316100D02*
X192496Y316195D01*
X192501Y316289D01*
X192513Y316383D01*
X192534Y316476D01*
X192564Y316566D01*
X192601Y316653D01*
X192646Y316736D01*
X192698Y316815D01*
X192758Y316889D01*
X192823Y316958D01*
X192895Y317020D01*
X192972Y317075D01*
X193062Y317120D01*
X193156Y317156D01*
X193253Y317183D01*
X193352Y317202D01*
X193452Y317211D01*
X193552D01*
X193652Y317202D01*
X193751Y317183D01*
X193848Y317156D01*
X193942Y317120D01*
X194032Y317075D01*
X194110Y317022D01*
X194183Y316962D01*
X194250Y316895D01*
X194310Y316821D01*
X194363Y316743D01*
X194408Y316659D01*
X194445Y316572D01*
X194473Y316482D01*
X194492Y316389D01*
X194502Y316295D01*
X194503Y316200D01*
X194504Y316114D01*
X194495Y316029D01*
X194478Y315945D01*
X194452Y315864D01*
X194417Y315785D01*
X194375Y315711D01*
X194325Y315642D01*
X194268Y315578D01*
X194204Y315520D01*
X194135Y315470D01*
X194061Y315427D01*
X193983Y315392D01*
X193901Y315365D01*
X193817Y315348D01*
X193732Y315339D01*
X193273D01*
X193189Y315347D01*
X193106Y315365D01*
X193025Y315391D01*
X192948Y315425D01*
X192874Y315467D01*
X192805Y315516D01*
X192742Y315572D01*
X192685Y315635D01*
X192635Y315703D01*
X192592Y315776D01*
X192556Y315853D01*
X192529Y315933D01*
X192511Y316016D01*
X192501Y316100D01*
G37*
G54D60*
X377937Y153220D03*
Y180780D03*
G54D42*
X162000Y369000D03*
X257400Y357200D03*
X290500Y342500D03*
X359000Y77500D03*
X353000Y335500D03*
G54D33*
X146001Y319945D03*
Y324944D03*
Y329945D03*
Y334944D03*
X124001D03*
Y329945D03*
Y324944D03*
Y319945D03*
X220000Y380500D03*
Y375500D03*
Y370500D03*
Y365500D03*
X242000D03*
Y370500D03*
Y375500D03*
Y380500D03*
G54D24*
X110000Y327421D03*
Y317579D03*
G54D15*
X5246Y321500D03*
X61161Y124539D03*
Y273161D03*
X151161Y124539D03*
Y273161D03*
X241161Y124539D03*
Y273161D03*
X331161Y124539D03*
Y273161D03*
G54D51*
G01X59243Y148042D02*
X59463Y148167D01*
X59720Y148250D01*
X60013D01*
X60343Y148125D01*
X60600Y147917D01*
X60783Y147667D01*
X60930Y147250D01*
X60967Y146875D01*
X60893Y146500D01*
X60783Y146250D01*
X60563Y146000D01*
X60307Y145833D01*
X60050Y145750D01*
X59793D01*
X59537Y145833D01*
X59317Y145958D01*
X59133Y146125D01*
G01X56910Y145750D02*
Y148250D01*
X58267Y146458D01*
X56433D01*
G01X55457Y146250D02*
X55237Y145958D01*
X54943Y145792D01*
X54613Y145750D01*
X54320Y145792D01*
X54027Y146000D01*
X53843Y146250D01*
X53807Y146500D01*
X53880Y146792D01*
X54137Y147000D01*
X54393Y147083D01*
X54723D01*
G01X54393D02*
X54173Y147208D01*
X53990Y147417D01*
X53917Y147667D01*
X53990Y147917D01*
X54173Y148125D01*
X54503Y148250D01*
X54833Y148208D01*
X55163Y148042D01*
G01X51950Y145750D02*
Y148250D01*
X52390Y147750D01*
G01Y145750D02*
X51510D01*
G01X56042Y175757D02*
X56167Y175537D01*
X56250Y175280D01*
Y174987D01*
X56125Y174657D01*
X55917Y174400D01*
X55667Y174217D01*
X55250Y174070D01*
X54875Y174033D01*
X54500Y174107D01*
X54250Y174217D01*
X54000Y174437D01*
X53833Y174693D01*
X53750Y174950D01*
Y175207D01*
X53833Y175463D01*
X53958Y175683D01*
X54125Y175867D01*
G01X53750Y178090D02*
X56250D01*
X54458Y176733D01*
Y178567D01*
G01X54250Y179543D02*
X53958Y179763D01*
X53792Y180057D01*
X53750Y180387D01*
X53792Y180680D01*
X54000Y180973D01*
X54250Y181157D01*
X54500Y181193D01*
X54792Y181120D01*
X55000Y180863D01*
X55083Y180607D01*
Y180277D01*
G01Y180607D02*
X55208Y180827D01*
X55417Y181010D01*
X55667Y181083D01*
X55917Y181010D01*
X56125Y180827D01*
X56250Y180497D01*
X56208Y180167D01*
X56042Y179837D01*
G01X54250Y182243D02*
X53958Y182463D01*
X53792Y182757D01*
X53750Y183087D01*
X53792Y183380D01*
X54000Y183673D01*
X54250Y183857D01*
X54500Y183893D01*
X54792Y183820D01*
X55000Y183563D01*
X55083Y183307D01*
Y182977D01*
G01Y183307D02*
X55208Y183527D01*
X55417Y183710D01*
X55667Y183783D01*
X55917Y183710D01*
X56125Y183527D01*
X56250Y183197D01*
X56208Y182867D01*
X56042Y182537D01*
G01X54243Y305042D02*
X54463Y305167D01*
X54720Y305250D01*
X55013D01*
X55343Y305125D01*
X55600Y304917D01*
X55783Y304667D01*
X55930Y304250D01*
X55967Y303875D01*
X55893Y303500D01*
X55783Y303250D01*
X55563Y303000D01*
X55307Y302833D01*
X55050Y302750D01*
X54793D01*
X54537Y302833D01*
X54317Y302958D01*
X54133Y303125D01*
G01X51910Y302750D02*
Y305250D01*
X53267Y303458D01*
X51433D01*
G01X49650Y302750D02*
Y305250D01*
X50090Y304750D01*
G01Y302750D02*
X49210D01*
G01X47757Y303250D02*
X47537Y302958D01*
X47243Y302792D01*
X46913Y302750D01*
X46620Y302792D01*
X46327Y303000D01*
X46143Y303250D01*
X46107Y303500D01*
X46180Y303792D01*
X46437Y304000D01*
X46693Y304083D01*
X47023D01*
G01X46693D02*
X46473Y304208D01*
X46290Y304417D01*
X46217Y304667D01*
X46290Y304917D01*
X46473Y305125D01*
X46803Y305250D01*
X47133Y305208D01*
X47463Y305042D01*
G01X53743Y322042D02*
X53963Y322167D01*
X54220Y322250D01*
X54513D01*
X54843Y322125D01*
X55100Y321917D01*
X55283Y321667D01*
X55430Y321250D01*
X55467Y320875D01*
X55393Y320500D01*
X55283Y320250D01*
X55063Y320000D01*
X54807Y319833D01*
X54550Y319750D01*
X54293D01*
X54037Y319833D01*
X53817Y319958D01*
X53633Y320125D01*
G01X51410Y319750D02*
Y322250D01*
X52767Y320458D01*
X50933D01*
G01X49150Y319750D02*
Y322250D01*
X49590Y321750D01*
G01Y319750D02*
X48710D01*
G01X46010D02*
Y322250D01*
X47367Y320458D01*
X45533D01*
G01X80042Y175757D02*
X80167Y175537D01*
X80250Y175280D01*
Y174987D01*
X80125Y174657D01*
X79917Y174400D01*
X79667Y174217D01*
X79250Y174070D01*
X78875Y174033D01*
X78500Y174107D01*
X78250Y174217D01*
X78000Y174437D01*
X77833Y174693D01*
X77750Y174950D01*
Y175207D01*
X77833Y175463D01*
X77958Y175683D01*
X78125Y175867D01*
G01X77750Y178090D02*
X80250D01*
X78458Y176733D01*
Y178567D01*
G01X78250Y179543D02*
X77958Y179763D01*
X77792Y180057D01*
X77750Y180387D01*
X77792Y180680D01*
X78000Y180973D01*
X78250Y181157D01*
X78500Y181193D01*
X78792Y181120D01*
X79000Y180863D01*
X79083Y180607D01*
Y180277D01*
G01Y180607D02*
X79208Y180827D01*
X79417Y181010D01*
X79667Y181083D01*
X79917Y181010D01*
X80125Y180827D01*
X80250Y180497D01*
X80208Y180167D01*
X80042Y179837D01*
G01X79833Y182353D02*
X80083Y182573D01*
X80208Y182830D01*
X80250Y183123D01*
X80167Y183490D01*
X79958Y183747D01*
X79708Y183820D01*
X79458Y183783D01*
X79250Y183637D01*
X78833Y182903D01*
X78542Y182573D01*
X78125Y182353D01*
X77750Y182280D01*
Y183820D01*
G01X78542Y208757D02*
X78667Y208537D01*
X78750Y208280D01*
Y207987D01*
X78625Y207657D01*
X78417Y207400D01*
X78167Y207217D01*
X77750Y207070D01*
X77375Y207033D01*
X77000Y207107D01*
X76750Y207217D01*
X76500Y207437D01*
X76333Y207693D01*
X76250Y207950D01*
Y208207D01*
X76333Y208463D01*
X76458Y208683D01*
X76625Y208867D01*
G01X76250Y211090D02*
X78750D01*
X76958Y209733D01*
Y211567D01*
G01X76625Y212543D02*
X76417Y212763D01*
X76292Y213020D01*
X76250Y213350D01*
X76333Y213680D01*
X76500Y213937D01*
X76792Y214120D01*
X77125Y214157D01*
X77458Y214083D01*
X77667Y213900D01*
X77833Y213643D01*
X77875Y213387D01*
X77833Y213130D01*
X77667Y212800D01*
X78750Y212910D01*
Y213900D01*
G01X76250Y216490D02*
X78750D01*
X76958Y215133D01*
Y216967D01*
G01X164500Y332500D02*
X157500Y325500D01*
X153500D01*
X151000Y323000D01*
Y319000D01*
X147200Y315200D01*
X143200D01*
X137500Y309500D01*
X106500D01*
X105000Y308000D01*
Y274000D01*
X105500Y273500D01*
X115500D01*
X116500Y274500D01*
Y299000D01*
X121500Y304000D01*
Y309500D01*
G01X110358Y290157D02*
X110483Y289937D01*
X110566Y289680D01*
Y289387D01*
X110441Y289057D01*
X110233Y288800D01*
X109983Y288617D01*
X109566Y288470D01*
X109192Y288433D01*
X108816Y288507D01*
X108566Y288617D01*
X108316Y288837D01*
X108150Y289093D01*
X108066Y289350D01*
Y289607D01*
X108150Y289863D01*
X108275Y290083D01*
X108441Y290267D01*
G01X108066Y292050D02*
X110566D01*
X110066Y291610D01*
G01X108066D02*
Y292490D01*
G01X108566Y293943D02*
X108275Y294163D01*
X108108Y294457D01*
X108066Y294787D01*
X108108Y295080D01*
X108316Y295373D01*
X108566Y295557D01*
X108816Y295593D01*
X109108Y295520D01*
X109316Y295263D01*
X109400Y295007D01*
Y294677D01*
G01Y295007D02*
X109525Y295227D01*
X109733Y295410D01*
X109983Y295483D01*
X110233Y295410D01*
X110441Y295227D01*
X110566Y294897D01*
X110525Y294567D01*
X110358Y294237D01*
G01X110150Y296753D02*
X110400Y296973D01*
X110525Y297230D01*
X110566Y297523D01*
X110483Y297890D01*
X110275Y298147D01*
X110025Y298220D01*
X109775Y298183D01*
X109566Y298037D01*
X109150Y297303D01*
X108858Y296973D01*
X108441Y296753D01*
X108066Y296680D01*
Y298220D01*
G01X109858Y278157D02*
X109983Y277937D01*
X110066Y277680D01*
Y277387D01*
X109942Y277057D01*
X109733Y276800D01*
X109483Y276617D01*
X109066Y276470D01*
X108692Y276433D01*
X108316Y276507D01*
X108066Y276617D01*
X107816Y276837D01*
X107650Y277093D01*
X107567Y277350D01*
Y277607D01*
X107650Y277863D01*
X107775Y278083D01*
X107941Y278267D01*
G01X107567Y280050D02*
X110066D01*
X109566Y279610D01*
G01X107567D02*
Y280490D01*
G01X109650Y282053D02*
X109900Y282273D01*
X110025Y282530D01*
X110066Y282823D01*
X109983Y283190D01*
X109775Y283447D01*
X109525Y283520D01*
X109275Y283483D01*
X109066Y283337D01*
X108650Y282603D01*
X108358Y282273D01*
X107941Y282053D01*
X107567Y281980D01*
Y283520D01*
G01Y285377D02*
X108108Y285450D01*
X108566Y285560D01*
X108983Y285707D01*
X109441Y285890D01*
X110066Y286183D01*
Y284717D01*
G01X114843Y307858D02*
X115063Y307983D01*
X115320Y308066D01*
X115613D01*
X115943Y307942D01*
X116200Y307733D01*
X116383Y307483D01*
X116530Y307066D01*
X116567Y306692D01*
X116493Y306316D01*
X116383Y306066D01*
X116163Y305816D01*
X115907Y305650D01*
X115650Y305566D01*
X115393D01*
X115137Y305650D01*
X114917Y305775D01*
X114733Y305941D01*
G01X112950Y305566D02*
Y308066D01*
X113390Y307566D01*
G01Y305566D02*
X112510D01*
G01X110947Y307650D02*
X110727Y307900D01*
X110470Y308025D01*
X110177Y308066D01*
X109810Y307983D01*
X109553Y307775D01*
X109480Y307525D01*
X109517Y307275D01*
X109663Y307066D01*
X110397Y306650D01*
X110727Y306358D01*
X110947Y305941D01*
X111020Y305566D01*
X109480D01*
G01X108247Y306608D02*
X107990Y306900D01*
X107770Y307066D01*
X107477Y307150D01*
X107220Y307066D01*
X107037Y306900D01*
X106890Y306650D01*
X106853Y306358D01*
X106890Y306108D01*
X107037Y305858D01*
X107257Y305650D01*
X107513Y305566D01*
X107807Y305650D01*
X108063Y305900D01*
X108210Y306275D01*
X108247Y306692D01*
X108173Y307233D01*
X108063Y307525D01*
X107880Y307816D01*
X107623Y308025D01*
X107367Y308066D01*
X107110Y307983D01*
X106927Y307775D01*
G01X114843Y303358D02*
X115063Y303483D01*
X115320Y303566D01*
X115613D01*
X115943Y303442D01*
X116200Y303233D01*
X116383Y302983D01*
X116530Y302566D01*
X116567Y302192D01*
X116493Y301816D01*
X116383Y301566D01*
X116163Y301316D01*
X115907Y301150D01*
X115650Y301066D01*
X115393D01*
X115137Y301150D01*
X114917Y301275D01*
X114733Y301441D01*
G01X112950Y301066D02*
Y303566D01*
X113390Y303066D01*
G01Y301066D02*
X112510D01*
G01X110947Y303150D02*
X110727Y303400D01*
X110470Y303525D01*
X110177Y303566D01*
X109810Y303483D01*
X109553Y303275D01*
X109480Y303025D01*
X109517Y302775D01*
X109663Y302566D01*
X110397Y302150D01*
X110727Y301858D01*
X110947Y301441D01*
X111020Y301066D01*
X109480D01*
G01X108357Y301441D02*
X108137Y301233D01*
X107880Y301108D01*
X107550Y301066D01*
X107220Y301150D01*
X106963Y301316D01*
X106780Y301608D01*
X106743Y301942D01*
X106817Y302275D01*
X107000Y302483D01*
X107257Y302650D01*
X107513Y302692D01*
X107770Y302650D01*
X108100Y302483D01*
X107990Y303566D01*
X107000D01*
G01X97250Y323880D02*
X99750Y325420D01*
G01Y323880D02*
X97250Y325420D01*
G01Y327350D02*
X99750D01*
X99250Y326910D01*
G01X97250D02*
Y327790D01*
G01X110433Y339250D02*
Y341750D01*
X109517D01*
X109223Y341625D01*
X109040Y341458D01*
X108967Y341125D01*
X109040Y340792D01*
X109260Y340583D01*
X109517Y340458D01*
X110433D01*
G01X109517D02*
X108967Y339250D01*
G01X107000D02*
Y341750D01*
X107440Y341250D01*
G01Y339250D02*
X106560D01*
G01X104997Y340292D02*
X104740Y340583D01*
X104520Y340750D01*
X104227Y340833D01*
X103970Y340750D01*
X103787Y340583D01*
X103640Y340333D01*
X103603Y340042D01*
X103640Y339792D01*
X103787Y339542D01*
X104007Y339333D01*
X104263Y339250D01*
X104557Y339333D01*
X104813Y339583D01*
X104960Y339958D01*
X104997Y340375D01*
X104923Y340917D01*
X104813Y341208D01*
X104630Y341500D01*
X104373Y341708D01*
X104117Y341750D01*
X103860Y341667D01*
X103677Y341458D01*
G01X97883Y348566D02*
Y351066D01*
X96967D01*
X96673Y350942D01*
X96490Y350775D01*
X96417Y350442D01*
X96490Y350108D01*
X96710Y349900D01*
X96967Y349775D01*
X97883D01*
G01X96967D02*
X96417Y348566D01*
G01X94450D02*
Y351066D01*
X94890Y350566D01*
G01Y348566D02*
X94010D01*
G01X91310D02*
Y351066D01*
X92667Y349275D01*
X90833D01*
G01X103042Y326607D02*
X103167Y326387D01*
X103250Y326130D01*
Y325837D01*
X103125Y325507D01*
X102917Y325250D01*
X102667Y325067D01*
X102250Y324920D01*
X101875Y324883D01*
X101500Y324957D01*
X101250Y325067D01*
X101000Y325287D01*
X100833Y325543D01*
X100750Y325800D01*
Y326057D01*
X100833Y326313D01*
X100958Y326533D01*
X101125Y326717D01*
G01X101792Y327803D02*
X102083Y328060D01*
X102250Y328280D01*
X102333Y328573D01*
X102250Y328830D01*
X102083Y329013D01*
X101833Y329160D01*
X101542Y329197D01*
X101292Y329160D01*
X101042Y329013D01*
X100833Y328793D01*
X100750Y328537D01*
X100833Y328243D01*
X101083Y327987D01*
X101458Y327840D01*
X101875Y327803D01*
X102417Y327877D01*
X102708Y327987D01*
X103000Y328170D01*
X103208Y328427D01*
X103250Y328683D01*
X103167Y328940D01*
X102958Y329123D01*
G01X100750Y331127D02*
X101292Y331200D01*
X101750Y331310D01*
X102167Y331457D01*
X102625Y331640D01*
X103250Y331933D01*
Y330467D01*
G01X102858Y316657D02*
X102983Y316437D01*
X103066Y316180D01*
Y315887D01*
X102942Y315557D01*
X102733Y315300D01*
X102483Y315117D01*
X102066Y314970D01*
X101692Y314933D01*
X101317Y315007D01*
X101066Y315117D01*
X100816Y315337D01*
X100650Y315593D01*
X100566Y315850D01*
Y316107D01*
X100650Y316363D01*
X100775Y316583D01*
X100941Y316767D01*
G01X101608Y317853D02*
X101900Y318110D01*
X102066Y318330D01*
X102150Y318623D01*
X102066Y318880D01*
X101900Y319063D01*
X101650Y319210D01*
X101358Y319247D01*
X101108Y319210D01*
X100858Y319063D01*
X100650Y318843D01*
X100566Y318587D01*
X100650Y318293D01*
X100900Y318037D01*
X101275Y317890D01*
X101692Y317853D01*
X102233Y317927D01*
X102525Y318037D01*
X102816Y318220D01*
X103025Y318477D01*
X103066Y318733D01*
X102983Y318990D01*
X102775Y319173D01*
G01X101608Y320553D02*
X101900Y320810D01*
X102066Y321030D01*
X102150Y321323D01*
X102066Y321580D01*
X101900Y321763D01*
X101650Y321910D01*
X101358Y321947D01*
X101108Y321910D01*
X100858Y321763D01*
X100650Y321543D01*
X100566Y321287D01*
X100650Y320993D01*
X100900Y320737D01*
X101275Y320590D01*
X101692Y320553D01*
X102233Y320627D01*
X102525Y320737D01*
X102816Y320920D01*
X103025Y321177D01*
X103066Y321433D01*
X102983Y321690D01*
X102775Y321873D01*
G01X101858Y345657D02*
X101983Y345437D01*
X102066Y345180D01*
Y344887D01*
X101942Y344557D01*
X101733Y344300D01*
X101483Y344117D01*
X101066Y343970D01*
X100692Y343933D01*
X100317Y344007D01*
X100066Y344117D01*
X99816Y344337D01*
X99650Y344593D01*
X99566Y344850D01*
Y345107D01*
X99650Y345363D01*
X99775Y345583D01*
X99941Y345767D01*
G01X100066Y346743D02*
X99775Y346963D01*
X99608Y347257D01*
X99566Y347587D01*
X99608Y347880D01*
X99816Y348173D01*
X100066Y348357D01*
X100317Y348393D01*
X100608Y348320D01*
X100816Y348063D01*
X100900Y347807D01*
Y347477D01*
G01Y347807D02*
X101025Y348027D01*
X101233Y348210D01*
X101483Y348283D01*
X101733Y348210D01*
X101942Y348027D01*
X102066Y347697D01*
X102025Y347367D01*
X101858Y347037D01*
G01X99858Y349627D02*
X99650Y349883D01*
X99566Y350177D01*
X99650Y350470D01*
X99900Y350727D01*
X100275Y350910D01*
X100650Y350983D01*
X101108D01*
X101483Y350910D01*
X101816Y350727D01*
X101983Y350507D01*
X102066Y350250D01*
X101983Y349957D01*
X101816Y349737D01*
X101566Y349590D01*
X101233Y349517D01*
X100942Y349590D01*
X100650Y349773D01*
X100483Y349993D01*
X100442Y350250D01*
X100525Y350543D01*
X100733Y350763D01*
X101108Y350983D01*
G01X104343Y378858D02*
X104563Y378983D01*
X104820Y379066D01*
X105113D01*
X105443Y378942D01*
X105700Y378733D01*
X105883Y378483D01*
X106030Y378066D01*
X106067Y377692D01*
X105993Y377316D01*
X105883Y377066D01*
X105663Y376816D01*
X105407Y376650D01*
X105150Y376566D01*
X104893D01*
X104637Y376650D01*
X104417Y376775D01*
X104233Y376941D01*
G01X103257Y377066D02*
X103037Y376775D01*
X102743Y376608D01*
X102413Y376566D01*
X102120Y376608D01*
X101827Y376816D01*
X101643Y377066D01*
X101607Y377316D01*
X101680Y377608D01*
X101937Y377816D01*
X102193Y377900D01*
X102523D01*
G01X102193D02*
X101973Y378025D01*
X101790Y378233D01*
X101717Y378483D01*
X101790Y378733D01*
X101973Y378942D01*
X102303Y379066D01*
X102633Y379025D01*
X102963Y378858D01*
G01X100447Y378650D02*
X100227Y378900D01*
X99970Y379025D01*
X99677Y379066D01*
X99310Y378983D01*
X99053Y378775D01*
X98980Y378525D01*
X99017Y378275D01*
X99163Y378066D01*
X99897Y377650D01*
X100227Y377358D01*
X100447Y376941D01*
X100520Y376566D01*
X98980D01*
G01X104343Y372858D02*
X104563Y372983D01*
X104820Y373066D01*
X105113D01*
X105443Y372942D01*
X105700Y372733D01*
X105883Y372483D01*
X106030Y372066D01*
X106067Y371692D01*
X105993Y371316D01*
X105883Y371066D01*
X105663Y370816D01*
X105407Y370650D01*
X105150Y370566D01*
X104893D01*
X104637Y370650D01*
X104417Y370775D01*
X104233Y370941D01*
G01X103257Y371066D02*
X103037Y370775D01*
X102743Y370608D01*
X102413Y370566D01*
X102120Y370608D01*
X101827Y370816D01*
X101643Y371066D01*
X101607Y371316D01*
X101680Y371608D01*
X101937Y371816D01*
X102193Y371900D01*
X102523D01*
G01X102193D02*
X101973Y372025D01*
X101790Y372233D01*
X101717Y372483D01*
X101790Y372733D01*
X101973Y372942D01*
X102303Y373066D01*
X102633Y373025D01*
X102963Y372858D01*
G01X99750Y370566D02*
Y373066D01*
X100190Y372566D01*
G01Y370566D02*
X99310D01*
G01X104343Y367358D02*
X104563Y367483D01*
X104820Y367566D01*
X105113D01*
X105443Y367442D01*
X105700Y367233D01*
X105883Y366983D01*
X106030Y366566D01*
X106067Y366192D01*
X105993Y365816D01*
X105883Y365566D01*
X105663Y365316D01*
X105407Y365150D01*
X105150Y365066D01*
X104893D01*
X104637Y365150D01*
X104417Y365275D01*
X104233Y365441D01*
G01X103257Y365566D02*
X103037Y365275D01*
X102743Y365108D01*
X102413Y365066D01*
X102120Y365108D01*
X101827Y365316D01*
X101643Y365566D01*
X101607Y365816D01*
X101680Y366108D01*
X101937Y366316D01*
X102193Y366400D01*
X102523D01*
G01X102193D02*
X101973Y366525D01*
X101790Y366733D01*
X101717Y366983D01*
X101790Y367233D01*
X101973Y367442D01*
X102303Y367566D01*
X102633Y367525D01*
X102963Y367358D01*
G01X100557Y365566D02*
X100337Y365275D01*
X100043Y365108D01*
X99713Y365066D01*
X99420Y365108D01*
X99127Y365316D01*
X98943Y365566D01*
X98907Y365816D01*
X98980Y366108D01*
X99237Y366316D01*
X99493Y366400D01*
X99823D01*
G01X99493D02*
X99273Y366525D01*
X99090Y366733D01*
X99017Y366983D01*
X99090Y367233D01*
X99273Y367442D01*
X99603Y367566D01*
X99933Y367525D01*
X100263Y367358D01*
G01X141170Y167702D02*
X141420Y167922D01*
X141544Y168179D01*
X141586Y168472D01*
X141503Y168839D01*
X141294Y169096D01*
X141045Y169169D01*
X140794Y169132D01*
X140586Y168985D01*
X140170Y168252D01*
X139878Y167922D01*
X139461Y167702D01*
X139086Y167629D01*
Y169169D01*
G01X121410Y182284D02*
X118410D01*
G01X121410Y174410D02*
X119410D01*
G01X138641Y182284D02*
X141641D01*
G01X138641Y174410D02*
X140641D01*
G01X121578Y168193D02*
X119578Y166193D01*
Y170193D01*
X121578Y168193D01*
G01X116825Y202557D02*
X116950Y202337D01*
X117034Y202080D01*
Y201787D01*
X116909Y201457D01*
X116700Y201200D01*
X116450Y201017D01*
X116034Y200870D01*
X115658Y200834D01*
X115284Y200907D01*
X115034Y201017D01*
X114783Y201237D01*
X114617Y201494D01*
X114534Y201750D01*
Y202007D01*
X114617Y202264D01*
X114742Y202484D01*
X114908Y202667D01*
G01X114534Y204450D02*
X114575Y204157D01*
X114742Y203900D01*
X114992Y203680D01*
X115284Y203534D01*
X115617Y203460D01*
X115950D01*
X116284Y203534D01*
X116575Y203680D01*
X116825Y203900D01*
X116992Y204157D01*
X117034Y204450D01*
X116992Y204744D01*
X116825Y205000D01*
X116575Y205220D01*
X116284Y205367D01*
X115950Y205440D01*
X115617D01*
X115284Y205367D01*
X114992Y205220D01*
X114742Y205000D01*
X114575Y204744D01*
X114534Y204450D01*
G01Y206307D02*
X117034D01*
X114534Y207994D01*
X117034D01*
G01X114534Y208934D02*
X117034Y209850D01*
X114534Y210767D01*
G01X115408Y210437D02*
Y209264D01*
G01X121410Y229528D02*
X118410D01*
G01X121410Y221654D02*
X119410D01*
G01X138641Y229528D02*
X141641D01*
G01X138641Y221654D02*
X140641D01*
G01X121410Y213780D02*
X118410D01*
G01X121410Y205906D02*
X119410D01*
G01X138641Y213780D02*
X141641D01*
G01X138641Y205906D02*
X140641D01*
G01X121410Y198032D02*
X118410D01*
G01X121410Y190158D02*
X119410D01*
G01X138641Y198032D02*
X141641D01*
G01X138641Y190158D02*
X140641D01*
G01X130078Y208193D02*
Y205193D01*
G01X128578Y206693D02*
X131578D01*
G01X119542Y246527D02*
X119333Y246783D01*
X119250Y247077D01*
X119333Y247370D01*
X119583Y247627D01*
X119958Y247810D01*
X120333Y247883D01*
X120792D01*
X121167Y247810D01*
X121500Y247627D01*
X121667Y247407D01*
X121750Y247150D01*
X121667Y246857D01*
X121500Y246637D01*
X121250Y246490D01*
X120917Y246417D01*
X120625Y246490D01*
X120333Y246673D01*
X120167Y246893D01*
X120125Y247150D01*
X120208Y247443D01*
X120417Y247663D01*
X120792Y247883D01*
G01X119542Y249227D02*
X119333Y249483D01*
X119250Y249777D01*
X119333Y250070D01*
X119583Y250327D01*
X119958Y250510D01*
X120333Y250583D01*
X120792D01*
X121167Y250510D01*
X121500Y250327D01*
X121667Y250107D01*
X121750Y249850D01*
X121667Y249557D01*
X121500Y249337D01*
X121250Y249190D01*
X120917Y249117D01*
X120625Y249190D01*
X120333Y249373D01*
X120167Y249593D01*
X120125Y249850D01*
X120208Y250143D01*
X120417Y250363D01*
X120792Y250583D01*
G01X139086Y244915D02*
X141586D01*
X141086Y244475D01*
G01X139086D02*
Y245355D01*
G01X141586Y247615D02*
X141503Y247322D01*
X141294Y247102D01*
X141045Y246955D01*
X140711Y246845D01*
X140336Y246808D01*
X139961Y246845D01*
X139628Y246955D01*
X139378Y247102D01*
X139170Y247322D01*
X139086Y247615D01*
X139170Y247908D01*
X139378Y248128D01*
X139628Y248275D01*
X139961Y248385D01*
X140336Y248422D01*
X140711Y248385D01*
X141045Y248275D01*
X141294Y248128D01*
X141503Y247908D01*
X141586Y247615D01*
G01Y250315D02*
X141503Y250022D01*
X141294Y249802D01*
X141045Y249655D01*
X140711Y249545D01*
X140336Y249508D01*
X139961Y249545D01*
X139628Y249655D01*
X139378Y249802D01*
X139170Y250022D01*
X139086Y250315D01*
X139170Y250608D01*
X139378Y250828D01*
X139628Y250975D01*
X139961Y251085D01*
X140336Y251122D01*
X140711Y251085D01*
X141045Y250975D01*
X141294Y250828D01*
X141503Y250608D01*
X141586Y250315D01*
G01X121410Y237402D02*
X119410D01*
G01X138641D02*
X140641D01*
G01X114858Y278157D02*
X114983Y277937D01*
X115066Y277680D01*
Y277387D01*
X114942Y277057D01*
X114733Y276800D01*
X114483Y276617D01*
X114066Y276470D01*
X113691Y276433D01*
X113316Y276507D01*
X113066Y276617D01*
X112816Y276837D01*
X112650Y277093D01*
X112566Y277350D01*
Y277607D01*
X112650Y277863D01*
X112775Y278083D01*
X112941Y278267D01*
G01X112566Y280050D02*
X115066D01*
X114566Y279610D01*
G01X112566D02*
Y280490D01*
G01X114650Y282053D02*
X114900Y282273D01*
X115025Y282530D01*
X115066Y282823D01*
X114983Y283190D01*
X114775Y283447D01*
X114525Y283520D01*
X114275Y283483D01*
X114066Y283337D01*
X113650Y282603D01*
X113358Y282273D01*
X112941Y282053D01*
X112566Y281980D01*
Y283520D01*
G01X115066Y285450D02*
X114983Y285157D01*
X114775Y284937D01*
X114525Y284790D01*
X114192Y284680D01*
X113817Y284643D01*
X113442Y284680D01*
X113108Y284790D01*
X112858Y284937D01*
X112650Y285157D01*
X112566Y285450D01*
X112650Y285743D01*
X112858Y285963D01*
X113108Y286110D01*
X113442Y286220D01*
X113817Y286257D01*
X114192Y286220D01*
X114525Y286110D01*
X114775Y285963D01*
X114983Y285743D01*
X115066Y285450D01*
G01X114858Y290157D02*
X114983Y289937D01*
X115066Y289680D01*
Y289387D01*
X114942Y289057D01*
X114733Y288800D01*
X114483Y288617D01*
X114066Y288470D01*
X113691Y288433D01*
X113316Y288507D01*
X113066Y288617D01*
X112816Y288837D01*
X112650Y289093D01*
X112566Y289350D01*
Y289607D01*
X112650Y289863D01*
X112775Y290083D01*
X112941Y290267D01*
G01X112566Y292050D02*
X115066D01*
X114566Y291610D01*
G01X112566D02*
Y292490D01*
G01X113066Y293943D02*
X112775Y294163D01*
X112608Y294457D01*
X112566Y294787D01*
X112608Y295080D01*
X112816Y295373D01*
X113066Y295557D01*
X113316Y295593D01*
X113608Y295520D01*
X113817Y295263D01*
X113900Y295007D01*
Y294677D01*
G01Y295007D02*
X114025Y295227D01*
X114233Y295410D01*
X114483Y295483D01*
X114733Y295410D01*
X114942Y295227D01*
X115066Y294897D01*
X115025Y294567D01*
X114858Y294237D01*
G01X115066Y297450D02*
X114983Y297157D01*
X114775Y296937D01*
X114525Y296790D01*
X114192Y296680D01*
X113817Y296643D01*
X113442Y296680D01*
X113108Y296790D01*
X112858Y296937D01*
X112650Y297157D01*
X112566Y297450D01*
X112650Y297743D01*
X112858Y297963D01*
X113108Y298110D01*
X113442Y298220D01*
X113817Y298257D01*
X114192Y298220D01*
X114525Y298110D01*
X114775Y297963D01*
X114983Y297743D01*
X115066Y297450D01*
G01X136507Y315250D02*
Y313458D01*
X136360Y313083D01*
X136067Y312833D01*
X135700Y312750D01*
X135333Y312833D01*
X135040Y313083D01*
X134893Y313458D01*
Y315250D01*
G01X133000Y312750D02*
Y315250D01*
X133440Y314750D01*
G01Y312750D02*
X132560D01*
G01X130300D02*
X130043Y312792D01*
X129750Y312917D01*
X129567Y313125D01*
X129493Y313417D01*
X129567Y313708D01*
X129787Y313958D01*
X130117Y314083D01*
X130483D01*
X130703Y314167D01*
X130887Y314375D01*
X130960Y314667D01*
X130850Y314958D01*
X130593Y315167D01*
X130300Y315250D01*
X130007Y315167D01*
X129750Y314958D01*
X129640Y314667D01*
X129713Y314375D01*
X129897Y314167D01*
X130117Y314083D01*
X130483D01*
X130813Y313958D01*
X131033Y313708D01*
X131107Y313417D01*
X131033Y313125D01*
X130850Y312917D01*
X130557Y312792D01*
X130300Y312750D01*
G01X119933Y338750D02*
Y341250D01*
X119017D01*
X118723Y341125D01*
X118540Y340958D01*
X118467Y340625D01*
X118540Y340292D01*
X118760Y340083D01*
X119017Y339958D01*
X119933D01*
G01X119017D02*
X118467Y338750D01*
G01X116500D02*
Y341250D01*
X116940Y340750D01*
G01Y338750D02*
X116060D01*
G01X113873D02*
X113800Y339292D01*
X113690Y339750D01*
X113543Y340167D01*
X113360Y340625D01*
X113067Y341250D01*
X114533D01*
G01X135750Y346567D02*
X138250D01*
Y347483D01*
X138125Y347777D01*
X137958Y347960D01*
X137625Y348033D01*
X137292Y347960D01*
X137083Y347740D01*
X136958Y347483D01*
Y346567D01*
G01Y347483D02*
X135750Y348033D01*
G01Y350000D02*
X138250D01*
X137750Y349560D01*
G01X135750D02*
Y350440D01*
G01X136125Y351893D02*
X135917Y352113D01*
X135792Y352370D01*
X135750Y352700D01*
X135833Y353030D01*
X136000Y353287D01*
X136292Y353470D01*
X136625Y353507D01*
X136958Y353433D01*
X137167Y353250D01*
X137333Y352993D01*
X137375Y352737D01*
X137333Y352480D01*
X137167Y352150D01*
X138250Y352260D01*
Y353250D01*
G01X115250Y353843D02*
X113458D01*
X113083Y353990D01*
X112833Y354283D01*
X112750Y354650D01*
X112833Y355017D01*
X113083Y355310D01*
X113458Y355457D01*
X115250D01*
G01X113125Y356543D02*
X112917Y356763D01*
X112792Y357020D01*
X112750Y357350D01*
X112833Y357680D01*
X113000Y357937D01*
X113292Y358120D01*
X113625Y358157D01*
X113958Y358083D01*
X114167Y357900D01*
X114333Y357643D01*
X114375Y357387D01*
X114333Y357130D01*
X114167Y356800D01*
X115250Y356910D01*
Y357900D01*
G01X130083Y385750D02*
Y383250D01*
X128617D01*
G01X127457Y383750D02*
X127237Y383458D01*
X126943Y383292D01*
X126613Y383250D01*
X126320Y383292D01*
X126027Y383500D01*
X125843Y383750D01*
X125807Y384000D01*
X125880Y384292D01*
X126137Y384500D01*
X126393Y384583D01*
X126723D01*
G01X126393D02*
X126173Y384708D01*
X125990Y384917D01*
X125917Y385167D01*
X125990Y385417D01*
X126173Y385625D01*
X126503Y385750D01*
X126833Y385708D01*
X127163Y385542D01*
G01X141042Y386107D02*
X141167Y385887D01*
X141250Y385630D01*
Y385337D01*
X141125Y385007D01*
X140917Y384750D01*
X140667Y384567D01*
X140250Y384420D01*
X139875Y384383D01*
X139500Y384457D01*
X139250Y384567D01*
X139000Y384787D01*
X138833Y385043D01*
X138750Y385300D01*
Y385557D01*
X138833Y385813D01*
X138958Y386033D01*
X139125Y386217D01*
G01X139250Y387193D02*
X138958Y387413D01*
X138792Y387707D01*
X138750Y388037D01*
X138792Y388330D01*
X139000Y388623D01*
X139250Y388807D01*
X139500Y388843D01*
X139792Y388770D01*
X140000Y388513D01*
X140083Y388257D01*
Y387927D01*
G01Y388257D02*
X140208Y388477D01*
X140417Y388660D01*
X140667Y388733D01*
X140917Y388660D01*
X141125Y388477D01*
X141250Y388147D01*
X141208Y387817D01*
X141042Y387487D01*
G01X138750Y390627D02*
X139292Y390700D01*
X139750Y390810D01*
X140167Y390957D01*
X140625Y391140D01*
X141250Y391433D01*
Y389967D01*
G01X144600Y379400D02*
X146600D01*
G01Y378600D02*
X144600D01*
G01X140042Y356107D02*
X140167Y355887D01*
X140250Y355630D01*
Y355337D01*
X140125Y355007D01*
X139917Y354750D01*
X139667Y354567D01*
X139250Y354420D01*
X138875Y354383D01*
X138500Y354457D01*
X138250Y354567D01*
X138000Y354787D01*
X137833Y355043D01*
X137750Y355300D01*
Y355557D01*
X137833Y355813D01*
X137958Y356033D01*
X138125Y356217D01*
G01X138250Y357193D02*
X137958Y357413D01*
X137792Y357707D01*
X137750Y358037D01*
X137792Y358330D01*
X138000Y358623D01*
X138250Y358807D01*
X138500Y358843D01*
X138792Y358770D01*
X139000Y358513D01*
X139083Y358257D01*
Y357927D01*
G01Y358257D02*
X139208Y358477D01*
X139417Y358660D01*
X139667Y358733D01*
X139917Y358660D01*
X140125Y358477D01*
X140250Y358147D01*
X140208Y357817D01*
X140042Y357487D01*
G01X137750Y360700D02*
X137792Y360957D01*
X137917Y361250D01*
X138125Y361433D01*
X138417Y361507D01*
X138708Y361433D01*
X138958Y361213D01*
X139083Y360883D01*
Y360517D01*
X139167Y360297D01*
X139375Y360113D01*
X139667Y360040D01*
X139958Y360150D01*
X140167Y360407D01*
X140250Y360700D01*
X140167Y360993D01*
X139958Y361250D01*
X139667Y361360D01*
X139375Y361287D01*
X139167Y361103D01*
X139083Y360883D01*
Y360517D01*
X138958Y360187D01*
X138708Y359967D01*
X138417Y359893D01*
X138125Y359967D01*
X137917Y360150D01*
X137792Y360443D01*
X137750Y360700D01*
G01X168657Y308750D02*
Y311250D01*
X167923D01*
X167630Y311125D01*
X167410Y310958D01*
X167227Y310708D01*
X167080Y310417D01*
X167043Y310000D01*
X167080Y309583D01*
X167227Y309292D01*
X167410Y309042D01*
X167630Y308875D01*
X167923Y308750D01*
X168657D01*
G01X165150D02*
X164893Y308792D01*
X164600Y308917D01*
X164417Y309125D01*
X164343Y309417D01*
X164417Y309708D01*
X164637Y309958D01*
X164967Y310083D01*
X165333D01*
X165553Y310167D01*
X165737Y310375D01*
X165810Y310667D01*
X165700Y310958D01*
X165443Y311167D01*
X165150Y311250D01*
X164857Y311167D01*
X164600Y310958D01*
X164490Y310667D01*
X164563Y310375D01*
X164747Y310167D01*
X164967Y310083D01*
X165333D01*
X165663Y309958D01*
X165883Y309708D01*
X165957Y309417D01*
X165883Y309125D01*
X165700Y308917D01*
X165407Y308792D01*
X165150Y308750D01*
G01X186542Y311257D02*
X186667Y311037D01*
X186750Y310780D01*
Y310487D01*
X186625Y310157D01*
X186417Y309900D01*
X186167Y309717D01*
X185750Y309570D01*
X185375Y309533D01*
X185000Y309607D01*
X184750Y309717D01*
X184500Y309937D01*
X184333Y310193D01*
X184250Y310450D01*
Y310707D01*
X184333Y310963D01*
X184458Y311183D01*
X184625Y311367D01*
G01X184250Y313150D02*
X186750D01*
X186250Y312710D01*
G01X184250D02*
Y313590D01*
G01Y315850D02*
X186750D01*
X186250Y315410D01*
G01X184250D02*
Y316290D01*
G01X184542Y317927D02*
X184333Y318183D01*
X184250Y318477D01*
X184333Y318770D01*
X184583Y319027D01*
X184958Y319210D01*
X185333Y319283D01*
X185792D01*
X186167Y319210D01*
X186500Y319027D01*
X186667Y318807D01*
X186750Y318550D01*
X186667Y318257D01*
X186500Y318037D01*
X186250Y317890D01*
X185917Y317817D01*
X185625Y317890D01*
X185333Y318073D01*
X185167Y318293D01*
X185125Y318550D01*
X185208Y318843D01*
X185417Y319063D01*
X185792Y319283D01*
G01X182542Y311257D02*
X182667Y311037D01*
X182750Y310780D01*
Y310487D01*
X182625Y310157D01*
X182417Y309900D01*
X182167Y309717D01*
X181750Y309570D01*
X181375Y309533D01*
X181000Y309607D01*
X180750Y309717D01*
X180500Y309937D01*
X180333Y310193D01*
X180250Y310450D01*
Y310707D01*
X180333Y310963D01*
X180458Y311183D01*
X180625Y311367D01*
G01X180250Y313150D02*
X182750D01*
X182250Y312710D01*
G01X180250D02*
Y313590D01*
G01Y315850D02*
X182750D01*
X182250Y315410D01*
G01X180250D02*
Y316290D01*
G01Y318550D02*
X180292Y318807D01*
X180417Y319100D01*
X180625Y319283D01*
X180917Y319357D01*
X181208Y319283D01*
X181458Y319063D01*
X181583Y318733D01*
Y318367D01*
X181667Y318147D01*
X181875Y317963D01*
X182167Y317890D01*
X182458Y318000D01*
X182667Y318257D01*
X182750Y318550D01*
X182667Y318843D01*
X182458Y319100D01*
X182167Y319210D01*
X181875Y319137D01*
X181667Y318953D01*
X181583Y318733D01*
Y318367D01*
X181458Y318037D01*
X181208Y317817D01*
X180917Y317743D01*
X180625Y317817D01*
X180417Y318000D01*
X180292Y318293D01*
X180250Y318550D01*
G01X186550Y290750D02*
X186037Y288250D01*
X185450Y290750D01*
X184863Y288250D01*
X184350Y290750D01*
G01X183190D02*
X182310D01*
G01X182750D02*
Y288250D01*
G01X183190D02*
X182310D01*
G01X180783D02*
Y290750D01*
X179867D01*
X179573Y290625D01*
X179390Y290458D01*
X179317Y290125D01*
X179390Y289792D01*
X179610Y289583D01*
X179867Y289458D01*
X180783D01*
G01X179867D02*
X179317Y288250D01*
G01X176617D02*
X178083D01*
Y290750D01*
X176617D01*
G01X177203Y289542D02*
X178083D01*
G01X175383Y290750D02*
Y288250D01*
X173917D01*
G01X171217D02*
X172683D01*
Y290750D01*
X171217D01*
G01X171803Y289542D02*
X172683D01*
G01X170020Y288583D02*
X169727Y288375D01*
X169397Y288250D01*
X169103D01*
X168810Y288375D01*
X168590Y288583D01*
X168480Y288875D01*
X168553Y289167D01*
X168737Y289417D01*
X169067Y289583D01*
X169507Y289667D01*
X169763Y289833D01*
X169873Y290125D01*
X169800Y290417D01*
X169617Y290625D01*
X169360Y290750D01*
X169103D01*
X168847Y290667D01*
X168627Y290458D01*
G01X167320Y288583D02*
X167027Y288375D01*
X166697Y288250D01*
X166403D01*
X166110Y288375D01*
X165890Y288583D01*
X165780Y288875D01*
X165853Y289167D01*
X166037Y289417D01*
X166367Y289583D01*
X166807Y289667D01*
X167063Y289833D01*
X167173Y290125D01*
X167100Y290417D01*
X166917Y290625D01*
X166660Y290750D01*
X166403D01*
X166147Y290667D01*
X165927Y290458D01*
G01X182443Y298042D02*
X182663Y298167D01*
X182920Y298250D01*
X183213D01*
X183543Y298125D01*
X183800Y297917D01*
X183983Y297667D01*
X184130Y297250D01*
X184167Y296875D01*
X184093Y296500D01*
X183983Y296250D01*
X183763Y296000D01*
X183507Y295833D01*
X183250Y295750D01*
X182993D01*
X182737Y295833D01*
X182517Y295958D01*
X182333Y296125D01*
G01X181357Y298250D02*
Y296458D01*
X181210Y296083D01*
X180917Y295833D01*
X180550Y295750D01*
X180183Y295833D01*
X179890Y296083D01*
X179743Y296458D01*
Y298250D01*
G01X177850D02*
Y295750D01*
G01X178693Y298250D02*
X177007D01*
G01X175150Y295750D02*
X175443Y295792D01*
X175700Y295958D01*
X175920Y296208D01*
X176067Y296500D01*
X176140Y296833D01*
Y297167D01*
X176067Y297500D01*
X175920Y297792D01*
X175700Y298042D01*
X175443Y298208D01*
X175150Y298250D01*
X174857Y298208D01*
X174600Y298042D01*
X174380Y297792D01*
X174233Y297500D01*
X174160Y297167D01*
Y296833D01*
X174233Y296500D01*
X174380Y296208D01*
X174600Y295958D01*
X174857Y295792D01*
X175150Y295750D01*
G01X173257Y298250D02*
Y296458D01*
X173110Y296083D01*
X172817Y295833D01*
X172450Y295750D01*
X172083Y295833D01*
X171790Y296083D01*
X171643Y296458D01*
Y298250D01*
G01X169750D02*
Y295750D01*
G01X170593Y298250D02*
X168907D01*
G01X164500Y358000D02*
X172000D01*
X173500Y356500D01*
Y334000D01*
X172000Y332500D01*
X164500D01*
X162000Y335000D01*
Y355500D01*
X164500Y358000D01*
G01X176433Y316250D02*
Y318750D01*
X175517D01*
X175223Y318625D01*
X175040Y318458D01*
X174967Y318125D01*
X175040Y317792D01*
X175260Y317583D01*
X175517Y317458D01*
X176433D01*
G01X175517D02*
X174967Y316250D01*
G01X173807Y316625D02*
X173587Y316417D01*
X173330Y316292D01*
X173000Y316250D01*
X172670Y316333D01*
X172413Y316500D01*
X172230Y316792D01*
X172193Y317125D01*
X172267Y317458D01*
X172450Y317667D01*
X172707Y317833D01*
X172963Y317875D01*
X173220Y317833D01*
X173550Y317667D01*
X173440Y318750D01*
X172450D01*
G01X170373Y316250D02*
X170300Y316792D01*
X170190Y317250D01*
X170043Y317667D01*
X169860Y318125D01*
X169567Y318750D01*
X171033D01*
G01X157933Y341750D02*
Y344250D01*
X157017D01*
X156723Y344125D01*
X156540Y343958D01*
X156467Y343625D01*
X156540Y343292D01*
X156760Y343083D01*
X157017Y342958D01*
X157933D01*
G01X157017D02*
X156467Y341750D01*
G01X155307Y342125D02*
X155087Y341917D01*
X154830Y341792D01*
X154500Y341750D01*
X154170Y341833D01*
X153913Y342000D01*
X153730Y342292D01*
X153693Y342625D01*
X153767Y342958D01*
X153950Y343167D01*
X154207Y343333D01*
X154463Y343375D01*
X154720Y343333D01*
X155050Y343167D01*
X154940Y344250D01*
X153950D01*
G01X152607Y342125D02*
X152387Y341917D01*
X152130Y341792D01*
X151800Y341750D01*
X151470Y341833D01*
X151213Y342000D01*
X151030Y342292D01*
X150993Y342625D01*
X151067Y342958D01*
X151250Y343167D01*
X151507Y343333D01*
X151763Y343375D01*
X152020Y343333D01*
X152350Y343167D01*
X152240Y344250D01*
X151250D01*
G01X157933Y337750D02*
Y340250D01*
X157017D01*
X156723Y340125D01*
X156540Y339958D01*
X156467Y339625D01*
X156540Y339292D01*
X156760Y339083D01*
X157017Y338958D01*
X157933D01*
G01X157017D02*
X156467Y337750D01*
G01X155307Y338125D02*
X155087Y337917D01*
X154830Y337792D01*
X154500Y337750D01*
X154170Y337833D01*
X153913Y338000D01*
X153730Y338292D01*
X153693Y338625D01*
X153767Y338958D01*
X153950Y339167D01*
X154207Y339333D01*
X154463Y339375D01*
X154720Y339333D01*
X155050Y339167D01*
X154940Y340250D01*
X153950D01*
G01X151360Y337750D02*
Y340250D01*
X152717Y338458D01*
X150883D01*
G01X166933Y315250D02*
Y317750D01*
X166017D01*
X165723Y317625D01*
X165540Y317458D01*
X165467Y317125D01*
X165540Y316792D01*
X165760Y316583D01*
X166017Y316458D01*
X166933D01*
G01X166017D02*
X165467Y315250D01*
G01X164307Y315625D02*
X164087Y315417D01*
X163830Y315292D01*
X163500Y315250D01*
X163170Y315333D01*
X162913Y315500D01*
X162730Y315792D01*
X162693Y316125D01*
X162767Y316458D01*
X162950Y316667D01*
X163207Y316833D01*
X163463Y316875D01*
X163720Y316833D01*
X164050Y316667D01*
X163940Y317750D01*
X162950D01*
G01X161607Y315750D02*
X161387Y315458D01*
X161093Y315292D01*
X160763Y315250D01*
X160470Y315292D01*
X160177Y315500D01*
X159993Y315750D01*
X159957Y316000D01*
X160030Y316292D01*
X160287Y316500D01*
X160543Y316583D01*
X160873D01*
G01X160543D02*
X160323Y316708D01*
X160140Y316917D01*
X160067Y317167D01*
X160140Y317417D01*
X160323Y317625D01*
X160653Y317750D01*
X160983Y317708D01*
X161313Y317542D01*
G01X176383Y320566D02*
Y323066D01*
X175467D01*
X175173Y322942D01*
X174990Y322775D01*
X174917Y322442D01*
X174990Y322108D01*
X175210Y321900D01*
X175467Y321775D01*
X176383D01*
G01X175467D02*
X174917Y320566D01*
G01X172950D02*
X172693Y320608D01*
X172400Y320733D01*
X172217Y320941D01*
X172143Y321233D01*
X172217Y321525D01*
X172437Y321775D01*
X172767Y321900D01*
X173133D01*
X173353Y321983D01*
X173537Y322192D01*
X173610Y322483D01*
X173500Y322775D01*
X173243Y322983D01*
X172950Y323066D01*
X172657Y322983D01*
X172400Y322775D01*
X172290Y322483D01*
X172363Y322192D01*
X172547Y321983D01*
X172767Y321900D01*
X173133D01*
X173463Y321775D01*
X173683Y321525D01*
X173757Y321233D01*
X173683Y320941D01*
X173500Y320733D01*
X173207Y320608D01*
X172950Y320566D01*
G01X171057Y320941D02*
X170837Y320733D01*
X170580Y320608D01*
X170250Y320566D01*
X169920Y320650D01*
X169663Y320816D01*
X169480Y321108D01*
X169443Y321442D01*
X169517Y321775D01*
X169700Y321983D01*
X169957Y322150D01*
X170213Y322192D01*
X170470Y322150D01*
X170800Y321983D01*
X170690Y323066D01*
X169700D01*
G01X165393Y322041D02*
X165613Y322166D01*
X165870Y322250D01*
X166163D01*
X166493Y322125D01*
X166750Y321916D01*
X166933Y321666D01*
X167080Y321250D01*
X167117Y320875D01*
X167043Y320500D01*
X166933Y320250D01*
X166713Y320000D01*
X166457Y319833D01*
X166200Y319750D01*
X165943D01*
X165687Y319833D01*
X165467Y319958D01*
X165283Y320125D01*
G01X164197Y320791D02*
X163940Y321083D01*
X163720Y321250D01*
X163427Y321333D01*
X163170Y321250D01*
X162987Y321083D01*
X162840Y320833D01*
X162803Y320542D01*
X162840Y320291D01*
X162987Y320041D01*
X163207Y319833D01*
X163463Y319750D01*
X163757Y319833D01*
X164013Y320083D01*
X164160Y320458D01*
X164197Y320875D01*
X164123Y321416D01*
X164013Y321708D01*
X163830Y322000D01*
X163573Y322208D01*
X163317Y322250D01*
X163060Y322166D01*
X162877Y321958D01*
G01X160800Y319750D02*
X160543Y319792D01*
X160250Y319916D01*
X160067Y320125D01*
X159993Y320416D01*
X160067Y320708D01*
X160287Y320958D01*
X160617Y321083D01*
X160983D01*
X161203Y321166D01*
X161387Y321375D01*
X161460Y321666D01*
X161350Y321958D01*
X161093Y322166D01*
X160800Y322250D01*
X160507Y322166D01*
X160250Y321958D01*
X160140Y321666D01*
X160213Y321375D01*
X160397Y321166D01*
X160617Y321083D01*
X160983D01*
X161313Y320958D01*
X161533Y320708D01*
X161607Y320416D01*
X161533Y320125D01*
X161350Y319916D01*
X161057Y319792D01*
X160800Y319750D01*
G01X165850Y366250D02*
Y363750D01*
G01X166693Y366250D02*
X165007D01*
G01X163957Y364250D02*
X163737Y363958D01*
X163443Y363792D01*
X163113Y363750D01*
X162820Y363792D01*
X162527Y364000D01*
X162343Y364250D01*
X162307Y364500D01*
X162380Y364792D01*
X162637Y365000D01*
X162893Y365083D01*
X163223D01*
G01X162893D02*
X162673Y365208D01*
X162490Y365417D01*
X162417Y365667D01*
X162490Y365917D01*
X162673Y366125D01*
X163003Y366250D01*
X163333Y366208D01*
X163663Y366042D01*
G01X184250Y379717D02*
X181750D01*
Y381183D01*
G01X183083Y383443D02*
X183208Y383590D01*
X183417Y383700D01*
X183708Y383773D01*
X183958Y383700D01*
X184125Y383553D01*
X184250Y383297D01*
Y382307D01*
X181750D01*
Y383517D01*
X181917Y383773D01*
X182167Y383920D01*
X182458Y383993D01*
X182750Y383920D01*
X183000Y383700D01*
X183083Y383443D01*
Y382307D01*
G01X181750Y385850D02*
X184250D01*
X183750Y385410D01*
G01X181750D02*
Y386290D01*
G01Y388550D02*
X184250D01*
X183750Y388110D01*
G01X181750D02*
Y388990D01*
G01X172783Y384750D02*
Y382250D01*
X171317D01*
G01X169057Y383583D02*
X168910Y383708D01*
X168800Y383917D01*
X168727Y384208D01*
X168800Y384458D01*
X168947Y384625D01*
X169203Y384750D01*
X170193D01*
Y382250D01*
X168983D01*
X168727Y382417D01*
X168580Y382667D01*
X168507Y382958D01*
X168580Y383250D01*
X168800Y383500D01*
X169057Y383583D01*
X170193D01*
G01X166650Y382250D02*
Y384750D01*
X167090Y384250D01*
G01Y382250D02*
X166210D01*
G01X163510D02*
Y384750D01*
X164867Y382958D01*
X163033D01*
G01X179542Y378757D02*
X179667Y378537D01*
X179750Y378280D01*
Y377987D01*
X179625Y377657D01*
X179417Y377400D01*
X179167Y377217D01*
X178750Y377070D01*
X178375Y377033D01*
X178000Y377107D01*
X177750Y377217D01*
X177500Y377437D01*
X177333Y377693D01*
X177250Y377950D01*
Y378207D01*
X177333Y378463D01*
X177458Y378683D01*
X177625Y378867D01*
G01X177250Y380650D02*
X179750D01*
X179250Y380210D01*
G01X177250D02*
Y381090D01*
G01X179333Y382653D02*
X179583Y382873D01*
X179708Y383130D01*
X179750Y383423D01*
X179667Y383790D01*
X179458Y384047D01*
X179208Y384120D01*
X178958Y384083D01*
X178750Y383937D01*
X178333Y383203D01*
X178042Y382873D01*
X177625Y382653D01*
X177250Y382580D01*
Y384120D01*
G01X177542Y385427D02*
X177333Y385683D01*
X177250Y385977D01*
X177333Y386270D01*
X177583Y386527D01*
X177958Y386710D01*
X178333Y386783D01*
X178792D01*
X179167Y386710D01*
X179500Y386527D01*
X179667Y386307D01*
X179750Y386050D01*
X179667Y385757D01*
X179500Y385537D01*
X179250Y385390D01*
X178917Y385317D01*
X178625Y385390D01*
X178333Y385573D01*
X178167Y385793D01*
X178125Y386050D01*
X178208Y386343D01*
X178417Y386563D01*
X178792Y386783D01*
G01X161542Y360107D02*
X161667Y359887D01*
X161750Y359630D01*
Y359337D01*
X161625Y359007D01*
X161417Y358750D01*
X161167Y358567D01*
X160750Y358420D01*
X160375Y358383D01*
X160000Y358457D01*
X159750Y358567D01*
X159500Y358787D01*
X159333Y359043D01*
X159250Y359300D01*
Y359557D01*
X159333Y359813D01*
X159458Y360033D01*
X159625Y360217D01*
G01X159750Y361193D02*
X159458Y361413D01*
X159292Y361707D01*
X159250Y362037D01*
X159292Y362330D01*
X159500Y362623D01*
X159750Y362807D01*
X160000Y362843D01*
X160292Y362770D01*
X160500Y362513D01*
X160583Y362257D01*
Y361927D01*
G01Y362257D02*
X160708Y362477D01*
X160917Y362660D01*
X161167Y362733D01*
X161417Y362660D01*
X161625Y362477D01*
X161750Y362147D01*
X161708Y361817D01*
X161542Y361487D01*
G01X159250Y365140D02*
X161750D01*
X159958Y363783D01*
Y365617D01*
G01X155400Y364600D02*
X153400D01*
G01Y365400D02*
X155400D01*
G01X161042Y385107D02*
X161167Y384887D01*
X161250Y384630D01*
Y384337D01*
X161125Y384007D01*
X160917Y383750D01*
X160667Y383567D01*
X160250Y383420D01*
X159875Y383383D01*
X159500Y383457D01*
X159250Y383567D01*
X159000Y383787D01*
X158833Y384043D01*
X158750Y384300D01*
Y384557D01*
X158833Y384813D01*
X158958Y385033D01*
X159125Y385217D01*
G01X159250Y386193D02*
X158958Y386413D01*
X158792Y386707D01*
X158750Y387037D01*
X158792Y387330D01*
X159000Y387623D01*
X159250Y387807D01*
X159500Y387843D01*
X159792Y387770D01*
X160000Y387513D01*
X160083Y387257D01*
Y386927D01*
G01Y387257D02*
X160208Y387477D01*
X160417Y387660D01*
X160667Y387733D01*
X160917Y387660D01*
X161125Y387477D01*
X161250Y387147D01*
X161208Y386817D01*
X161042Y386487D01*
G01X159125Y388893D02*
X158917Y389113D01*
X158792Y389370D01*
X158750Y389700D01*
X158833Y390030D01*
X159000Y390287D01*
X159292Y390470D01*
X159625Y390507D01*
X159958Y390433D01*
X160167Y390250D01*
X160333Y389993D01*
X160375Y389737D01*
X160333Y389480D01*
X160167Y389150D01*
X161250Y389260D01*
Y390250D01*
G01X153600Y379400D02*
X155600D01*
G01Y378600D02*
X153600D01*
G01X216107Y308550D02*
X215887Y308258D01*
X215593Y308092D01*
X215263Y308050D01*
X214970Y308092D01*
X214677Y308300D01*
X214493Y308550D01*
X214457Y308800D01*
X214530Y309092D01*
X214787Y309300D01*
X215043Y309383D01*
X215373D01*
G01X215043D02*
X214823Y309508D01*
X214640Y309717D01*
X214567Y309967D01*
X214640Y310217D01*
X214823Y310425D01*
X215153Y310550D01*
X215483Y310508D01*
X215813Y310342D01*
G01X210433Y305750D02*
Y308250D01*
X209517D01*
X209223Y308125D01*
X209040Y307958D01*
X208967Y307625D01*
X209040Y307292D01*
X209260Y307083D01*
X209517Y306958D01*
X210433D01*
G01X209517D02*
X208967Y305750D01*
G01X207697Y306792D02*
X207440Y307083D01*
X207220Y307250D01*
X206927Y307333D01*
X206670Y307250D01*
X206487Y307083D01*
X206340Y306833D01*
X206303Y306542D01*
X206340Y306292D01*
X206487Y306042D01*
X206707Y305833D01*
X206963Y305750D01*
X207257Y305833D01*
X207513Y306083D01*
X207660Y306458D01*
X207697Y306875D01*
X207623Y307417D01*
X207513Y307708D01*
X207330Y308000D01*
X207073Y308208D01*
X206817Y308250D01*
X206560Y308167D01*
X206377Y307958D01*
G01X204300Y305750D02*
X204043Y305792D01*
X203750Y305917D01*
X203567Y306125D01*
X203493Y306417D01*
X203567Y306708D01*
X203787Y306958D01*
X204117Y307083D01*
X204483D01*
X204703Y307167D01*
X204887Y307375D01*
X204960Y307667D01*
X204850Y307958D01*
X204593Y308167D01*
X204300Y308250D01*
X204007Y308167D01*
X203750Y307958D01*
X203640Y307667D01*
X203713Y307375D01*
X203897Y307167D01*
X204117Y307083D01*
X204483D01*
X204813Y306958D01*
X205033Y306708D01*
X205107Y306417D01*
X205033Y306125D01*
X204850Y305917D01*
X204557Y305792D01*
X204300Y305750D01*
G01X210883Y309566D02*
Y312066D01*
X209967D01*
X209673Y311942D01*
X209490Y311775D01*
X209417Y311442D01*
X209490Y311108D01*
X209710Y310900D01*
X209967Y310775D01*
X210883D01*
G01X209967D02*
X209417Y309566D01*
G01X208147Y310608D02*
X207890Y310900D01*
X207670Y311066D01*
X207377Y311150D01*
X207120Y311066D01*
X206937Y310900D01*
X206790Y310650D01*
X206753Y310358D01*
X206790Y310108D01*
X206937Y309858D01*
X207157Y309650D01*
X207413Y309566D01*
X207707Y309650D01*
X207963Y309900D01*
X208110Y310275D01*
X208147Y310692D01*
X208073Y311233D01*
X207963Y311525D01*
X207780Y311816D01*
X207523Y312025D01*
X207267Y312066D01*
X207010Y311983D01*
X206827Y311775D01*
G01X204310Y309566D02*
Y312066D01*
X205667Y310275D01*
X203833D01*
G01X199250Y307067D02*
X201750D01*
Y307983D01*
X201625Y308277D01*
X201458Y308460D01*
X201125Y308533D01*
X200792Y308460D01*
X200583Y308240D01*
X200458Y307983D01*
Y307067D01*
G01Y307983D02*
X199250Y308533D01*
G01X199625Y309693D02*
X199417Y309913D01*
X199292Y310170D01*
X199250Y310500D01*
X199333Y310830D01*
X199500Y311087D01*
X199792Y311270D01*
X200125Y311307D01*
X200458Y311233D01*
X200667Y311050D01*
X200833Y310793D01*
X200875Y310537D01*
X200833Y310280D01*
X200667Y309950D01*
X201750Y310060D01*
Y311050D01*
G01X199250Y313200D02*
X199292Y313457D01*
X199417Y313750D01*
X199625Y313933D01*
X199917Y314007D01*
X200208Y313933D01*
X200458Y313713D01*
X200583Y313383D01*
Y313017D01*
X200667Y312797D01*
X200875Y312613D01*
X201167Y312540D01*
X201458Y312650D01*
X201667Y312907D01*
X201750Y313200D01*
X201667Y313493D01*
X201458Y313750D01*
X201167Y313860D01*
X200875Y313787D01*
X200667Y313603D01*
X200583Y313383D01*
Y313017D01*
X200458Y312687D01*
X200208Y312467D01*
X199917Y312393D01*
X199625Y312467D01*
X199417Y312650D01*
X199292Y312943D01*
X199250Y313200D01*
G01X218060Y323250D02*
Y325750D01*
X219416Y323958D01*
X217583D01*
G01X227433Y349750D02*
Y352250D01*
X226517D01*
X226223Y352125D01*
X226040Y351958D01*
X225967Y351625D01*
X226040Y351292D01*
X226260Y351083D01*
X226517Y350958D01*
X227433D01*
G01X226517D02*
X225967Y349750D01*
G01X224697Y350792D02*
X224440Y351083D01*
X224220Y351250D01*
X223927Y351333D01*
X223670Y351250D01*
X223487Y351083D01*
X223340Y350833D01*
X223303Y350542D01*
X223340Y350292D01*
X223487Y350042D01*
X223707Y349833D01*
X223963Y349750D01*
X224257Y349833D01*
X224513Y350083D01*
X224660Y350458D01*
X224697Y350875D01*
X224623Y351417D01*
X224513Y351708D01*
X224330Y352000D01*
X224073Y352208D01*
X223817Y352250D01*
X223560Y352167D01*
X223377Y351958D01*
G01X221300Y349750D02*
Y352250D01*
X221740Y351750D01*
G01Y349750D02*
X220860D01*
G01X223542Y323757D02*
X223667Y323537D01*
X223750Y323280D01*
Y322987D01*
X223625Y322657D01*
X223417Y322400D01*
X223167Y322217D01*
X222750Y322070D01*
X222375Y322033D01*
X222000Y322107D01*
X221750Y322217D01*
X221500Y322437D01*
X221333Y322693D01*
X221250Y322950D01*
Y323207D01*
X221333Y323463D01*
X221458Y323683D01*
X221625Y323867D01*
G01X221250Y325650D02*
X223750D01*
X223250Y325210D01*
G01X221250D02*
Y326090D01*
G01X221750Y327543D02*
X221458Y327763D01*
X221292Y328057D01*
X221250Y328387D01*
X221292Y328680D01*
X221500Y328973D01*
X221750Y329157D01*
X222000Y329193D01*
X222292Y329120D01*
X222500Y328863D01*
X222583Y328607D01*
Y328277D01*
G01Y328607D02*
X222708Y328827D01*
X222917Y329010D01*
X223167Y329083D01*
X223417Y329010D01*
X223625Y328827D01*
X223750Y328497D01*
X223708Y328167D01*
X223542Y327837D01*
G01X222292Y330353D02*
X222583Y330610D01*
X222750Y330830D01*
X222833Y331123D01*
X222750Y331380D01*
X222583Y331563D01*
X222333Y331710D01*
X222042Y331747D01*
X221792Y331710D01*
X221542Y331563D01*
X221333Y331343D01*
X221250Y331087D01*
X221333Y330793D01*
X221583Y330537D01*
X221958Y330390D01*
X222375Y330353D01*
X222917Y330427D01*
X223208Y330537D01*
X223500Y330720D01*
X223708Y330977D01*
X223750Y331233D01*
X223667Y331490D01*
X223458Y331673D01*
G01X223242Y335257D02*
X223367Y335037D01*
X223450Y334780D01*
Y334487D01*
X223325Y334157D01*
X223117Y333900D01*
X222867Y333717D01*
X222450Y333570D01*
X222075Y333533D01*
X221700Y333607D01*
X221450Y333717D01*
X221200Y333937D01*
X221033Y334193D01*
X220950Y334450D01*
Y334707D01*
X221033Y334963D01*
X221158Y335183D01*
X221325Y335367D01*
G01X220950Y337150D02*
X223450D01*
X222950Y336710D01*
G01X220950D02*
Y337590D01*
G01X221450Y339043D02*
X221158Y339263D01*
X220992Y339557D01*
X220950Y339887D01*
X220992Y340180D01*
X221200Y340473D01*
X221450Y340657D01*
X221700Y340693D01*
X221992Y340620D01*
X222200Y340363D01*
X222283Y340107D01*
Y339777D01*
G01Y340107D02*
X222408Y340327D01*
X222617Y340510D01*
X222867Y340583D01*
X223117Y340510D01*
X223325Y340327D01*
X223450Y339997D01*
X223408Y339667D01*
X223242Y339337D01*
G01X220950Y342990D02*
X223450D01*
X221658Y341633D01*
Y343467D01*
G01X205507Y371750D02*
Y369958D01*
X205360Y369583D01*
X205067Y369333D01*
X204700Y369250D01*
X204333Y369333D01*
X204040Y369583D01*
X203893Y369958D01*
Y371750D01*
G01X202697Y371333D02*
X202477Y371583D01*
X202220Y371708D01*
X201927Y371750D01*
X201560Y371667D01*
X201303Y371458D01*
X201230Y371208D01*
X201267Y370958D01*
X201413Y370750D01*
X202147Y370333D01*
X202477Y370042D01*
X202697Y369625D01*
X202770Y369250D01*
X201230D01*
G01X198860D02*
Y371750D01*
X200217Y369958D01*
X198383D01*
G01X234707Y388000D02*
Y386208D01*
X234560Y385833D01*
X234267Y385583D01*
X233900Y385500D01*
X233533Y385583D01*
X233240Y385833D01*
X233093Y386208D01*
Y388000D01*
G01X231897Y387583D02*
X231677Y387833D01*
X231420Y387958D01*
X231127Y388000D01*
X230760Y387917D01*
X230503Y387708D01*
X230430Y387458D01*
X230467Y387208D01*
X230613Y387000D01*
X231347Y386583D01*
X231677Y386292D01*
X231897Y385875D01*
X231970Y385500D01*
X230430D01*
G01X229307Y385875D02*
X229087Y385667D01*
X228830Y385542D01*
X228500Y385500D01*
X228170Y385583D01*
X227913Y385750D01*
X227730Y386042D01*
X227693Y386375D01*
X227767Y386708D01*
X227950Y386917D01*
X228207Y387083D01*
X228463Y387125D01*
X228720Y387083D01*
X229050Y386917D01*
X228940Y388000D01*
X227950D01*
G01X213933Y384250D02*
Y386750D01*
X213017D01*
X212723Y386625D01*
X212540Y386458D01*
X212467Y386125D01*
X212540Y385792D01*
X212760Y385583D01*
X213017Y385458D01*
X213933D01*
G01X213017D02*
X212467Y384250D01*
G01X211197Y385292D02*
X210940Y385583D01*
X210720Y385750D01*
X210427Y385833D01*
X210170Y385750D01*
X209987Y385583D01*
X209840Y385333D01*
X209803Y385042D01*
X209840Y384792D01*
X209987Y384542D01*
X210207Y384333D01*
X210463Y384250D01*
X210757Y384333D01*
X211013Y384583D01*
X211160Y384958D01*
X211197Y385375D01*
X211123Y385917D01*
X211013Y386208D01*
X210830Y386500D01*
X210573Y386708D01*
X210317Y386750D01*
X210060Y386667D01*
X209877Y386458D01*
G01X207873Y384250D02*
X207800Y384792D01*
X207690Y385250D01*
X207543Y385667D01*
X207360Y386125D01*
X207067Y386750D01*
X208533D01*
G01X214743Y390542D02*
X214963Y390667D01*
X215220Y390750D01*
X215513D01*
X215843Y390625D01*
X216100Y390417D01*
X216283Y390167D01*
X216430Y389750D01*
X216467Y389375D01*
X216393Y389000D01*
X216283Y388750D01*
X216063Y388500D01*
X215807Y388333D01*
X215550Y388250D01*
X215293D01*
X215037Y388333D01*
X214817Y388458D01*
X214633Y388625D01*
G01X212850Y388250D02*
Y390750D01*
X213290Y390250D01*
G01Y388250D02*
X212410D01*
G01X210957Y388750D02*
X210737Y388458D01*
X210443Y388292D01*
X210113Y388250D01*
X209820Y388292D01*
X209527Y388500D01*
X209343Y388750D01*
X209307Y389000D01*
X209380Y389292D01*
X209637Y389500D01*
X209893Y389583D01*
X210223D01*
G01X209893D02*
X209673Y389708D01*
X209490Y389917D01*
X209417Y390167D01*
X209490Y390417D01*
X209673Y390625D01*
X210003Y390750D01*
X210333Y390708D01*
X210663Y390542D01*
G01X208257Y388625D02*
X208037Y388417D01*
X207780Y388292D01*
X207450Y388250D01*
X207120Y388333D01*
X206863Y388500D01*
X206680Y388792D01*
X206643Y389125D01*
X206717Y389458D01*
X206900Y389667D01*
X207157Y389833D01*
X207413Y389875D01*
X207670Y389833D01*
X208000Y389667D01*
X207890Y390750D01*
X206900D01*
G01X254952Y182284D02*
X251952D01*
G01X254952Y174410D02*
X252952D01*
G01X255122Y168193D02*
X253122Y166193D01*
Y170193D01*
X255122Y168193D01*
G01X254952Y229528D02*
X251952D01*
G01X254952Y221654D02*
X252952D01*
G01X254952Y213780D02*
X251952D01*
G01X254952Y205906D02*
X252952D01*
G01X254952Y198032D02*
X251952D01*
G01X254952Y190158D02*
X252952D01*
G01X262122Y206693D02*
X265122D01*
G01X263622Y208193D02*
Y205193D01*
G01X251750Y244800D02*
X254250D01*
X253750Y244360D01*
G01X251750D02*
Y245240D01*
G01X252042Y246877D02*
X251833Y247133D01*
X251750Y247427D01*
X251833Y247720D01*
X252083Y247977D01*
X252458Y248160D01*
X252833Y248233D01*
X253292D01*
X253667Y248160D01*
X254000Y247977D01*
X254167Y247757D01*
X254250Y247500D01*
X254167Y247207D01*
X254000Y246987D01*
X253750Y246840D01*
X253417Y246767D01*
X253125Y246840D01*
X252833Y247023D01*
X252667Y247243D01*
X252625Y247500D01*
X252708Y247793D01*
X252917Y248013D01*
X253292Y248233D01*
G01X252042Y249577D02*
X251833Y249833D01*
X251750Y250127D01*
X251833Y250420D01*
X252083Y250677D01*
X252458Y250860D01*
X252833Y250933D01*
X253292D01*
X253667Y250860D01*
X254000Y250677D01*
X254167Y250457D01*
X254250Y250200D01*
X254167Y249907D01*
X254000Y249687D01*
X253750Y249540D01*
X253417Y249467D01*
X253125Y249540D01*
X252833Y249723D01*
X252667Y249943D01*
X252625Y250200D01*
X252708Y250493D01*
X252917Y250713D01*
X253292Y250933D01*
G01X254952Y237402D02*
X252952D01*
G01X233497Y310133D02*
X233277Y310383D01*
X233020Y310508D01*
X232727Y310550D01*
X232360Y310467D01*
X232103Y310258D01*
X232030Y310008D01*
X232067Y309758D01*
X232213Y309550D01*
X232947Y309133D01*
X233277Y308842D01*
X233497Y308425D01*
X233570Y308050D01*
X232030D01*
G01X238620Y312750D02*
X237080Y315250D01*
G01X238620D02*
X237080Y312750D01*
G01X235847Y314833D02*
X235626Y315083D01*
X235370Y315208D01*
X235076Y315250D01*
X234710Y315167D01*
X234453Y314958D01*
X234380Y314708D01*
X234416Y314458D01*
X234563Y314250D01*
X235297Y313833D01*
X235626Y313542D01*
X235847Y313125D01*
X235920Y312750D01*
X234380D01*
G01X266583Y336750D02*
Y334250D01*
X265117D01*
G01X262710D02*
Y336750D01*
X264067Y334958D01*
X262233D01*
G01X243542Y332107D02*
X243667Y331887D01*
X243750Y331630D01*
Y331337D01*
X243625Y331007D01*
X243417Y330750D01*
X243167Y330567D01*
X242750Y330420D01*
X242375Y330383D01*
X242000Y330457D01*
X241750Y330567D01*
X241500Y330787D01*
X241333Y331043D01*
X241250Y331300D01*
Y331557D01*
X241333Y331813D01*
X241458Y332033D01*
X241625Y332217D01*
G01X241250Y334440D02*
X243750D01*
X241958Y333083D01*
Y334917D01*
G01X242292Y336003D02*
X242583Y336260D01*
X242750Y336480D01*
X242833Y336773D01*
X242750Y337030D01*
X242583Y337213D01*
X242333Y337360D01*
X242042Y337397D01*
X241792Y337360D01*
X241542Y337213D01*
X241333Y336993D01*
X241250Y336737D01*
X241333Y336443D01*
X241583Y336187D01*
X241958Y336040D01*
X242375Y336003D01*
X242917Y336077D01*
X243208Y336187D01*
X243500Y336370D01*
X243708Y336627D01*
X243750Y336883D01*
X243667Y337140D01*
X243458Y337323D01*
G01X233411Y345710D02*
X233286Y345930D01*
X233203Y346187D01*
Y346480D01*
X233328Y346810D01*
X233536Y347067D01*
X233786Y347250D01*
X234203Y347397D01*
X234578Y347434D01*
X234953Y347360D01*
X235203Y347250D01*
X235453Y347030D01*
X235620Y346774D01*
X235703Y346517D01*
Y346260D01*
X235620Y346004D01*
X235495Y345784D01*
X235328Y345600D01*
G01X235703Y343377D02*
X233203D01*
X234995Y344734D01*
Y342900D01*
G01X235203Y341924D02*
X235495Y341704D01*
X235661Y341410D01*
X235703Y341080D01*
X235661Y340787D01*
X235453Y340494D01*
X235203Y340310D01*
X234953Y340274D01*
X234662Y340347D01*
X234453Y340604D01*
X234370Y340860D01*
Y341190D01*
G01Y340860D02*
X234245Y340640D01*
X234036Y340457D01*
X233786Y340384D01*
X233536Y340457D01*
X233328Y340640D01*
X233203Y340970D01*
X233245Y341300D01*
X233411Y341630D01*
G01X240400Y342100D02*
X238400D01*
G01Y342900D02*
X240400D01*
G01X242412Y340710D02*
X242286Y340930D01*
X242203Y341187D01*
Y341480D01*
X242328Y341810D01*
X242536Y342067D01*
X242786Y342250D01*
X243203Y342397D01*
X243578Y342434D01*
X243953Y342360D01*
X244203Y342250D01*
X244453Y342030D01*
X244620Y341774D01*
X244703Y341517D01*
Y341260D01*
X244620Y341004D01*
X244495Y340784D01*
X244328Y340600D01*
G01X244703Y338377D02*
X242203D01*
X243995Y339734D01*
Y337900D01*
G01X244703Y335677D02*
X242203D01*
X243995Y337034D01*
Y335200D01*
G01X249400Y337100D02*
X247400D01*
G01Y337900D02*
X249400D01*
G01X256042Y329107D02*
X256167Y328887D01*
X256250Y328630D01*
Y328337D01*
X256125Y328007D01*
X255917Y327750D01*
X255667Y327567D01*
X255250Y327420D01*
X254875Y327383D01*
X254500Y327457D01*
X254250Y327567D01*
X254000Y327787D01*
X253833Y328043D01*
X253750Y328300D01*
Y328557D01*
X253833Y328813D01*
X253958Y329033D01*
X254125Y329217D01*
G01X253750Y331440D02*
X256250D01*
X254458Y330083D01*
Y331917D01*
G01X253750Y333627D02*
X254292Y333700D01*
X254750Y333810D01*
X255167Y333957D01*
X255625Y334140D01*
X256250Y334433D01*
Y332967D01*
G01X264750Y363843D02*
X262958D01*
X262583Y363990D01*
X262333Y364283D01*
X262250Y364650D01*
X262333Y365017D01*
X262583Y365310D01*
X262958Y365457D01*
X264750D01*
G01X263292Y366653D02*
X263583Y366910D01*
X263750Y367130D01*
X263833Y367423D01*
X263750Y367680D01*
X263583Y367863D01*
X263333Y368010D01*
X263042Y368047D01*
X262792Y368010D01*
X262542Y367863D01*
X262333Y367643D01*
X262250Y367387D01*
X262333Y367093D01*
X262583Y366837D01*
X262958Y366690D01*
X263375Y366653D01*
X263917Y366727D01*
X264208Y366837D01*
X264500Y367020D01*
X264708Y367277D01*
X264750Y367533D01*
X264667Y367790D01*
X264458Y367973D01*
G01X259350Y363250D02*
Y360750D01*
G01X260193Y363250D02*
X258507D01*
G01X256210Y360750D02*
Y363250D01*
X257567Y361458D01*
X255733D01*
G01X253933Y374250D02*
Y376750D01*
X253017D01*
X252723Y376625D01*
X252540Y376458D01*
X252467Y376125D01*
X252540Y375792D01*
X252760Y375583D01*
X253017Y375458D01*
X253933D01*
G01X253017D02*
X252467Y374250D01*
G01X251197Y375292D02*
X250940Y375583D01*
X250720Y375750D01*
X250427Y375833D01*
X250170Y375750D01*
X249987Y375583D01*
X249840Y375333D01*
X249803Y375042D01*
X249840Y374792D01*
X249987Y374542D01*
X250207Y374333D01*
X250463Y374250D01*
X250757Y374333D01*
X251013Y374583D01*
X251160Y374958D01*
X251197Y375375D01*
X251123Y375917D01*
X251013Y376208D01*
X250830Y376500D01*
X250573Y376708D01*
X250317Y376750D01*
X250060Y376667D01*
X249877Y376458D01*
G01X248497Y375292D02*
X248240Y375583D01*
X248020Y375750D01*
X247727Y375833D01*
X247470Y375750D01*
X247287Y375583D01*
X247140Y375333D01*
X247103Y375042D01*
X247140Y374792D01*
X247287Y374542D01*
X247507Y374333D01*
X247763Y374250D01*
X248057Y374333D01*
X248313Y374583D01*
X248460Y374958D01*
X248497Y375375D01*
X248423Y375917D01*
X248313Y376208D01*
X248130Y376500D01*
X247873Y376708D01*
X247617Y376750D01*
X247360Y376667D01*
X247177Y376458D01*
G01X254433Y383250D02*
Y385750D01*
X253517D01*
X253223Y385625D01*
X253040Y385458D01*
X252967Y385125D01*
X253040Y384792D01*
X253260Y384583D01*
X253517Y384458D01*
X254433D01*
G01X253517D02*
X252967Y383250D01*
G01X251697Y384292D02*
X251440Y384583D01*
X251220Y384750D01*
X250927Y384833D01*
X250670Y384750D01*
X250487Y384583D01*
X250340Y384333D01*
X250303Y384042D01*
X250340Y383792D01*
X250487Y383542D01*
X250707Y383333D01*
X250963Y383250D01*
X251257Y383333D01*
X251513Y383583D01*
X251660Y383958D01*
X251697Y384375D01*
X251623Y384917D01*
X251513Y385208D01*
X251330Y385500D01*
X251073Y385708D01*
X250817Y385750D01*
X250560Y385667D01*
X250377Y385458D01*
G01X249107Y383625D02*
X248887Y383417D01*
X248630Y383292D01*
X248300Y383250D01*
X247970Y383333D01*
X247713Y383500D01*
X247530Y383792D01*
X247493Y384125D01*
X247567Y384458D01*
X247750Y384667D01*
X248007Y384833D01*
X248263Y384875D01*
X248520Y384833D01*
X248850Y384667D01*
X248740Y385750D01*
X247750D01*
G01X267566Y383617D02*
X270066D01*
Y384533D01*
X269942Y384827D01*
X269775Y385010D01*
X269442Y385083D01*
X269108Y385010D01*
X268900Y384790D01*
X268775Y384533D01*
Y383617D01*
G01Y384533D02*
X267566Y385083D01*
G01X269650Y386353D02*
X269900Y386573D01*
X270025Y386830D01*
X270066Y387123D01*
X269983Y387490D01*
X269775Y387747D01*
X269525Y387820D01*
X269275Y387783D01*
X269066Y387637D01*
X268650Y386903D01*
X268358Y386573D01*
X267941Y386353D01*
X267566Y386280D01*
Y387820D01*
G01Y389750D02*
X270066D01*
X269566Y389310D01*
G01X267566D02*
Y390190D01*
G01X263566Y383617D02*
X266066D01*
Y384533D01*
X265942Y384827D01*
X265775Y385010D01*
X265442Y385083D01*
X265108Y385010D01*
X264900Y384790D01*
X264775Y384533D01*
Y383617D01*
G01Y384533D02*
X263566Y385083D01*
G01Y387050D02*
X266066D01*
X265566Y386610D01*
G01X263566D02*
Y387490D01*
G01X263858Y389127D02*
X263650Y389383D01*
X263566Y389677D01*
X263650Y389970D01*
X263900Y390227D01*
X264275Y390410D01*
X264650Y390483D01*
X265108D01*
X265483Y390410D01*
X265816Y390227D01*
X265983Y390007D01*
X266066Y389750D01*
X265983Y389457D01*
X265816Y389237D01*
X265566Y389090D01*
X265233Y389017D01*
X264942Y389090D01*
X264650Y389273D01*
X264483Y389493D01*
X264442Y389750D01*
X264525Y390043D01*
X264733Y390263D01*
X265108Y390483D01*
G01X238600Y355900D02*
X240600D01*
G01Y355100D02*
X238600D01*
G01X290157Y115000D02*
G03I-2657J0D01*
G01X272358Y167573D02*
X274858D01*
X274358Y167133D01*
G01X272358D02*
Y168013D01*
G01X274858Y170273D02*
X274775Y169979D01*
X274567Y169760D01*
X274317Y169613D01*
X273983Y169503D01*
X273608Y169466D01*
X273233Y169503D01*
X272900Y169613D01*
X272650Y169760D01*
X272442Y169979D01*
X272358Y170273D01*
X272442Y170566D01*
X272650Y170786D01*
X272900Y170933D01*
X273233Y171043D01*
X273608Y171080D01*
X273983Y171043D01*
X274317Y170933D01*
X274567Y170786D01*
X274775Y170566D01*
X274858Y170273D01*
G01X274442Y172276D02*
X274692Y172496D01*
X274817Y172753D01*
X274858Y173046D01*
X274775Y173413D01*
X274567Y173670D01*
X274317Y173743D01*
X274067Y173706D01*
X273858Y173559D01*
X273442Y172826D01*
X273150Y172496D01*
X272733Y172276D01*
X272358Y172203D01*
Y173743D01*
G01X272185Y182284D02*
X275185D01*
G01X272185Y174410D02*
X274185D01*
G01X280325Y203057D02*
X280450Y202837D01*
X280534Y202580D01*
Y202287D01*
X280408Y201957D01*
X280200Y201700D01*
X279950Y201517D01*
X279534Y201370D01*
X279158Y201334D01*
X278784Y201407D01*
X278534Y201517D01*
X278283Y201737D01*
X278117Y201994D01*
X278034Y202250D01*
Y202507D01*
X278117Y202764D01*
X278242Y202984D01*
X278408Y203167D01*
G01X278034Y204950D02*
X278075Y204657D01*
X278242Y204400D01*
X278492Y204180D01*
X278784Y204034D01*
X279117Y203960D01*
X279450D01*
X279784Y204034D01*
X280075Y204180D01*
X280325Y204400D01*
X280492Y204657D01*
X280534Y204950D01*
X280492Y205244D01*
X280325Y205500D01*
X280075Y205720D01*
X279784Y205867D01*
X279450Y205940D01*
X279117D01*
X278784Y205867D01*
X278492Y205720D01*
X278242Y205500D01*
X278075Y205244D01*
X278034Y204950D01*
G01Y206807D02*
X280534D01*
X278034Y208494D01*
X280534D01*
G01X279367Y210644D02*
X279492Y210790D01*
X279700Y210900D01*
X279992Y210974D01*
X280242Y210900D01*
X280408Y210754D01*
X280534Y210497D01*
Y209507D01*
X278034D01*
Y210717D01*
X278200Y210974D01*
X278450Y211120D01*
X278742Y211194D01*
X279033Y211120D01*
X279284Y210900D01*
X279367Y210644D01*
Y209507D01*
G01X272185Y229528D02*
X275185D01*
G01X272185Y221654D02*
X274185D01*
G01X272185Y213780D02*
X275185D01*
G01X272185Y205906D02*
X274185D01*
G01X272185Y198032D02*
X275185D01*
G01X272185Y190158D02*
X274185D01*
G01X274442Y244376D02*
X274692Y244596D01*
X274817Y244853D01*
X274858Y245146D01*
X274775Y245513D01*
X274567Y245770D01*
X274317Y245843D01*
X274067Y245806D01*
X273858Y245659D01*
X273442Y244926D01*
X273150Y244596D01*
X272733Y244376D01*
X272358Y244303D01*
Y245843D01*
G01X274858Y247773D02*
X274775Y247479D01*
X274567Y247259D01*
X274317Y247113D01*
X273983Y247003D01*
X273608Y246966D01*
X273233Y247003D01*
X272900Y247113D01*
X272650Y247259D01*
X272442Y247479D01*
X272358Y247773D01*
X272442Y248066D01*
X272650Y248286D01*
X272900Y248433D01*
X273233Y248543D01*
X273608Y248580D01*
X273983Y248543D01*
X274317Y248433D01*
X274567Y248286D01*
X274775Y248066D01*
X274858Y247773D01*
G01Y250473D02*
X274775Y250179D01*
X274567Y249959D01*
X274317Y249813D01*
X273983Y249703D01*
X273608Y249666D01*
X273233Y249703D01*
X272900Y249813D01*
X272650Y249959D01*
X272442Y250179D01*
X272358Y250473D01*
X272442Y250766D01*
X272650Y250986D01*
X272900Y251133D01*
X273233Y251243D01*
X273608Y251280D01*
X273983Y251243D01*
X274317Y251133D01*
X274567Y250986D01*
X274775Y250766D01*
X274858Y250473D01*
G01X272185Y237402D02*
X274185D01*
G01X291850Y338250D02*
Y335750D01*
G01X292693Y338250D02*
X291007D01*
G01X289957Y336125D02*
X289737Y335917D01*
X289480Y335792D01*
X289150Y335750D01*
X288820Y335833D01*
X288563Y336000D01*
X288380Y336292D01*
X288343Y336625D01*
X288417Y336958D01*
X288600Y337167D01*
X288857Y337333D01*
X289113Y337375D01*
X289370Y337333D01*
X289700Y337167D01*
X289590Y338250D01*
X288600D01*
G01X283393Y326542D02*
X283613Y326667D01*
X283870Y326750D01*
X284163D01*
X284493Y326625D01*
X284750Y326417D01*
X284933Y326167D01*
X285080Y325750D01*
X285117Y325375D01*
X285043Y325000D01*
X284933Y324750D01*
X284713Y324500D01*
X284457Y324333D01*
X284200Y324250D01*
X283943D01*
X283687Y324333D01*
X283467Y324458D01*
X283283Y324625D01*
G01X281060Y324250D02*
Y326750D01*
X282417Y324958D01*
X280583D01*
G01X278800Y324250D02*
Y326750D01*
X279240Y326250D01*
G01Y324250D02*
X278360D01*
G01X283393Y331542D02*
X283613Y331667D01*
X283870Y331750D01*
X284163D01*
X284493Y331625D01*
X284750Y331417D01*
X284933Y331167D01*
X285080Y330750D01*
X285117Y330375D01*
X285043Y330000D01*
X284933Y329750D01*
X284713Y329500D01*
X284457Y329333D01*
X284200Y329250D01*
X283943D01*
X283687Y329333D01*
X283467Y329458D01*
X283283Y329625D01*
G01X281060Y329250D02*
Y331750D01*
X282417Y329958D01*
X280583D01*
G01X278800Y331750D02*
X279093Y331667D01*
X279313Y331458D01*
X279460Y331208D01*
X279570Y330875D01*
X279607Y330500D01*
X279570Y330125D01*
X279460Y329792D01*
X279313Y329542D01*
X279093Y329333D01*
X278800Y329250D01*
X278507Y329333D01*
X278287Y329542D01*
X278140Y329792D01*
X278030Y330125D01*
X277993Y330500D01*
X278030Y330875D01*
X278140Y331208D01*
X278287Y331458D01*
X278507Y331667D01*
X278800Y331750D01*
G01X283343Y336358D02*
X283563Y336483D01*
X283820Y336566D01*
X284113D01*
X284443Y336441D01*
X284700Y336233D01*
X284883Y335983D01*
X285030Y335566D01*
X285067Y335191D01*
X284993Y334816D01*
X284883Y334566D01*
X284663Y334316D01*
X284407Y334150D01*
X284150Y334066D01*
X283893D01*
X283637Y334150D01*
X283417Y334275D01*
X283233Y334441D01*
G01X281010Y334066D02*
Y336566D01*
X282367Y334775D01*
X280533D01*
G01X279447Y336150D02*
X279227Y336400D01*
X278970Y336525D01*
X278677Y336566D01*
X278310Y336483D01*
X278053Y336275D01*
X277980Y336025D01*
X278017Y335775D01*
X278163Y335566D01*
X278897Y335150D01*
X279227Y334858D01*
X279447Y334441D01*
X279520Y334066D01*
X277980D01*
G01X310542Y338107D02*
X310667Y337887D01*
X310750Y337630D01*
Y337337D01*
X310625Y337007D01*
X310417Y336750D01*
X310167Y336567D01*
X309750Y336420D01*
X309375Y336383D01*
X309000Y336457D01*
X308750Y336567D01*
X308500Y336787D01*
X308333Y337043D01*
X308250Y337300D01*
Y337557D01*
X308333Y337813D01*
X308458Y338033D01*
X308625Y338217D01*
G01Y339193D02*
X308417Y339413D01*
X308292Y339670D01*
X308250Y340000D01*
X308333Y340330D01*
X308500Y340587D01*
X308792Y340770D01*
X309125Y340807D01*
X309458Y340733D01*
X309667Y340550D01*
X309833Y340293D01*
X309875Y340037D01*
X309833Y339780D01*
X309667Y339450D01*
X310750Y339560D01*
Y340550D01*
G01X308625Y341893D02*
X308417Y342113D01*
X308292Y342370D01*
X308250Y342700D01*
X308333Y343030D01*
X308500Y343287D01*
X308792Y343470D01*
X309125Y343507D01*
X309458Y343433D01*
X309667Y343250D01*
X309833Y342993D01*
X309875Y342737D01*
X309833Y342480D01*
X309667Y342150D01*
X310750Y342260D01*
Y343250D01*
G01X298042Y338607D02*
X298167Y338387D01*
X298250Y338130D01*
Y337837D01*
X298125Y337507D01*
X297917Y337250D01*
X297667Y337067D01*
X297250Y336920D01*
X296875Y336883D01*
X296500Y336957D01*
X296250Y337067D01*
X296000Y337287D01*
X295833Y337543D01*
X295750Y337800D01*
Y338057D01*
X295833Y338313D01*
X295958Y338533D01*
X296125Y338717D01*
G01Y339693D02*
X295917Y339913D01*
X295792Y340170D01*
X295750Y340500D01*
X295833Y340830D01*
X296000Y341087D01*
X296292Y341270D01*
X296625Y341307D01*
X296958Y341233D01*
X297167Y341050D01*
X297333Y340793D01*
X297375Y340537D01*
X297333Y340280D01*
X297167Y339950D01*
X298250Y340060D01*
Y341050D01*
G01X297833Y342503D02*
X298083Y342723D01*
X298208Y342980D01*
X298250Y343273D01*
X298167Y343640D01*
X297958Y343897D01*
X297708Y343970D01*
X297458Y343933D01*
X297250Y343787D01*
X296833Y343053D01*
X296542Y342723D01*
X296125Y342503D01*
X295750Y342430D01*
Y343970D01*
G01X303542Y338107D02*
X303667Y337887D01*
X303750Y337630D01*
Y337337D01*
X303625Y337007D01*
X303417Y336750D01*
X303167Y336567D01*
X302750Y336420D01*
X302375Y336383D01*
X302000Y336457D01*
X301750Y336567D01*
X301500Y336787D01*
X301333Y337043D01*
X301250Y337300D01*
Y337557D01*
X301333Y337813D01*
X301458Y338033D01*
X301625Y338217D01*
G01Y339193D02*
X301417Y339413D01*
X301292Y339670D01*
X301250Y340000D01*
X301333Y340330D01*
X301500Y340587D01*
X301792Y340770D01*
X302125Y340807D01*
X302458Y340733D01*
X302667Y340550D01*
X302833Y340293D01*
X302875Y340037D01*
X302833Y339780D01*
X302667Y339450D01*
X303750Y339560D01*
Y340550D01*
G01X301750Y341893D02*
X301458Y342113D01*
X301292Y342407D01*
X301250Y342737D01*
X301292Y343030D01*
X301500Y343323D01*
X301750Y343507D01*
X302000Y343543D01*
X302292Y343470D01*
X302500Y343213D01*
X302583Y342957D01*
Y342627D01*
G01Y342957D02*
X302708Y343177D01*
X302917Y343360D01*
X303167Y343433D01*
X303417Y343360D01*
X303625Y343177D01*
X303750Y342847D01*
X303708Y342517D01*
X303542Y342187D01*
G01X271566Y383617D02*
X274066D01*
Y384533D01*
X273942Y384827D01*
X273775Y385010D01*
X273442Y385083D01*
X273108Y385010D01*
X272900Y384790D01*
X272775Y384533D01*
Y383617D01*
G01Y384533D02*
X271566Y385083D01*
G01X273650Y386353D02*
X273900Y386573D01*
X274025Y386830D01*
X274066Y387123D01*
X273983Y387490D01*
X273775Y387747D01*
X273525Y387820D01*
X273275Y387783D01*
X273066Y387637D01*
X272650Y386903D01*
X272358Y386573D01*
X271941Y386353D01*
X271566Y386280D01*
Y387820D01*
G01X274066Y389750D02*
X273983Y389457D01*
X273775Y389237D01*
X273525Y389090D01*
X273192Y388980D01*
X272816Y388943D01*
X272442Y388980D01*
X272108Y389090D01*
X271858Y389237D01*
X271650Y389457D01*
X271566Y389750D01*
X271650Y390043D01*
X271858Y390263D01*
X272108Y390410D01*
X272442Y390520D01*
X272816Y390557D01*
X273192Y390520D01*
X273525Y390410D01*
X273775Y390263D01*
X273983Y390043D01*
X274066Y389750D01*
G01X284250Y360567D02*
X286750D01*
Y361483D01*
X286625Y361777D01*
X286458Y361960D01*
X286125Y362033D01*
X285792Y361960D01*
X285583Y361740D01*
X285458Y361483D01*
Y360567D01*
G01Y361483D02*
X284250Y362033D01*
G01Y364000D02*
X286750D01*
X286250Y363560D01*
G01X284250D02*
Y364440D01*
G01Y366700D02*
X284292Y366957D01*
X284417Y367250D01*
X284625Y367433D01*
X284917Y367507D01*
X285208Y367433D01*
X285458Y367213D01*
X285583Y366883D01*
Y366517D01*
X285667Y366297D01*
X285875Y366113D01*
X286167Y366040D01*
X286458Y366150D01*
X286667Y366407D01*
X286750Y366700D01*
X286667Y366993D01*
X286458Y367250D01*
X286167Y367360D01*
X285875Y367287D01*
X285667Y367103D01*
X285583Y366883D01*
Y366517D01*
X285458Y366187D01*
X285208Y365967D01*
X284917Y365893D01*
X284625Y365967D01*
X284417Y366150D01*
X284292Y366443D01*
X284250Y366700D01*
G01X282542Y379107D02*
X282667Y378887D01*
X282750Y378630D01*
Y378337D01*
X282625Y378007D01*
X282417Y377750D01*
X282167Y377567D01*
X281750Y377420D01*
X281375Y377383D01*
X281000Y377457D01*
X280750Y377567D01*
X280500Y377787D01*
X280333Y378043D01*
X280250Y378300D01*
Y378557D01*
X280333Y378813D01*
X280458Y379033D01*
X280625Y379217D01*
G01X280250Y381440D02*
X282750D01*
X280958Y380083D01*
Y381917D01*
G01X280250Y383700D02*
X280292Y383957D01*
X280417Y384250D01*
X280625Y384433D01*
X280917Y384507D01*
X281208Y384433D01*
X281458Y384213D01*
X281583Y383883D01*
Y383517D01*
X281667Y383297D01*
X281875Y383113D01*
X282167Y383040D01*
X282458Y383150D01*
X282667Y383407D01*
X282750Y383700D01*
X282667Y383993D01*
X282458Y384250D01*
X282167Y384360D01*
X281875Y384287D01*
X281667Y384103D01*
X281583Y383883D01*
Y383517D01*
X281458Y383187D01*
X281208Y382967D01*
X280917Y382893D01*
X280625Y382967D01*
X280417Y383150D01*
X280292Y383443D01*
X280250Y383700D01*
G01X308100Y351900D02*
X310100D01*
G01Y351100D02*
X308100D01*
G01X292600Y351900D02*
X294600D01*
G01Y351100D02*
X292600D01*
G01X300600Y351900D02*
X302600D01*
G01Y351100D02*
X300600D01*
G01X349583Y99250D02*
Y101750D01*
X348667D01*
X348373Y101625D01*
X348190Y101458D01*
X348117Y101125D01*
X348190Y100792D01*
X348410Y100583D01*
X348667Y100458D01*
X349583D01*
G01X348667D02*
X348117Y99250D01*
G01X346847Y101333D02*
X346627Y101583D01*
X346370Y101708D01*
X346077Y101750D01*
X345710Y101667D01*
X345453Y101458D01*
X345380Y101208D01*
X345417Y100958D01*
X345563Y100750D01*
X346297Y100333D01*
X346627Y100042D01*
X346847Y99625D01*
X346920Y99250D01*
X345380D01*
G01X348043Y105542D02*
X348263Y105667D01*
X348520Y105750D01*
X348813D01*
X349143Y105625D01*
X349400Y105417D01*
X349583Y105167D01*
X349730Y104750D01*
X349767Y104375D01*
X349693Y104000D01*
X349583Y103750D01*
X349363Y103500D01*
X349107Y103333D01*
X348850Y103250D01*
X348593D01*
X348337Y103333D01*
X348117Y103458D01*
X347933Y103625D01*
G01X346223Y103250D02*
X346150Y103792D01*
X346040Y104250D01*
X345893Y104667D01*
X345710Y105125D01*
X345417Y105750D01*
X346883D01*
G01X345542Y109607D02*
X345667Y109387D01*
X345750Y109130D01*
Y108837D01*
X345625Y108507D01*
X345417Y108250D01*
X345167Y108067D01*
X344750Y107920D01*
X344375Y107883D01*
X344000Y107957D01*
X343750Y108067D01*
X343500Y108287D01*
X343333Y108543D01*
X343250Y108800D01*
Y109057D01*
X343333Y109313D01*
X343458Y109533D01*
X343625Y109717D01*
G01X343250Y111500D02*
X345750D01*
X345250Y111060D01*
G01X343250D02*
Y111940D01*
G01X343625Y113393D02*
X343417Y113613D01*
X343292Y113870D01*
X343250Y114200D01*
X343333Y114530D01*
X343500Y114787D01*
X343792Y114970D01*
X344125Y115007D01*
X344458Y114933D01*
X344667Y114750D01*
X344833Y114493D01*
X344875Y114237D01*
X344833Y113980D01*
X344667Y113650D01*
X345750Y113760D01*
Y114750D01*
G01X346157Y123750D02*
Y121958D01*
X346010Y121583D01*
X345717Y121333D01*
X345350Y121250D01*
X344983Y121333D01*
X344690Y121583D01*
X344543Y121958D01*
Y123750D01*
G01X343457Y121750D02*
X343237Y121458D01*
X342943Y121292D01*
X342613Y121250D01*
X342320Y121292D01*
X342027Y121500D01*
X341843Y121750D01*
X341807Y122000D01*
X341880Y122292D01*
X342137Y122500D01*
X342393Y122583D01*
X342723D01*
G01X342393D02*
X342173Y122708D01*
X341990Y122917D01*
X341917Y123167D01*
X341990Y123417D01*
X342173Y123625D01*
X342503Y123750D01*
X342833Y123708D01*
X343163Y123542D01*
G01X336750Y116917D02*
X339250D01*
Y117833D01*
X339125Y118127D01*
X338958Y118310D01*
X338625Y118383D01*
X338292Y118310D01*
X338083Y118090D01*
X337958Y117833D01*
Y116917D01*
G01Y117833D02*
X336750Y118383D01*
G01X337125Y119543D02*
X336917Y119763D01*
X336792Y120020D01*
X336750Y120350D01*
X336833Y120680D01*
X337000Y120937D01*
X337292Y121120D01*
X337625Y121157D01*
X337958Y121083D01*
X338167Y120900D01*
X338333Y120643D01*
X338375Y120387D01*
X338333Y120130D01*
X338167Y119800D01*
X339250Y119910D01*
Y120900D01*
G01X339042Y126607D02*
X339167Y126387D01*
X339250Y126130D01*
Y125837D01*
X339125Y125507D01*
X338917Y125250D01*
X338667Y125067D01*
X338250Y124920D01*
X337875Y124883D01*
X337500Y124957D01*
X337250Y125067D01*
X337000Y125287D01*
X336833Y125543D01*
X336750Y125800D01*
Y126057D01*
X336833Y126313D01*
X336958Y126533D01*
X337125Y126717D01*
G01X336750Y128500D02*
X339250D01*
X338750Y128060D01*
G01X336750D02*
Y128940D01*
G01X337792Y130503D02*
X338083Y130760D01*
X338250Y130980D01*
X338333Y131273D01*
X338250Y131530D01*
X338083Y131713D01*
X337833Y131860D01*
X337542Y131897D01*
X337292Y131860D01*
X337042Y131713D01*
X336833Y131493D01*
X336750Y131237D01*
X336833Y130943D01*
X337083Y130687D01*
X337458Y130540D01*
X337875Y130503D01*
X338417Y130577D01*
X338708Y130687D01*
X339000Y130870D01*
X339208Y131127D01*
X339250Y131383D01*
X339167Y131640D01*
X338958Y131823D01*
G01X344542Y149757D02*
X344667Y149537D01*
X344750Y149280D01*
Y148987D01*
X344625Y148657D01*
X344417Y148400D01*
X344167Y148217D01*
X343750Y148070D01*
X343375Y148033D01*
X343000Y148107D01*
X342750Y148217D01*
X342500Y148437D01*
X342333Y148693D01*
X342250Y148950D01*
Y149207D01*
X342333Y149463D01*
X342458Y149683D01*
X342625Y149867D01*
G01X342250Y152090D02*
X344750D01*
X342958Y150733D01*
Y152567D01*
G01X344333Y153653D02*
X344583Y153873D01*
X344708Y154130D01*
X344750Y154423D01*
X344667Y154790D01*
X344458Y155047D01*
X344208Y155120D01*
X343958Y155083D01*
X343750Y154937D01*
X343333Y154203D01*
X343042Y153873D01*
X342625Y153653D01*
X342250Y153580D01*
Y155120D01*
G01X344750Y157050D02*
X344667Y156757D01*
X344458Y156537D01*
X344208Y156390D01*
X343875Y156280D01*
X343500Y156243D01*
X343125Y156280D01*
X342792Y156390D01*
X342542Y156537D01*
X342333Y156757D01*
X342250Y157050D01*
X342333Y157343D01*
X342542Y157563D01*
X342792Y157710D01*
X343125Y157820D01*
X343500Y157857D01*
X343875Y157820D01*
X344208Y157710D01*
X344458Y157563D01*
X344667Y157343D01*
X344750Y157050D01*
G01X344542Y181757D02*
X344667Y181537D01*
X344750Y181280D01*
Y180987D01*
X344625Y180657D01*
X344417Y180400D01*
X344167Y180217D01*
X343750Y180070D01*
X343375Y180033D01*
X343000Y180107D01*
X342750Y180217D01*
X342500Y180437D01*
X342333Y180693D01*
X342250Y180950D01*
Y181207D01*
X342333Y181463D01*
X342458Y181683D01*
X342625Y181867D01*
G01X342250Y184090D02*
X344750D01*
X342958Y182733D01*
Y184567D01*
G01X344333Y185653D02*
X344583Y185873D01*
X344708Y186130D01*
X344750Y186423D01*
X344667Y186790D01*
X344458Y187047D01*
X344208Y187120D01*
X343958Y187083D01*
X343750Y186937D01*
X343333Y186203D01*
X343042Y185873D01*
X342625Y185653D01*
X342250Y185580D01*
Y187120D01*
G01X344333Y188353D02*
X344583Y188573D01*
X344708Y188830D01*
X344750Y189123D01*
X344667Y189490D01*
X344458Y189747D01*
X344208Y189820D01*
X343958Y189783D01*
X343750Y189637D01*
X343333Y188903D01*
X343042Y188573D01*
X342625Y188353D01*
X342250Y188280D01*
Y189820D01*
G01X344250Y219567D02*
X346750D01*
Y220483D01*
X346625Y220777D01*
X346458Y220960D01*
X346125Y221033D01*
X345792Y220960D01*
X345583Y220740D01*
X345458Y220483D01*
Y219567D01*
G01Y220483D02*
X344250Y221033D01*
G01Y223000D02*
X346750D01*
X346250Y222560D01*
G01X344250D02*
Y223440D01*
G01X344750Y224893D02*
X344458Y225113D01*
X344292Y225407D01*
X344250Y225737D01*
X344292Y226030D01*
X344500Y226323D01*
X344750Y226507D01*
X345000Y226543D01*
X345292Y226470D01*
X345500Y226213D01*
X345583Y225957D01*
Y225627D01*
G01Y225957D02*
X345708Y226177D01*
X345917Y226360D01*
X346167Y226433D01*
X346417Y226360D01*
X346625Y226177D01*
X346750Y225847D01*
X346708Y225517D01*
X346542Y225187D01*
G01X355433Y223750D02*
Y226250D01*
X354517D01*
X354223Y226125D01*
X354040Y225958D01*
X353967Y225625D01*
X354040Y225292D01*
X354260Y225083D01*
X354517Y224958D01*
X355433D01*
G01X354517D02*
X353967Y223750D01*
G01X352000D02*
Y226250D01*
X352440Y225750D01*
G01Y223750D02*
X351560D01*
G01X349300D02*
Y226250D01*
X349740Y225750D01*
G01Y223750D02*
X348860D01*
G01X353893Y221542D02*
X354113Y221667D01*
X354370Y221750D01*
X354663D01*
X354993Y221625D01*
X355250Y221417D01*
X355433Y221167D01*
X355580Y220750D01*
X355617Y220375D01*
X355543Y220000D01*
X355433Y219750D01*
X355213Y219500D01*
X354957Y219333D01*
X354700Y219250D01*
X354443D01*
X354187Y219333D01*
X353967Y219458D01*
X353783Y219625D01*
G01X352697Y221333D02*
X352477Y221583D01*
X352220Y221708D01*
X351927Y221750D01*
X351560Y221667D01*
X351303Y221458D01*
X351230Y221208D01*
X351267Y220958D01*
X351413Y220750D01*
X352147Y220333D01*
X352477Y220042D01*
X352697Y219625D01*
X352770Y219250D01*
X351230D01*
G01X349300Y221750D02*
X349593Y221667D01*
X349813Y221458D01*
X349960Y221208D01*
X350070Y220875D01*
X350107Y220500D01*
X350070Y220125D01*
X349960Y219792D01*
X349813Y219542D01*
X349593Y219333D01*
X349300Y219250D01*
X349007Y219333D01*
X348787Y219542D01*
X348640Y219792D01*
X348530Y220125D01*
X348493Y220500D01*
X348530Y220875D01*
X348640Y221208D01*
X348787Y221458D01*
X349007Y221667D01*
X349300Y221750D01*
G01X335042Y208607D02*
X335167Y208387D01*
X335250Y208130D01*
Y207837D01*
X335125Y207507D01*
X334917Y207250D01*
X334667Y207067D01*
X334250Y206920D01*
X333875Y206883D01*
X333500Y206957D01*
X333250Y207067D01*
X333000Y207287D01*
X332833Y207543D01*
X332750Y207800D01*
Y208057D01*
X332833Y208313D01*
X332958Y208533D01*
X333125Y208717D01*
G01X332750Y210500D02*
X332792Y210757D01*
X332917Y211050D01*
X333125Y211233D01*
X333417Y211307D01*
X333708Y211233D01*
X333958Y211013D01*
X334083Y210683D01*
Y210317D01*
X334167Y210097D01*
X334375Y209913D01*
X334667Y209840D01*
X334958Y209950D01*
X335167Y210207D01*
X335250Y210500D01*
X335167Y210793D01*
X334958Y211050D01*
X334667Y211160D01*
X334375Y211087D01*
X334167Y210903D01*
X334083Y210683D01*
Y210317D01*
X333958Y209987D01*
X333708Y209767D01*
X333417Y209693D01*
X333125Y209767D01*
X332917Y209950D01*
X332792Y210243D01*
X332750Y210500D01*
G01X335250Y213200D02*
X335167Y212907D01*
X334958Y212687D01*
X334708Y212540D01*
X334375Y212430D01*
X334000Y212393D01*
X333625Y212430D01*
X333292Y212540D01*
X333042Y212687D01*
X332833Y212907D01*
X332750Y213200D01*
X332833Y213493D01*
X333042Y213713D01*
X333292Y213860D01*
X333625Y213970D01*
X334000Y214007D01*
X334375Y213970D01*
X334708Y213860D01*
X334958Y213713D01*
X335167Y213493D01*
X335250Y213200D01*
G01X351000Y253750D02*
X350743Y253792D01*
X350450Y253917D01*
X350267Y254125D01*
X350193Y254417D01*
X350267Y254708D01*
X350487Y254958D01*
X350817Y255083D01*
X351183D01*
X351403Y255167D01*
X351587Y255375D01*
X351660Y255667D01*
X351550Y255958D01*
X351293Y256167D01*
X351000Y256250D01*
X350707Y256167D01*
X350450Y255958D01*
X350340Y255667D01*
X350413Y255375D01*
X350597Y255167D01*
X350817Y255083D01*
X351183D01*
X351513Y254958D01*
X351733Y254708D01*
X351807Y254417D01*
X351733Y254125D01*
X351550Y253917D01*
X351257Y253792D01*
X351000Y253750D01*
G01X340933Y245750D02*
Y248250D01*
X340017D01*
X339723Y248125D01*
X339540Y247958D01*
X339467Y247625D01*
X339540Y247292D01*
X339760Y247083D01*
X340017Y246958D01*
X340933D01*
G01X340017D02*
X339467Y245750D01*
G01X337500D02*
Y248250D01*
X337940Y247750D01*
G01Y245750D02*
X337060D01*
G01X335497Y247833D02*
X335277Y248083D01*
X335020Y248208D01*
X334727Y248250D01*
X334360Y248167D01*
X334103Y247958D01*
X334030Y247708D01*
X334067Y247458D01*
X334213Y247250D01*
X334947Y246833D01*
X335277Y246542D01*
X335497Y246125D01*
X335570Y245750D01*
X334030D01*
G01X341433Y236750D02*
Y239250D01*
X340517D01*
X340223Y239125D01*
X340040Y238958D01*
X339967Y238625D01*
X340040Y238292D01*
X340260Y238083D01*
X340517Y237958D01*
X341433D01*
G01X340517D02*
X339967Y236750D01*
G01X338000D02*
Y239250D01*
X338440Y238750D01*
G01Y236750D02*
X337560D01*
G01X335300Y239250D02*
X335593Y239167D01*
X335813Y238958D01*
X335960Y238708D01*
X336070Y238375D01*
X336107Y238000D01*
X336070Y237625D01*
X335960Y237292D01*
X335813Y237042D01*
X335593Y236833D01*
X335300Y236750D01*
X335007Y236833D01*
X334787Y237042D01*
X334640Y237292D01*
X334530Y237625D01*
X334493Y238000D01*
X334530Y238375D01*
X334640Y238708D01*
X334787Y238958D01*
X335007Y239167D01*
X335300Y239250D01*
G01X339893Y252042D02*
X340113Y252167D01*
X340370Y252250D01*
X340663D01*
X340993Y252125D01*
X341250Y251917D01*
X341433Y251667D01*
X341580Y251250D01*
X341617Y250875D01*
X341543Y250500D01*
X341433Y250250D01*
X341213Y250000D01*
X340957Y249833D01*
X340700Y249750D01*
X340443D01*
X340187Y249833D01*
X339967Y249958D01*
X339783Y250125D01*
G01X338807Y250250D02*
X338587Y249958D01*
X338293Y249792D01*
X337963Y249750D01*
X337670Y249792D01*
X337377Y250000D01*
X337193Y250250D01*
X337157Y250500D01*
X337230Y250792D01*
X337487Y251000D01*
X337743Y251083D01*
X338073D01*
G01X337743D02*
X337523Y251208D01*
X337340Y251417D01*
X337267Y251667D01*
X337340Y251917D01*
X337523Y252125D01*
X337853Y252250D01*
X338183Y252208D01*
X338513Y252042D01*
G01X335300Y252250D02*
X335593Y252167D01*
X335813Y251958D01*
X335960Y251708D01*
X336070Y251375D01*
X336107Y251000D01*
X336070Y250625D01*
X335960Y250292D01*
X335813Y250042D01*
X335593Y249833D01*
X335300Y249750D01*
X335007Y249833D01*
X334787Y250042D01*
X334640Y250292D01*
X334530Y250625D01*
X334493Y251000D01*
X334530Y251375D01*
X334640Y251708D01*
X334787Y251958D01*
X335007Y252167D01*
X335300Y252250D01*
G01X339893Y243042D02*
X340113Y243167D01*
X340370Y243250D01*
X340663D01*
X340993Y243125D01*
X341250Y242917D01*
X341433Y242667D01*
X341580Y242250D01*
X341617Y241875D01*
X341543Y241500D01*
X341433Y241250D01*
X341213Y241000D01*
X340957Y240833D01*
X340700Y240750D01*
X340443D01*
X340187Y240833D01*
X339967Y240958D01*
X339783Y241125D01*
G01X338697Y242833D02*
X338477Y243083D01*
X338220Y243208D01*
X337927Y243250D01*
X337560Y243167D01*
X337303Y242958D01*
X337230Y242708D01*
X337267Y242458D01*
X337413Y242250D01*
X338147Y241833D01*
X338477Y241542D01*
X338697Y241125D01*
X338770Y240750D01*
X337230D01*
G01X335923Y241042D02*
X335667Y240833D01*
X335373Y240750D01*
X335080Y240833D01*
X334823Y241083D01*
X334640Y241458D01*
X334567Y241833D01*
Y242292D01*
X334640Y242667D01*
X334823Y243000D01*
X335043Y243167D01*
X335300Y243250D01*
X335593Y243167D01*
X335813Y243000D01*
X335960Y242750D01*
X336033Y242417D01*
X335960Y242125D01*
X335777Y241833D01*
X335557Y241667D01*
X335300Y241625D01*
X335007Y241708D01*
X334787Y241917D01*
X334567Y242292D01*
G01X342750Y271917D02*
X340250D01*
Y273383D01*
G01X342333Y274653D02*
X342583Y274873D01*
X342708Y275130D01*
X342750Y275423D01*
X342667Y275790D01*
X342458Y276047D01*
X342208Y276120D01*
X341958Y276083D01*
X341750Y275937D01*
X341333Y275203D01*
X341042Y274873D01*
X340625Y274653D01*
X340250Y274580D01*
Y276120D01*
G01X338893Y310542D02*
X339113Y310667D01*
X339370Y310750D01*
X339663D01*
X339993Y310625D01*
X340250Y310417D01*
X340433Y310167D01*
X340580Y309750D01*
X340617Y309375D01*
X340543Y309000D01*
X340433Y308750D01*
X340213Y308500D01*
X339957Y308333D01*
X339700Y308250D01*
X339443D01*
X339187Y308333D01*
X338967Y308458D01*
X338783Y308625D01*
G01X337697Y310333D02*
X337477Y310583D01*
X337220Y310708D01*
X336927Y310750D01*
X336560Y310667D01*
X336303Y310458D01*
X336230Y310208D01*
X336267Y309958D01*
X336413Y309750D01*
X337147Y309333D01*
X337477Y309042D01*
X337697Y308625D01*
X337770Y308250D01*
X336230D01*
G01X335107Y308750D02*
X334887Y308458D01*
X334593Y308292D01*
X334263Y308250D01*
X333970Y308292D01*
X333677Y308500D01*
X333493Y308750D01*
X333457Y309000D01*
X333530Y309292D01*
X333787Y309500D01*
X334043Y309583D01*
X334373D01*
G01X334043D02*
X333823Y309708D01*
X333640Y309917D01*
X333567Y310167D01*
X333640Y310417D01*
X333823Y310625D01*
X334153Y310750D01*
X334483Y310708D01*
X334813Y310542D01*
G01X347600Y309100D02*
Y311100D01*
G01X348400D02*
Y309100D01*
G01X333583Y340750D02*
Y338250D01*
X332117D01*
G01X330957Y338625D02*
X330737Y338417D01*
X330480Y338292D01*
X330150Y338250D01*
X329820Y338333D01*
X329563Y338500D01*
X329380Y338792D01*
X329343Y339125D01*
X329417Y339458D01*
X329600Y339667D01*
X329857Y339833D01*
X330113Y339875D01*
X330370Y339833D01*
X330700Y339667D01*
X330590Y340750D01*
X329600D01*
G01X336542Y327607D02*
X336667Y327387D01*
X336750Y327130D01*
Y326837D01*
X336625Y326507D01*
X336417Y326250D01*
X336167Y326067D01*
X335750Y325920D01*
X335375Y325883D01*
X335000Y325957D01*
X334750Y326067D01*
X334500Y326287D01*
X334333Y326543D01*
X334250Y326800D01*
Y327057D01*
X334333Y327313D01*
X334458Y327533D01*
X334625Y327717D01*
G01X336333Y328803D02*
X336583Y329023D01*
X336708Y329280D01*
X336750Y329573D01*
X336667Y329940D01*
X336458Y330197D01*
X336208Y330270D01*
X335958Y330233D01*
X335750Y330087D01*
X335333Y329353D01*
X335042Y329023D01*
X334625Y328803D01*
X334250Y328730D01*
Y330270D01*
G01Y332640D02*
X336750D01*
X334958Y331283D01*
Y333117D01*
G01X338393Y322542D02*
X338613Y322667D01*
X338870Y322750D01*
X339163D01*
X339493Y322625D01*
X339750Y322417D01*
X339933Y322167D01*
X340080Y321750D01*
X340117Y321375D01*
X340043Y321000D01*
X339933Y320750D01*
X339713Y320500D01*
X339457Y320333D01*
X339200Y320250D01*
X338943D01*
X338687Y320333D01*
X338467Y320458D01*
X338283Y320625D01*
G01X337197Y322333D02*
X336977Y322583D01*
X336720Y322708D01*
X336427Y322750D01*
X336060Y322667D01*
X335803Y322458D01*
X335730Y322208D01*
X335767Y321958D01*
X335913Y321750D01*
X336647Y321333D01*
X336977Y321042D01*
X337197Y320625D01*
X337270Y320250D01*
X335730D01*
G01X334497Y322333D02*
X334277Y322583D01*
X334020Y322708D01*
X333727Y322750D01*
X333360Y322667D01*
X333103Y322458D01*
X333030Y322208D01*
X333067Y321958D01*
X333213Y321750D01*
X333947Y321333D01*
X334277Y321042D01*
X334497Y320625D01*
X334570Y320250D01*
X333030D01*
G01X347600Y324600D02*
Y326600D01*
G01X348400D02*
Y324600D01*
G01X338893Y316042D02*
X339113Y316167D01*
X339370Y316250D01*
X339663D01*
X339993Y316125D01*
X340250Y315917D01*
X340433Y315667D01*
X340580Y315250D01*
X340617Y314875D01*
X340543Y314500D01*
X340433Y314250D01*
X340213Y314000D01*
X339957Y313833D01*
X339700Y313750D01*
X339443D01*
X339187Y313833D01*
X338967Y313958D01*
X338783Y314125D01*
G01X337697Y315833D02*
X337477Y316083D01*
X337220Y316208D01*
X336927Y316250D01*
X336560Y316167D01*
X336303Y315958D01*
X336230Y315708D01*
X336267Y315458D01*
X336413Y315250D01*
X337147Y314833D01*
X337477Y314542D01*
X337697Y314125D01*
X337770Y313750D01*
X336230D01*
G01X334300D02*
Y316250D01*
X334740Y315750D01*
G01Y313750D02*
X333860D01*
G01X347600Y317100D02*
Y319100D01*
G01X348400D02*
Y317100D01*
G01X318542Y336107D02*
X318667Y335887D01*
X318750Y335630D01*
Y335337D01*
X318625Y335007D01*
X318417Y334750D01*
X318167Y334567D01*
X317750Y334420D01*
X317375Y334383D01*
X317000Y334457D01*
X316750Y334567D01*
X316500Y334787D01*
X316333Y335043D01*
X316250Y335300D01*
Y335557D01*
X316333Y335813D01*
X316458Y336033D01*
X316625Y336217D01*
G01Y337193D02*
X316417Y337413D01*
X316292Y337670D01*
X316250Y338000D01*
X316333Y338330D01*
X316500Y338587D01*
X316792Y338770D01*
X317125Y338807D01*
X317458Y338733D01*
X317667Y338550D01*
X317833Y338293D01*
X317875Y338037D01*
X317833Y337780D01*
X317667Y337450D01*
X318750Y337560D01*
Y338550D01*
G01X317292Y340003D02*
X317583Y340260D01*
X317750Y340480D01*
X317833Y340773D01*
X317750Y341030D01*
X317583Y341213D01*
X317333Y341360D01*
X317042Y341397D01*
X316792Y341360D01*
X316542Y341213D01*
X316333Y340993D01*
X316250Y340737D01*
X316333Y340443D01*
X316583Y340187D01*
X316958Y340040D01*
X317375Y340003D01*
X317917Y340077D01*
X318208Y340187D01*
X318500Y340370D01*
X318708Y340627D01*
X318750Y340883D01*
X318667Y341140D01*
X318458Y341323D01*
G01X334250Y367343D02*
X332458D01*
X332083Y367490D01*
X331833Y367783D01*
X331750Y368150D01*
X331833Y368517D01*
X332083Y368810D01*
X332458Y368957D01*
X334250D01*
G01X331750Y370777D02*
X332292Y370850D01*
X332750Y370960D01*
X333167Y371107D01*
X333625Y371290D01*
X334250Y371583D01*
Y370117D01*
G01X347566Y381617D02*
X350066D01*
Y382533D01*
X349942Y382827D01*
X349775Y383010D01*
X349442Y383083D01*
X349108Y383010D01*
X348900Y382790D01*
X348775Y382533D01*
Y381617D01*
G01Y382533D02*
X347566Y383083D01*
G01X349650Y384353D02*
X349900Y384573D01*
X350025Y384830D01*
X350066Y385123D01*
X349983Y385490D01*
X349775Y385747D01*
X349525Y385820D01*
X349275Y385783D01*
X349066Y385637D01*
X348650Y384903D01*
X348358Y384573D01*
X347941Y384353D01*
X347566Y384280D01*
Y385820D01*
G01X347941Y386943D02*
X347733Y387163D01*
X347608Y387420D01*
X347566Y387750D01*
X347650Y388080D01*
X347816Y388337D01*
X348108Y388520D01*
X348442Y388557D01*
X348775Y388483D01*
X348983Y388300D01*
X349150Y388043D01*
X349192Y387787D01*
X349150Y387530D01*
X348983Y387200D01*
X350066Y387310D01*
Y388300D01*
G01X327750Y378067D02*
X330250D01*
Y378983D01*
X330125Y379277D01*
X329958Y379460D01*
X329625Y379533D01*
X329292Y379460D01*
X329083Y379240D01*
X328958Y378983D01*
Y378067D01*
G01Y378983D02*
X327750Y379533D01*
G01X329833Y380803D02*
X330083Y381023D01*
X330208Y381280D01*
X330250Y381573D01*
X330167Y381940D01*
X329958Y382197D01*
X329708Y382270D01*
X329458Y382233D01*
X329250Y382087D01*
X328833Y381353D01*
X328542Y381023D01*
X328125Y380803D01*
X327750Y380730D01*
Y382270D01*
G01X328250Y383393D02*
X327958Y383613D01*
X327792Y383907D01*
X327750Y384237D01*
X327792Y384530D01*
X328000Y384823D01*
X328250Y385007D01*
X328500Y385043D01*
X328792Y384970D01*
X329000Y384713D01*
X329083Y384457D01*
Y384127D01*
G01Y384457D02*
X329208Y384677D01*
X329417Y384860D01*
X329667Y384933D01*
X329917Y384860D01*
X330125Y384677D01*
X330250Y384347D01*
X330208Y384017D01*
X330042Y383687D01*
G01X356933Y360750D02*
Y363250D01*
X356017D01*
X355723Y363125D01*
X355540Y362958D01*
X355467Y362625D01*
X355540Y362292D01*
X355760Y362083D01*
X356017Y361958D01*
X356933D01*
G01X356017D02*
X355467Y360750D01*
G01X354197Y362833D02*
X353977Y363083D01*
X353720Y363208D01*
X353427Y363250D01*
X353060Y363167D01*
X352803Y362958D01*
X352730Y362708D01*
X352767Y362458D01*
X352913Y362250D01*
X353647Y361833D01*
X353977Y361542D01*
X354197Y361125D01*
X354270Y360750D01*
X352730D01*
G01X351497Y362833D02*
X351277Y363083D01*
X351020Y363208D01*
X350727Y363250D01*
X350360Y363167D01*
X350103Y362958D01*
X350030Y362708D01*
X350067Y362458D01*
X350213Y362250D01*
X350947Y361833D01*
X351277Y361542D01*
X351497Y361125D01*
X351570Y360750D01*
X350030D01*
G01X355893Y377542D02*
X356113Y377667D01*
X356370Y377750D01*
X356663D01*
X356993Y377625D01*
X357250Y377417D01*
X357433Y377167D01*
X357580Y376750D01*
X357617Y376375D01*
X357543Y376000D01*
X357433Y375750D01*
X357213Y375500D01*
X356957Y375333D01*
X356700Y375250D01*
X356443D01*
X356187Y375333D01*
X355967Y375458D01*
X355783Y375625D01*
G01X354807D02*
X354587Y375417D01*
X354330Y375292D01*
X354000Y375250D01*
X353670Y375333D01*
X353413Y375500D01*
X353230Y375792D01*
X353193Y376125D01*
X353267Y376458D01*
X353450Y376667D01*
X353707Y376833D01*
X353963Y376875D01*
X354220Y376833D01*
X354550Y376667D01*
X354440Y377750D01*
X353450D01*
G01X351373Y375250D02*
X351300Y375792D01*
X351190Y376250D01*
X351043Y376667D01*
X350860Y377125D01*
X350567Y377750D01*
X352033D01*
G01X362542Y30757D02*
X362667Y30537D01*
X362750Y30280D01*
Y29987D01*
X362625Y29657D01*
X362417Y29400D01*
X362167Y29217D01*
X361750Y29070D01*
X361375Y29033D01*
X361000Y29107D01*
X360750Y29217D01*
X360500Y29437D01*
X360333Y29693D01*
X360250Y29950D01*
Y30207D01*
X360333Y30463D01*
X360458Y30683D01*
X360625Y30867D01*
G01X360250Y32650D02*
X362750D01*
X362250Y32210D01*
G01X360250D02*
Y33090D01*
G01X361292Y34653D02*
X361583Y34910D01*
X361750Y35130D01*
X361833Y35423D01*
X361750Y35680D01*
X361583Y35863D01*
X361333Y36010D01*
X361042Y36047D01*
X360792Y36010D01*
X360542Y35863D01*
X360333Y35643D01*
X360250Y35387D01*
X360333Y35093D01*
X360583Y34837D01*
X360958Y34690D01*
X361375Y34653D01*
X361917Y34727D01*
X362208Y34837D01*
X362500Y35020D01*
X362708Y35277D01*
X362750Y35533D01*
X362667Y35790D01*
X362458Y35973D01*
G01X360625Y37243D02*
X360417Y37463D01*
X360292Y37720D01*
X360250Y38050D01*
X360333Y38380D01*
X360500Y38637D01*
X360792Y38820D01*
X361125Y38857D01*
X361458Y38783D01*
X361667Y38600D01*
X361833Y38343D01*
X361875Y38087D01*
X361833Y37830D01*
X361667Y37500D01*
X362750Y37610D01*
Y38600D01*
G01X357542Y30757D02*
X357667Y30537D01*
X357750Y30280D01*
Y29987D01*
X357625Y29657D01*
X357417Y29400D01*
X357167Y29217D01*
X356750Y29070D01*
X356375Y29033D01*
X356000Y29107D01*
X355750Y29217D01*
X355500Y29437D01*
X355333Y29693D01*
X355250Y29950D01*
Y30207D01*
X355333Y30463D01*
X355458Y30683D01*
X355625Y30867D01*
G01X355250Y32650D02*
X357750D01*
X357250Y32210D01*
G01X355250D02*
Y33090D01*
G01X355625Y34543D02*
X355417Y34763D01*
X355292Y35020D01*
X355250Y35350D01*
X355333Y35680D01*
X355500Y35937D01*
X355792Y36120D01*
X356125Y36157D01*
X356458Y36083D01*
X356667Y35900D01*
X356833Y35643D01*
X356875Y35387D01*
X356833Y35130D01*
X356667Y34800D01*
X357750Y34910D01*
Y35900D01*
G01X355250Y38050D02*
X355292Y38307D01*
X355417Y38600D01*
X355625Y38783D01*
X355917Y38857D01*
X356208Y38783D01*
X356458Y38563D01*
X356583Y38233D01*
Y37867D01*
X356667Y37647D01*
X356875Y37463D01*
X357167Y37390D01*
X357458Y37500D01*
X357667Y37757D01*
X357750Y38050D01*
X357667Y38343D01*
X357458Y38600D01*
X357167Y38710D01*
X356875Y38637D01*
X356667Y38453D01*
X356583Y38233D01*
Y37867D01*
X356458Y37537D01*
X356208Y37317D01*
X355917Y37243D01*
X355625Y37317D01*
X355417Y37500D01*
X355292Y37793D01*
X355250Y38050D01*
G01X361042Y63107D02*
X361167Y62887D01*
X361250Y62630D01*
Y62337D01*
X361125Y62007D01*
X360917Y61750D01*
X360667Y61567D01*
X360250Y61420D01*
X359875Y61383D01*
X359500Y61457D01*
X359250Y61567D01*
X359000Y61787D01*
X358833Y62043D01*
X358750Y62300D01*
Y62557D01*
X358833Y62813D01*
X358958Y63033D01*
X359125Y63217D01*
G01X358750Y65000D02*
X361250D01*
X360750Y64560D01*
G01X358750D02*
Y65440D01*
G01Y67700D02*
X361250D01*
X360750Y67260D01*
G01X358750D02*
Y68140D01*
G01X367400Y62600D02*
X365400D01*
G01Y63400D02*
X367400D01*
G01X387542Y30257D02*
X387667Y30037D01*
X387750Y29780D01*
Y29487D01*
X387625Y29157D01*
X387417Y28900D01*
X387167Y28717D01*
X386750Y28570D01*
X386375Y28533D01*
X386000Y28607D01*
X385750Y28717D01*
X385500Y28937D01*
X385333Y29193D01*
X385250Y29450D01*
Y29707D01*
X385333Y29963D01*
X385458Y30183D01*
X385625Y30367D01*
G01X385250Y32590D02*
X387750D01*
X385958Y31233D01*
Y33067D01*
G01X385250Y34850D02*
X387750D01*
X387250Y34410D01*
G01X385250D02*
Y35290D01*
G01X386292Y36853D02*
X386583Y37110D01*
X386750Y37330D01*
X386833Y37623D01*
X386750Y37880D01*
X386583Y38063D01*
X386333Y38210D01*
X386042Y38247D01*
X385792Y38210D01*
X385542Y38063D01*
X385333Y37843D01*
X385250Y37587D01*
X385333Y37293D01*
X385583Y37037D01*
X385958Y36890D01*
X386375Y36853D01*
X386917Y36927D01*
X387208Y37037D01*
X387500Y37220D01*
X387708Y37477D01*
X387750Y37733D01*
X387667Y37990D01*
X387458Y38173D01*
G01X357850Y82750D02*
Y80250D01*
G01X358693Y82750D02*
X357007D01*
G01X355150Y80250D02*
Y82750D01*
X355590Y82250D01*
G01Y80250D02*
X354710D01*
G01X360583Y94250D02*
Y91750D01*
X359117D01*
G01X357150D02*
Y94250D01*
X357590Y93750D01*
G01Y91750D02*
X356710D01*
G01X359393Y72542D02*
X359613Y72667D01*
X359870Y72750D01*
X360163D01*
X360493Y72625D01*
X360750Y72417D01*
X360933Y72167D01*
X361080Y71750D01*
X361117Y71375D01*
X361043Y71000D01*
X360933Y70750D01*
X360713Y70500D01*
X360457Y70333D01*
X360200Y70250D01*
X359943D01*
X359687Y70333D01*
X359467Y70458D01*
X359283Y70625D01*
G01X357500Y70250D02*
Y72750D01*
X357940Y72250D01*
G01Y70250D02*
X357060D01*
G01X355497Y72333D02*
X355277Y72583D01*
X355020Y72708D01*
X354727Y72750D01*
X354360Y72667D01*
X354103Y72458D01*
X354030Y72208D01*
X354067Y71958D01*
X354213Y71750D01*
X354947Y71333D01*
X355277Y71042D01*
X355497Y70625D01*
X355570Y70250D01*
X354030D01*
G01X359500Y128000D02*
Y130500D01*
X371500D01*
Y127500D01*
G01D02*
Y110500D01*
X359500D01*
G01D02*
Y128000D01*
G01X364000Y110500D02*
Y113000D01*
X366500D01*
Y110500D01*
G01X388583Y143750D02*
Y146250D01*
X387667D01*
X387373Y146125D01*
X387190Y145958D01*
X387117Y145625D01*
X387190Y145292D01*
X387410Y145083D01*
X387667Y144958D01*
X388583D01*
G01X387667D02*
X387117Y143750D01*
G01X385847Y144792D02*
X385590Y145083D01*
X385370Y145250D01*
X385077Y145333D01*
X384820Y145250D01*
X384637Y145083D01*
X384490Y144833D01*
X384453Y144542D01*
X384490Y144292D01*
X384637Y144042D01*
X384857Y143833D01*
X385113Y143750D01*
X385407Y143833D01*
X385663Y144083D01*
X385810Y144458D01*
X385847Y144875D01*
X385773Y145417D01*
X385663Y145708D01*
X385480Y146000D01*
X385223Y146208D01*
X384967Y146250D01*
X384710Y146167D01*
X384527Y145958D01*
G01X387393Y142542D02*
X387613Y142667D01*
X387870Y142750D01*
X388163D01*
X388493Y142625D01*
X388750Y142417D01*
X388933Y142167D01*
X389080Y141750D01*
X389117Y141375D01*
X389043Y141000D01*
X388933Y140750D01*
X388713Y140500D01*
X388457Y140333D01*
X388200Y140250D01*
X387943D01*
X387687Y140333D01*
X387467Y140458D01*
X387283Y140625D01*
G01X385500Y140250D02*
Y142750D01*
X385940Y142250D01*
G01Y140250D02*
X385060D01*
G01X382800D02*
X382543Y140292D01*
X382250Y140417D01*
X382067Y140625D01*
X381993Y140917D01*
X382067Y141208D01*
X382287Y141458D01*
X382617Y141583D01*
X382983D01*
X383203Y141667D01*
X383387Y141875D01*
X383460Y142167D01*
X383350Y142458D01*
X383093Y142667D01*
X382800Y142750D01*
X382507Y142667D01*
X382250Y142458D01*
X382140Y142167D01*
X382213Y141875D01*
X382397Y141667D01*
X382617Y141583D01*
X382983D01*
X383313Y141458D01*
X383533Y141208D01*
X383607Y140917D01*
X383533Y140625D01*
X383350Y140417D01*
X383057Y140292D01*
X382800Y140250D01*
G01X386893Y150042D02*
X387113Y150167D01*
X387370Y150250D01*
X387663D01*
X387993Y150125D01*
X388250Y149917D01*
X388433Y149667D01*
X388580Y149250D01*
X388617Y148875D01*
X388543Y148500D01*
X388433Y148250D01*
X388213Y148000D01*
X387957Y147833D01*
X387700Y147750D01*
X387443D01*
X387187Y147833D01*
X386967Y147958D01*
X386783Y148125D01*
G01X385000Y147750D02*
Y150250D01*
X385440Y149750D01*
G01Y147750D02*
X384560D01*
G01X382373D02*
X382300Y148292D01*
X382190Y148750D01*
X382043Y149167D01*
X381860Y149625D01*
X381567Y150250D01*
X383033D01*
G01X386250Y162417D02*
X388750D01*
Y163333D01*
X388625Y163627D01*
X388458Y163810D01*
X388125Y163883D01*
X387792Y163810D01*
X387583Y163590D01*
X387458Y163333D01*
Y162417D01*
G01Y163333D02*
X386250Y163883D01*
G01Y165777D02*
X386792Y165850D01*
X387250Y165960D01*
X387667Y166107D01*
X388125Y166290D01*
X388750Y166583D01*
Y165117D01*
G01X384583Y162750D02*
Y165250D01*
X383667D01*
X383373Y165125D01*
X383190Y164958D01*
X383117Y164625D01*
X383190Y164292D01*
X383410Y164083D01*
X383667Y163958D01*
X384583D01*
G01X383667D02*
X383117Y162750D01*
G01X380710D02*
Y165250D01*
X382067Y163458D01*
X380233D01*
G01X388083Y151750D02*
Y154250D01*
X387167D01*
X386873Y154125D01*
X386690Y153958D01*
X386617Y153625D01*
X386690Y153292D01*
X386910Y153083D01*
X387167Y152958D01*
X388083D01*
G01X387167D02*
X386617Y151750D01*
G01X385457Y152250D02*
X385237Y151958D01*
X384943Y151792D01*
X384613Y151750D01*
X384320Y151792D01*
X384027Y152000D01*
X383843Y152250D01*
X383807Y152500D01*
X383880Y152792D01*
X384137Y153000D01*
X384393Y153083D01*
X384723D01*
G01X384393D02*
X384173Y153208D01*
X383990Y153417D01*
X383917Y153667D01*
X383990Y153917D01*
X384173Y154125D01*
X384503Y154250D01*
X384833Y154208D01*
X385163Y154042D01*
G01X383043Y169042D02*
X383263Y169167D01*
X383520Y169250D01*
X383813D01*
X384143Y169125D01*
X384400Y168917D01*
X384583Y168667D01*
X384730Y168250D01*
X384767Y167875D01*
X384693Y167500D01*
X384583Y167250D01*
X384363Y167000D01*
X384107Y166833D01*
X383850Y166750D01*
X383593D01*
X383337Y166833D01*
X383117Y166958D01*
X382933Y167125D01*
G01X381150Y166750D02*
X380893Y166792D01*
X380600Y166917D01*
X380417Y167125D01*
X380343Y167417D01*
X380417Y167708D01*
X380637Y167958D01*
X380967Y168083D01*
X381333D01*
X381553Y168167D01*
X381737Y168375D01*
X381810Y168667D01*
X381700Y168958D01*
X381443Y169167D01*
X381150Y169250D01*
X380857Y169167D01*
X380600Y168958D01*
X380490Y168667D01*
X380563Y168375D01*
X380747Y168167D01*
X380967Y168083D01*
X381333D01*
X381663Y167958D01*
X381883Y167708D01*
X381957Y167417D01*
X381883Y167125D01*
X381700Y166917D01*
X381407Y166792D01*
X381150Y166750D01*
G01X376893Y229542D02*
X377113Y229667D01*
X377370Y229750D01*
X377663D01*
X377993Y229625D01*
X378250Y229417D01*
X378433Y229167D01*
X378580Y228750D01*
X378617Y228375D01*
X378543Y228000D01*
X378433Y227750D01*
X378213Y227500D01*
X377957Y227333D01*
X377700Y227250D01*
X377443D01*
X377187Y227333D01*
X376967Y227458D01*
X376783Y227625D01*
G01X375697Y229333D02*
X375477Y229583D01*
X375220Y229708D01*
X374927Y229750D01*
X374560Y229667D01*
X374303Y229458D01*
X374230Y229208D01*
X374267Y228958D01*
X374413Y228750D01*
X375147Y228333D01*
X375477Y228042D01*
X375697Y227625D01*
X375770Y227250D01*
X374230D01*
G01X372300D02*
X372043Y227292D01*
X371750Y227417D01*
X371567Y227625D01*
X371493Y227917D01*
X371567Y228208D01*
X371787Y228458D01*
X372117Y228583D01*
X372483D01*
X372703Y228667D01*
X372887Y228875D01*
X372960Y229167D01*
X372850Y229458D01*
X372593Y229667D01*
X372300Y229750D01*
X372007Y229667D01*
X371750Y229458D01*
X371640Y229167D01*
X371713Y228875D01*
X371897Y228667D01*
X372117Y228583D01*
X372483D01*
X372813Y228458D01*
X373033Y228208D01*
X373107Y227917D01*
X373033Y227625D01*
X372850Y227417D01*
X372557Y227292D01*
X372300Y227250D01*
G01X358307Y233125D02*
X358087Y232917D01*
X357830Y232792D01*
X357500Y232750D01*
X357170Y232833D01*
X356913Y233000D01*
X356730Y233292D01*
X356693Y233625D01*
X356767Y233958D01*
X356950Y234167D01*
X357207Y234333D01*
X357463Y234375D01*
X357720Y234333D01*
X358050Y234167D01*
X357940Y235250D01*
X356950D01*
G01X381060Y235750D02*
Y238250D01*
X382417Y236458D01*
X380583D01*
G01X367157Y234250D02*
Y232458D01*
X367010Y232083D01*
X366717Y231833D01*
X366350Y231750D01*
X365983Y231833D01*
X365690Y232083D01*
X365543Y232458D01*
Y234250D01*
G01X363210Y231750D02*
Y234250D01*
X364567Y232458D01*
X362733D01*
G01X372500Y239000D02*
Y236500D01*
X360500D01*
Y239500D01*
G01D02*
Y256500D01*
X372500D01*
G01D02*
Y239000D01*
G01X368000Y256500D02*
Y254000D01*
X365500D01*
Y256500D01*
G01X385750Y241417D02*
X388250D01*
Y242333D01*
X388125Y242627D01*
X387958Y242810D01*
X387625Y242883D01*
X387292Y242810D01*
X387083Y242590D01*
X386958Y242333D01*
Y241417D01*
G01Y242333D02*
X385750Y242883D01*
G01X386042Y244227D02*
X385833Y244483D01*
X385750Y244777D01*
X385833Y245070D01*
X386083Y245327D01*
X386458Y245510D01*
X386833Y245583D01*
X387292D01*
X387667Y245510D01*
X388000Y245327D01*
X388167Y245107D01*
X388250Y244850D01*
X388167Y244557D01*
X388000Y244337D01*
X387750Y244190D01*
X387417Y244117D01*
X387125Y244190D01*
X386833Y244373D01*
X386667Y244593D01*
X386625Y244850D01*
X386708Y245143D01*
X386917Y245363D01*
X387292Y245583D01*
G01X388583Y266250D02*
Y268750D01*
X387667D01*
X387373Y268625D01*
X387190Y268458D01*
X387117Y268125D01*
X387190Y267792D01*
X387410Y267583D01*
X387667Y267458D01*
X388583D01*
G01X387667D02*
X387117Y266250D01*
G01X385150D02*
X384893Y266292D01*
X384600Y266417D01*
X384417Y266625D01*
X384343Y266917D01*
X384417Y267208D01*
X384637Y267458D01*
X384967Y267583D01*
X385333D01*
X385553Y267667D01*
X385737Y267875D01*
X385810Y268167D01*
X385700Y268458D01*
X385443Y268667D01*
X385150Y268750D01*
X384857Y268667D01*
X384600Y268458D01*
X384490Y268167D01*
X384563Y267875D01*
X384747Y267667D01*
X384967Y267583D01*
X385333D01*
X385663Y267458D01*
X385883Y267208D01*
X385957Y266917D01*
X385883Y266625D01*
X385700Y266417D01*
X385407Y266292D01*
X385150Y266250D01*
G01X389042Y253607D02*
X389167Y253387D01*
X389250Y253130D01*
Y252837D01*
X389125Y252507D01*
X388917Y252250D01*
X388667Y252067D01*
X388250Y251920D01*
X387875Y251883D01*
X387500Y251957D01*
X387250Y252067D01*
X387000Y252287D01*
X386833Y252543D01*
X386750Y252800D01*
Y253057D01*
X386833Y253313D01*
X386958Y253533D01*
X387125Y253717D01*
G01X388833Y254803D02*
X389083Y255023D01*
X389208Y255280D01*
X389250Y255573D01*
X389167Y255940D01*
X388958Y256197D01*
X388708Y256270D01*
X388458Y256233D01*
X388250Y256087D01*
X387833Y255353D01*
X387542Y255023D01*
X387125Y254803D01*
X386750Y254730D01*
Y256270D01*
G01Y258127D02*
X387292Y258200D01*
X387750Y258310D01*
X388167Y258457D01*
X388625Y258640D01*
X389250Y258933D01*
Y257467D01*
G01X387393Y264542D02*
X387613Y264667D01*
X387870Y264750D01*
X388163D01*
X388493Y264625D01*
X388750Y264417D01*
X388933Y264167D01*
X389080Y263750D01*
X389117Y263375D01*
X389043Y263000D01*
X388933Y262750D01*
X388713Y262500D01*
X388457Y262333D01*
X388200Y262250D01*
X387943D01*
X387687Y262333D01*
X387467Y262458D01*
X387283Y262625D01*
G01X385500Y262250D02*
Y264750D01*
X385940Y264250D01*
G01Y262250D02*
X385060D01*
G01X383423Y262542D02*
X383167Y262333D01*
X382873Y262250D01*
X382580Y262333D01*
X382323Y262583D01*
X382140Y262958D01*
X382067Y263333D01*
Y263792D01*
X382140Y264167D01*
X382323Y264500D01*
X382543Y264667D01*
X382800Y264750D01*
X383093Y264667D01*
X383313Y264500D01*
X383460Y264250D01*
X383533Y263917D01*
X383460Y263625D01*
X383277Y263333D01*
X383057Y263167D01*
X382800Y263125D01*
X382507Y263208D01*
X382287Y263417D01*
X382067Y263792D01*
G01X383743Y293542D02*
X383963Y293667D01*
X384220Y293750D01*
X384513D01*
X384843Y293625D01*
X385100Y293417D01*
X385283Y293167D01*
X385430Y292750D01*
X385467Y292375D01*
X385393Y292000D01*
X385283Y291750D01*
X385063Y291500D01*
X384807Y291333D01*
X384550Y291250D01*
X384293D01*
X384037Y291333D01*
X383817Y291458D01*
X383633Y291625D01*
G01X381410Y291250D02*
Y293750D01*
X382767Y291958D01*
X380933D01*
G01X379150Y291250D02*
Y293750D01*
X379590Y293250D01*
G01Y291250D02*
X378710D01*
G01X376523D02*
X376450Y291792D01*
X376340Y292250D01*
X376193Y292667D01*
X376010Y293125D01*
X375717Y293750D01*
X377183D01*
G01X360350Y339750D02*
Y337250D01*
G01X361193Y339750D02*
X359507D01*
G01X358347Y339333D02*
X358127Y339583D01*
X357870Y339708D01*
X357577Y339750D01*
X357210Y339667D01*
X356953Y339458D01*
X356880Y339208D01*
X356917Y338958D01*
X357063Y338750D01*
X357797Y338333D01*
X358127Y338042D01*
X358347Y337625D01*
X358420Y337250D01*
X356880D01*
G01X364393Y353542D02*
X364613Y353667D01*
X364870Y353750D01*
X365163D01*
X365493Y353625D01*
X365750Y353417D01*
X365933Y353167D01*
X366080Y352750D01*
X366117Y352375D01*
X366043Y352000D01*
X365933Y351750D01*
X365713Y351500D01*
X365457Y351333D01*
X365200Y351250D01*
X364943D01*
X364687Y351333D01*
X364467Y351458D01*
X364283Y351625D01*
G01X363307D02*
X363087Y351417D01*
X362830Y351292D01*
X362500Y351250D01*
X362170Y351333D01*
X361913Y351500D01*
X361730Y351792D01*
X361693Y352125D01*
X361767Y352458D01*
X361950Y352667D01*
X362207Y352833D01*
X362463Y352875D01*
X362720Y352833D01*
X363050Y352667D01*
X362940Y353750D01*
X361950D01*
G01X359800D02*
X360093Y353667D01*
X360313Y353458D01*
X360460Y353208D01*
X360570Y352875D01*
X360607Y352500D01*
X360570Y352125D01*
X360460Y351792D01*
X360313Y351542D01*
X360093Y351333D01*
X359800Y351250D01*
X359507Y351333D01*
X359287Y351542D01*
X359140Y351792D01*
X359030Y352125D01*
X358993Y352500D01*
X359030Y352875D01*
X359140Y353208D01*
X359287Y353458D01*
X359507Y353667D01*
X359800Y353750D01*
G01X364893Y348042D02*
X365113Y348167D01*
X365370Y348250D01*
X365663D01*
X365993Y348125D01*
X366250Y347917D01*
X366433Y347667D01*
X366580Y347250D01*
X366617Y346875D01*
X366543Y346500D01*
X366433Y346250D01*
X366213Y346000D01*
X365957Y345833D01*
X365700Y345750D01*
X365443D01*
X365187Y345833D01*
X364967Y345958D01*
X364783Y346125D01*
G01X362560Y345750D02*
Y348250D01*
X363917Y346458D01*
X362083D01*
G01X360923Y346042D02*
X360667Y345833D01*
X360373Y345750D01*
X360080Y345833D01*
X359823Y346083D01*
X359640Y346458D01*
X359567Y346833D01*
Y347292D01*
X359640Y347667D01*
X359823Y348000D01*
X360043Y348167D01*
X360300Y348250D01*
X360593Y348167D01*
X360813Y348000D01*
X360960Y347750D01*
X361033Y347417D01*
X360960Y347125D01*
X360777Y346833D01*
X360557Y346667D01*
X360300Y346625D01*
X360007Y346708D01*
X359787Y346917D01*
X359567Y347292D01*
G01X382243Y339042D02*
X382463Y339167D01*
X382720Y339250D01*
X383013D01*
X383343Y339125D01*
X383600Y338917D01*
X383783Y338667D01*
X383930Y338250D01*
X383967Y337875D01*
X383893Y337500D01*
X383783Y337250D01*
X383563Y337000D01*
X383307Y336833D01*
X383050Y336750D01*
X382793D01*
X382537Y336833D01*
X382317Y336958D01*
X382133Y337125D01*
G01X379910Y336750D02*
Y339250D01*
X381267Y337458D01*
X379433D01*
G01X377650Y336750D02*
Y339250D01*
X378090Y338750D01*
G01Y336750D02*
X377210D01*
G01X374950D02*
X374693Y336792D01*
X374400Y336917D01*
X374217Y337125D01*
X374143Y337417D01*
X374217Y337708D01*
X374437Y337958D01*
X374767Y338083D01*
X375133D01*
X375353Y338167D01*
X375537Y338375D01*
X375610Y338667D01*
X375500Y338958D01*
X375243Y339167D01*
X374950Y339250D01*
X374657Y339167D01*
X374400Y338958D01*
X374290Y338667D01*
X374363Y338375D01*
X374547Y338167D01*
X374767Y338083D01*
X375133D01*
X375463Y337958D01*
X375683Y337708D01*
X375757Y337417D01*
X375683Y337125D01*
X375500Y336917D01*
X375207Y336792D01*
X374950Y336750D01*
G01X351566Y381617D02*
X354066D01*
Y382533D01*
X353942Y382827D01*
X353775Y383010D01*
X353442Y383083D01*
X353108Y383010D01*
X352900Y382790D01*
X352775Y382533D01*
Y381617D01*
G01Y382533D02*
X351566Y383083D01*
G01X353650Y384353D02*
X353900Y384573D01*
X354025Y384830D01*
X354066Y385123D01*
X353983Y385490D01*
X353775Y385747D01*
X353525Y385820D01*
X353275Y385783D01*
X353066Y385637D01*
X352650Y384903D01*
X352358Y384573D01*
X351941Y384353D01*
X351566Y384280D01*
Y385820D01*
G01Y388190D02*
X354066D01*
X352275Y386833D01*
Y388667D01*
G01X363393Y358542D02*
X363613Y358667D01*
X363870Y358750D01*
X364163D01*
X364493Y358625D01*
X364750Y358417D01*
X364933Y358167D01*
X365080Y357750D01*
X365117Y357375D01*
X365043Y357000D01*
X364933Y356750D01*
X364713Y356500D01*
X364457Y356333D01*
X364200Y356250D01*
X363943D01*
X363687Y356333D01*
X363467Y356458D01*
X363283Y356625D01*
G01X362307D02*
X362087Y356417D01*
X361830Y356292D01*
X361500Y356250D01*
X361170Y356333D01*
X360913Y356500D01*
X360730Y356792D01*
X360693Y357125D01*
X360767Y357458D01*
X360950Y357667D01*
X361207Y357833D01*
X361463Y357875D01*
X361720Y357833D01*
X362050Y357667D01*
X361940Y358750D01*
X360950D01*
G01X358800Y356250D02*
Y358750D01*
X359240Y358250D01*
G01Y356250D02*
X358360D01*
X323000Y7293D03*
G54D61*
G01X66400Y170300D02*
Y176500D01*
G01Y187700D02*
Y181400D01*
G01Y187700D02*
X74600D01*
G01Y170300D02*
X66400D01*
G01X61500Y179600D02*
Y180900D01*
G01Y178400D02*
Y177000D01*
G01X63400Y179600D02*
X59700D01*
G01X63400Y178400D02*
X59700D01*
G01X57400Y170300D02*
Y176500D01*
G01Y187700D02*
Y181400D01*
G01Y187700D02*
X65600D01*
G01Y170300D02*
Y176400D01*
G01Y170300D02*
X57400D01*
G01X65600Y187700D02*
Y181200D01*
G01X71900Y213100D02*
X68200D01*
G01X71900Y211900D02*
X68200D01*
G01X65900Y203800D02*
Y210000D01*
G01Y221200D02*
Y214900D01*
G01Y221200D02*
X74100D01*
G01Y203800D02*
X65900D01*
G01X70500Y179600D02*
Y180900D01*
G01Y178400D02*
Y177000D01*
G01X72400Y179600D02*
X68700D01*
G01X72400Y178400D02*
X68700D01*
G01X74600Y170300D02*
Y176400D01*
G01Y187700D02*
Y181200D01*
G01X76000Y160000D02*
X73000D01*
G01X74500Y162000D02*
Y158000D01*
G01X70000Y213100D02*
Y214400D01*
G01Y211900D02*
Y210500D01*
G01X74100Y203800D02*
Y209900D01*
G01Y221200D02*
Y214700D01*
G01X97000Y301000D02*
X94000D01*
G01X95500Y303000D02*
Y299000D01*
G01X105600Y314601D02*
Y330399D01*
X114400D01*
Y314601D01*
X105600D01*
G01X110850Y346250D02*
Y349750D01*
X104150D01*
Y346250D01*
X110850D01*
G01X97000Y321000D02*
X94000D01*
G01X95500Y323000D02*
Y319000D01*
G01X155240Y307209D02*
Y307146D01*
X147760D01*
Y307209D01*
G01X128189Y350154D02*
X128906D01*
G01D02*
Y356846D01*
G01X117094Y350154D02*
X117811D01*
G01X117094Y356846D02*
Y350154D01*
G01X136850Y341250D02*
Y344750D01*
X130150D01*
Y341250D01*
X136850D01*
G01X128350Y341250D02*
Y344750D01*
X121650D01*
Y341250D01*
X128350D01*
G01X130250Y345650D02*
X133750D01*
Y352350D01*
X130250D01*
Y345650D01*
G01X147760Y312854D02*
X155240D01*
Y312691D01*
G01X147760Y312668D02*
Y312854D01*
G01X119250Y330350D02*
Y328000D01*
G01X115750Y330350D02*
X119250D01*
G01X115750Y328000D02*
Y330350D01*
G01Y323650D02*
Y326000D01*
G01X119250Y323650D02*
X115750D01*
G01X119250Y326000D02*
Y323650D01*
G01X115750Y315150D02*
Y317500D01*
G01X119250Y315150D02*
X115750D01*
G01X119250Y317500D02*
Y315150D01*
G01Y321850D02*
Y319500D01*
G01X115750Y321850D02*
X119250D01*
G01X115750Y319500D02*
Y321850D01*
G01X112250Y343150D02*
Y345500D01*
G01X115750Y343150D02*
X112250D01*
G01X115750Y345500D02*
Y343150D01*
G01Y349850D02*
Y347500D01*
G01X112250Y349850D02*
X115750D01*
G01X112250Y347500D02*
Y349850D01*
G01X128906Y356846D02*
X128189D01*
G01X117811D02*
X117094D01*
G01X119100Y379950D02*
X118500D01*
G01X119100Y379350D02*
Y379950D01*
G01X108900D02*
X109500D01*
G01X108900Y379350D02*
Y379950D01*
G01Y375050D02*
X109500D01*
G01X108900Y375650D02*
Y375050D01*
G01X119100D02*
X118500D01*
G01X119100Y375650D02*
Y375050D01*
G01Y373950D02*
X118500D01*
G01X119100Y373350D02*
Y373950D01*
G01X108900D02*
X109500D01*
G01X108900Y373350D02*
Y373950D01*
G01Y369050D02*
X109500D01*
G01X108900Y369650D02*
Y369050D01*
G01X119100D02*
X118500D01*
G01X119100Y369650D02*
Y369050D01*
G01X110650Y367750D02*
X113000D01*
G01X110650Y364250D02*
Y367750D01*
G01X113000Y364250D02*
X110650D01*
G01X117350D02*
X115000D01*
G01X117350Y367750D02*
Y364250D01*
G01X115000Y367750D02*
X117350D01*
G01X148850Y373000D02*
X142150D01*
G01X148850D02*
Y377950D01*
G01Y385000D02*
Y380050D01*
G01Y385000D02*
X142150D01*
G01D02*
Y379750D01*
G01Y373000D02*
Y378150D01*
G01X146000Y362400D02*
Y361100D01*
G01Y363600D02*
Y365000D01*
G01X144100Y362400D02*
X147800D01*
G01X144100Y363600D02*
X147800D01*
G01X150100Y354300D02*
X141900D01*
G01Y371700D02*
Y365600D01*
G01Y371700D02*
X150100D01*
G01X141900Y354300D02*
Y360800D01*
G01X160010Y307800D02*
Y312200D01*
G01X160610Y307800D02*
Y312200D01*
G01X161210Y307800D02*
Y312200D01*
G01X175528Y349074D02*
X171591D01*
G01X175528Y333327D02*
X171591D01*
G01X175331Y341201D02*
X173362D01*
G01X184780Y323682D02*
Y321712D01*
G01X180646Y326634D02*
X179071D01*
X178283Y327422D01*
Y328997D01*
G01X164650Y327750D02*
Y324250D01*
X171350D01*
Y327750D01*
X164650D01*
G01X151650Y336250D02*
Y332750D01*
X158350D01*
Y336250D01*
X151650D01*
G01Y331750D02*
Y328250D01*
X158350D01*
Y331750D01*
X151650D01*
G01X151650Y317750D02*
Y314250D01*
X158350D01*
Y317750D01*
X151650D01*
G01X164650Y332250D02*
Y328750D01*
X171350D01*
Y332250D01*
X164650D01*
G01X156000Y318250D02*
X158350D01*
Y321750D01*
X156000D01*
G01X154000D02*
X151635D01*
Y318250D01*
X153985D01*
G01X169750Y339000D02*
Y335000D01*
G01X173250D02*
Y339000D01*
G01X187750Y320000D02*
Y316000D01*
G01X164750Y341150D02*
Y343500D01*
G01X168250Y341150D02*
X164750D01*
G01X168250Y343500D02*
Y341150D01*
G01Y347850D02*
Y345500D01*
G01X164750Y347850D02*
X168250D01*
G01X164750Y345500D02*
Y347850D01*
G01X169250Y341150D02*
Y343500D01*
G01X172750Y341150D02*
X169250D01*
G01X172750Y343500D02*
Y341150D01*
G01Y347850D02*
Y345500D01*
G01X169250Y347850D02*
X172750D01*
G01X169250Y345500D02*
Y347850D01*
G01X168250Y340350D02*
Y338000D01*
G01X164750Y340350D02*
X168250D01*
G01X164750Y338000D02*
Y340350D01*
G01Y333650D02*
Y336000D01*
G01X168250Y333650D02*
X164750D01*
G01X168250Y336000D02*
Y333650D01*
G01X165150Y348750D02*
Y352250D01*
G01X167500Y348750D02*
X165150D01*
G01X171850D02*
X169500D01*
G01X171850Y352250D02*
Y348750D01*
G01X175331Y356948D02*
X173362D01*
G01X187929Y364627D02*
Y366595D01*
G01X178283Y359704D02*
Y361280D01*
X179071Y362067D01*
G01D02*
X180252D01*
G01X164000Y369000D02*
G03I-2000J0D01*
G01X177750Y370000D02*
Y367750D01*
X181250D01*
Y374250D01*
X177750D01*
Y372000D01*
G01X173550Y373150D02*
X172950D01*
G01X173550Y373750D02*
Y373150D01*
G01Y379850D02*
Y379250D01*
G01X172950Y379850D02*
X173550D01*
G01X162050Y373150D02*
X161450D01*
G01D02*
Y373750D01*
G01Y379850D02*
X162050D01*
G01X161450Y379250D02*
Y379850D01*
G01X175750Y371350D02*
Y369000D01*
G01X172250Y371350D02*
X175750D01*
G01X172250Y369000D02*
Y371350D01*
G01Y364650D02*
Y367000D01*
G01X175750Y364650D02*
X172250D01*
G01X175750Y367000D02*
Y364650D01*
G01X165150Y356750D02*
X167500D01*
G01X165150Y353250D02*
Y356750D01*
G01X167500Y353250D02*
X165150D01*
G01X171850D02*
X169500D01*
G01X171850Y356750D02*
Y353250D01*
G01X169500Y356750D02*
X171850D01*
G01X165150Y352250D02*
X167500D01*
G01X169500D02*
X171850D01*
G01X151150Y371000D02*
X157850D01*
G01X151150D02*
Y366050D01*
G01Y359000D02*
Y363950D01*
G01Y359000D02*
X157850D01*
G01D02*
Y364250D01*
G01Y371000D02*
Y365850D01*
G01Y373000D02*
X151150D01*
G01X157850D02*
Y377950D01*
G01Y385000D02*
Y380050D01*
G01Y385000D02*
X151150D01*
G01D02*
Y379750D01*
G01Y373000D02*
Y378150D01*
G01X150100Y371700D02*
Y365500D01*
G01Y354300D02*
Y360600D01*
G01X217343Y305729D02*
X230257D01*
G01X217343Y321871D02*
Y305729D01*
G01X192654Y323879D02*
Y319941D01*
G01X200528Y323682D02*
Y321712D01*
G01X208402Y323879D02*
Y319941D01*
G01X216669Y334902D02*
X218638D01*
G01X216472Y342776D02*
X220409D01*
G01X213717Y328997D02*
Y327422D01*
X212929Y326634D01*
X211354D01*
G01X230257Y321871D02*
X217343D01*
G01X205650Y317250D02*
Y313750D01*
X212350D01*
Y317250D01*
X205650D01*
G01Y321750D02*
Y318250D01*
X212350D01*
Y321750D01*
X205650D01*
G01X200750Y315150D02*
X204250D01*
Y321850D01*
X200750D01*
Y315150D01*
G01X213150Y314900D02*
Y310900D01*
G01X216650D02*
Y314900D01*
G01X216450Y318100D02*
Y322100D01*
G01X212950D02*
Y318100D01*
G01X195250Y316000D02*
Y320000D01*
G01X191750D02*
Y316000D01*
G01X191250D02*
Y320000D01*
G01X216472Y358523D02*
X220409D01*
G01X216669Y350649D02*
X218638D01*
G01X203677Y364627D02*
Y366595D01*
G01X195803Y364822D02*
Y368760D01*
G01X211354Y362067D02*
X212929D01*
X213717Y361280D01*
Y360098D01*
G01X215850Y373750D02*
Y377250D01*
X209150D01*
Y373750D01*
X215850D01*
G01X224250Y354150D02*
Y357650D01*
X217550D01*
Y354150D01*
X224250D01*
G01X209050Y383250D02*
X211400D01*
G01X209050Y379750D02*
Y383250D01*
G01X211400Y379750D02*
X209050D01*
G01X215750D02*
X213400D01*
G01X215750Y383250D02*
Y379750D01*
G01X213400Y383250D02*
X215750D01*
G01X230257Y305729D02*
Y315769D01*
G01Y320296D02*
Y321871D01*
G01X232265Y318131D02*
G03I-985J0D01*
G01X242850Y349500D02*
X236150D01*
G01X242850D02*
Y354450D01*
G01X236150Y349500D02*
Y354650D01*
G01Y348500D02*
X242850D01*
G01X236150D02*
Y343550D01*
G01Y336500D02*
Y341450D01*
G01Y336500D02*
X242850D01*
G01D02*
Y341750D01*
G01Y348500D02*
Y343350D01*
G01X245150Y343500D02*
X251850D01*
G01X245150D02*
Y338550D01*
G01Y331500D02*
Y336450D01*
G01Y331500D02*
X251850D01*
G01D02*
Y336750D01*
G01Y343500D02*
Y338350D01*
G01X243900Y344300D02*
Y350500D01*
G01X252100Y344300D02*
Y350400D01*
G01Y344300D02*
X243900D01*
G01X266811Y367846D02*
X266094D01*
G01Y361154D02*
X266811D01*
G01X266094Y367846D02*
Y361154D01*
G01X259400Y357200D02*
G03I-2000J0D01*
G01X246150Y372250D02*
Y368750D01*
X252850D01*
Y372250D01*
X246150D01*
G01Y381750D02*
Y378250D01*
X252850D01*
Y381750D01*
X246150D01*
G01X267750Y374650D02*
X271250D01*
Y381350D01*
X267750D01*
Y374650D01*
G01X267250Y381350D02*
X263750D01*
Y374650D01*
X267250D01*
Y381350D01*
G01X242850Y361500D02*
Y356550D01*
G01Y361500D02*
X236150D01*
G01D02*
Y356250D01*
G01X248000Y353600D02*
Y354900D01*
G01Y352400D02*
Y351000D01*
G01X249900Y353600D02*
X246200D01*
G01X249900Y352400D02*
X246200D01*
G01X243900Y361700D02*
Y355400D01*
G01Y361700D02*
X252100D01*
G01D02*
Y355200D01*
G01X292500Y342500D02*
G03I-2000J0D01*
G01X276400Y338050D02*
X277000D01*
G01X276400Y338650D02*
Y338050D01*
G01X286600D02*
X286000D01*
G01X286600Y338650D02*
Y338050D01*
G01Y342950D02*
X286000D01*
G01X286600Y342350D02*
Y342950D01*
G01X276400D02*
X277000D01*
G01X276400Y342350D02*
Y342950D01*
G01Y344550D02*
X277000D01*
G01X276400Y345150D02*
Y344550D01*
G01X286600D02*
X286000D01*
G01X286600Y345150D02*
Y344550D01*
G01Y349450D02*
X286000D01*
G01X286600Y348850D02*
Y349450D01*
G01X276400D02*
X277000D01*
G01X276400Y348850D02*
Y349450D01*
G01X312350Y345500D02*
X305650D01*
G01D02*
Y350650D01*
G01X296850Y345500D02*
X290150D01*
G01X296850D02*
Y350450D01*
G01X290150Y345500D02*
Y350650D01*
G01X304850Y345500D02*
X298150D01*
G01X304850D02*
Y350450D01*
G01X298150Y345500D02*
Y350650D01*
G01X277906Y367846D02*
X277189D01*
G01Y361154D02*
X277906D01*
G01D02*
Y367846D01*
G01X275250Y381350D02*
X271750D01*
Y374650D01*
X275250D01*
Y381350D01*
G01X282250Y366350D02*
X278750D01*
Y359650D01*
X282250D01*
Y366350D01*
G01X282350Y374050D02*
Y371700D01*
G01X278850Y374050D02*
X282350D01*
G01X278850Y371700D02*
Y374050D01*
G01Y367350D02*
Y369700D01*
G01X282350Y367350D02*
X278850D01*
G01X282350Y369700D02*
Y367350D01*
G01X284350Y351250D02*
X282000D01*
G01X284350Y354750D02*
Y351250D01*
G01X282000Y354750D02*
X284350D01*
G01X277650D02*
X280000D01*
G01X277650Y351250D02*
Y354750D01*
G01X280000Y351250D02*
X277650D01*
G01X312350Y357500D02*
X305650D01*
G01D02*
Y352250D01*
G01X296850Y357500D02*
Y352550D01*
G01Y357500D02*
X290150D01*
G01D02*
Y352250D01*
G01X304850Y357500D02*
Y352550D01*
G01Y357500D02*
X298150D01*
G01D02*
Y352250D01*
G01X348250Y107150D02*
Y109500D01*
G01X351750Y107150D02*
X348250D01*
G01X351750Y123850D02*
X348250D01*
Y117150D01*
X351750D01*
Y123850D01*
G01X348250Y131350D02*
X351750D01*
G01X348250Y129000D02*
Y131350D01*
G01Y124650D02*
Y127000D01*
G01X351750Y124650D02*
X348250D01*
G01X348250Y113850D02*
X351750D01*
G01X348250Y111500D02*
Y113850D01*
G01X344500Y136100D02*
Y139100D01*
G01X346500Y137600D02*
X342500D01*
G01X337600Y187300D02*
Y193600D01*
G01Y187300D02*
X329400D01*
G01D02*
Y193800D01*
G01X344100Y172100D02*
Y175100D01*
G01X346100Y173600D02*
X342100D01*
G01X344250Y228150D02*
X347750D01*
Y234850D01*
X344250D01*
Y228150D01*
G01X348650Y227750D02*
Y231250D01*
G01X351000Y227750D02*
X348650D01*
G01X333500Y195400D02*
Y194100D01*
G01Y196600D02*
Y198000D01*
G01X331600Y195400D02*
X335300D01*
G01X331600Y196600D02*
X335300D01*
G01X337600Y204700D02*
Y198500D01*
G01X329400Y204700D02*
Y198600D01*
G01Y204700D02*
X337600D01*
G01X350850Y245750D02*
Y249250D01*
X344150D01*
Y245750D01*
X350850D01*
G01X348650Y235250D02*
Y231750D01*
X355350D01*
Y235250D01*
X348650D01*
G01X344150Y239750D02*
Y236250D01*
X350850D01*
Y239750D01*
X344150D01*
G01X344614Y260933D02*
Y290067D01*
X349981D01*
G01X350059Y260933D02*
X344614D01*
G01X350850Y249750D02*
X348500D01*
G01Y253250D02*
X350850D01*
G01X344150D02*
X346500D01*
G01X344150Y249750D02*
Y253250D01*
G01X346500Y249750D02*
X344150D01*
G01Y243750D02*
X346500D01*
G01X344150Y240250D02*
Y243750D01*
G01X346500Y240250D02*
X344150D01*
G01X350850D02*
X348500D01*
G01Y243750D02*
X350850D01*
G01X348650Y231250D02*
X351000D01*
G01X342000Y313350D02*
Y306650D01*
G01D02*
X347250D01*
G01X354000D02*
X348850D01*
G01X347400Y350050D02*
X348000D01*
G01X347400Y350650D02*
Y350050D01*
G01Y344050D02*
X348000D01*
G01X347400Y344650D02*
Y344050D01*
G01Y348950D02*
X348000D01*
G01X347400Y348350D02*
Y348950D01*
G01X337750Y326650D02*
Y329000D01*
G01X341250Y326650D02*
X337750D01*
G01X341250Y329000D02*
Y326650D01*
G01Y333350D02*
Y331000D01*
G01X337750Y333350D02*
X341250D01*
G01X337750Y331000D02*
Y333350D01*
G01X312350Y345500D02*
Y350450D01*
G01X354000Y313350D02*
X349050D01*
G01X342000D02*
X346950D01*
G01X354000Y328850D02*
X349050D01*
G01X342000D02*
X346950D01*
G01X342000D02*
Y322150D01*
G01D02*
X347250D01*
G01X354000D02*
X348850D01*
G01X354000Y321350D02*
X349050D01*
G01X342000D02*
X346950D01*
G01X342000D02*
Y314650D01*
G01D02*
X347250D01*
G01X354000D02*
X348850D01*
G01X317000Y350900D02*
Y349500D01*
G01X312900Y342800D02*
Y349000D01*
G01X321100Y342800D02*
Y348900D01*
G01Y342800D02*
X312900D01*
G01X337311Y371846D02*
X336594D01*
G01Y365154D02*
X337311D01*
G01X336594Y371846D02*
Y365154D01*
G01X348406Y371846D02*
X347689D01*
G01Y365154D02*
X348406D01*
G01D02*
Y371846D01*
G01X338250Y377650D02*
X341750D01*
Y384350D01*
X338250D01*
Y377650D01*
G01X345750Y384350D02*
X342250D01*
Y377650D01*
X345750D01*
Y384350D01*
G01X335750D02*
X332250D01*
Y377650D01*
X335750D01*
Y384350D01*
G01X347400Y354950D02*
X348000D01*
G01X347400Y354350D02*
Y354950D01*
G01X348650Y358850D02*
X351000D01*
G01X348650Y355350D02*
Y358850D01*
G01X351000Y355350D02*
X348650D01*
G01X312350Y357500D02*
Y352550D01*
G01X317000Y352100D02*
Y353400D01*
G01X318900Y352100D02*
X315200D01*
G01X318900Y350900D02*
X315200D01*
G01X312900Y360200D02*
Y353900D01*
G01Y360200D02*
X321100D01*
G01D02*
Y353700D01*
G01X369950Y40400D02*
Y41000D01*
G01X369350Y40400D02*
X369950D01*
G01Y50600D02*
Y50000D01*
G01X369350Y50600D02*
X369950D01*
G01X365050D02*
Y50000D01*
G01X365650Y50600D02*
X365050D01*
G01Y40400D02*
Y41000D01*
G01X365650Y40400D02*
X365050D01*
G01X364450D02*
Y41000D01*
G01X363850Y40400D02*
X364450D01*
G01Y50600D02*
Y50000D01*
G01X363850Y50600D02*
X364450D01*
G01X359550D02*
Y50000D01*
G01X360150Y50600D02*
X359550D01*
G01Y40400D02*
Y41000D01*
G01X360150Y40400D02*
X359550D01*
G01X363150Y69000D02*
Y64050D01*
G01Y57000D02*
Y61950D01*
G01Y57000D02*
X369850D01*
G01D02*
Y62250D01*
G01Y69000D02*
Y63850D01*
G01X361000Y77500D02*
G03I-2000J0D01*
G01X358850Y101750D02*
Y105250D01*
X352150D01*
Y101750D01*
X358850D01*
G01X390386Y106567D02*
Y77433D01*
X385019D01*
G01X368930D02*
X363614D01*
Y106567D01*
X368996D01*
G01X384941D02*
X390386D01*
G01X358850Y105750D02*
X356500D01*
G01X358850Y109250D02*
Y105750D01*
G01X352150D02*
Y109250D01*
G01X354500Y105750D02*
X352150D01*
G01X351750Y109500D02*
Y107150D01*
G01X363150Y73750D02*
X365500D01*
G01X363150Y70250D02*
Y73750D01*
G01X365500Y70250D02*
X363150D01*
G01X369850D02*
X367500D01*
G01X369850Y73750D02*
Y70250D01*
G01X367500Y73750D02*
X369850D01*
G01X363150Y69000D02*
X369850D01*
G01X390500Y76500D02*
Y73500D01*
G01X388500Y75000D02*
X392500D01*
G01X387750Y138850D02*
X384250D01*
Y132150D01*
X387750D01*
Y138850D01*
G01X381150Y121750D02*
Y118250D01*
X387850D01*
Y121750D01*
X381150D01*
G01X383850Y132250D02*
Y135750D01*
X377150D01*
Y132250D01*
X383850D01*
G01X387850Y127750D02*
Y131250D01*
X381150D01*
Y127750D01*
X387850D01*
G01X383850Y136250D02*
X381500D01*
G01X383850Y139750D02*
Y136250D01*
G01X381500Y139750D02*
X383850D01*
G01X377150D02*
X379500D01*
G01X377150Y136250D02*
Y139750D01*
G01X379500Y136250D02*
X377150D01*
G01X356500Y109250D02*
X358850D01*
G01X352150D02*
X354500D01*
G01X381150Y117750D02*
X383500D01*
G01X381150Y114250D02*
Y117750D01*
G01X383500Y114250D02*
X381150D01*
G01X387850D02*
X385500D01*
G01X387850Y117750D02*
Y114250D01*
G01X385500Y117750D02*
X387850D01*
G01Y122750D02*
X385500D01*
G01X387850Y126250D02*
Y122750D01*
G01X385500Y126250D02*
X387850D01*
G01X381150D02*
X383500D01*
G01X381150Y122750D02*
Y126250D01*
G01X383500Y122750D02*
X381150D01*
G01X351750Y131350D02*
Y129000D01*
G01Y127000D02*
Y124650D01*
G01X351750Y113850D02*
Y111500D01*
G01X355350Y227750D02*
X353000D01*
G01X355350Y231250D02*
Y227750D01*
G01X380750Y240150D02*
X384250D01*
Y246850D01*
X380750D01*
Y240150D01*
G01X373650Y266250D02*
Y262750D01*
X380350D01*
Y266250D01*
X373650D01*
G01X366070Y290067D02*
X371386D01*
Y260933D01*
X366004D01*
G01X350850Y253250D02*
Y249750D01*
G01Y243750D02*
Y240250D01*
G01X371150Y234750D02*
X373500D01*
G01X371150Y231250D02*
Y234750D01*
G01X373500Y231250D02*
X371150D01*
G01X377850D02*
X375500D01*
G01X377850Y234750D02*
Y231250D01*
G01X375500Y234750D02*
X377850D01*
G01X384250Y258850D02*
Y256500D01*
G01X380750Y258850D02*
X384250D01*
G01X380750Y256500D02*
Y258850D01*
G01Y252150D02*
Y254500D01*
G01X384250Y252150D02*
X380750D01*
G01X384250Y254500D02*
Y252150D01*
G01X353000Y231250D02*
X355350D01*
G01X373650Y261750D02*
X376000D01*
G01X373650Y258250D02*
Y261750D01*
G01X376000Y258250D02*
X373650D01*
G01X380350D02*
X378000D01*
G01X380350Y261750D02*
Y258250D01*
G01X378000Y261750D02*
X380350D01*
G01X354000Y313350D02*
Y306650D01*
G01X351000Y304000D02*
X354000D01*
G01X352500Y302000D02*
Y306000D01*
G01X355000Y335500D02*
G03I-2000J0D01*
G01X357600Y350050D02*
X357000D01*
G01X357600Y350650D02*
Y350050D01*
G01Y344050D02*
X357000D01*
G01X357600Y344650D02*
Y344050D01*
G01Y348950D02*
X357000D01*
G01X357600Y348350D02*
Y348950D01*
G01X354000Y328850D02*
Y322150D01*
G01Y321350D02*
Y314650D01*
G01X351000Y331000D02*
X354000D01*
G01X352500Y329000D02*
Y333000D01*
G01X350650Y368250D02*
Y364750D01*
X357350D01*
Y368250D01*
X350650D01*
G01X357600Y354950D02*
X357000D01*
G01X357600Y354350D02*
Y354950D01*
G01X357350Y369750D02*
X355000D01*
G01X357350Y373250D02*
Y369750D01*
G01X355000Y373250D02*
X357350D01*
G01X350650D02*
X353000D01*
G01X350650Y369750D02*
Y373250D01*
G01X353000Y369750D02*
X350650D01*
G01X355350Y355350D02*
X353000D01*
G01X355350Y358850D02*
Y355350D01*
G01X353000Y358850D02*
X355350D01*
G01X10000Y0D02*
X383701D01*
G03X393701Y10000I0J10000D01*
G01Y383701D01*
G03X383701Y393701I-10000J0D01*
G01X10000D01*
G03X0Y383701I0J-10000D01*
G01Y10000D01*
G03X10000Y0I10000J0D01*
G01X25685Y19685D02*
G03I-6000J0D01*
G01Y374016D02*
G03I-6000J0D01*
G01X93537Y289008D02*
G03X89537Y285008I0J-4000D01*
G01Y142850D01*
G03X93537Y138850I4000J0D01*
G01X100163D01*
G03X104163Y142850I0J4000D01*
G01Y285008D01*
G03X100163Y289008I-4000J0D01*
G01X93537D01*
G01D02*
X100163D01*
G02X104163Y285008I0J-4000D01*
G01Y142850D01*
G01X93537Y138850D02*
G02X89537Y142850I0J4000D01*
G01D02*
Y285008D01*
G02X93537Y289008I4000J0D01*
G01X100163Y138850D02*
X93537D01*
G01X104163Y142850D02*
G02X100163Y138850I-4000J0D01*
G01X137204Y102362D02*
G03I-5315J0D01*
G01Y291339D02*
G03I-5315J0D01*
G01X127501Y316944D02*
Y337944D01*
X142501D01*
Y316944D01*
X137001D01*
Y318444D01*
X133001D01*
Y316944D01*
X127501D01*
G01X193537Y289008D02*
G03X189537Y285008I0J-4000D01*
G01Y142850D01*
G03X193537Y138850I4000J0D01*
G01X200163D01*
G03X204163Y142850I0J4000D01*
G01Y285008D01*
G03X200163Y289008I-4000J0D01*
G01X193537D01*
G01D02*
X200163D01*
G02X204163Y285008I0J-4000D01*
G01Y142850D01*
G01X193537Y138850D02*
G02X189537Y142850I0J4000D01*
G01D02*
Y285008D01*
G02X193537Y289008I4000J0D01*
G01X200163Y138850D02*
X193537D01*
G01X204163Y142850D02*
G02X200163Y138850I-4000J0D01*
G01X238500Y383500D02*
Y362500D01*
X223500D01*
Y383500D01*
X229000D01*
Y382000D01*
X233000D01*
Y383500D01*
X238500D01*
G01X267126Y102362D02*
G03I-5315J0D01*
G01Y291339D02*
G03I-5315J0D01*
G01X293537Y289008D02*
G03X289537Y285008I0J-4000D01*
G01Y142850D01*
G03X293537Y138850I4000J0D01*
G01X300163D01*
G03X304163Y142850I0J4000D01*
G01Y285008D01*
G03X300163Y289008I-4000J0D01*
G01X293537D01*
G01D02*
X300163D01*
G02X304163Y285008I0J-4000D01*
G01Y142850D01*
G01X293537Y138850D02*
G02X289537Y142850I0J4000D01*
G01D02*
Y285008D01*
G02X293537Y289008I4000J0D01*
G01X300163Y138850D02*
X293537D01*
G01X304163Y142850D02*
G02X300163Y138850I-4000J0D01*
G01X380016Y19685D02*
G03I-6000J0D01*
G01Y374016D02*
G03I-6000J0D01*
G54D52*
X323000Y42726D03*
G54D16*
X60958Y21344D03*
X50958D03*
X103242D03*
X93242D03*
G54D25*
X105900Y348000D03*
X109100D03*
X131900Y343000D03*
X135100D03*
X123400Y343000D03*
X126600D03*
X132000Y350600D03*
Y347400D03*
X117500Y328600D03*
Y325400D03*
Y316900D03*
Y320100D03*
X114000Y344900D03*
Y348100D03*
X112400Y366000D03*
X115600D03*
X169600Y326000D03*
X166400D03*
X156600Y334500D03*
X153400D03*
X156600Y330000D03*
X153400D03*
X156600Y316000D03*
X153400D03*
X169600Y330500D03*
X166400D03*
X156600Y320000D03*
X153400D03*
X166500Y342900D03*
Y346100D03*
X171000Y342900D03*
Y346100D03*
X166500Y338600D03*
Y335400D03*
X166900Y350500D03*
X170100D03*
X174000Y369600D03*
Y366400D03*
X166900Y355000D03*
X170100D03*
X210600Y315500D03*
X207400D03*
X210600Y320000D03*
X207400D03*
X202500Y320100D03*
Y316900D03*
X210900Y375500D03*
X214100D03*
X219300Y355900D03*
X222500D03*
X210800Y381500D03*
X214000D03*
X251100Y370500D03*
X247900D03*
X251100Y380000D03*
X247900D03*
X269500Y379600D03*
Y376400D03*
X265500D03*
Y379600D03*
X273500Y376400D03*
Y379600D03*
X280500Y361400D03*
Y364600D03*
X280600Y372300D03*
Y369100D03*
X282600Y353000D03*
X279400D03*
X350000Y108900D03*
X350000Y118900D03*
Y122100D03*
X350000Y129600D03*
Y126400D03*
X350000Y112100D03*
X346000Y229900D03*
X350400Y229500D03*
X346000Y233100D03*
X345900Y247500D03*
X349100D03*
X350400Y233500D03*
X349100Y238000D03*
X345900D03*
X349100Y251500D03*
X345900D03*
Y242000D03*
X349100D03*
X339500Y328400D03*
Y331600D03*
X340000Y382600D03*
Y379400D03*
X344000D03*
Y382600D03*
X334000Y379400D03*
Y382600D03*
X350400Y357100D03*
X353900Y103500D03*
X357100D03*
X357100Y107500D03*
X353900D03*
X364900Y72000D03*
X368100D03*
X386000Y133900D03*
Y137100D03*
X386100Y120000D03*
X382900D03*
X378900Y134000D03*
X382100D03*
X382900Y129500D03*
X386100D03*
X382100Y138000D03*
X378900D03*
X382900Y116000D03*
X386100D03*
Y124500D03*
X382900D03*
X353600Y229500D03*
X382500Y245100D03*
Y241900D03*
X378600Y264500D03*
X375400D03*
X353600Y233500D03*
X372900Y233000D03*
X376100D03*
X382500Y257100D03*
Y253900D03*
X375400Y260000D03*
X378600D03*
X355600Y366500D03*
X352400D03*
X355600Y371500D03*
X352400D03*
X353600Y357100D03*
G54D43*
X179500Y372550D03*
Y369450D03*
G54D34*
X137906Y372500D03*
X126094D03*
X257094Y346000D03*
X268906D03*
X326094Y350500D03*
X337906D03*
G54D62*
G01X118110Y102362D02*
Y291339D01*
G01X261811Y88583D02*
X131889D01*
G02X118110Y102362I0J13779D01*
G01X137519Y161811D02*
Y165748D01*
G01X122637D02*
Y161811D01*
G01X137519D02*
X122637D01*
G01X137519Y247638D02*
Y251575D01*
G01D02*
X122637D01*
G01D02*
Y247638D01*
G01X131889Y305118D02*
X261811D01*
G02X275591Y291339I0J-13780D01*
G01X118110D02*
G02X131889Y305118I13780J0D01*
G01X275591Y291339D02*
Y102362D01*
G02X261811Y88583I-13779J1D01*
G01X256182Y165748D02*
Y161811D01*
G01X271063D02*
X256182D01*
G01X271063Y251575D02*
X256182D01*
G01D02*
Y247638D01*
G01X271063Y161811D02*
Y165748D01*
G01Y247638D02*
Y251575D01*
G54D53*
X350000Y46000D03*
Y56000D03*
Y66000D03*
Y76000D03*
G54D17*
X46401Y50990D03*
X107799D03*
G54D26*
X102187Y358965D03*
X131714D03*
G54D44*
X170850Y376500D03*
X164150D03*
G54D35*
X111250Y377500D03*
X116750D03*
X111250Y371500D03*
X116750D03*
X284250Y340500D03*
X278750D03*
X284250Y347000D03*
X278750D03*
X349750Y346500D03*
Y352500D03*
X355250Y346500D03*
Y352500D03*
G54D63*
G01X38000Y169000D02*
X69000D01*
X71500Y166500D01*
Y152500D01*
X69000Y150000D01*
X38000D01*
Y169000D01*
G01X59000Y310000D02*
X90000D01*
X92500Y307500D01*
Y293500D01*
X90000Y291000D01*
X59000D01*
Y310000D01*
G01Y330000D02*
X90000D01*
X92500Y327500D01*
Y313500D01*
X90000Y311000D01*
X59000D01*
Y330000D01*
G01X366500Y166000D02*
Y135000D01*
X364000Y132500D01*
X350000D01*
X347500Y135000D01*
Y166000D01*
X366500D01*
G01Y201500D02*
Y170500D01*
X364000Y168000D01*
X350000D01*
X347500Y170500D01*
Y201500D01*
X366500D01*
G01X371500Y40500D02*
Y71500D01*
X374000Y74000D01*
X388000D01*
X390500Y71500D01*
Y40500D01*
X371500D01*
G01X389000Y295000D02*
X358000D01*
X355500Y297500D01*
Y311500D01*
X358000Y314000D01*
X389000D01*
Y295000D01*
G01Y315500D02*
X358000D01*
X355500Y318000D01*
Y332000D01*
X358000Y334500D01*
X389000D01*
Y315500D01*
G54D45*
X220457Y10207D03*
X277543D03*
G54D27*
X145740Y47680D03*
G54D54*
X344800Y310000D03*
X351200D03*
X344800Y325500D03*
X351200D03*
X344800Y318000D03*
X351200D03*
G54D36*
X145500Y382200D03*
Y375800D03*
X154500Y361800D03*
Y368200D03*
Y382200D03*
Y375800D03*
X239500Y352300D03*
Y339300D03*
Y345700D03*
X248500Y334300D03*
Y340700D03*
X239500Y358700D03*
X309000Y348300D03*
X293500D03*
X301500D03*
X309000Y354700D03*
X293500D03*
X301500D03*
X366500Y59800D03*
Y66200D03*
G54D18*
X54600Y38982D03*
X99600D03*
G54D64*
G01X133235Y373505D02*
X130872Y375080D01*
X133235Y375867D01*
G01Y371142D02*
X130872Y372717D01*
X133235Y373505D01*
G01X133181Y368760D02*
X130819Y370335D01*
X133181Y371122D01*
G01X139480Y364035D02*
X141252D01*
Y380965D01*
X122748D01*
Y364035D01*
X139677D01*
G01X261765Y344995D02*
X264128Y343420D01*
X261765Y342633D01*
G01Y347358D02*
X264128Y345783D01*
X261765Y344995D01*
G01X261819Y349740D02*
X264181Y348165D01*
X261819Y347378D01*
G01X255520Y354465D02*
X253748D01*
Y337535D01*
X272252D01*
Y354465D01*
X255323D01*
G01X330765Y349495D02*
X333128Y347920D01*
X330765Y347133D01*
G01Y351858D02*
X333128Y350283D01*
X330765Y349495D01*
G01X324520Y358965D02*
X322748D01*
Y342035D01*
X341252D01*
Y358965D01*
X324323D01*
G01X330819Y354240D02*
X333181Y352665D01*
X330819Y351878D01*
G54D19*
X54600Y54061D03*
X99600D03*
G54D28*
X145740Y58310D03*
X173300Y47680D03*
X163460D03*
X155580D03*
X173300Y58310D03*
X163460D03*
X155580D03*
G54D55*
X367500Y48250D03*
Y42750D03*
X362000Y48250D03*
Y42750D03*
G54D46*
X220457Y33671D03*
X277543D03*
G54D37*
X178480Y350650D03*
Y349075D03*
Y347501D03*
Y345926D03*
Y344351D03*
Y342776D03*
Y341201D03*
Y339627D03*
Y338052D03*
Y336477D03*
Y334902D03*
Y333327D03*
Y331753D03*
Y330178D03*
Y358524D03*
Y356949D03*
Y355375D03*
Y353800D03*
Y352225D03*
X213520Y330178D03*
Y331753D03*
Y333327D03*
Y334902D03*
Y336477D03*
Y338052D03*
Y339627D03*
Y341201D03*
Y342776D03*
Y344351D03*
Y345926D03*
Y347501D03*
Y349075D03*
Y350650D03*
Y352225D03*
Y353800D03*
Y355375D03*
Y356949D03*
Y358524D03*
G54D65*
G01X71500Y152000D02*
X69500Y150000D01*
X66000D01*
G01X66500Y169000D02*
X69000D01*
X71500Y166500D01*
G01D02*
Y152000D01*
G01X92500Y293000D02*
X90500Y291000D01*
X87000D01*
G01X92500Y307500D02*
Y293000D01*
G01X87500Y310000D02*
X90000D01*
X92500Y307500D01*
G01Y313000D02*
X90500Y311000D01*
X87000D01*
G01X92500Y327500D02*
Y313000D01*
G01X87500Y330000D02*
X90000D01*
X92500Y327500D01*
G01X352065Y115000D02*
G03I-1565J0D01*
G01X351108D02*
G03I-608J0D01*
G01X349500Y132500D02*
X347500Y134500D01*
Y138000D01*
G01X364000Y132500D02*
X349500D01*
G01Y168000D02*
X347500Y170000D01*
Y173500D01*
G01X364000Y168000D02*
X349500D01*
G01X388500Y74000D02*
X390500Y72000D01*
Y68500D01*
G01X374000Y74000D02*
X388500D01*
G01X371500Y69000D02*
Y71500D01*
X374000Y74000D01*
G01X366500Y137500D02*
Y135000D01*
X364000Y132500D01*
G01X366500Y173000D02*
Y170500D01*
X364000Y168000D01*
G01X380565Y257000D02*
G03I-1565J0D01*
G01X379608D02*
G03I-608J0D01*
G01X355500Y297500D02*
Y312000D01*
G01X360500Y295000D02*
X358000D01*
X355500Y297500D01*
G01Y332500D02*
X357500Y334500D01*
X361000D01*
G01X355500Y318000D02*
Y332500D01*
G01X360500Y315500D02*
X358000D01*
X355500Y318000D01*
G01Y312000D02*
X357500Y314000D01*
X361000D01*
G54D47*
X220650Y309469D03*
X226950D03*
X220650Y318131D03*
X226950D03*
G54D56*
X381000Y45500D03*
Y68500D03*
X357000Y138000D03*
Y173500D03*
Y161000D03*
Y196500D03*
G54D29*
X131889Y102362D03*
Y291339D03*
X261811Y102362D03*
Y291339D03*
G54D38*
X181630Y326831D03*
X183205D03*
X184780D03*
X186354D03*
X187929D03*
X189504D03*
Y361871D03*
X187929D03*
X186354D03*
X184780D03*
X183205D03*
X181630D03*
X191079Y326831D03*
X192654D03*
X194228D03*
X195803D03*
X197378D03*
X198953D03*
X200528D03*
X202102D03*
X203677D03*
X205252D03*
X206827D03*
X208402D03*
X209976D03*
Y361871D03*
X208402D03*
X206827D03*
X205252D03*
X203677D03*
X202102D03*
X200528D03*
X198953D03*
X197378D03*
X195803D03*
X194228D03*
X192654D03*
X191079D03*
G54D66*
G01X119961Y363184D02*
G02I-800J0D01*
G01X276638Y354816D02*
G02I-800J0D01*
G01X347138Y358816D02*
G02I-800J0D01*
G54D57*
X377000Y104183D03*
Y79817D03*
X358000Y263317D03*
Y287683D03*
G54D39*
X196000Y344351D03*
G54D48*
X303059Y18316D03*
Y37214D03*
X342941Y18316D03*
Y37214D03*
G54D67*
G01X159448Y279528D02*
X202756D01*
G01X159448Y305118D02*
Y279528D01*
G01X202756Y305118D02*
Y291339D01*
G01Y279528D02*
Y305118D01*
G54D58*
X365500Y120500D03*
X366500Y246500D03*
G54D49*
X287500Y115000D03*
G54D59*
X355667Y113000D03*
Y118000D03*
Y123000D03*
Y128000D03*
X375333Y113000D03*
Y118000D03*
Y123000D03*
Y128000D03*
X376333Y254000D03*
Y249000D03*
Y244000D03*
Y239000D03*
X356667Y254000D03*
Y249000D03*
Y244000D03*
Y239000D03*
M02*
