G04 ================== begin FILE IDENTIFICATION RECORD ==================*
G04 Layout Name:  CM4_SATAX4_Substrate_V11-20210307.brd*
G04 Film Name:    SOLDER_BOT*
G04 File Format:  Gerber RS274X*
G04 File Origin:  Cadence Allegro 16.6-2015-S066*
G04 Origin Date:  Sun Mar 07 16:05:33 2021*
G04 *
G04 Layer:  BOARD GEOMETRY/SOLDERMASK_BOTTOM*
G04 Layer:  PACKAGE GEOMETRY/SOLDERMASK_BOTTOM*
G04 Layer:  PIN/SOLDERMASK_BOTTOM*
G04 Layer:  VIA CLASS/SOLDERMASK_BOTTOM*
G04 Layer:  BOARD GEOMETRY/OUTLINE*
G04 *
G04 Offset:    (0.000 0.000)*
G04 Mirror:    No*
G04 Mode:      Positive*
G04 Rotation:  0*
G04 FullContactRelief:  No*
G04 UndefLineWidth:     6.000*
G04 ================== end FILE IDENTIFICATION RECORD ====================*
%FSLAX55Y55*MOIN*%
%IR0*IPPOS*OFA0.00000B0.00000*MIA0B0*SFA1.00000B1.00000*%
%ADD60R,.1X.085*%
%ADD37R,.05X.152*%
%ADD25R,.085X.1*%
%ADD11C,.125*%
%ADD51O,.06811X.10039*%
%ADD54O,.100394X.05315*%
%ADD42R,.206X.206*%
%ADD32C,.143701*%
%ADD48O,.076772X.104331*%
%ADD19C,.131894*%
%ADD18O,.100394X.096457*%
%ADD17O,.070866X.103937*%
%ADD49O,.076772X.127953*%
%ADD61R,.14X.104*%
%ADD41O,.012X.044*%
%ADD40O,.044X.012*%
%ADD35R,.021X.053*%
%ADD59R,.04X.038*%
%ADD46R,.026X.025*%
%ADD36R,.066X.03*%
%ADD50R,.054X.061*%
%ADD38R,.038X.04*%
%ADD34R,.05X.038*%
%ADD47R,.043X.056*%
%ADD39R,.056X.045*%
%ADD24R,.071X.057*%
%ADD58R,.045X.056*%
%ADD33R,.0315X.011811*%
%ADD12C,.08*%
%ADD45C,.036*%
%ADD27R,.076X.046*%
%ADD10C,.045*%
%ADD53C,.046*%
%ADD13C,.065*%
%ADD31C,.058*%
%ADD64C,.077*%
%ADD16C,.05315*%
%ADD28R,.026X.026*%
%ADD29C,.051181*%
%ADD14R,.065X.065*%
%ADD30R,.058X.058*%
%ADD23C,.055118*%
%ADD20C,.055433*%
%ADD52C,.03189*%
%ADD26C,.03937*%
%ADD21C,.05937*%
%ADD15C,.059055*%
%ADD62R,.106299X.141732*%
%ADD55C,.070866*%
%ADD22R,.05937X.05937*%
%ADD57C,.066929*%
%ADD63R,.062992X.035433*%
%ADD56C,.092988*%
%ADD65C,.006*%
G75*
%LPD*%
G75*
G54D10*
X26865Y12505D03*
X12515D03*
Y26855D03*
X26865Y26845D03*
X29845Y19685D03*
X9545D03*
X19695Y9535D03*
Y29835D03*
X26865Y366836D03*
X12515D03*
Y381186D03*
X26865Y381176D03*
X29845Y374016D03*
X9545D03*
X19695Y363866D03*
Y384166D03*
X381196Y12505D03*
X366846D03*
Y26855D03*
X381196Y26845D03*
X384176Y19685D03*
X363876D03*
X374026Y9535D03*
Y29835D03*
X381196Y366836D03*
X366846D03*
Y381186D03*
X381196Y381176D03*
X384176Y374016D03*
X363876D03*
X374026Y363866D03*
Y384166D03*
G54D20*
X54600Y54061D03*
X99600D03*
G54D11*
X19685Y19685D03*
Y374016D03*
X133650Y37325D03*
Y59725D03*
X185350Y37325D03*
Y59725D03*
X374016Y19685D03*
Y374016D03*
G54D21*
X64600Y49061D03*
X59600Y63982D03*
X69600D03*
X64600Y73982D03*
X99600Y63982D03*
X89600Y49061D03*
X79600Y63982D03*
X89600D03*
X74600Y73982D03*
X84600D03*
X94600D03*
G54D30*
X145740Y47680D03*
G54D12*
X24500Y46500D03*
X41500Y378000D03*
X353100Y23000D03*
X375000Y348500D03*
G54D22*
X54600Y73982D03*
G54D31*
X145740Y58310D03*
X173300Y47680D03*
X163460D03*
X155580D03*
X173300Y58310D03*
X163460D03*
X155580D03*
G54D13*
X14000Y130000D03*
Y140000D03*
Y150000D03*
X387780Y158142D03*
Y175858D03*
G54D40*
X178480Y350650D03*
Y349075D03*
Y347501D03*
Y345926D03*
Y344351D03*
Y342776D03*
Y341201D03*
Y339627D03*
Y338052D03*
Y336477D03*
Y334902D03*
Y333327D03*
Y331753D03*
Y330178D03*
Y358524D03*
Y356949D03*
Y355375D03*
Y353800D03*
Y352225D03*
X213520Y330178D03*
Y331753D03*
Y333327D03*
Y334902D03*
Y336477D03*
Y338052D03*
Y339627D03*
Y341201D03*
Y342776D03*
Y344351D03*
Y345926D03*
Y347501D03*
Y349075D03*
Y350650D03*
Y352225D03*
Y353800D03*
Y355375D03*
Y356949D03*
Y358524D03*
G54D23*
X61161Y124539D03*
X151161D03*
X241161D03*
X331161D03*
G54D14*
X14000Y160000D03*
G54D50*
X220650Y309469D03*
X226950D03*
X220650Y318131D03*
X226950D03*
G54D41*
X181630Y326831D03*
X183205D03*
X184780D03*
X186354D03*
X187929D03*
X189504D03*
Y361871D03*
X187929D03*
X186354D03*
X184780D03*
X183205D03*
X181630D03*
X191079Y326831D03*
X192654D03*
X194228D03*
X195803D03*
X197378D03*
X198953D03*
X200528D03*
X202102D03*
X203677D03*
X205252D03*
X206827D03*
X208402D03*
X209976D03*
Y361871D03*
X208402D03*
X206827D03*
X205252D03*
X203677D03*
X202102D03*
X200528D03*
X198953D03*
X197378D03*
X195803D03*
X194228D03*
X192654D03*
X191079D03*
G54D32*
X131889Y102362D03*
Y291339D03*
X261811Y102362D03*
Y291339D03*
G54D15*
X13750Y301500D03*
Y311500D03*
Y321500D03*
Y331500D03*
G54D33*
X136141Y185433D03*
Y187008D03*
Y188583D03*
X124015Y185433D03*
Y187008D03*
Y188583D03*
X136141Y168110D03*
Y169685D03*
Y171260D03*
Y172835D03*
Y174410D03*
Y175984D03*
Y177559D03*
Y179134D03*
Y180709D03*
Y182284D03*
Y183858D03*
X124015Y168110D03*
Y169685D03*
Y171260D03*
Y172835D03*
Y174410D03*
Y175984D03*
Y177559D03*
Y179134D03*
Y180709D03*
Y182284D03*
Y183858D03*
X136141Y220079D03*
Y221654D03*
Y223228D03*
Y224803D03*
Y226378D03*
Y227953D03*
Y229528D03*
X124015Y220079D03*
Y221654D03*
Y223228D03*
Y224803D03*
Y226378D03*
Y227953D03*
Y229528D03*
X136141Y202756D03*
Y204331D03*
Y205906D03*
Y207480D03*
Y209055D03*
Y210630D03*
Y212205D03*
Y213780D03*
Y215354D03*
Y216929D03*
Y218504D03*
X124015Y202756D03*
Y204331D03*
Y205906D03*
Y207480D03*
Y209055D03*
Y210630D03*
Y212205D03*
Y213780D03*
Y215354D03*
Y216929D03*
Y218504D03*
X136141Y190158D03*
Y191732D03*
Y193307D03*
Y194882D03*
Y196457D03*
Y198032D03*
Y199606D03*
Y201181D03*
X124015Y190158D03*
Y191732D03*
Y193307D03*
Y194882D03*
Y196457D03*
Y198032D03*
Y199606D03*
Y201181D03*
X136141Y235827D03*
Y237402D03*
Y238976D03*
Y240551D03*
Y242126D03*
Y243701D03*
Y245276D03*
X124015Y235827D03*
Y237402D03*
Y238976D03*
Y240551D03*
Y242126D03*
Y243701D03*
Y245276D03*
X136141Y231102D03*
Y232677D03*
Y234252D03*
X124015Y231102D03*
Y232677D03*
Y234252D03*
X257560Y168110D03*
X269685D03*
X257560Y169685D03*
X269685D03*
X257560Y171260D03*
X269685D03*
X257560Y172835D03*
X269685D03*
X257560Y174410D03*
X269685D03*
X257560Y175984D03*
X269685D03*
X257560Y177559D03*
X269685D03*
X257560Y179134D03*
X269685D03*
X257560Y180709D03*
X269685D03*
X257560Y182284D03*
X269685D03*
X257560Y183858D03*
X269685D03*
X257560Y185433D03*
X269685D03*
X257560Y187008D03*
X269685D03*
X257560Y188583D03*
X269685D03*
X257560Y190158D03*
X269685D03*
X257560Y191732D03*
X269685D03*
X257560Y193307D03*
X269685D03*
X257560Y194882D03*
X269685D03*
X257560Y196457D03*
X269685D03*
X257560Y198032D03*
X269685D03*
X257560Y199606D03*
X269685D03*
X257560Y201181D03*
X269685D03*
X257560Y202756D03*
X269685D03*
X257560Y204331D03*
X269685D03*
X257560Y205906D03*
X269685D03*
X257560Y207480D03*
X269685D03*
X257560Y209055D03*
X269685D03*
X257560Y210630D03*
X269685D03*
X257560Y212205D03*
X269685D03*
X257560Y213780D03*
X269685D03*
X257560Y215354D03*
X269685D03*
X257560Y216929D03*
X269685D03*
X257560Y218504D03*
X269685D03*
X257560Y220079D03*
X269685D03*
X257560Y221654D03*
X269685D03*
X257560Y223228D03*
X269685D03*
X257560Y224803D03*
X269685D03*
X257560Y226378D03*
X269685D03*
X257560Y227953D03*
X269685D03*
X257560Y229528D03*
X269685D03*
X257560Y231102D03*
X269685D03*
X257560Y232677D03*
X269685D03*
X257560Y234252D03*
X269685D03*
X257560Y235827D03*
X269685D03*
X257560Y237402D03*
X269685D03*
X257560Y238976D03*
X269685D03*
X257560Y240551D03*
X269685D03*
X257560Y242126D03*
X269685D03*
X257560Y243701D03*
X269685D03*
X257560Y245276D03*
X269685D03*
G54D24*
X70500Y173700D03*
Y184300D03*
X61500Y173700D03*
Y184300D03*
X70000Y207200D03*
Y217800D03*
X146000Y368300D03*
Y357700D03*
X248000Y347700D03*
Y358300D03*
X333500Y190700D03*
Y201300D03*
X317000Y346200D03*
Y356800D03*
G54D42*
X196000Y344351D03*
G54D51*
X303059Y18316D03*
Y37214D03*
X342941Y18316D03*
Y37214D03*
G54D60*
X381000Y45500D03*
Y68500D03*
X357000Y138000D03*
Y173500D03*
Y161000D03*
Y196500D03*
G36*
G01X170957Y337651D02*
X171074Y337606D01*
X171145Y337586D01*
X171192Y337573D01*
X171255Y337561D01*
X171313Y337550D01*
X171437Y337539D01*
X171559D01*
X171683Y337550D01*
X171739Y337561D01*
X171804Y337573D01*
X171849Y337586D01*
X171922Y337606D01*
X171959Y337620D01*
X172039Y337651D01*
X172064Y337663D01*
X172157Y337710D01*
X172164Y337715D01*
X172260Y337783D01*
Y337784D01*
X172350Y337861D01*
X172351Y337862D01*
X172430Y337946D01*
X172434Y337951D01*
X172504Y338037D01*
X172509Y338045D01*
X172569Y338135D01*
X172574Y338145D01*
X172624Y338238D01*
X172629Y338250D01*
X172670Y338345D01*
X172676Y338365D01*
X172707Y338457D01*
X172712Y338480D01*
X172733Y338574D01*
X172736Y338592D01*
X172748Y338689D01*
Y338690D01*
X172754Y338805D01*
X172748Y338921D01*
X172736Y339025D01*
X172712Y339134D01*
X172676Y339240D01*
X172629Y339341D01*
X172574Y339435D01*
X172509Y339523D01*
X172434Y339606D01*
X172351Y339680D01*
X172260Y339744D01*
X172164Y339799D01*
X172064Y339843D01*
X171959Y339877D01*
X171849Y339900D01*
X171739Y339911D01*
X171255D01*
X171145Y339899D01*
X171035Y339877D01*
X170926Y339841D01*
X170825Y339796D01*
X170729Y339740D01*
X170638Y339674D01*
X170554Y339598D01*
X170480Y339515D01*
X170414Y339424D01*
X170359Y339328D01*
X170314Y339225D01*
X170280Y339118D01*
X170258Y339009D01*
X170246Y338898D01*
X170247Y338797D01*
X170248Y338690D01*
X170258Y338601D01*
X170261Y338573D01*
X170280Y338479D01*
X170285Y338456D01*
X170314Y338361D01*
X170320Y338342D01*
X170359Y338249D01*
X170366Y338233D01*
X170414Y338143D01*
X170423Y338127D01*
X170480Y338043D01*
X170489Y338030D01*
X170554Y337950D01*
X170564Y337937D01*
X170649Y337853D01*
X170729Y337787D01*
X170740Y337778D01*
X170825Y337720D01*
X170841Y337709D01*
X170926Y337666D01*
X170957Y337651D01*
G37*
G36*
G01X188957Y318651D02*
X189074Y318606D01*
X189145Y318586D01*
X189192Y318573D01*
X189255Y318561D01*
X189313Y318550D01*
X189437Y318539D01*
X189559D01*
X189683Y318550D01*
X189739Y318561D01*
X189804Y318573D01*
X189849Y318586D01*
X189922Y318606D01*
X189959Y318620D01*
X190039Y318651D01*
X190064Y318663D01*
X190157Y318710D01*
X190164Y318715D01*
X190260Y318783D01*
Y318784D01*
X190350Y318861D01*
X190351Y318862D01*
X190430Y318946D01*
X190434Y318951D01*
X190504Y319037D01*
X190509Y319045D01*
X190569Y319135D01*
X190574Y319145D01*
X190624Y319238D01*
X190629Y319250D01*
X190670Y319345D01*
X190676Y319365D01*
X190707Y319457D01*
X190712Y319480D01*
X190733Y319574D01*
X190736Y319592D01*
X190748Y319689D01*
Y319690D01*
X190754Y319805D01*
X190748Y319921D01*
X190736Y320025D01*
X190712Y320134D01*
X190676Y320240D01*
X190629Y320341D01*
X190574Y320435D01*
X190509Y320523D01*
X190434Y320606D01*
X190351Y320680D01*
X190260Y320744D01*
X190164Y320799D01*
X190064Y320843D01*
X189959Y320877D01*
X189849Y320900D01*
X189739Y320911D01*
X189255D01*
X189145Y320899D01*
X189035Y320877D01*
X188926Y320841D01*
X188825Y320796D01*
X188729Y320740D01*
X188638Y320674D01*
X188554Y320598D01*
X188480Y320515D01*
X188414Y320424D01*
X188359Y320328D01*
X188314Y320225D01*
X188280Y320118D01*
X188258Y320009D01*
X188246Y319898D01*
X188247Y319797D01*
X188248Y319690D01*
X188258Y319601D01*
X188261Y319573D01*
X188280Y319479D01*
X188285Y319456D01*
X188314Y319361D01*
X188320Y319342D01*
X188359Y319249D01*
X188366Y319233D01*
X188414Y319143D01*
X188423Y319127D01*
X188480Y319043D01*
X188489Y319030D01*
X188554Y318950D01*
X188564Y318937D01*
X188649Y318853D01*
X188729Y318787D01*
X188740Y318778D01*
X188825Y318720D01*
X188841Y318709D01*
X188926Y318666D01*
X188957Y318651D01*
G37*
G36*
G01X214357Y313551D02*
X214474Y313506D01*
X214545Y313486D01*
X214592Y313473D01*
X214655Y313461D01*
X214713Y313450D01*
X214837Y313439D01*
X214959D01*
X215083Y313450D01*
X215139Y313461D01*
X215204Y313473D01*
X215249Y313486D01*
X215322Y313506D01*
X215359Y313520D01*
X215439Y313551D01*
X215464Y313563D01*
X215557Y313610D01*
X215564Y313615D01*
X215660Y313683D01*
Y313684D01*
X215750Y313761D01*
X215751Y313762D01*
X215830Y313846D01*
X215834Y313851D01*
X215904Y313937D01*
X215909Y313945D01*
X215969Y314035D01*
X215974Y314045D01*
X216024Y314138D01*
X216029Y314150D01*
X216070Y314245D01*
X216076Y314265D01*
X216107Y314357D01*
X216112Y314380D01*
X216133Y314474D01*
X216136Y314492D01*
X216148Y314589D01*
Y314590D01*
X216154Y314705D01*
X216148Y314821D01*
X216136Y314925D01*
X216112Y315034D01*
X216076Y315140D01*
X216029Y315241D01*
X215974Y315335D01*
X215909Y315423D01*
X215834Y315506D01*
X215751Y315580D01*
X215660Y315644D01*
X215564Y315699D01*
X215464Y315743D01*
X215359Y315777D01*
X215249Y315800D01*
X215139Y315811D01*
X214655D01*
X214545Y315799D01*
X214435Y315777D01*
X214326Y315741D01*
X214225Y315696D01*
X214129Y315640D01*
X214038Y315574D01*
X213954Y315498D01*
X213880Y315415D01*
X213814Y315324D01*
X213759Y315228D01*
X213714Y315125D01*
X213680Y315018D01*
X213658Y314909D01*
X213646Y314798D01*
X213647Y314697D01*
X213648Y314590D01*
X213658Y314501D01*
X213661Y314473D01*
X213680Y314379D01*
X213685Y314356D01*
X213714Y314261D01*
X213720Y314242D01*
X213759Y314149D01*
X213766Y314133D01*
X213814Y314043D01*
X213823Y314027D01*
X213880Y313943D01*
X213889Y313930D01*
X213954Y313850D01*
X213964Y313837D01*
X214049Y313753D01*
X214129Y313687D01*
X214140Y313678D01*
X214225Y313620D01*
X214241Y313609D01*
X214326Y313566D01*
X214357Y313551D01*
G37*
G36*
G01X214157Y320751D02*
X214274Y320706D01*
X214345Y320686D01*
X214392Y320673D01*
X214455Y320661D01*
X214513Y320650D01*
X214637Y320639D01*
X214759D01*
X214883Y320650D01*
X214939Y320661D01*
X215004Y320673D01*
X215049Y320686D01*
X215122Y320706D01*
X215159Y320720D01*
X215239Y320751D01*
X215264Y320763D01*
X215357Y320810D01*
X215364Y320815D01*
X215460Y320883D01*
Y320884D01*
X215550Y320961D01*
X215551Y320962D01*
X215630Y321046D01*
X215634Y321051D01*
X215704Y321137D01*
X215709Y321145D01*
X215769Y321235D01*
X215774Y321245D01*
X215824Y321338D01*
X215829Y321350D01*
X215870Y321445D01*
X215876Y321465D01*
X215907Y321557D01*
X215912Y321580D01*
X215933Y321674D01*
X215936Y321692D01*
X215948Y321789D01*
Y321790D01*
X215954Y321905D01*
X215948Y322021D01*
X215936Y322125D01*
X215912Y322234D01*
X215876Y322340D01*
X215829Y322441D01*
X215774Y322535D01*
X215709Y322623D01*
X215634Y322706D01*
X215551Y322780D01*
X215460Y322844D01*
X215364Y322899D01*
X215264Y322943D01*
X215159Y322977D01*
X215049Y323000D01*
X214939Y323011D01*
X214455D01*
X214345Y322999D01*
X214235Y322977D01*
X214126Y322941D01*
X214025Y322896D01*
X213929Y322840D01*
X213838Y322774D01*
X213754Y322698D01*
X213680Y322615D01*
X213614Y322524D01*
X213559Y322428D01*
X213514Y322325D01*
X213480Y322218D01*
X213458Y322109D01*
X213446Y321998D01*
X213447Y321897D01*
X213448Y321790D01*
X213458Y321701D01*
X213461Y321673D01*
X213480Y321579D01*
X213485Y321556D01*
X213514Y321461D01*
X213520Y321442D01*
X213559Y321349D01*
X213566Y321333D01*
X213614Y321243D01*
X213623Y321227D01*
X213680Y321143D01*
X213689Y321130D01*
X213754Y321050D01*
X213764Y321037D01*
X213849Y320953D01*
X213929Y320887D01*
X213940Y320878D01*
X214025Y320820D01*
X214041Y320809D01*
X214126Y320766D01*
X214157Y320751D01*
G37*
G36*
G01X192957Y318651D02*
X193074Y318606D01*
X193145Y318586D01*
X193192Y318573D01*
X193255Y318561D01*
X193313Y318550D01*
X193437Y318539D01*
X193559D01*
X193683Y318550D01*
X193739Y318561D01*
X193804Y318573D01*
X193849Y318586D01*
X193922Y318606D01*
X193959Y318620D01*
X194039Y318651D01*
X194064Y318663D01*
X194157Y318710D01*
X194164Y318715D01*
X194260Y318783D01*
Y318784D01*
X194350Y318861D01*
X194351Y318862D01*
X194430Y318946D01*
X194434Y318951D01*
X194504Y319037D01*
X194509Y319045D01*
X194569Y319135D01*
X194574Y319145D01*
X194624Y319238D01*
X194629Y319250D01*
X194670Y319345D01*
X194676Y319365D01*
X194707Y319457D01*
X194712Y319480D01*
X194733Y319574D01*
X194736Y319592D01*
X194748Y319689D01*
Y319690D01*
X194754Y319805D01*
X194748Y319921D01*
X194736Y320025D01*
X194712Y320134D01*
X194676Y320240D01*
X194629Y320341D01*
X194574Y320435D01*
X194509Y320523D01*
X194434Y320606D01*
X194351Y320680D01*
X194260Y320744D01*
X194164Y320799D01*
X194064Y320843D01*
X193959Y320877D01*
X193849Y320900D01*
X193739Y320911D01*
X193255D01*
X193145Y320899D01*
X193035Y320877D01*
X192926Y320841D01*
X192825Y320796D01*
X192729Y320740D01*
X192638Y320674D01*
X192554Y320598D01*
X192480Y320515D01*
X192414Y320424D01*
X192359Y320328D01*
X192314Y320225D01*
X192280Y320118D01*
X192258Y320009D01*
X192246Y319898D01*
X192247Y319797D01*
X192248Y319690D01*
X192258Y319601D01*
X192261Y319573D01*
X192280Y319479D01*
X192285Y319456D01*
X192314Y319361D01*
X192320Y319342D01*
X192359Y319249D01*
X192366Y319233D01*
X192414Y319143D01*
X192423Y319127D01*
X192480Y319043D01*
X192489Y319030D01*
X192554Y318950D01*
X192564Y318937D01*
X192649Y318853D01*
X192729Y318787D01*
X192740Y318778D01*
X192825Y318720D01*
X192841Y318709D01*
X192926Y318666D01*
X192957Y318651D01*
G37*
G54D52*
X287500Y115000D03*
G54D16*
X5246Y321500D03*
G54D34*
X146100Y310000D03*
X156900D03*
G54D61*
X377000Y104183D03*
Y79817D03*
X358000Y263317D03*
Y287683D03*
G54D25*
X43000Y159500D03*
X66000D03*
X64000Y300500D03*
Y320500D03*
X87000Y300500D03*
Y320500D03*
X384000Y304500D03*
X361000D03*
X384000Y325000D03*
X361000D03*
G54D62*
X365500Y120500D03*
X366500Y246500D03*
G54D26*
X61161Y273161D03*
X151161D03*
X241161D03*
X331161D03*
G54D53*
X287992Y377883D03*
X319488D03*
G54D35*
X126839Y348382D03*
X124280D03*
X121720D03*
X119161D03*
X126839Y358618D03*
X124280D03*
X121720D03*
X119161D03*
X268161Y359382D03*
X270720D03*
X268161Y369618D03*
X270720D03*
X273280Y359382D03*
X275839D03*
X273280Y369618D03*
X275839D03*
X338661Y363382D03*
X341220D03*
X343780D03*
X346339D03*
X338661Y373618D03*
X341220D03*
X343780D03*
X346339D03*
G36*
G01X172043Y336349D02*
X171926Y336394D01*
X171855Y336414D01*
X171808Y336427D01*
X171745Y336439D01*
X171687Y336450D01*
X171563Y336461D01*
X171441D01*
X171317Y336450D01*
X171261Y336439D01*
X171196Y336427D01*
X171151Y336414D01*
X171078Y336394D01*
X171041Y336380D01*
X170961Y336349D01*
X170936Y336337D01*
X170843Y336290D01*
X170836Y336285D01*
X170740Y336217D01*
Y336216D01*
X170650Y336139D01*
X170649Y336138D01*
X170570Y336054D01*
X170566Y336049D01*
X170496Y335963D01*
X170491Y335955D01*
X170431Y335865D01*
X170426Y335855D01*
X170376Y335762D01*
X170371Y335750D01*
X170330Y335655D01*
X170324Y335635D01*
X170293Y335543D01*
X170288Y335520D01*
X170267Y335426D01*
X170264Y335408D01*
X170252Y335311D01*
Y335310D01*
X170246Y335195D01*
X170252Y335079D01*
X170264Y334975D01*
X170288Y334866D01*
X170324Y334760D01*
X170371Y334659D01*
X170426Y334565D01*
X170491Y334477D01*
X170566Y334394D01*
X170649Y334320D01*
X170740Y334256D01*
X170836Y334201D01*
X170936Y334157D01*
X171041Y334123D01*
X171151Y334100D01*
X171261Y334089D01*
X171745D01*
X171855Y334101D01*
X171965Y334123D01*
X172074Y334159D01*
X172175Y334204D01*
X172271Y334260D01*
X172362Y334326D01*
X172446Y334402D01*
X172520Y334485D01*
X172586Y334576D01*
X172641Y334672D01*
X172686Y334775D01*
X172720Y334882D01*
X172742Y334991D01*
X172754Y335102D01*
X172753Y335203D01*
X172752Y335310D01*
X172742Y335399D01*
X172739Y335427D01*
X172720Y335521D01*
X172715Y335544D01*
X172686Y335639D01*
X172680Y335658D01*
X172641Y335751D01*
X172634Y335767D01*
X172586Y335857D01*
X172577Y335873D01*
X172520Y335957D01*
X172511Y335970D01*
X172446Y336050D01*
X172436Y336063D01*
X172351Y336147D01*
X172271Y336213D01*
X172260Y336222D01*
X172175Y336280D01*
X172159Y336291D01*
X172074Y336334D01*
X172043Y336349D01*
G37*
G36*
G01X190043Y317349D02*
X189926Y317394D01*
X189855Y317414D01*
X189808Y317427D01*
X189745Y317439D01*
X189687Y317450D01*
X189563Y317461D01*
X189441D01*
X189317Y317450D01*
X189261Y317439D01*
X189196Y317427D01*
X189151Y317414D01*
X189078Y317394D01*
X189041Y317380D01*
X188961Y317349D01*
X188936Y317337D01*
X188843Y317290D01*
X188836Y317285D01*
X188740Y317217D01*
Y317216D01*
X188650Y317139D01*
X188649Y317138D01*
X188570Y317054D01*
X188566Y317049D01*
X188496Y316963D01*
X188491Y316955D01*
X188431Y316865D01*
X188426Y316855D01*
X188376Y316762D01*
X188371Y316750D01*
X188330Y316655D01*
X188324Y316635D01*
X188293Y316543D01*
X188288Y316520D01*
X188267Y316426D01*
X188264Y316408D01*
X188252Y316311D01*
Y316310D01*
X188246Y316195D01*
X188252Y316079D01*
X188264Y315975D01*
X188288Y315866D01*
X188324Y315760D01*
X188371Y315659D01*
X188426Y315565D01*
X188491Y315477D01*
X188566Y315394D01*
X188649Y315320D01*
X188740Y315256D01*
X188836Y315201D01*
X188936Y315157D01*
X189041Y315123D01*
X189151Y315100D01*
X189261Y315089D01*
X189745D01*
X189855Y315101D01*
X189965Y315123D01*
X190074Y315159D01*
X190175Y315204D01*
X190271Y315260D01*
X190362Y315326D01*
X190446Y315402D01*
X190520Y315485D01*
X190586Y315576D01*
X190641Y315672D01*
X190686Y315775D01*
X190720Y315882D01*
X190742Y315991D01*
X190754Y316102D01*
X190753Y316203D01*
X190752Y316310D01*
X190742Y316399D01*
X190739Y316427D01*
X190720Y316521D01*
X190715Y316544D01*
X190686Y316639D01*
X190680Y316658D01*
X190641Y316751D01*
X190634Y316767D01*
X190586Y316857D01*
X190577Y316873D01*
X190520Y316957D01*
X190511Y316970D01*
X190446Y317050D01*
X190436Y317063D01*
X190351Y317147D01*
X190271Y317213D01*
X190260Y317222D01*
X190175Y317280D01*
X190159Y317291D01*
X190074Y317334D01*
X190043Y317349D01*
G37*
G36*
G01X215443Y312249D02*
X215326Y312294D01*
X215255Y312314D01*
X215208Y312327D01*
X215145Y312339D01*
X215087Y312350D01*
X214963Y312361D01*
X214841D01*
X214717Y312350D01*
X214661Y312339D01*
X214596Y312327D01*
X214551Y312314D01*
X214478Y312294D01*
X214441Y312280D01*
X214361Y312249D01*
X214336Y312237D01*
X214243Y312190D01*
X214236Y312185D01*
X214140Y312117D01*
Y312116D01*
X214050Y312039D01*
X214049Y312038D01*
X213970Y311954D01*
X213966Y311949D01*
X213896Y311863D01*
X213891Y311855D01*
X213831Y311765D01*
X213826Y311755D01*
X213776Y311662D01*
X213771Y311650D01*
X213730Y311555D01*
X213724Y311535D01*
X213693Y311443D01*
X213688Y311420D01*
X213667Y311326D01*
X213664Y311308D01*
X213652Y311211D01*
Y311210D01*
X213646Y311095D01*
X213652Y310979D01*
X213664Y310875D01*
X213688Y310766D01*
X213724Y310660D01*
X213771Y310559D01*
X213826Y310465D01*
X213891Y310377D01*
X213966Y310294D01*
X214049Y310220D01*
X214140Y310156D01*
X214236Y310101D01*
X214336Y310057D01*
X214441Y310023D01*
X214551Y310000D01*
X214661Y309989D01*
X215145D01*
X215255Y310001D01*
X215365Y310023D01*
X215474Y310059D01*
X215575Y310104D01*
X215671Y310160D01*
X215762Y310226D01*
X215846Y310302D01*
X215920Y310385D01*
X215986Y310476D01*
X216041Y310572D01*
X216086Y310675D01*
X216120Y310782D01*
X216142Y310891D01*
X216154Y311002D01*
X216153Y311103D01*
X216152Y311210D01*
X216142Y311299D01*
X216139Y311327D01*
X216120Y311421D01*
X216115Y311444D01*
X216086Y311539D01*
X216080Y311558D01*
X216041Y311651D01*
X216034Y311667D01*
X215986Y311757D01*
X215977Y311773D01*
X215920Y311857D01*
X215911Y311870D01*
X215846Y311950D01*
X215836Y311963D01*
X215751Y312047D01*
X215671Y312113D01*
X215660Y312122D01*
X215575Y312180D01*
X215559Y312191D01*
X215474Y312234D01*
X215443Y312249D01*
G37*
G36*
G01X215243Y319449D02*
X215126Y319494D01*
X215055Y319514D01*
X215008Y319527D01*
X214945Y319539D01*
X214887Y319550D01*
X214763Y319561D01*
X214641D01*
X214517Y319550D01*
X214461Y319539D01*
X214396Y319527D01*
X214351Y319514D01*
X214278Y319494D01*
X214241Y319480D01*
X214161Y319449D01*
X214136Y319437D01*
X214043Y319390D01*
X214036Y319385D01*
X213940Y319317D01*
Y319316D01*
X213850Y319239D01*
X213849Y319238D01*
X213770Y319154D01*
X213766Y319149D01*
X213696Y319063D01*
X213691Y319055D01*
X213631Y318965D01*
X213626Y318955D01*
X213576Y318862D01*
X213571Y318850D01*
X213530Y318755D01*
X213524Y318735D01*
X213493Y318643D01*
X213488Y318620D01*
X213467Y318526D01*
X213464Y318508D01*
X213452Y318411D01*
Y318410D01*
X213446Y318295D01*
X213452Y318179D01*
X213464Y318075D01*
X213488Y317966D01*
X213524Y317860D01*
X213571Y317759D01*
X213626Y317665D01*
X213691Y317577D01*
X213766Y317494D01*
X213849Y317420D01*
X213940Y317356D01*
X214036Y317301D01*
X214136Y317257D01*
X214241Y317223D01*
X214351Y317200D01*
X214461Y317189D01*
X214945D01*
X215055Y317201D01*
X215165Y317223D01*
X215274Y317259D01*
X215375Y317304D01*
X215471Y317360D01*
X215562Y317426D01*
X215646Y317502D01*
X215720Y317585D01*
X215786Y317676D01*
X215841Y317772D01*
X215886Y317875D01*
X215920Y317982D01*
X215942Y318091D01*
X215954Y318202D01*
X215953Y318303D01*
X215952Y318410D01*
X215942Y318499D01*
X215939Y318527D01*
X215920Y318621D01*
X215915Y318644D01*
X215886Y318739D01*
X215880Y318758D01*
X215841Y318851D01*
X215834Y318867D01*
X215786Y318957D01*
X215777Y318973D01*
X215720Y319057D01*
X215711Y319070D01*
X215646Y319150D01*
X215636Y319163D01*
X215551Y319247D01*
X215471Y319313D01*
X215460Y319322D01*
X215375Y319380D01*
X215359Y319391D01*
X215274Y319434D01*
X215243Y319449D01*
G37*
G36*
G01X194043Y317349D02*
X193926Y317394D01*
X193855Y317414D01*
X193808Y317427D01*
X193745Y317439D01*
X193687Y317450D01*
X193563Y317461D01*
X193441D01*
X193317Y317450D01*
X193261Y317439D01*
X193196Y317427D01*
X193151Y317414D01*
X193078Y317394D01*
X193041Y317380D01*
X192961Y317349D01*
X192936Y317337D01*
X192843Y317290D01*
X192836Y317285D01*
X192740Y317217D01*
Y317216D01*
X192650Y317139D01*
X192649Y317138D01*
X192570Y317054D01*
X192566Y317049D01*
X192496Y316963D01*
X192491Y316955D01*
X192431Y316865D01*
X192426Y316855D01*
X192376Y316762D01*
X192371Y316750D01*
X192330Y316655D01*
X192324Y316635D01*
X192293Y316543D01*
X192288Y316520D01*
X192267Y316426D01*
X192264Y316408D01*
X192252Y316311D01*
Y316310D01*
X192246Y316195D01*
X192252Y316079D01*
X192264Y315975D01*
X192288Y315866D01*
X192324Y315760D01*
X192371Y315659D01*
X192426Y315565D01*
X192491Y315477D01*
X192566Y315394D01*
X192649Y315320D01*
X192740Y315256D01*
X192836Y315201D01*
X192936Y315157D01*
X193041Y315123D01*
X193151Y315100D01*
X193261Y315089D01*
X193745D01*
X193855Y315101D01*
X193965Y315123D01*
X194074Y315159D01*
X194175Y315204D01*
X194271Y315260D01*
X194362Y315326D01*
X194446Y315402D01*
X194520Y315485D01*
X194586Y315576D01*
X194641Y315672D01*
X194686Y315775D01*
X194720Y315882D01*
X194742Y315991D01*
X194754Y316102D01*
X194753Y316203D01*
X194752Y316310D01*
X194742Y316399D01*
X194739Y316427D01*
X194720Y316521D01*
X194715Y316544D01*
X194686Y316639D01*
X194680Y316658D01*
X194641Y316751D01*
X194634Y316767D01*
X194586Y316857D01*
X194577Y316873D01*
X194520Y316957D01*
X194511Y316970D01*
X194446Y317050D01*
X194436Y317063D01*
X194351Y317147D01*
X194271Y317213D01*
X194260Y317222D01*
X194175Y317280D01*
X194159Y317291D01*
X194074Y317334D01*
X194043Y317349D01*
G37*
G54D17*
X60958Y21344D03*
X50958D03*
X103242D03*
X93242D03*
G54D63*
X355667Y113000D03*
Y118000D03*
Y123000D03*
Y128000D03*
X375333Y113000D03*
Y118000D03*
Y123000D03*
Y128000D03*
X376333Y254000D03*
Y249000D03*
Y244000D03*
Y239000D03*
X356667Y254000D03*
Y249000D03*
Y244000D03*
Y239000D03*
G54D27*
X110000Y327421D03*
Y317579D03*
G54D45*
X162000Y369000D03*
X257400Y357200D03*
X290500Y342500D03*
X359000Y77500D03*
X353000Y335500D03*
G54D36*
X146001Y319945D03*
Y324944D03*
Y329945D03*
Y334944D03*
X124001D03*
Y329945D03*
Y324944D03*
Y319945D03*
X220000Y380500D03*
Y375500D03*
Y370500D03*
Y365500D03*
X242000D03*
Y370500D03*
Y375500D03*
Y380500D03*
G54D18*
X46401Y50990D03*
X107799D03*
G54D54*
X323000Y20679D03*
G54D55*
Y7293D03*
G54D28*
X105900Y348000D03*
X109100D03*
X131900Y343000D03*
X135100D03*
X123400Y343000D03*
X126600D03*
X132000Y350600D03*
Y347400D03*
X117500Y328600D03*
Y325400D03*
Y316900D03*
Y320100D03*
X114000Y344900D03*
Y348100D03*
X112400Y366000D03*
X115600D03*
X169600Y326000D03*
X166400D03*
X156600Y334500D03*
X153400D03*
X156600Y330000D03*
X153400D03*
X156600Y316000D03*
X153400D03*
X169600Y330500D03*
X166400D03*
X156600Y320000D03*
X153400D03*
X166500Y342900D03*
Y346100D03*
X171000Y342900D03*
Y346100D03*
X166500Y338600D03*
Y335400D03*
X166900Y350500D03*
X170100D03*
X174000Y369600D03*
Y366400D03*
X166900Y355000D03*
X170100D03*
X210600Y315500D03*
X207400D03*
X210600Y320000D03*
X207400D03*
X202500Y320100D03*
Y316900D03*
X210900Y375500D03*
X214100D03*
X219300Y355900D03*
X222500D03*
X210800Y381500D03*
X214000D03*
X251100Y370500D03*
X247900D03*
X251100Y380000D03*
X247900D03*
X269500Y379600D03*
Y376400D03*
X265500D03*
Y379600D03*
X273500Y376400D03*
Y379600D03*
X280500Y361400D03*
Y364600D03*
X280600Y372300D03*
Y369100D03*
X282600Y353000D03*
X279400D03*
X350000Y108900D03*
X350000Y118900D03*
Y122100D03*
X350000Y129600D03*
Y126400D03*
X350000Y112100D03*
X346000Y229900D03*
X350400Y229500D03*
X346000Y233100D03*
X345900Y247500D03*
X349100D03*
X350400Y233500D03*
X349100Y238000D03*
X345900D03*
X349100Y251500D03*
X345900D03*
Y242000D03*
X349100D03*
X339500Y328400D03*
Y331600D03*
X340000Y382600D03*
Y379400D03*
X344000D03*
Y382600D03*
X334000Y379400D03*
Y382600D03*
X350400Y357100D03*
X353900Y103500D03*
X357100D03*
X357100Y107500D03*
X353900D03*
X364900Y72000D03*
X368100D03*
X386000Y133900D03*
Y137100D03*
X386100Y120000D03*
X382900D03*
X378900Y134000D03*
X382100D03*
X382900Y129500D03*
X386100D03*
X382100Y138000D03*
X378900D03*
X382900Y116000D03*
X386100D03*
Y124500D03*
X382900D03*
X353600Y229500D03*
X382500Y245100D03*
Y241900D03*
X378600Y264500D03*
X375400D03*
X353600Y233500D03*
X372900Y233000D03*
X376100D03*
X382500Y257100D03*
Y253900D03*
X375400Y260000D03*
X378600D03*
X355600Y366500D03*
X352400D03*
X355600Y371500D03*
X352400D03*
X353600Y357100D03*
G54D64*
X377937Y153220D03*
Y180780D03*
G54D46*
X179500Y372550D03*
Y369450D03*
G54D19*
X54600Y38982D03*
X99600D03*
G54D37*
X137906Y372500D03*
X126094D03*
X257094Y346000D03*
X268906D03*
X326094Y350500D03*
X337906D03*
G54D65*
G01X10000Y0D02*
X383701D01*
G03X393701Y10000I0J10000D01*
G01Y383701D01*
G03X383701Y393701I-10000J0D01*
G01X10000D01*
G03X0Y383701I0J-10000D01*
G01Y10000D01*
G03X10000Y0I10000J0D01*
G01X25685Y19685D02*
G03I-6000J0D01*
G01Y374016D02*
G03I-6000J0D01*
G01X93537Y289008D02*
G03X89537Y285008I0J-4000D01*
G01Y142850D01*
G03X93537Y138850I4000J0D01*
G01X100163D01*
G03X104163Y142850I0J4000D01*
G01Y285008D01*
G03X100163Y289008I-4000J0D01*
G01X93537D01*
G01D02*
X100163D01*
G02X104163Y285008I0J-4000D01*
G01Y142850D01*
G01X93537Y138850D02*
G02X89537Y142850I0J4000D01*
G01D02*
Y285008D01*
G02X93537Y289008I4000J0D01*
G01X100163Y138850D02*
X93537D01*
G01X104163Y142850D02*
G02X100163Y138850I-4000J0D01*
G01X193537Y289008D02*
G03X189537Y285008I0J-4000D01*
G01Y142850D01*
G03X193537Y138850I4000J0D01*
G01X200163D01*
G03X204163Y142850I0J4000D01*
G01Y285008D01*
G03X200163Y289008I-4000J0D01*
G01X193537D01*
G01D02*
X200163D01*
G02X204163Y285008I0J-4000D01*
G01Y142850D01*
G01X193537Y138850D02*
G02X189537Y142850I0J4000D01*
G01D02*
Y285008D01*
G02X193537Y289008I4000J0D01*
G01X200163Y138850D02*
X193537D01*
G01X204163Y142850D02*
G02X200163Y138850I-4000J0D01*
G01X293537Y289008D02*
G03X289537Y285008I0J-4000D01*
G01Y142850D01*
G03X293537Y138850I4000J0D01*
G01X300163D01*
G03X304163Y142850I0J4000D01*
G01Y285008D01*
G03X300163Y289008I-4000J0D01*
G01X293537D01*
G01D02*
X300163D01*
G02X304163Y285008I0J-4000D01*
G01Y142850D01*
G01X293537Y138850D02*
G02X289537Y142850I0J4000D01*
G01D02*
Y285008D01*
G02X293537Y289008I4000J0D01*
G01X300163Y138850D02*
X293537D01*
G01X304163Y142850D02*
G02X300163Y138850I-4000J0D01*
G01X380016Y19685D02*
G03I-6000J0D01*
G01Y374016D02*
G03I-6000J0D01*
G54D56*
X323000Y42726D03*
G54D29*
X102187Y358965D03*
X131714D03*
G54D47*
X170850Y376500D03*
X164150D03*
G54D38*
X111250Y377500D03*
X116750D03*
X111250Y371500D03*
X116750D03*
X284250Y340500D03*
X278750D03*
X284250Y347000D03*
X278750D03*
X349750Y346500D03*
Y352500D03*
X355250Y346500D03*
Y352500D03*
G54D57*
X350000Y46000D03*
Y56000D03*
Y66000D03*
Y76000D03*
G54D39*
X145500Y382200D03*
Y375800D03*
X154500Y361800D03*
Y368200D03*
Y382200D03*
Y375800D03*
X239500Y352300D03*
Y339300D03*
Y345700D03*
X248500Y334300D03*
Y340700D03*
X239500Y358700D03*
X309000Y348300D03*
X293500D03*
X301500D03*
X309000Y354700D03*
X293500D03*
X301500D03*
X366500Y59800D03*
Y66200D03*
G54D48*
X220457Y10207D03*
X277543D03*
G54D58*
X344800Y310000D03*
X351200D03*
X344800Y325500D03*
X351200D03*
X344800Y318000D03*
X351200D03*
G54D49*
X220457Y33671D03*
X277543D03*
G54D59*
X367500Y48250D03*
Y42750D03*
X362000Y48250D03*
Y42750D03*
M02*
